<svg xmlns="http://www.w3.org/2000/svg" width="227.555" height="263.177" viewBox="0 0 227.555 263.177">
  <g id="sewing-01" transform="translate(-4.75 -4.679)">
    <path id="Trazado_108758" data-name="Trazado 108758" d="M117.774,164.273c-.5,4.24,1.536,4.732,1.244,7.475s-6.722.246-10.954,3.733a19.274,19.274,0,0,1-14.7,4.233c-4.724-.768,4.986-8.45,4.986-8.45l11.953-7.221s-.254-4.479-.768-11.2-6.968-29.138-5.723-45.815,5.723-22.908,5.723-22.908l15.687,13.443s-.246,2.988-3.234,20.664-1.244,6.722.768,12.7S118.274,160.079,117.774,164.273Z" transform="translate(-20.242 -18.415)" fill="#a767c8"/>
    <path id="Trazado_108759" data-name="Trazado 108759" d="M146.044,184.217a16.016,16.016,0,0,0,1,3.234c.768,1.744-2,6.975-4.986,9.71s-6.222,6.23-10.954,6.729-4.479-2.742-3.48-3.741,10.7-12.944,10.7-12.944a53.367,53.367,0,0,0,1-21.663c-1.99-11.454-3.987-13.2-6.975-19.42s-7.467-46.314-7.467-46.314L149.032,83.13s4.486,3.979,4.978,15.433-6.967,26.887-9.218,36.6,1.252,13.159,3.995,19.166S146.044,184.217,146.044,184.217Z" transform="translate(-27.847 -18.185)" fill="#a767c8"/>
    <path id="Trazado_108760" data-name="Trazado 108760" d="M113.261,40.092s1,9.088-.246,13.827-4.233,8.719-1.99,10.709,1.744,6.975,1.744,6.975l-2.243,10.209s11.454,9.987,23.153,6.468S149.12,77.826,149.12,77.826s.5-5.477-1.99-8.22-3.488-2.973-3.488-2.973S141.9,61.9,141.9,58.952s6.722-12.7,4.732-16.9-11.707-10.463-19.2-9.71c-2.2.215-4.11.361-5.761.645C117.732,33.6,115.2,35,113.261,40.092Z" transform="translate(-24.447 -6.398)" fill="#fc62a2"/>
    <path id="Trazado_108761" data-name="Trazado 108761" d="M128.291,53.707s6.852-5.331,8.842-10.832c3.733-10.332.23-11.423-2.243-12.829C124.527,24.2,124.3,33.665,123.436,36.9,121.07,45.71,128.291,53.707,128.291,53.707Z" transform="translate(-27.402 -5.448)" fill="#fd8e79"/>
    <path id="Trazado_108762" data-name="Trazado 108762" d="M117.472,206.717c-.292,3.15-7.682.284-12.575,4.287A22.225,22.225,0,0,1,88,215.866c-5.462-.86,5.715-9.718,5.715-9.718l13.728-8.289s.768,3.572,4.21,2.5,4.363-2.212,4.363-2.212C115.467,203.007,117.756,203.575,117.472,206.717Z" transform="translate(-18.948 -44.78)" fill="#fc62a2"/>
    <path id="Trazado_108763" data-name="Trazado 108763" d="M90.576,216.3a18.951,18.951,0,0,1-3.073-.238c-1.606-.254-2.151-1.091-2.3-1.759-.768-2.888,5.016-7.859,7.536-9.864l15.126-9.142.315,1.467A2.889,2.889,0,0,0,109.3,198.4a2.143,2.143,0,0,0,1.721.061c2.973-.93,3.841-1.9,3.841-1.9l2.259-2.489-.376,3.319a8.227,8.227,0,0,0,.7,4.8,7.09,7.09,0,0,1,.768,3.749c-.223,2.42-2.789,2.6-5.278,2.773s-5.423.384-7.682,2.243A23.637,23.637,0,0,1,90.576,216.3Zm-3.242-2.55a1.252,1.252,0,0,0,.584.184,21.337,21.337,0,0,0,16.017-4.609c2.789-2.3,6.322-2.543,8.9-2.727,1.951-.138,3.234-.269,3.28-.83a5,5,0,0,0-.568-2.719,9.987,9.987,0,0,1-.937-3.664,17.477,17.477,0,0,1-2.888,1.152,4.164,4.164,0,0,1-3.457-.261,4.394,4.394,0,0,1-1.606-1.69l-12.637,7.636C90.315,209.121,87.012,212.832,87.335,213.746Z" transform="translate(-18.632 -43.904)" fill="#b53e77"/>
    <path id="Trazado_108764" data-name="Trazado 108764" d="M142.705,227.657c-2.988,2.742-6.222,6.23-10.954,6.729s-4.479-2.742-3.48-3.741,10.7-12.944,10.7-12.944,1.744,1.744,4.548.061,3.173-3.073,3.173-3.073a16.018,16.018,0,0,0,1,3.234C148.436,219.691,145.694,224.915,142.705,227.657Z" transform="translate(-28.495 -48.682)" fill="#fc62a2"/>
    <path id="Trazado_108765" data-name="Trazado 108765" d="M183.95,88.16v75.621l79.716,46.33V134.49Z" transform="translate(-41.54 -19.351)" fill="#98c4da"/>
    <path id="Trazado_108766" data-name="Trazado 108766" d="M287.72,147.712v75.621l4.356-2.52V145.2Z" transform="translate(-65.594 -32.574)" fill="#7a9dc2"/>
    <g id="Grupo_124637" data-name="Grupo 124637" transform="translate(4.75 60.558)">
      <path id="Trazado_108767" data-name="Trazado 108767" d="M10.1,188.53v75.613l79.723,46.33V234.86Z" transform="translate(-5.99 -103.176)" fill="#98c4da"/>
      <path id="Trazado_108768" data-name="Trazado 108768" d="M113.88,248.08v75.613l4.356-2.512V245.56Z" transform="translate(-30.047 -116.396)" fill="#7a9dc2"/>
      <path id="Trazado_108769" data-name="Trazado 108769" d="M4.75,188.53v4.632l79.723,46.33V234.86Z" transform="translate(-4.75 -103.176)" fill="#7a9dc2"/>
      <path id="Trazado_108770" data-name="Trazado 108770" d="M108.53,223.084v4.632L256.361,142.37v-4.64Z" transform="translate(-28.807 -91.4)" fill="#557999"/>
      <path id="Trazado_108771" data-name="Trazado 108771" d="M4.75,162.774,84.473,209.1,232.3,123.75,152.574,77.42Z" transform="translate(-4.75 -77.42)" fill="#98c4da"/>
    </g>
    <path id="Trazado_108772" data-name="Trazado 108772" d="M209.345,121.214,76.417,197.965,16.69,163.48,149.618,86.73l7.8,4.5-32.111,18.406,42.98-11.477Z" transform="translate(-2.768 -19.02)" fill="#4e2567"/>
    <path id="Trazado_108773" data-name="Trazado 108773" d="M82.1,151.439a5.128,5.128,0,0,1-.138,3.165,7.8,7.8,0,0,1-2,2.09s16.462,1,16.063,1.237-18.076.384-18.076.384a9.472,9.472,0,0,1-4.947,2.858,69.757,69.757,0,0,1-8.7,1.467l4.018,6.184s10.04-.23,14.457,1.237,5.485,2.858,5.485,2.858l70.812-40.883-24.091-13.9s-19.681,11.976-22.093,13.981-8.7,7.813-12.583,10.67S82.1,151.439,82.1,151.439Z" transform="translate(-13.802 -26.299)" fill="#fddaa5"/>
    <path id="Trazado_108774" data-name="Trazado 108774" d="M119.18,117.812l2.366-.622s5.977,1.052,6.476,1.867a8.2,8.2,0,0,0,2.3,2.174c.5.254.768.622-.561.622a4.371,4.371,0,0,1-2.235-.622l-7.16-1.805s5.477,2.059,5.977,2.927a3.342,3.342,0,0,0,2.051,1.682c.814.184.814.937-.184,1.122s-1.06-.123-1.06-.123,1.429,1.122.5,1.244-1.867-.254-3.426-.814a7.359,7.359,0,0,1-3.073-2.174l-3.918-2.12s3.672,2.681,4.11,3.672A7.06,7.06,0,0,0,123.4,127.4c.376.123.561.684-.684.684a5.331,5.331,0,0,1-3.3-1.682c-.184-.438-3.795-2.742-5.1-3.733s-.061-4.794-.061-4.794Z" transform="translate(-25.258 -26.081)" fill="#fbab79"/>
    <path id="Trazado_108775" data-name="Trazado 108775" d="M138.173,121.992c.983-.768,7.244-10.025,7.244-10.025l-1.536-1.367-6.345,10.14-14.6,10.8a9.072,9.072,0,0,0,3.718-1.244C130.945,127.861,137.513,122.5,138.173,121.992Z" transform="translate(-27.397 -24.553)" fill="#98c4da"/>
    <path id="Trazado_108776" data-name="Trazado 108776" d="M138.571,122.184c.976-.768,7.236-9.987,7.236-9.987l-1.536-1.367-6.345,10.117L123,131.625a8.673,8.673,0,0,0,4.064-1.129C131.343,128.061,137.911,122.7,138.571,122.184Z" transform="translate(-27.411 -24.606)" fill="#7a9dc2"/>
    <path id="Trazado_108777" data-name="Trazado 108777" d="M142.928,118.978c-.077-.077-4.8,2.689-4.8,2.689l-15.687,6.991s7.451-4.609,11.4-6.7a69.134,69.134,0,0,0,8.112-5.308l2.059.515Z" transform="translate(-27.281 -25.956)" fill="#d4f6ff"/>
    <path id="Trazado_108778" data-name="Trazado 108778" d="M143.273,119.165c-.069-.077-4.8,2.681-4.8,2.681l-16.032,7s7.8-4.609,11.753-6.706a69.135,69.135,0,0,0,8.112-5.308l2.059.522Z" transform="translate(-27.281 -25.997)" fill="#557999"/>
    <path id="Trazado_108779" data-name="Trazado 108779" d="M156.841,114.107c-.768-.522-3.119,1.759-5.47,1.828,0,0-3.019.292-3.7,2.8s1.89,4.118,3.841,3.664C154.66,121.689,158.831,115.436,156.841,114.107Zm-5.231,6.146c-1.536.361-2.527-.461-2.5-1.183a.9.9,0,0,1,.046-.269,1.536,1.536,0,0,1,1.406-1.022,9.779,9.779,0,0,0,3.933-1.421c.361-.192,1.037-.976,1.1-.269a3.188,3.188,0,0,1-.453,1.4,5.877,5.877,0,0,1-3.526,2.8Z" transform="translate(-33.106 -25.348)" fill="#b53e77"/>
    <path id="Trazado_108780" data-name="Trazado 108780" d="M157.027,114.854c-.269-.9-3.119,1.759-5.462,1.836,0,0-1.944-.046-2.62,2.466s1.1,3.618,3.073,3.165C155.137,121.614,157.865,117.643,157.027,114.854Zm-4.77,5.9c-1.536.353-2.535-.461-2.512-1.183a2.312,2.312,0,0,1,.046-.277,1.536,1.536,0,0,1,1.413-1.022,9.633,9.633,0,0,0,3.933-1.421c.353-.192,1.037-.968,1.1-.261a3.073,3.073,0,0,1-.461,1.4,5.861,5.861,0,0,1-3.518,2.765Z" transform="translate(-33.391 -25.496)" fill="#fb4ea1"/>
    <path id="Trazado_108781" data-name="Trazado 108781" d="M154.353,104.574c-1.921-.592-5.162,3.925-5.769,4.978s-.853,1.682.914,2.412a5.07,5.07,0,0,0,4.34-.615C155.375,109.99,157.8,105.657,154.353,104.574Zm-1.314,4.363c-1.068.822-2.051.814-2.182,0s.215-1.49,1.283-2.3,2.113-.707,2.251.138-.284,1.337-1.352,2.166Z" transform="translate(-33.237 -23.144)" fill="#b53e77"/>
    <path id="Trazado_108782" data-name="Trazado 108782" d="M155.034,104.988c-1.928-.538-5.377,4.54-6.015,5.592s-.161,1.052,1.613,1.782c1.268.522,3.073-.307,3.918-1.075C156.086,109.912,157.692,105.756,155.034,104.988Zm-1.536,4.97c-1.068.83-2.051.814-2.182,0a3.993,3.993,0,0,1,1.69-3.027c1.068-.83,2.043-.814,2.182,0s-.645,2.182-1.713,3.011Z" transform="translate(-33.38 -23.243)" fill="#fb4ea1"/>
    <path id="Trazado_108783" data-name="Trazado 108783" d="M205.7,110.678s-7.628-3.587-12.237-3.695-34.415,5.685-34.415,5.685,36.989-11.792,41.6-11.469S205.7,110.678,205.7,110.678Z" transform="translate(-35.768 -22.372)" fill="#734393"/>
    <path id="Trazado_108784" data-name="Trazado 108784" d="M111.539,50.337l.768-15.187S99.855,38.392,97.865,45.859s-.5,7.467-4.486,13.7-8.212,9.456-6.222,17.177,11.208,20.918,13.2,21.917,7.72,4.978,7.72,4.978,7.221-3.426,7.682-4.671-9.841-3.918-10.832-4.417-5.854-9.587-5.854-12.829-1.974-7.5-1.974-7.5,7.221-20.918,11.7-22.162S111.539,50.337,111.539,50.337Z" transform="translate(-18.985 -7.063)" fill="#fbab79"/>
    <path id="Trazado_108785" data-name="Trazado 108785" d="M161.743,56.242s-3.357-15.687-8.212-15.5S148.3,49.7,148.3,49.7s1.49,4.486,3.549,5.792,7.1,15.5,7.1,15.5a5.8,5.8,0,0,0-2.243,4.1c0,2.428.93,6.353.768,8.78A39.946,39.946,0,0,1,155.79,90.8a9.156,9.156,0,0,1-1.867.438c-.561,0-1.775,1.46-2.3,2.212a13.459,13.459,0,0,0-1.091,3.073,10.223,10.223,0,0,0,1.974.4c.407-1.321.93-2.627,3.2-2.474.592.046-1,3.841-1,3.841l-2.235,2.988a3.01,3.01,0,0,0-2.427.768c-.745.96-.937,0,1.675,1.122s4.863-1.867,5.416-2.243,2.8-1.122,2.988-3.918a51.138,51.138,0,0,1,.561-6.729c.369-1.5,5.608-13.259,5.977-18.114S161.743,56.242,161.743,56.242Z" transform="translate(-33.276 -8.359)" fill="#fbab79"/>
    <path id="Trazado_108786" data-name="Trazado 108786" d="M123.612,21l-2.243,1.114-.622-1.99-.254-4.11S119.5,4.557,130.58,4.68s8.588,14.941,8.588,14.941-1.613,4.233-1.99,4.356a37.711,37.711,0,0,1-9.833-.622C123.95,22.486,123.612,21,123.612,21Z" transform="translate(-26.825 0)" fill="#4e2567"/>
    <path id="Trazado_108787" data-name="Trazado 108787" d="M120.048,19.018s-1.613-2.366-1.49-.868a12.782,12.782,0,0,0,.768,4.356,5.577,5.577,0,0,1,.622,1.867s.23,6.606,1.252,8.22,3.611,6.468,4.732,7.344,3.488.768,4.11.123,5.854-5.377,6.6-7.467,1.46-5.108,1.46-5.108,2.243-2.366,2.366-4.233.5-3.111-.369-2.113-2.766,6-2.766,6-.123-4.233-1.867-4.609c-1.9-.407-2.735,1.867-6.6,2.243s-5.854-3.111-6.722-3.365-1.367,1.744-1.367,1.744Z" transform="translate(-26.38 -3.008)" fill="#fbab79"/>
    <path id="Trazado_108788" data-name="Trazado 108788" d="M146.936,45.017a6.468,6.468,0,0,0,.5,5.854c1.867,2.865,6.222,6.222,6.476,8.842a11.653,11.653,0,0,0,1.49,4.609s8.1.254,8.965-3.234-4.609-26.641-14.311-22.04C145.1,41.376,146.936,45.017,146.936,45.017Z" transform="translate(-32.849 -7.827)" fill="#fc62a2"/>
    <path id="Trazado_108789" data-name="Trazado 108789" d="M114.652,40.939l-.768-6.6s-9.687,3.242-12.406,6.1S97.1,50.9,97.1,52.27s-3.979,8.965-3.979,8.965,1.114,5.977,5.846,6.345a5.569,5.569,0,0,0,5.977-3.611s2-9.456,4.356-10.209,4.855-1.736,4.855-1.736Z" transform="translate(-20.485 -6.876)" fill="#fc62a2"/>
    <path id="Trazado_108790" data-name="Trazado 108790" d="M96.7,210.944a.276.276,0,0,1-.23-.138.269.269,0,0,1,.1-.369l3.764-2.182a.27.27,0,1,1,.269.469l-3.726,2.151a.315.315,0,0,1-.177.069Zm-3.718-.115a.314.314,0,0,1-.138,0l-3.726-2.151a.27.27,0,0,1,.269-.469l3.726,2.151a.246.246,0,0,1-.131.469Zm11.193-4.187a.272.272,0,0,1-.131-.507l3.726-2.151a.277.277,0,0,1,.369.1.284.284,0,0,1-.1.369l-3.726,2.151A.284.284,0,0,1,104.174,206.642Zm-18.621-.115a.314.314,0,0,1-.138-.038l-3.726-2.151a.27.27,0,0,1,.269-.469l3.726,2.151a.269.269,0,0,1,.1.369.277.277,0,0,1-.254.138Zm-1.536-3.4a.277.277,0,0,1-.23-.138.269.269,0,0,1,.1-.369l3.726-2.151a.277.277,0,0,1,.369.1.284.284,0,0,1-.1.369l-3.726,2.151a.315.315,0,0,1-.2.038Zm27.655-.768a.277.277,0,0,1-.23-.138.269.269,0,0,1,.1-.369l2.535-1.46-.376-.223a.27.27,0,1,1,.269-.469l1.183.691-3.342,1.928a.315.315,0,0,1-.207.015Zm-20.2-3.511a.269.269,0,0,1-.131-.507l3.726-2.151a.261.261,0,0,1,.361.1.269.269,0,0,1-.092.369l-3.726,2.151a.315.315,0,0,1-.207.015Zm18.629-.768a.262.262,0,0,1-.131,0l-3.726-2.151a.27.27,0,1,1,.269-.469l3.726,2.151a.236.236,0,1,1-.207.423Zm-11.177-3.511a.269.269,0,0,1-.131-.507l2.681-1.536,1.314.768a.284.284,0,0,1,.1.369.277.277,0,0,1-.369.1l-1.045-.607-2.412,1.4a.315.315,0,0,1-.207-.031Z" transform="translate(-17.803 -43.545)" fill="#d4f6ff"/>
    <path id="Trazado_108791" data-name="Trazado 108791" d="M148.51,174.22l-.615-.384a.271.271,0,0,1,.284-.461l.346.215,3.073-1.782a.267.267,0,1,1,.269.461Zm-4.118-2.627a.315.315,0,0,1-.146-.038l-3.987-2.5,2.435-1.705a.269.269,0,1,1,.307.438l-1.775,1.244,3.3,2.066a.254.254,0,0,1,.085.369.269.269,0,0,1-.215.123Zm11.085-1.437a.254.254,0,0,1-.23-.138.261.261,0,0,1,.1-.361l3.726-2.151a.267.267,0,1,1,.269.461l-3.726,2.151a.315.315,0,0,1-.131.038Zm7.451-4.3a.253.253,0,0,1-.23-.138.261.261,0,0,1,.1-.361l3.726-2.151a.261.261,0,0,1,.361.092.269.269,0,0,1-.092.369l-3.726,2.151a.315.315,0,0,1-.131.038Zm-16.555-.484a.284.284,0,0,1-.223-.108.269.269,0,0,1,.054-.384l3.526-2.466a.277.277,0,0,1,.376.061.269.269,0,0,1-.069.376l-3.526,2.466a.277.277,0,0,1-.131.054Zm24.006-3.841a.253.253,0,0,1-.23-.138.261.261,0,0,1,.1-.361l3.726-2.151a.261.261,0,0,1,.361.092.269.269,0,0,1-.092.369l-3.726,2.151a.315.315,0,0,1-.131.061Zm-16.954-1.106a.292.292,0,0,1-.223-.115.269.269,0,0,1,.069-.376l3.526-2.466a.277.277,0,0,1,.376.069.269.269,0,0,1-.069.369l-3.526,2.466a.238.238,0,0,1-.146.077Zm24.406-3.2a.254.254,0,0,1-.23-.138.261.261,0,0,1,.1-.361l3.718-2.151a.267.267,0,1,1,.269.461l-3.718,2.151a.315.315,0,0,1-.131.061Zm-17.354-1.736a.292.292,0,0,1-.223-.115.269.269,0,0,1,.069-.376l3.549-2.412a.269.269,0,0,1,.307.438l-3.526,2.466a.238.238,0,0,1-.169.023Zm24.8-2.566a.254.254,0,0,1-.23-.138.261.261,0,0,1,.092-.361l3.733-2.151a.253.253,0,0,1,.361.092.269.269,0,0,1-.092.369l-3.733,2.151a.262.262,0,0,1-.123.061Zm-17.753-2.366a.269.269,0,0,1-.154-.492L170.9,147.6a.269.269,0,0,1,.376.069.261.261,0,0,1-.069.369l-3.488,2.489a.246.246,0,0,1-.177.054Zm25.2-1.936a.269.269,0,0,1-.138-.5l3.726-2.151a.269.269,0,1,1,.269.461l-3.726,2.151a.261.261,0,0,1-.123.061Zm-18.152-2.95a.246.246,0,0,1-.215-.115.269.269,0,0,1,.062-.376l3.526-2.466a.271.271,0,0,1,.307.446l-3.526,2.466a.276.276,0,0,1-.154.046Zm25.612-1.306a.254.254,0,0,1-.23-.138.261.261,0,0,1,.1-.361l3.718-2.151a.277.277,0,0,1,.369.092.269.269,0,0,1-.1.369l-3.718,2.151a.315.315,0,0,1-.138.015Zm-18.475-3.5a.277.277,0,0,1-.246-.146.269.269,0,0,1,.131-.361,22.063,22.063,0,0,1,4.087-1.483.261.261,0,0,1,.323.192.269.269,0,0,1-.192.33,21.387,21.387,0,0,0-3.987,1.444.307.307,0,0,1-.115,0Zm20.956-.615a25.781,25.781,0,0,0-4.179-1.2.269.269,0,0,1-.215-.315.261.261,0,0,1,.323-.207,23.734,23.734,0,0,1,4.171,1.206.269.269,0,0,1-.1.515Zm-12.683-1.613a.269.269,0,1,1,0-.538,30.343,30.343,0,0,1,4.34-.108.269.269,0,0,1,.253.277.277.277,0,0,1-.284.261,29.188,29.188,0,0,0-4.256.108Z" transform="translate(-31.412 -30.897)" fill="#d4f6ff"/>
    <path id="Trazado_108792" data-name="Trazado 108792" d="M130.23,25.474s8.45-1,9.587,3.733.568,6.261,2.235,7.1c2,.991,3.841-.876,3.841-.876s-4.233.123-3.111-3.979.269-9.679-3.365-10.463C133.126,19.62,130.23,25.474,130.23,25.474Z" transform="translate(-29.087 -3.732)" fill="#4e2567"/>
  </g>
</svg>
