<svg xmlns="http://www.w3.org/2000/svg" width="292.15" height="332.797" viewBox="0 0 292.15 332.797">
  <g id="pattern-01" transform="translate(-3.82 -9.876)">
    <path id="Trazado_108718" data-name="Trazado 108718" d="M220.387,201.334s-8.58,10.849-11.293,12.19-7.673,2.712-8.58,7.229-.562,5.641,2.712,5.868,11.293-1.124,14.567-5.641,4.182-6.1,7.456-6.549,9.7-1.7,8.462-7.791-8.127-10.05-8.127-10.05Z" transform="translate(-2.697 -2.565)" fill="#a3c8d8"/>
    <path id="Trazado_108719" data-name="Trazado 108719" d="M203.927,228.008h-.848a4.843,4.843,0,0,1-3.708-1.5c-.986-1.272-.838-3.1-.256-6.026.888-4.458,5.089-6.3,7.89-7.525.523-.227.986-.444,1.46-.661,1.775-.888,7.584-7.722,10.849-11.835l6.085-5.592.878.5c.3.178,7.436,4.34,8.8,10.977a6.786,6.786,0,0,1-.986,5.454c-1.972,2.762-5.918,3.59-8.679,3.945-2.367.325-3.038,1.164-5.829,5.04l-.69.986C215.574,226.342,208.01,228.008,203.927,228.008Zm17.427-25.751c-1.617,2.032-8.876,11.086-11.687,12.476-.473.237-.986.473-1.578.73-2.653,1.164-5.651,2.476-6.273,5.533-.158.819-.651,3.284-.247,3.807.069.1.385.325,1.706.424,3.284.237,10.592-1.272,13.354-5.079l.69-.986c2.791-3.886,4.073-5.651,7.683-6.154,1.322-.178,5.316-.73,6.805-2.84a4.034,4.034,0,0,0,.5-3.3c-.858-4.211-4.862-7.377-6.628-8.59Z" transform="translate(-2.677 -2.542)" fill="#fb4ea1"/>
    <path id="Trazado_108720" data-name="Trazado 108720" d="M220.387,199.495s-8.58,10.849-11.293,12.2-7.673,2.712-8.58,7.229-.562,5.641,2.712,5.918,11.293-1.124,14.567-5.641,4.182-6.1,7.456-6.549,9.7-1.7,8.462-7.791-8.127-10.05-8.127-10.05Z" transform="translate(-2.697 -2.541)" fill="#557999"/>
    <path id="Trazado_108721" data-name="Trazado 108721" d="M203.927,226.178h-.848a4.872,4.872,0,0,1-3.708-1.5c-.986-1.272-.838-3.107-.256-6.026.888-4.468,5.089-6.3,7.89-7.525.523-.227.986-.444,1.46-.661,1.775-.888,7.584-7.722,10.849-11.835l6.085-5.582.878.5c.3.178,7.436,4.34,8.8,10.977a6.786,6.786,0,0,1-.986,5.454c-1.972,2.762-5.918,3.59-8.679,3.945-2.367.325-3.038,1.164-5.829,5.04l-.69.986C215.574,224.561,208.01,226.178,203.927,226.178Zm17.427-25.761c-1.617,2.042-8.876,11.086-11.687,12.486-.473.237-.986.473-1.588.73-2.643,1.164-5.641,2.476-6.263,5.533-.158.809-.651,3.284-.247,3.807.069.1.385.325,1.706.414,3.284.237,10.592-1.262,13.354-5.069l.681-.986c2.8-3.886,4.083-5.651,7.693-6.154,1.322-.178,5.316-.73,6.805-2.84a4.034,4.034,0,0,0,.5-3.3c-.858-4.211-4.862-7.377-6.628-8.59Z" transform="translate(-2.677 -2.517)" fill="#fb4ea1"/>
    <path id="Trazado_108722" data-name="Trazado 108722" d="M218.945,94.22s-28.01,57.824-25.3,65.093,23.946,34.776,23.493,39.293,7.673,3.62,10.385,1.8,1.361-8.127,1.361-8.127-4.517-21.234-7.683-26.2a79.4,79.4,0,0,0-6.322-8.59l22.132-42.912,1.8-19.419Z" transform="translate(-2.606 -1.159)" fill="#4e2567"/>
    <path id="Trazado_108723" data-name="Trazado 108723" d="M243.337,220.715s-.789,10.158-2.712,14-8.58,10.277-5.2,14.794,11.52.454,14.459-3.945,2.959-10.168,4.931-13.216-1.243-9.143-1.8-12.762S243.337,220.715,243.337,220.715Z" transform="translate(-3.169 -2.863)" fill="#98c4da"/>
    <path id="Trazado_108724" data-name="Trazado 108724" d="M239.619,252.838a6.361,6.361,0,0,1-5.316-2.525c-3.126-4.172.444-9.32,3.048-13.078a31.491,31.491,0,0,0,2.022-3.156c1.47-2.959,2.357-10.74,2.574-13.492l.059-.769.671-.355c1.7-.878,7.446-3.639,10.2-2.239a2.8,2.8,0,0,1,1.519,2.13,28.6,28.6,0,0,0,.986,3.659c1.1,3.472,2.357,7.407.582,10.08a18.068,18.068,0,0,0-1.785,5.03A26.285,26.285,0,0,1,251,246.3c-2.081,3.126-6.825,6.421-11.164,6.539Zm5.01-31.255c-.237,2.505-1.075,10.3-2.791,13.729a31.562,31.562,0,0,1-2.219,3.5c-2.85,4.113-4.931,7.456-3.1,9.863a3.669,3.669,0,0,0,3.255,1.42c2.959-.079,7.081-2.515,8.945-5.306a23.848,23.848,0,0,0,2.8-7.338,19.547,19.547,0,0,1,2.16-5.918c1.045-1.558,0-4.931-.917-7.7a29.715,29.715,0,0,1-1.1-4.073c-.562-.523-3.728.2-7.032,1.825Z" transform="translate(-3.15 -2.844)" fill="#fb4ea1"/>
    <path id="Trazado_108725" data-name="Trazado 108725" d="M243.337,218.876s-.789,10.168-2.712,14-8.58,10.277-5.2,14.794,11.52.454,14.459-3.945,2.959-10.158,4.931-13.206-1.243-9.152-1.8-12.762S243.337,218.876,243.337,218.876Z" transform="translate(-3.169 -2.838)" fill="#557999"/>
    <path id="Trazado_108726" data-name="Trazado 108726" d="M239.619,251.008a6.361,6.361,0,0,1-5.316-2.525c-3.126-4.172.444-9.32,3.048-13.078a31.491,31.491,0,0,0,2.022-3.156c1.47-2.959,2.357-10.74,2.574-13.492l.059-.769.671-.355c1.7-.878,7.446-3.639,10.2-2.239a2.791,2.791,0,0,1,1.519,2.12,28.237,28.237,0,0,0,.986,3.669c1.1,3.472,2.357,7.407.582,10.07a18.137,18.137,0,0,0-1.785,5.04A26.285,26.285,0,0,1,251,244.47c-2.081,3.117-6.825,6.421-11.164,6.539Zm5.01-31.255c-.237,2.505-1.075,10.3-2.791,13.729a31.559,31.559,0,0,1-2.219,3.5c-2.85,4.113-4.931,7.456-3.1,9.863a3.649,3.649,0,0,0,3.255,1.42c2.959-.079,7.081-2.515,8.945-5.306a23.946,23.946,0,0,0,2.8-7.338,19.548,19.548,0,0,1,2.16-5.918c1.045-1.558,0-4.931-.917-7.7a29.715,29.715,0,0,1-1.1-4.073c-.562-.523-3.728.217-7.032,1.825Z" transform="translate(-3.15 -2.818)" fill="#fb4ea1"/>
    <path id="Trazado_108727" data-name="Trazado 108727" d="M226.17,92.7s8.58,23.493,8.58,28.454-5.918,45.171-3.61,52.854,12.19,35.683,10.849,38.849.907,6.776.907,6.776,9.478,3.61,11.293,0,3.61-4.063,3.61-4.063,3.61-35.239,0-38.4a19.942,19.942,0,0,1-4.931-6.332s14.459-56.463,11.746-70.912A23.355,23.355,0,0,0,249.258,81.86Z" transform="translate(-3.055 -0.989)" fill="#61317c"/>
    <path id="Trazado_108728" data-name="Trazado 108728" d="M178,209.262c.365,4.044,9.912.375,16.145,5.513a28.483,28.483,0,0,0,21.7,6.243c6.973-1.1-7.338-12.486-7.338-12.486L190.821,197.89s-.986,4.586-5.4,3.215-5.6-2.85-5.6-2.85C180.544,204.5,177.6,205.228,178,209.262Z" transform="translate(-2.393 -2.583)" fill="#fc62a2"/>
    <path id="Trazado_108729" data-name="Trazado 108729" d="M212.075,222.6a30.258,30.258,0,0,1-18.857-6.835c-2.9-2.387-6.756-2.663-9.863-2.88s-6.49-.454-6.776-3.57a9.123,9.123,0,0,1,.937-4.813,10.444,10.444,0,0,0,.9-6.154l-.552-4.724,2.959,3.689s1.154,1.213,4.931,2.4a2.692,2.692,0,0,0,2.219-.079,3.778,3.778,0,0,0,1.43-2.111l.4-1.884,19.272,11.638c3.383,2.683,10.8,9.064,9.863,12.821-.217.848-.917,1.973-2.959,2.259a25.516,25.516,0,0,1-3.906.247Zm-30.811-21.7a12.822,12.822,0,0,1-1.2,4.7,6.45,6.45,0,0,0-.73,3.5c.059.72,1.706.888,4.221,1.065,3.3.227,7.841.552,11.421,3.5,5.691,4.685,13.808,7.012,20.564,5.918.611-.089.759-.247.759-.247.355-1.154-3.886-5.918-8.748-9.784l-16.076-9.7a5.661,5.661,0,0,1-2.061,2.18,5.316,5.316,0,0,1-4.438.326,22.436,22.436,0,0,1-3.708-1.46Z" transform="translate(-2.373 -2.525)" fill="#b53e77"/>
    <path id="Trazado_108730" data-name="Trazado 108730" d="M119.414,88.19v97.087L17.07,244.759V147.671Z" transform="translate(-0.182 -1.076)" fill="#98c4da"/>
    <path id="Trazado_108731" data-name="Trazado 108731" d="M16.992,148.455v97.087L11.4,242.317V145.23Z" transform="translate(-0.104 -1.86)" fill="#7a9dc2"/>
    <g id="Grupo_124636" data-name="Grupo 124636" transform="translate(3.82 76.531)">
      <path id="Trazado_108732" data-name="Trazado 108732" d="M293.264,188.56v97.087L190.91,345.129V248.041Z" transform="translate(-6.391 -78.986)" fill="#98c4da"/>
      <path id="Trazado_108733" data-name="Trazado 108733" d="M190.832,248.825v97.087l-5.592-3.225V245.6Z" transform="translate(-6.313 -79.77)" fill="#7a9dc2"/>
      <path id="Trazado_108734" data-name="Trazado 108734" d="M298.614,188.56v5.957L196.26,254v-5.957Z" transform="translate(-6.464 -78.986)" fill="#7a9dc2"/>
      <path id="Trazado_108735" data-name="Trazado 108735" d="M193.616,247.344V253.3L3.82,143.727V137.77Z" transform="translate(-3.82 -78.289)" fill="#557999"/>
      <path id="Trazado_108736" data-name="Trazado 108736" d="M295.97,187.034,193.616,246.515,3.82,136.941,106.184,77.46Z" transform="translate(-3.82 -77.46)" fill="#98c4da"/>
    </g>
    <path id="Trazado_108737" data-name="Trazado 108737" d="M192.48,227.388,35.25,136.613,113.243,91.58l157.23,90.775Z" transform="translate(-0.432 -1.123)" fill="#f8e1e1"/>
    <path id="Trazado_108738" data-name="Trazado 108738" d="M158.267,134.828l-37.577-21.7,19.844-11.46Zm-28.907-21.7,15.78,9.1L137.7,108.327Z" transform="translate(-1.606 -1.261)" fill="#cf94b3"/>
    <path id="Trazado_108739" data-name="Trazado 108739" d="M158.267,134.438l-37.577-21.7,19.844-11.45Zm-28.907-21.7,15.78,9.1-7.456-13.936Z" transform="translate(-1.606 -1.256)" fill="#e6bbeb"/>
    <path id="Trazado_108740" data-name="Trazado 108740" d="M186.978,83.472a44.48,44.48,0,0,1-2.14,10.05c-1.588,3.945-9.941,27.1-10.622,28.454s-5.415,6.9-5.415,6.9-1.8,2.032-2.032,3.274-1.243,3.837-2.959,3.837-2.14-1.361-1.47-2.594,1.8-1.361,1.8-2.712v-2.712s-9.478-.562-10.158-.454a27.526,27.526,0,0,0-3.728.986,10.821,10.821,0,0,1-4.063.789c-.789-.2-2.032-1.351-.986-1.913s1.7-.789,3.156-1.588,7.683-1.351,7.683-1.351l-8.876-.454a9.113,9.113,0,0,1-2.831-.562,1.253,1.253,0,0,1-.227-1.973,4.764,4.764,0,0,1,1.7-.454s-1.351-1.124-.562-1.578a7.584,7.584,0,0,1,1.7-.681s-.345-.9,0-1.124,10.947,1.243,14.222.986a17.556,17.556,0,0,0,6.1-1.7s2.485-23.828,3.718-26.984,7-14.232,7-14.232Z" transform="translate(-1.922 -0.904)" fill="#fd8e79"/>
    <path id="Trazado_108741" data-name="Trazado 108741" d="M195.647,63.255l-7.229,20.889s-4.063,3.393-8.462,1.134a10.711,10.711,0,0,1-5.316-6.9s4.635-33.76,9.715-35.456S195.647,63.255,195.647,63.255Z" transform="translate(-2.347 -0.453)" fill="#e73f8f"/>
    <path id="Trazado_108742" data-name="Trazado 108742" d="M184.149,46.3s13.808,27.438,16.263,30.042,14.9,15.583,15.149,16.826a23.932,23.932,0,0,0,.986,3.274s11.184,11.4,25.86,6.776,15.248-16.609,15.248-16.609-13.808-13.551-14.567-22.576-23.256-29.252-33.079-30.268S183.134,31.612,184.149,46.3Z" transform="translate(-2.477 -0.321)" fill="#fb4ea1"/>
    <path id="Trazado_108743" data-name="Trazado 108743" d="M238.775,92.039,227.71,91.25s-11.076,6.1-14.232,10.158-13.67,8.334-13.67,8.334c-1.351,1.351-3.156,3.837-6.2,3.274-1.795-.335-8.245,3.718-10.168,3.5s-2.259,1.243-.789,2.367,9.143-1.124,9.143-1.124-3.472,5.661-2.406,7.259l-.414.533s-2.594,11.835-1.578,12.535,1.8.671,2.032.217.108-6.2,1.243-8.689c.631-1.391,1.144-2.653,1.489-3.521l.464.118c.079,2.87.306,10.011.759,11.983.562,2.485,2.594,2.032,2.259.907-.434-1.45.572-10.011.838-12.161.375,2.278,1.479,11.263,2.663,12.161,1.351.986,2.032,0,2.032,0l-1.114-11.766c.286,1.331,1.973,9.33,3.481,9.951,1.7.681,1.7.572,1.8.118s-.9-3.274-1.124-4.517c-.178-.986-.69-5.138-.917-6.9,1.608-2.663,3.176-8.413,3.176-8.413s29.243-15.474,30.939-19.429S238.775,92.039,238.775,92.039Z" transform="translate(-2.444 -1.118)" fill="#fd8e79"/>
    <path id="Trazado_108744" data-name="Trazado 108744" d="M228.249,52.642S221,57.613,221,63.935s3.5,15.356,3.5,17.96a89.286,89.286,0,0,0,1.351,9.863s4.852,5.987,9.715,3.156l4.852-2.821s4.635-27.556,0-35.791S228.249,52.642,228.249,52.642Z" transform="translate(-2.984 -0.57)" fill="#fc8abe"/>
    <path id="Trazado_108745" data-name="Trazado 108745" d="M172.423,31.972a9.35,9.35,0,0,1-2.771-3.5,11.524,11.524,0,0,1,3.62-12.417c4.862-4.063,12.023-6.44,16.086-6.154s11.746,5.474,12.93,11.934a23.808,23.808,0,0,1-1.6,12.634s-.828,4.083-.828,5.04.345,1.973-2.821,3.787a25.82,25.82,0,0,1-5.918,2.485l-5.651-1.243-4.113-6.213Z" transform="translate(-2.27 0)" fill="#4e2567"/>
    <path id="Trazado_108746" data-name="Trazado 108746" d="M200.705,34.647s-.454,4.813,3.62,6.47,4.517.306,6.47,6.48-1.8,12.042-5.572,13.245-7.229,1.361-8.876-.6S186.7,49.855,186.7,49.855s-4.5,1.8-5.849,1.8-2.318-1.7-2.771-2.032-1.687-1.637-1.46-2.15l.227-.5s-.907-.513-1.193-.74-.227-2.2-.227-2.2a18.158,18.158,0,0,1-2.821-.621.986.986,0,0,1-.5-1.637c.444-.5,1.292-.681,1.41-1.864s.168-3.945.168-3.945-2.545-1.292-2.821-3.274-1.529-7.673.444-11.174,3.62,7.052,6.953,10.5,8.876,3.718,10.553,5.188a4.557,4.557,0,0,1,1.243,3.945s2.959-5.306,2.959-6.9.335-3.393,2.308-4.123,3.787,1.351,3.62,3.274-.848,4.123-1.637,4.123h-.789s1.519,1.637,2.259,1.075S200.705,34.647,200.705,34.647Z" transform="translate(-2.286 -0.15)" fill="#fd8e79"/>
    <path id="Trazado_108747" data-name="Trazado 108747" d="M227.341,179.513,197.7,196.624l-.365-.168c-.306-.148-30.653-14.419-41.048-20.583s-36.018-14.863-48.218-17.753c-11.835-2.771-33.72-14.873-34.647-15.386l-.325-.178,12.89-10.011s10.849,3.462,15.691,5.06l-13.956-7.367L100.9,118.7l.444.187c.3.128,29.588,12.614,38.878,14.459,9.113,1.8,20.544-4.872,20.6-4.931l.552-.325.306.424c.1.148,10.287,14.616,18.936,21.067s46,29.479,46.354,29.716Zm-29.706,16.313L225.872,179.5c-3.8-2.347-37.823-23.394-46.088-29.588-7.89-5.918-17.043-18.364-18.739-20.79-2.476,1.361-12.506,6.46-21.126,4.754-8.955-1.775-34.874-12.723-38.721-14.36L89.077,130.141l17.368,9.222-.335.217c-.148.079-.217.118-.671-.049-.69-.256-11.677-3.777-19.163-6.164l-11.835,9.162c2.831,1.548,23.078,12.525,33.987,15.08,12.269,2.86,38.07,11.618,48.563,17.841C166.775,181.229,194.154,194.179,197.635,195.826Z" transform="translate(-0.952 -1.495)" fill="#ae89b3"/>
    <path id="Trazado_108748" data-name="Trazado 108748" d="M184.1,206.749l-.74.424-.73-.424.73-.424Zm-3.718-2.12-.73.424-2.959-1.7.74-.424Zm-5.868-3.393-.74.424-2.959-1.7.73-.424Zm-5.918-3.383-.73.424-2.959-1.7.74-.424Zm-5.868-3.393-.74.424-2.959-1.7.73-.424Zm-5.918-3.393-.73.424-2.959-1.7.74-.424Zm-5.868-3.393-.74.424-2.959-1.7.73-.424Zm-5.918-3.393-.73.424-2.959-1.7.74-.424Zm-5.868-3.393-.74.424-2.959-1.687.73-.424Zm-5.918-3.383-.73.424-2.959-1.7.74-.424Zm-5.918-3.393-.74.424-2.959-1.7.73-.424Zm-5.918-3.393-.73.424-2.959-1.7.73-.424Zm-5.868-3.393-.74.424-2.959-1.7.73-.424Zm-5.918-3.393-.73.424-2.959-1.7.73-.424Zm-5.918-3.383-.74.424-2.959-1.7.73-.424Zm-5.918-3.393-.73.424-2.959-1.7.73-.424Zm-5.918-3.393-.74.424-2.959-1.7.73-.424Zm-5.918-3.393-.247.454-2.959-1.7.73-.424Zm-5.918-3.393-.74.424-2.959-1.7.73-.424Zm-5.918-3.393-.73.424-2.959-1.687.73-.424Zm-5.868-3.383-.74.424-2.959-1.7.74-.424Z" transform="translate(-0.834 -1.767)" fill="#ae89b3"/>
    <path id="Trazado_108749" data-name="Trazado 108749" d="M161.779,128.994l-2.959,1.7-.74-.424,2.959-1.7Zm-5.918,3.393-2.959,1.7-.73-.424,2.959-1.7Zm-5.918,3.393-2.959,1.7-.74-.424,2.959-1.7Zm-5.918,3.393-2.959,1.687-.73-.414,2.959-1.7Zm-5.868,3.383-2.959,1.7-.611-.464,2.959-1.7Zm-5.918,3.393-2.959,1.7-.73-.424,2.959-1.7Zm-5.868,3.393-2.959,1.7-.74-.424,2.959-1.7Zm-5.918,3.393-2.959,1.7-.73-.424,2.959-1.7Zm-5.868,3.393-2.959,1.7-.74-.424,2.959-1.7Zm-5.918,3.383-2.959,1.7-.73-.424,2.959-1.687Z" transform="translate(-1.39 -1.631)" fill="#ae89b3"/>
    <path id="Trazado_108750" data-name="Trazado 108750" d="M202.028,194.469l-.73.424-1.834-1.065.73-.424Zm-4.764-2.762-.74.424-2.959-1.7.74-.424Zm-5.918-3.383-.73.424-2.959-1.7.73-.424Zm-5.918-3.393-.73.424-2.959-1.7.74-.424Zm-5.868-3.393-.73.424-2.959-1.7.73-.424Zm-5.918-3.393-.73.424-2.959-1.7.74-.424Zm-5.868-3.393-.73.424-2.959-1.7.73-.424Zm-5.918-3.393-.73.424-2.959-1.687.74-.424Zm-5.868-3.383-.73.424-2.959-1.7.73-.424Zm-5.918-3.393-.73.424-2.959-1.7.74-.424Zm-5.918-3.393-.74.424-2.959-1.7.73-.424Zm-5.918-3.393-.73.424-2.959-1.7.74-.424Zm-5.918-3.393-.74.424-2.959-1.7.73-.414Zm-5.918-3.383-.73.424-2.959-1.7.74-.424Zm-5.918-3.393-.74.424-2.959-1.7.73-.424Zm-5.918-3.393-.73.424-2.959-1.7.74-.424Zm-5.918-3.393-.74.424-2.959-1.7.73-.424Z" transform="translate(-1.389 -1.776)" fill="#ae89b3"/>
    <path id="Trazado_108751" data-name="Trazado 108751" d="M98.537,120.994l-2.959,1.7-.74-.424,2.959-1.7Zm-5.918,3.393-2.959,1.7-.73-.424,2.959-1.7ZM86.7,127.78l-2.959,1.687-.74-.424,2.959-1.687Zm-5.868,3.383-2.959,1.7-.73-.424,2.959-1.7Zm-5.918,3.393-2.959,1.7-.542-.464,2.959-1.7ZM69,137.948l-2.959,1.7-.73-.424,2.959-1.7Z" transform="translate(-0.845 -1.521)" fill="#ae89b3"/>
    <path id="Trazado_108752" data-name="Trazado 108752" d="M250.8,191.341c-5.444.306-9.655-4.566-9.655-9.863s-9.655-15.514-21.589-21.8-41.088-20.475-41.265-21.994.878-4.931,8.61-1.519,53.367,20.475,70.754,36.788C263.088,178.1,266.54,190.463,250.8,191.341Z" transform="translate(-2.397 -1.715)" fill="#ae89b3"/>
    <path id="Trazado_108753" data-name="Trazado 108753" d="M250.539,190.552c-5.444.306-9.655-4.566-9.655-9.863s-9.655-15.514-21.6-21.8S178.207,138.448,178,136.958s.878-4.931,8.6-1.519,53.376,20.475,70.754,36.8C262.818,177.306,266.28,189.674,250.539,190.552Z" transform="translate(-2.393 -1.705)" fill="#e6bbeb"/>
    <path id="Trazado_108754" data-name="Trazado 108754" d="M25.32,133.763l68.289,39.431,5.8-3.343-68.3-39.431Z" transform="translate(-0.295 -1.656)" fill="#ae89b3"/>
    <path id="Trazado_108755" data-name="Trazado 108755" d="M25.32,133.233l68.289,39.431,5.8-3.343-68.3-39.431Z" transform="translate(-0.295 -1.649)" fill="#e6bbeb"/>
    <path id="Trazado_108756" data-name="Trazado 108756" d="M185.036,228.3s-6.845-2.328-.355-10.336,20.711-12.575,26.866-9.231,3.511,6.9-1.055,10.139-13.522,3.146-17.378,4.931S189.425,229.012,185.036,228.3Z" transform="translate(-2.447 -2.717)" fill="#ae89b3"/>
    <path id="Trazado_108757" data-name="Trazado 108757" d="M185.036,227.772s-6.845-2.328-.355-10.336,20.711-12.565,26.866-9.222,3.511,6.9-1.055,10.129-13.522,3.146-17.378,4.931S189.425,228.482,185.036,227.772Z" transform="translate(-2.447 -2.71)" fill="#e6bbeb"/>
  </g>
</svg>
