<svg id="pinza" xmlns="http://www.w3.org/2000/svg" width="666" height="367.527" viewBox="0 0 666 367.527">
  <path id="Trazado_108793" data-name="Trazado 108793" d="M107.887,1146.26H698.573A3.737,3.737,0,0,1,702.31,1150v.656a25.089,25.089,0,0,1-25.09,25.089H129.24a25.089,25.089,0,0,1-25.09-25.089V1150A3.737,3.737,0,0,1,107.887,1146.26Z" transform="translate(-74.577 -820.783)" fill="#6d6875"/>
  <path id="Trazado_108794" data-name="Trazado 108794" d="M767.1,78.14V348.327H201.13V78.14c0-30.541,23.783-55.29,53.129-55.29h459.71C743.315,22.85,767.1,47.6,767.1,78.14Z" transform="translate(-155.679 -22.85)" fill="#6d6875"/>
  <path id="Trazado_108795" data-name="Trazado 108795" d="M797.32,130.254V400.441H271.07V130.254c0-19.081,14.933-34.624,33.27-34.624H764.05C782.385,95.63,797.32,111.173,797.32,130.254Z" transform="translate(-205.759 -74.964)" fill="#e3f3f9"/>
  <path id="Trazado_108796" data-name="Trazado 108796" d="M827.529,182.363v11.1H341v-11.1c0-7.667,6.02-13.953,13.408-13.953h459.71C821.509,168.41,827.529,174.691,827.529,182.363Z" transform="translate(-255.833 -127.079)" fill="#c6eefa"/>
  <rect id="Rectángulo_38374" data-name="Rectángulo 38374" width="486.523" height="259.093" transform="translate(85.181 66.39)" fill="#fff"/>
  <circle id="Elipse_5168" data-name="Elipse 5168" cx="4.597" cy="4.597" r="4.597" transform="translate(101.265 53.858) rotate(-45)" fill="#fff"/>
  <circle id="Elipse_5169" data-name="Elipse 5169" cx="4.597" cy="4.597" r="4.597" transform="matrix(0.231, -0.973, 0.973, 0.231, 118.639, 57.272)" fill="#fff"/>
  <circle id="Elipse_5170" data-name="Elipse 5170" cx="4.597" cy="4.597" r="4.597" transform="translate(134.074 53.859) rotate(-45)" fill="#fff"/>
  <path id="Trazado_108797" data-name="Trazado 108797" d="M454.6,348.727s16.353.378,20.061-6.057l21.273,4.239s-.835,12.187-.681,14.836l-12.795,2.121,13.022,1.286s-1.513,15.822,13.4,17.94c0,0-2.019,17.715-2.726,23.871s0,22.716.909,24.931,4.742,13.942,6.145,19.076,3.351,20.694,3.532,25.737c.284,7.783,4.239,92.305,4.239,92.305l-55.262,2.876Z" transform="translate(-337.177 -251.858)" fill="none" stroke="#6d6875" stroke-miterlimit="10" stroke-width="1"/>
  <line id="Línea_787" data-name="Línea 787" x2="0.02" y2="0.75" transform="translate(143.813 92.07)" fill="none" stroke="#6d6875" stroke-linecap="round" stroke-miterlimit="10" stroke-width="1"/>
  <line id="Línea_788" data-name="Línea 788" x2="0.358" y2="12.82" transform="translate(143.924 96.025)" fill="none" stroke="#6d6875" stroke-linecap="round" stroke-miterlimit="10" stroke-width="1" stroke-dasharray="5.65 11.29"/>
  <path id="Trazado_108798" data-name="Trazado 108798" d="M508.29,388.98l.02.747.148-.733" transform="translate(-363.963 -278.53)" fill="none" stroke="#6d6875" stroke-linecap="round" stroke-linejoin="round" stroke-miterlimit="10" stroke-width="1"/>
  <path id="Trazado_108799" data-name="Trazado 108799" d="M520.73,327.925l.148-.735.693.284" transform="translate(-372.87 -234.285)" fill="none" stroke="#6d6875" stroke-linecap="round" stroke-linejoin="round" stroke-miterlimit="10" stroke-width="1"/>
  <line id="Línea_790" data-name="Línea 790" x2="8.013" y2="3.257" transform="translate(151.906 94.492)" fill="none" stroke="#6d6875" stroke-linecap="round" stroke-miterlimit="10" stroke-width="1" stroke-dasharray="6.09 12.18"/>
  <path id="Trazado_108802" data-name="Trazado 108802" d="M598.706,419.23c-.043.253-.082.5-.116.741" transform="translate(-440.281 -306.679)" fill="none" stroke="#6d6875" stroke-linecap="round" stroke-miterlimit="10" stroke-width="1"/>
  <path id="Trazado_108803" data-name="Trazado 108803" d="M1525.75,350.507s16.353.378,20.061-6.057l21.273,4.239s-.832,12.187-.682,14.836l-12.795,2.121,13.022,1.286s-1.513,15.822,13.4,17.94c0,0-2.019,17.715-2.726,23.871s0,22.716.909,24.933,4.745,13.913,6.156,19.076,3.354,20.694,3.532,25.737c.284,7.783,4.239,92.305,4.239,92.305l-55.262,2.876Z" transform="translate(-1104.177 -253.133)" fill="none" stroke="#6d6875" stroke-miterlimit="10" stroke-width="1"/>
  <line id="Línea_791" data-name="Línea 791" x2="0.023" y2="0.75" transform="translate(447.963 92.578)" fill="none" stroke="#6d6875" stroke-linecap="round" stroke-miterlimit="10" stroke-width="1"/>
  <line id="Línea_792" data-name="Línea 792" x2="0.358" y2="12.82" transform="translate(448.074 96.533)" fill="none" stroke="#6d6875" stroke-linecap="round" stroke-miterlimit="10" stroke-width="1" stroke-dasharray="5.65 11.29"/>
  <path id="Trazado_108804" data-name="Trazado 108804" d="M1579.44,390.77l.023.747.145-.733" transform="translate(-1130.963 -279.812)" fill="none" stroke="#6d6875" stroke-linecap="round" stroke-linejoin="round" stroke-miterlimit="10" stroke-width="1"/>
  <path id="Trazado_108805" data-name="Trazado 108805" d="M1591.88,329.715l.147-.735.693.284" transform="translate(-1139.871 -235.567)" fill="none" stroke="#6d6875" stroke-linecap="round" stroke-linejoin="round" stroke-miterlimit="10" stroke-width="1"/>
  <line id="Línea_794" data-name="Línea 794" x2="8.013" y2="3.257" transform="translate(456.056 95)" fill="none" stroke="#6d6875" stroke-linecap="round" stroke-miterlimit="10" stroke-width="1" stroke-dasharray="6.09 12.18"/>
  <path id="Trazado_108808" data-name="Trazado 108808" d="M1669.836,421c-.043.253-.082.5-.116.741" transform="translate(-1207.267 -307.947)" fill="none" stroke="#6d6875" stroke-linecap="round" stroke-miterlimit="10" stroke-width="1"/>
  <path id="Trazado_108809" data-name="Trazado 108809" d="M843.347,339.215l20.359-8.555s-2.348,21.677,18.346,22.08V563.289s-6.84.758-19.859-.454-34.292-1.891-34.292-1.891V458.155c0-6.9,2.774-20.021,3.884-24.865s3.123-10.7,3.331-14.535.511-20.987-4.631-44.514c0,0,6.156.7,10.094-6.965l18.068,15.239-11.809-18.57A43.747,43.747,0,0,0,843.347,339.215Z" transform="translate(-604.479 -243.258)" fill="none" stroke="#6d6875" stroke-miterlimit="10" stroke-width="1"/>
  <path id="Trazado_108810" data-name="Trazado 108810" d="M919.548,344.157s-17.736,2.144-17.736-21.047L882.13,331.2a52.419,52.419,0,0,1,3.632,24.57l13.706,21.327h20.074" transform="translate(-641.311 -237.852)" fill="none" stroke="#6d6875" stroke-linecap="round" stroke-linejoin="round" stroke-miterlimit="10" stroke-width="1" stroke-dasharray="5.27 3"/>
  <path id="Trazado_108811" data-name="Trazado 108811" d="M1219.97,349.974l-2.229,87.291h-21.668l-4.978-33.588-.383-2.578-.647,2.629-8.269,33.537h-23.667l-8.819-50.23s15.745.954,17.653-11.528c.04-.247.071-.494.1-.75s.045-.471.054-.7c.545-10.56-10.881-22.631-10.881-22.631l25.118-18.082,9.37,51.573L1202,330.66S1208.476,346.623,1219.97,349.974Z" transform="translate(-834.626 -243.258)" fill="none" stroke="#6d6875" stroke-miterlimit="10" stroke-width="1"/>
  <path id="Trazado_108812" data-name="Trazado 108812" d="M1235.965,513.047h-.341l-.383-2.578-.647,2.629h-.071c0-.125-.647-12.539-5.9-18.334-4.418-4.878-9.6-7.885-17.145-9.89.04-.247.071-.494.1-.75s.045-.471.054-.7c7.95,2.081,13.4,5.227,18.065,10.378C1235.292,500,1235.939,512.516,1235.965,513.047Z" transform="translate(-879.143 -352.643)" fill="none" stroke="#6d6875" stroke-linecap="round" stroke-linejoin="round" stroke-miterlimit="10" stroke-width="1"/>
  <path id="Trazado_108813" data-name="Trazado 108813" d="M1171.038,860.461l5.023-41.246,5.679,41.246h25.118l1.672-84.948A31.082,31.082,0,0,1,1188.606,755l-31.9,13.479a36.083,36.083,0,0,1,2.178,26.123s13.144,6.863,16.659,19.592c0,0-8.036-10.506-18.417-11.664,0,0-6.781,10.827-20.177,12.082l5.5,45.852Z" transform="translate(-825.775 -547.108)" fill="none" stroke="#6d6875" stroke-miterlimit="10" stroke-width="1"/>
  <rect id="Rectángulo_38375" data-name="Rectángulo 38375" width="191.162" height="19.99" transform="translate(380.534 66.39)" fill="#e3f3f9"/>
  <rect id="Rectángulo_38376" data-name="Rectángulo 38376" width="12.86" height="12.86" transform="translate(385.092 69.956)" fill="#fff"/>
  <rect id="Rectángulo_38377" data-name="Rectángulo 38377" width="12.86" height="12.86" transform="translate(404.031 69.956)" fill="#fff"/>
  <rect id="Rectángulo_38378" data-name="Rectángulo 38378" width="12.86" height="12.86" transform="translate(422.97 69.956)" fill="#fff"/>
  <rect id="Rectángulo_38379" data-name="Rectángulo 38379" width="12.86" height="12.86" transform="translate(441.909 69.956)" fill="#fff"/>
  <rect id="Rectángulo_38380" data-name="Rectángulo 38380" width="12.86" height="12.86" transform="translate(460.849 69.956)" fill="#fff"/>
  <rect id="Rectángulo_38381" data-name="Rectángulo 38381" width="12.86" height="12.86" transform="translate(479.788 69.956)" fill="#fff"/>
  <rect id="Rectángulo_38382" data-name="Rectángulo 38382" width="12.86" height="12.86" transform="translate(498.727 69.956)" fill="#fff"/>
  <rect id="Rectángulo_38383" data-name="Rectángulo 38383" width="12.86" height="12.86" transform="translate(517.666 69.956)" fill="#fff"/>
  <rect id="Rectángulo_38384" data-name="Rectángulo 38384" width="12.86" height="12.86" transform="translate(536.603 69.956)" fill="#fff"/>
  <rect id="Rectángulo_38385" data-name="Rectángulo 38385" width="12.86" height="12.86" transform="translate(555.542 69.956)" fill="#fff"/>
  <rect id="Rectángulo_38386" data-name="Rectángulo 38386" width="70.748" height="239.097" transform="translate(500.948 86.379)" fill="#c6eefa"/>
  <rect id="Rectángulo_38387" data-name="Rectángulo 38387" width="20.342" height="20.342" transform="translate(509.247 94.784)" fill="#fff"/>
  <rect id="Rectángulo_38388" data-name="Rectángulo 38388" width="20.342" height="20.342" transform="translate(543.619 94.784)" fill="#fff"/>
  <rect id="Rectángulo_38389" data-name="Rectángulo 38389" width="20.342" height="20.342" transform="translate(509.247 123.778)" fill="#fff"/>
  <rect id="Rectángulo_38390" data-name="Rectángulo 38390" width="20.342" height="20.342" transform="translate(543.619 123.778)" fill="#fff"/>
  <rect id="Rectángulo_38391" data-name="Rectángulo 38391" width="20.342" height="20.342" transform="translate(509.247 152.772)" fill="#fff"/>
  <rect id="Rectángulo_38392" data-name="Rectángulo 38392" width="20.342" height="20.342" transform="translate(543.619 152.772)" fill="#fff"/>
  <rect id="Rectángulo_38393" data-name="Rectángulo 38393" width="20.342" height="20.342" transform="translate(509.247 181.763)" fill="#fff"/>
  <rect id="Rectángulo_38394" data-name="Rectángulo 38394" width="20.342" height="20.342" transform="translate(543.619 181.763)" fill="#fff"/>
  <rect id="Rectángulo_38395" data-name="Rectángulo 38395" width="20.342" height="20.342" transform="translate(509.247 210.757)" fill="#fff"/>
  <rect id="Rectángulo_38396" data-name="Rectángulo 38396" width="20.342" height="20.342" transform="translate(543.619 210.757)" fill="#fff"/>
  <rect id="Rectángulo_38397" data-name="Rectángulo 38397" width="20.342" height="20.342" transform="translate(509.247 239.751)" fill="#fff"/>
  <rect id="Rectángulo_38398" data-name="Rectángulo 38398" width="20.342" height="20.342" transform="translate(543.619 239.751)" fill="#fff"/>
  <rect id="Rectángulo_38399" data-name="Rectángulo 38399" width="20.342" height="20.342" transform="translate(509.247 268.742)" fill="#fff"/>
  <rect id="Rectángulo_38400" data-name="Rectángulo 38400" width="14.087" height="14.087" transform="translate(549.874 307.966)" fill="#fff"/>
  <rect id="Rectángulo_38401" data-name="Rectángulo 38401" width="14.087" height="14.087" transform="translate(522.772 322.053) rotate(180)" fill="#fff"/>
  <rect id="Rectángulo_38402" data-name="Rectángulo 38402" width="14.087" height="14.087" transform="translate(529.277 307.966)" fill="#fff"/>
  <path id="Trazado_108814" data-name="Trazado 108814" d="M1019.752,1252.1s-5.679-9.3-18.547-8.842-26.515,7.053-42.669,5.917-35.266,2.5-35.266,2.5Z" transform="translate(-672.769 -896.716)" fill="#d97386"/>
  <rect id="Rectángulo_38403" data-name="Rectángulo 38403" width="638.065" height="12.545" rx="6.272" transform="translate(0 354.982)" fill="#e58e91"/>
  <path id="Trazado_108815" data-name="Trazado 108815" d="M165.7,237.709l7.86,2.408,1.221.375,1.212.369,24.823,7.607a9.677,9.677,0,0,0,5.679-18.5l-23.355-7.147-2.7-.826-2.7-.826-6.38-1.956a9.678,9.678,0,1,0-5.679,18.5Z" transform="translate(-125.394 -163.147)" fill="#f7b897"/>
  <path id="Trazado_108816" data-name="Trazado 108816" d="M316.081,257.69l10.111,1.1,3.064,18.641s-7.048,22.466-6.474,28.92H291.889a25.683,25.683,0,0,0-.488-11.684c-1.8-5.639-4.784-12.647-4.742-17.653.045-5.179,7.357-9.072,10.952-19.328h18.457Z" transform="translate(-216.921 -191.008)" fill="#ffdecc"/>
  <path id="Trazado_108817" data-name="Trazado 108817" d="M329.795,195.11c-1.607-.718-1.871-.2-3.617-.162a6.587,6.587,0,0,1-3.453-1.218l-2.235-8.484,4.259-7.627,4.563-5.409,4.668,4.077L332.206,192.8Z" transform="translate(-241.147 -129.8)" fill="#3e3b42"/>
  <path id="Trazado_108818" data-name="Trazado 108818" d="M360.592,227.795l-.1-11.855-10.268,1.516-1.406,10.339S353.727,232.168,360.592,227.795Z" transform="translate(-261.432 -161.113)" fill="#f7b897"/>
  <path id="Trazado_108819" data-name="Trazado 108819" d="M350.68,232.439s4.785.469,7.36-2.678-6.8-1.451-6.8-1.451Z" transform="translate(-262.764 -169.644)" fill="#de8759"/>
  <path id="Trazado_108820" data-name="Trazado 108820" d="M338.507,172.858a7.538,7.538,0,1,0,15.073-.318l-.169-8.638a6.39,6.39,0,1,0-12.778.284,14.8,14.8,0,0,1-1.36,5.227c-.04.082-.071.142-.085.17a.064.064,0,0,0,0,.02A7.49,7.49,0,0,0,338.507,172.858Z" transform="translate(-254.047 -119.377)" fill="#f7b897"/>
  <path id="Trazado_108821" data-name="Trazado 108821" d="M358.415,194.77s-.253,3.2-1.655,3.87a1.545,1.545,0,0,0,1.42.7" transform="translate(-267.118 -145.954)" fill="none" stroke="#de8759" stroke-linecap="round" stroke-linejoin="round" stroke-width="1.43"/>
  <path id="Trazado_108822" data-name="Trazado 108822" d="M370.329,194.912c0,.471.238.852.514.852s.488-.392.477-.852-.239-.852-.514-.852S370.318,194.44,370.329,194.912Z" transform="translate(-276.834 -145.445)" fill="#16142a"/>
  <path id="Trazado_108823" data-name="Trazado 108823" d="M351.249,194.482c0,.471.241.852.514.852s.488-.392.48-.852-.241-.852-.514-.852S351.241,194.019,351.249,194.482Z" transform="translate(-263.172 -145.138)" fill="#16142a"/>
  <path id="Trazado_108824" data-name="Trazado 108824" d="M371.309,190.6a2.154,2.154,0,0,0-2.309-.724" transform="translate(-275.882 -142.411)" fill="none" stroke="#16142a" stroke-miterlimit="10" stroke-width="1.43"/>
  <path id="Trazado_108825" data-name="Trazado 108825" d="M350.185,188.6a2.135,2.135,0,0,0-2.135.568" transform="translate(-260.881 -141.477)" fill="none" stroke="#16142a" stroke-miterlimit="10" stroke-width="1.43"/>
  <path id="Trazado_108826" data-name="Trazado 108826" d="M376.8,156.815s-.625,2.337.335,3.089,2.252.284,2.632,1.349-.71,1.266-.449,2.323,1.244,1.44,1.352,2.348-1.161,1.775-1.039,2.7,1.011,4.058.894,5-1.159,2.768-.875,3.975a5.854,5.854,0,0,1,0,2.839c-.182,1.1-.5,1.823-.105,2.74,0,0,3.123.23,4.069-.372a4.9,4.9,0,0,1,3-.494c.806.074,2.774,0,3.717-.815s1.292-1.38,2.425-1.215,2.871.386,3.646-.213,2.016-.216,2.729-.537,1.249-.875,1.113-1.275a4.007,4.007,0,0,0-2.169-1.763,1.6,1.6,0,0,1-1.312-1.582c.06-.505.7-1.959-.145-3.294s-2.414-.67-3.172-1.681.216-2.709-.826-3.407-2-.02-2.575-1.053.548-2.232-.642-3.373-1.965-.116-3.172-1.005-.568-2.592-1.672-3.407-2.022-.528-2.51-1.988S378.466,154.632,376.8,156.815Z" transform="translate(-281.322 -117.358)" fill="#3e3b42"/>
  <path id="Trazado_108827" data-name="Trazado 108827" d="M320.168,149.873a2.737,2.737,0,0,1-2.257,1.281c-1.352-.139-2.857,0-3.365.826s-.582,2.661-1.874,3.146-1.88.806-2.039,1.922,1.136,1.729.616,3.223-2.1,1.073-3.149,2.272a3,3,0,0,0-.406,3.541,3.376,3.376,0,0,1-.451,3.49c-.778,1-.667,1.934-.02,3.359s.19,3.035-.417,3.206-2.235-1.127-3.086-1.224-3.106.065-3.734-.4-.869-1.193-1.948-1.4-1.264-.409-1.136-1.028a5.432,5.432,0,0,1,1.7-2.746c1.008-.829.645-2.652,1.247-3.436s2.15-.321,2.766-1.241-.659-2.22-.207-3.086,1.42-.395,2.132-1.689-.239-1.579.284-2.717,1.973-.664,2.5-1.749-.395-2.482.332-3.708,1.7-.517,2.272-1.281.028-1.84,1.238-2.436,2.127,0,2.919-.284.787-2.175,2.927-2.473,4.285-.125,4.543,3.37Z" transform="translate(-224.231 -110.416)" fill="#3e3b42"/>
  <path id="Trazado_108828" data-name="Trazado 108828" d="M384.93,208.9a2.8,2.8,0,1,0,.471-3.441A2.5,2.5,0,0,0,384.93,208.9Z" transform="translate(-286.928 -152.97)" fill="#f7b897"/>
  <circle id="Elipse_5171" data-name="Elipse 5171" cx="2.172" cy="2.172" r="2.172" transform="translate(97.677 56.234) rotate(-21.69)" fill="none" stroke="#f6f1ef" stroke-miterlimit="10" stroke-width="1.43"/>
  <line id="Línea_795" data-name="Línea 795" y1="1.658" x2="2.328" transform="translate(98.552 53.095)" fill="none" stroke="#de8759" stroke-miterlimit="10" stroke-width="1.43"/>
  <path id="Trazado_108829" data-name="Trazado 108829" d="M358.582,216.343a.8.8,0,0,1-1.2-.131c-.372-.449-.733-.545-.991-.267-.162.17-.329.139-.5-.065s-.551-.244-.755.2c-.363.8-.911.568-1.315.315,0,0,1.3,1.6,2.507,1.556C357.469,217.916,358.582,216.343,358.582,216.343Z" transform="translate(-265.013 -160.965)" fill="#dd5850"/>
  <path id="Trazado_108830" data-name="Trazado 108830" d="M293.63,187.362c1.434-1.823,1.78-2.9,1.738-4.387s1.536-1.136,2.987-2.794.159-3.282,1.729-4.827c1.647-1.63,1.789-.159,4.129-2.328a5.2,5.2,0,0,0,1.2-3.055" transform="translate(-221.914 -128.196)" fill="none" stroke="#3e3b42" stroke-miterlimit="10" stroke-width="1.43"/>
  <path id="Trazado_108831" data-name="Trazado 108831" d="M347.043,717.4c-1.215-5.625-1.187-10.177-6.792-11.471a10.424,10.424,0,0,0-12.761,9.864l.792,74.516,9.654,1.729,4.583-5.307s3.691-15.85,6.221-41.022C350.4,729.431,348.255,723.042,347.043,717.4Z" transform="translate(-246.159 -511.78)" fill="#f7b897"/>
  <path id="Trazado_108832" data-name="Trazado 108832" d="M269.814,996.162v2.788a.537.537,0,0,0,.534.537h31.68a.537.537,0,0,0,.531-.6l-1.337-11.642h-1.931c-1.684,0-3.794.028-4.628,1.536s-2.513,2.635-3.615.735c-.7-1.2-1.258-3.163-3.493-3.83-2.709,2.961-6.247,3.952-8.337,4.81C276.07,991.786,269.454,993.243,269.814,996.162Z" transform="translate(-204.85 -712.295)" fill="#fff"/>
  <path id="Trazado_108833" data-name="Trazado 108833" d="M73.237,118.573c-.716-.869,3.2-.284,3.646-.781.852-.929-1.823-5.846-1.244-6.247.963-.653,2.218,1.42,2.811,2.521a48.1,48.1,0,0,1,3.305,6.448,10.713,10.713,0,0,0,3.123,4.79c1.513,1.329,5.395,4.543,12.985,9.9,8.019,5.656,12.21,8.493,12.38,8.632h0A9.33,9.33,0,1,1,97.262,156.9h0c-2.72-3.282-16.282-21.12-18.224-23.116a56.116,56.116,0,0,0-6.891-6.1c-1.3-.931-.716-4.038-.716-4.038s-1.278-3.569.852-2.459Z" transform="translate(-62.535 -86.272)" fill="#f7b897"/>
  <line id="Línea_796" data-name="Línea 796" x2="27.696" transform="translate(64.95 283.87)" fill="none" stroke="#ffdecc" stroke-miterlimit="10" stroke-width="3.2"/>
  <path id="Trazado_108834" data-name="Trazado 108834" d="M472.863,718.433a10.421,10.421,0,1,0-19.521,7l22.179,61.9,2.984,8.919,9.4-2.839,1.249-7.885S487.58,770.1,484.2,748.2C481.654,731.7,478.488,725.961,472.863,718.433Z" transform="translate(-335.552 -515.269)" fill="#f7b897"/>
  <path id="Trazado_108835" data-name="Trazado 108835" d="M487.313,987.075v2.788a.537.537,0,0,0,.534.537h17a.569.569,0,0,0,.2-.04l13.479-5.517a.537.537,0,0,0,.284-.7L514.127,973l-1.88.466a4.9,4.9,0,0,0-3.617,3.163c-1.266,2.859-3.975-.568-7.817-.02-2.152,4.719-5.148,5.753-7.627,6.068C489.812,983.1,486.956,984.156,487.313,987.075Z" transform="translate(-360.579 -703.208)" fill="#fff"/>
  <path id="Trazado_108836" data-name="Trazado 108836" d="M266.024,241.84s-3.086,13.263-2.879,21.341l9.572.622,8.05-17.46Z" transform="translate(-200.077 -179.658)" fill="#ffdecc"/>
  <path id="Trazado_108837" data-name="Trazado 108837" d="M446.29,991.309H463.2l9.4-3.339" transform="translate(-319.567 -707.439)" fill="none" stroke="#ffdecc" stroke-miterlimit="10" stroke-width="3.2"/>
  <path id="Trazado_108838" data-name="Trazado 108838" d="M88.567,179.21V241.6c0,20.245-1.621,107.156-1.238,146.843s-.593,76.45,3.331,80.851,3.317,4.455,3.813,8.251,12.991,3.254,41.874,2.947,91.928,0,91.928,0l-3.961,9.265H89.862c-7.428,0-9.135-3.632-10.222-11.114-.434-2.942-6.2-12.778-6.786-27.4-1.928-47.908-2.016-104.228-3.691-181.922-1.42-64.885-2.692-84.872-2.692-88.915Z" transform="translate(-59.255 -134.812)" fill="#ffdecc"/>
  <path id="Trazado_108839" data-name="Trazado 108839" d="M101.26,322.918c-.04-1.221,11.6-1.857,11.6-1.857-1.113-.173-10.461-.366-10.489-1.42-.02-.727,1.914-.852,5.128-1.122,4.006-.335,7.559.193,7.57-.471.023-1.264-5.247-3.16-5.074-3.836.284-1.136,2.6-.417,3.776.02a48.006,48.006,0,0,1,6.755,2.621,10.694,10.694,0,0,0,5.517,1.5,158.476,158.476,0,0,0,16.282-1.224c9.754-1.1,14.765-1.76,14.992-1.769h0a9.333,9.333,0,1,1-1.028,18.383h-.02c-4.211-.647-26.2-4.972-28.963-5.173a55.763,55.763,0,0,0-9.2.023c-1.59.165-10.875.392-11.327-.258-.568-.826,8.11-2.286,8.11-2.286s-11.778.31-11.824,0c-.185-1.318,8.5-1.814,10.816-2.388C113.873,323.679,101.291,323.938,101.26,322.918Z" transform="translate(-84.166 -231.045)" fill="#f7b897"/>
  <path id="Trazado_108840" data-name="Trazado 108840" d="M291.175,318.938s-1.956-6.227-2.964-8.763c-1.136-2.84-2.186-6.111-1.777-8.89s3.524-7.383,5.645-9.705" transform="translate(-216.695 -215.275)" fill="none" stroke="#3e3b42" stroke-miterlimit="10" stroke-width="1.43"/>
  <rect id="Rectángulo_38404" data-name="Rectángulo 38404" width="22.196" height="15.234" rx="1.85" transform="translate(28.806 46.354) rotate(180)" fill="#7e718f"/>
  <path id="Trazado_108841" data-name="Trazado 108841" d="M332.25,427.48,330.2,498.5l-.522,18.2-1.548,53.825a27.83,27.83,0,0,1-21.319,0s-7.011-106.781-6.9-121.035,1.726-22.012,1.726-22.012Z" transform="translate(-226.414 -312.587)" fill="#7e718f"/>
  <path id="Trazado_108842" data-name="Trazado 108842" d="M336.632,427.934s8.774,1.962,13.578,17.037,17.25,59.521,20.444,66.588,11.31,18.573,13.715,51.014c0,0-8.541,8.172-20.688,6.846L306,427.48Z" transform="translate(-230.771 -312.587)" fill="#7e718f"/>
  <path id="Trazado_108843" data-name="Trazado 108843" d="M298.957,344.2s-3.691-1.1-2.587-6.031c1.2-5.435.673-13.868-.125-19.325-.4-2.774,2.152-7.667,2.152-7.667h23.886s-1.7,6.871-1.973,9.773c-.826,8.834,1.065,15.134,1.973,16.648a84.864,84.864,0,0,0,4.759,7.033Z" transform="translate(-223.728 -229.31)" fill="#7e718f"/>
  <path id="Trazado_108844" data-name="Trazado 108844" d="M313.484,257.69s-5.571,10.543-5.963,16.259-5.622,5.381-5.125.826,6.471-17.085,6.471-17.085Z" transform="translate(-228.167 -191.008)" fill="#7e718f"/>
  <path id="Trazado_108845" data-name="Trazado 108845" d="M377.839,258.71a63.9,63.9,0,0,0-6.3,9.632c-2.442,5.012-3.146,8.234-1.2,8.78s3.706-1.494,4.259-3.521c1.36-5.071,5.7-12.21,7.667-14.41Z" transform="translate(-276.041 -191.738)" fill="#7e718f"/>
  <path id="Trazado_108846" data-name="Trazado 108846" d="M323.636,546.072l-.542,18.891L307,503.94Z" transform="translate(-219.828 -360.848)" fill="#706185"/>
  <path id="Trazado_108847" data-name="Trazado 108847" d="M282.245,296.338l7.431-3.524,1.153-.548,1.136-.542,23.477-11.091a9.677,9.677,0,1,0-8.277-17.494L285.1,273.574l-2.556,1.21-2.556,1.207-6.023,2.854a9.677,9.677,0,1,0,8.277,17.494Z" transform="translate(-203.867 -194.242)" fill="#f7b897"/>
  <path id="Trazado_108848" data-name="Trazado 108848" d="M80.593,132.457h0a.926.926,0,0,1-1.167-.588l-1.173-3.538a.926.926,0,0,1,.588-1.167h0a.931.931,0,0,1,1.17.588l1.17,3.538a.926.926,0,0,1-.588,1.167Z" transform="translate(-67.659 -97.512)" fill="#f7b897"/>
  <path id="Trazado_108849" data-name="Trazado 108849" d="M73.813,132.457h0a.926.926,0,0,1-1.167-.588l-1.173-3.538a.926.926,0,0,1,.588-1.167h0a.931.931,0,0,1,1.17.588l1.17,3.538A.926.926,0,0,1,73.813,132.457Z" transform="translate(-62.804 -97.512)" fill="#f7b897"/>
  <path id="Trazado_108850" data-name="Trazado 108850" d="M67.033,132.454h0a.929.929,0,0,1-1.17-.588l-1.17-3.538a.926.926,0,0,1,.588-1.167h0a.926.926,0,0,1,1.17.588l1.173,3.538a.926.926,0,0,1-.591,1.167Z" transform="translate(-57.949 -97.508)" fill="#f7b897"/>
  <path id="Trazado_108851" data-name="Trazado 108851" d="M60.231,132.456h0a.928.928,0,0,1-1.17-.588l-1.178-3.538a.926.926,0,0,1,.588-1.167h0a.926.926,0,0,1,1.167.588l1.173,3.538a.926.926,0,0,1-.579,1.167Z" transform="translate(-53.073 -97.51)" fill="#f7b897"/>
  <path id="Trazado_108852" data-name="Trazado 108852" d="M352.52,269.626s5.066,17.088,8.436,19.243c0,0,15.333-7.786,17.832-10.657s3.535-7.593,2.016-10.685c-1.55-3.155-5.034-5.778-7.451-6.042s-6.187.909-9.39,2.317S352.52,269.626,352.52,269.626Z" transform="translate(-264.082 -193.699)" fill="#ffdecc"/>
  <line id="Línea_797" data-name="Línea 797" y1="7.184" x2="12.462" transform="translate(99.873 86.428)" fill="none" stroke="#3e3b42" stroke-miterlimit="10" stroke-width="1.43"/>
  <path id="Trazado_108853" data-name="Trazado 108853" d="M2065.91,1177.981c0,1.3,6.139,2.357,13.706,2.357s13.686-1.051,13.7-2.348h0c0-1.306-6.13-2.36-13.7-2.36S2065.91,1176.675,2065.91,1177.981Z" transform="translate(-1490.96 -848.302)" fill="#006d77"/>
  <path id="Trazado_108854" data-name="Trazado 108854" d="M2080.244,956.669a10.543,10.543,0,1,1,20.873,2.087l-6.61,66.182-.744,9.49-9.921-.5-3.163-7.414s-2.235-15.529-4.279-37.853C2074.858,971.838,2076.564,965.432,2080.244,956.669Z" transform="translate(-1498.065 -683.95)" fill="#f7b897"/>
  <path id="Trazado_108855" data-name="Trazado 108855" d="M2121.3,1234.27v2.786a.568.568,0,0,1-.568.568h-31.972a.568.568,0,0,1-.568-.642l1.349-11.733h1.953c1.7,0,3.839.028,4.679,1.553s2.556,2.666,3.66.744c.7-1.21,1.272-3.2,3.535-3.876,2.737,3,6.329,4,8.433,4.87C2114.967,1229.854,2121.66,1231.325,2121.3,1234.27Z" transform="translate(-1506.909 -882.701)" fill="#fff"/>
  <line id="Línea_798" data-name="Línea 798" x1="28.02" transform="translate(586.382 351.583)" fill="none" stroke="#efecdb" stroke-miterlimit="10" stroke-width="3.23"/>
  <path id="Trazado_108856" data-name="Trazado 108856" d="M1916.77,1161.519c7.266,2.115,13.453,2.814,13.817,1.564s-5.23-3.975-12.494-6.091c-7.229-2.1-13.385-2.8-13.808-1.582v.017C1903.907,1156.681,1909.5,1159.409,1916.77,1161.519Z" transform="translate(-1375.215 -833.396)" fill="#006d77"/>
  <path id="Trazado_108857" data-name="Trazado 108857" d="M1937.695,959.657a10.54,10.54,0,1,0-20.416-4.827l-16.469,69.811,3.507,10.594,10.322-9.015s7.076-14.62,16.276-35.065C1937.848,975.754,1938.319,969.141,1937.695,959.657Z" transform="translate(-1372.74 -683.658)" fill="#f7b897"/>
  <path id="Trazado_108858" data-name="Trazado 108858" d="M2070.66,393.964a7.5,7.5,0,0,1,6.769,0c3.572,1.829,4.648,4.98,6.136,8.447s4.878,7.229,9.921,6.548,11.409,1.005,13.808,6.61,12.9,4.2,12.9,4.2,1.653,11.244-3.058,15.3c0,0-5.168-.082-7.95-3.245s-4.708-6.531-8-6.661c0,0,4.776,2.2,6.014,6.531a10.419,10.419,0,0,0,5.52,6.139,33.552,33.552,0,0,1-27.284,10.728c-17.238-1.425-28.678-20.487-28.678-20.487s-2.107-4.5,1.033-7.933,1.323-8.447,4.3-11.437S2070.66,393.964,2070.66,393.964Z" transform="translate(-1483.91 -288.009)" fill="#3e3b42"/>
  <path id="Trazado_108859" data-name="Trazado 108859" d="M1926.188,540.855h0a9.819,9.819,0,0,0,13.553,2.822l31.075-20.362a9.816,9.816,0,0,0,2.822-13.55h0a9.819,9.819,0,0,0-13.553-2.825L1929.011,527.3A9.819,9.819,0,0,0,1926.188,540.855Z" transform="translate(-1389.773 -368.346)" fill="#f7b897"/>
  <path id="Trazado_108860" data-name="Trazado 108860" d="M2098.409,466.944l-.1-11.994-10.39,1.536-1.42,10.458S2091.469,471.368,2098.409,466.944Z" transform="translate(-1505.704 -332.257)" fill="#f7b897"/>
  <path id="Trazado_108861" data-name="Trazado 108861" d="M2088.5,472.975s5.963-.045,8.5-3.123l-7.993-.642Z" transform="translate(-1507.136 -342.467)" fill="#de8759"/>
  <path id="Trazado_108862" data-name="Trazado 108862" d="M2076.066,411.375a7.626,7.626,0,1,0,15.249-.321l-.186-8.737a6.46,6.46,0,1,0-12.917.284,14.958,14.958,0,0,1-1.377,5.287c-.04.082-.074.145-.085.173a.068.068,0,0,0,0,.02A7.523,7.523,0,0,0,2076.066,411.375Z" transform="translate(-1498.231 -290.045)" fill="#f7b897"/>
  <path id="Trazado_108863" data-name="Trazado 108863" d="M2096.205,431.59s-.256,3.243-1.675,3.918a1.568,1.568,0,0,0,1.448.71" transform="translate(-1511.454 -315.53)" fill="none" stroke="#de8759" stroke-linecap="round" stroke-linejoin="round" stroke-width="1.45"/>
  <path id="Trazado_108864" data-name="Trazado 108864" d="M2109,430.865c0,.474.244.852.52.852s.494-.4.485-.875-.244-.852-.52-.852S2109,430.388,2109,430.865Z" transform="translate(-1521.815 -314.384)" fill="#16142a"/>
  <path id="Trazado_108865" data-name="Trazado 108865" d="M2081.189,400.717s1.048-2.556,2.783-2.575,2.976-.588,3.226-1.735a3,3,0,0,0,2.325,2.7c2.172.426,3.813,3.5,3.975,5.284a22.3,22.3,0,0,1-.414,4.762l1.658-1.3s0-7.1-.622-9.765-4.342-4.978-6.712-4.418c0,0-2.124-1.07-3.407.045s-1.832,2.607-3.24,3.782S2081.189,400.717,2081.189,400.717Z" transform="translate(-1501.214 -288.041)" fill="#3e3b42"/>
  <path id="Trazado_108866" data-name="Trazado 108866" d="M2053.375,490.746l10.222-2.556,1.42,28.275s-5.455,16.989-4.878,23.522H2028.9a25.99,25.99,0,0,0-.5-11.824c-1.82-5.7-4.827-10.645-4.8-15.711.045-5.239,7.442-8.873,11.074-19.249l7.857-2.453Z" transform="translate(-1460.671 -356.058)" fill="#e58e91"/>
  <path id="Trazado_108867" data-name="Trazado 108867" d="M1837.564,1234.291v2.794a.568.568,0,0,0,.568.568h32a.568.568,0,0,0,.568-.63l-1.349-11.744h-1.953c-1.7,0-3.839.028-4.682,1.553s-2.555,2.666-3.657.744c-.7-1.21-1.272-3.2-3.535-3.876-2.74,3-6.329,4-8.433,4.87C1843.893,1229.876,1837.2,1231.347,1837.564,1234.291Z" transform="translate(-1327.442 -882.722)" fill="#fff"/>
  <line id="Línea_799" data-name="Línea 799" x2="28.02" transform="translate(510.111 351.583)" fill="none" stroke="#efecdb" stroke-miterlimit="10" stroke-width="3.23"/>
  <path id="Trazado_108868" data-name="Trazado 108868" d="M2089.729,430.432c0,.477.244.852.523.852s.494-.395.483-.872-.244-.852-.52-.852S2089.721,429.969,2089.729,430.432Z" transform="translate(-1508.016 -314.076)" fill="#16142a"/>
  <path id="Trazado_108869" data-name="Trazado 108869" d="M2110.045,426.513a2.142,2.142,0,0,0-2.325-.735" transform="translate(-1520.898 -311.33)" fill="none" stroke="#16142a" stroke-miterlimit="10" stroke-width="1.45"/>
  <path id="Trazado_108870" data-name="Trazado 108870" d="M2065.91,809.88c0-1.306,6.139-2.36,13.706-2.36s13.7,1.053,13.7,2.36c.148-1.136,11.25-113.636,8.612-124.323-2.644-10.75-11.469-24-11.469-24h-19.771Z" transform="translate(-1490.96 -480.2)" fill="#63b8af"/>
  <path id="Trazado_108871" data-name="Trazado 108871" d="M1904.29,802.216c.423-1.221,6.579-.514,13.808,1.582,7.275,2.115,12.871,4.827,12.494,6.091l44.06-148.328h-31.018c.079,3.558-2.927,9.518-5.463,15.878-4.529,11.375-7.323,21.884-10.461,34.454C1924.6,724.346,1904.591,800.819,1904.29,802.216Z" transform="translate(-1375.232 -480.2)" fill="#63b8af"/>
  <path id="Trazado_108872" data-name="Trazado 108872" d="M2088.658,424.506a2.16,2.16,0,0,0-2.158.568" transform="translate(-1505.704 -310.396)" fill="none" stroke="#16142a" stroke-miterlimit="10" stroke-width="1.45"/>
  <path id="Trazado_108873" data-name="Trazado 108873" d="M2123.025,447.826a2.831,2.831,0,1,0,.477-3.484A2.523,2.523,0,0,0,2123.025,447.826Z" transform="translate(-1531.493 -324.017)" fill="#f7b897"/>
  <circle id="Elipse_5172" data-name="Elipse 5172" cx="2.198" cy="2.198" r="2.198" transform="matrix(0.318, -0.948, 0.948, 0.318, 591.24, 126.718)" fill="none" stroke="#f6f1ef" stroke-miterlimit="10" stroke-width="1.45"/>
  <line id="Línea_800" data-name="Línea 800" y1="1.678" x2="2.357" transform="translate(592.089 120.941)" fill="none" stroke="#de8759" stroke-miterlimit="10" stroke-width="1.45"/>
  <path id="Trazado_108874" data-name="Trazado 108874" d="M2015.51,504.62s-4.827.588-7.95,3.254-12.269,8.1-12.269,8.1,3.322,13.2,11.108,19.135l17.65-11.168Z" transform="translate(-1440.393 -367.823)" fill="#e58e91"/>
  <path id="Trazado_108875" data-name="Trazado 108875" d="M2026.839,561s-2.717-7.715-3.387-11.122,3.328-7.164,5.455-10.455" transform="translate(-1460.504 -392.742)" fill="none" stroke="#efecdb" stroke-miterlimit="10" stroke-width="1.3"/>
  <line id="Línea_801" data-name="Línea 801" x1="2.3" y1="34.341" transform="translate(574.95 224.062)" fill="none" stroke="#efecdb" stroke-miterlimit="10" stroke-width="1.3"/>
  <path id="Trazado_108876" data-name="Trazado 108876" d="M1804.013,509.833c1.042,1.582,4.543,3.5,9.205,6.977,3.936,2.925,17.085,15.836,23.2,21.461,1.108,1.019,1.988,1.8,2.536,2.229a9.871,9.871,0,0,0,3,1.241h.04c.111.028.227.051.338.071a10.04,10.04,0,0,0,9.654-3.49.037.037,0,0,1,.02-.026,10.066,10.066,0,0,0-2.53-14.916l-1.988-.937c-7.607-3.586-18.857-8.907-21.012-10.046-3.3-1.752-5.324-4.447-6.608-5.858a17.523,17.523,0,0,0-5.679-3.927c-1.752-.622-3.16-.852-3.456-.471s.79,1.093,2.317,2.093,2.712,2.539,2.4,3.013-4.378-.772-7.383-1.477c-6.377-1.479-8.6-5.767-9.586-5.227S1802.974,508.251,1804.013,509.833Z" transform="translate(-1299.391 -364.87)" fill="#f7b897"/>
  <path id="Trazado_108877" data-name="Trazado 108877" d="M1832.851,520.451a10.293,10.293,0,0,1-1.9-4.1c-.241-1.956-.568-3.123-1.107-3.123s-1.275,5.483-.173,7.88" transform="translate(-1321.389 -373.988)" fill="#f7b897"/>
  <path id="Trazado_108878" data-name="Trazado 108878" d="M1821.656,510.841a5.719,5.719,0,0,1-1.071-3.365c.148-1.718,0-2.343-.42-2.47s-1.2.628-1.443,2.729a11.1,11.1,0,0,0,1.565,6.247" transform="translate(-1313.934 -368.089)" fill="#f7b897"/>
  <path id="Trazado_108879" data-name="Trazado 108879" d="M1812.829,501.529a7.789,7.789,0,0,1-.852-3.058c-.153-1.988-1.187-1.928-1.5-.378-.349,1.741.241,5.844,1.539,7.576" transform="translate(-1307.989 -362.333)" fill="#f7b897"/>
  <path id="Trazado_108880" data-name="Trazado 108880" d="M1832.851,520.451a10.293,10.293,0,0,1-1.9-4.1c-.241-1.956-.568-3.123-1.107-3.123s-1.275,5.483-.173,7.88" transform="translate(-1321.389 -373.988)" fill="none" stroke="#de8759" stroke-linecap="round" stroke-linejoin="round" stroke-width="1.45"/>
  <path id="Trazado_108881" data-name="Trazado 108881" d="M1821.656,510.841a5.719,5.719,0,0,1-1.071-3.365c.148-1.718,0-2.343-.42-2.47s-1.2.628-1.443,2.729a11.1,11.1,0,0,0,1.565,6.247" transform="translate(-1313.934 -368.089)" fill="none" stroke="#de8759" stroke-linecap="round" stroke-linejoin="round" stroke-width="1.45"/>
  <path id="Trazado_108882" data-name="Trazado 108882" d="M1812.829,501.529a7.789,7.789,0,0,1-.852-3.058c-.153-1.988-1.187-1.928-1.5-.378-.349,1.741.241,5.844,1.539,7.576" transform="translate(-1307.989 -362.333)" fill="none" stroke="#de8759" stroke-linecap="round" stroke-linejoin="round" stroke-width="1.45"/>
  <path id="Trazado_108883" data-name="Trazado 108883" d="M2090.83,453.358a14.152,14.152,0,0,1,1.468-.148,5.315,5.315,0,0,1,.886.128,3.917,3.917,0,0,1,.7-.128c.389,0,1.676.148,1.676.148s-.449,2.482-2.363,2.482S2090.83,453.358,2090.83,453.358Z" transform="translate(-1508.804 -331.011)" fill="#dd5850"/>
  <path id="Trazado_108884" data-name="Trazado 108884" d="M2093.3,454.316a9.279,9.279,0,0,0,2.314-.426,2.565,2.565,0,0,1-4.651,0A9.582,9.582,0,0,0,2093.3,454.316Z" transform="translate(-1508.897 -331.498)" fill="#fff"/>
  <path id="Trazado_108885" data-name="Trazado 108885" d="M2092.771,487.267s.182-3.172-1.468-3.064c-1.843.122-12.908,1.272-14.921,1.687-1.934.4-.951,3.257-.951,3.257l8.882,1.383Z" transform="translate(-1497.599 -353.202)" fill="#e58e91"/>
  <path id="Trazado_108886" data-name="Trazado 108886" d="M2182.276,451.248s-8.34,2.294-10.929-3.473-7.309-7.792-13.689-6.624c-6.656,1.212-9.424-3.334-10.418-8.121" transform="translate(-1549.197 -316.561)" fill="none" stroke="#7e718f" stroke-linecap="round" stroke-linejoin="round" stroke-width="1.08"/>
  <path id="Trazado_108887" data-name="Trazado 108887" d="M2197.74,488.8a8.586,8.586,0,0,1-6.732-5c-2.232-4.714-5.886-5.3-11.977-5.821-6.42-.545-7.451-4.8-7.451-4.8" transform="translate(-1566.626 -345.303)" fill="none" stroke="#7e718f" stroke-linecap="round" stroke-linejoin="round" stroke-width="1.08"/>
  <path id="Trazado_108888" data-name="Trazado 108888" d="M2231.481,1037.087l.875-74.63a10.474,10.474,0,0,1,4.543-8.5h0a6.033,6.033,0,0,0,2.6-5.347l-.27-4.327-6.752-.6-.239,1.658a2.962,2.962,0,0,1-2.808,2.536l-4.137.17a6.505,6.505,0,0,0-6.193,5.764C2217.917,964.048,2217.636,989.347,2231.481,1037.087Z" transform="translate(-1600.285 -682.213)" fill="#ffbc82"/>
  <path id="Trazado_108889" data-name="Trazado 108889" d="M2240.588,721.085l-2.047-7.331s23.988-10.861,26.549-38.935c1.545-16.864-5.049-28.395-11.926-35.34a33.138,33.138,0,0,0-11.44-7.442c-6.42-2.774-17.19-5.293-23,3.691-3.064,4.748-.761,14.544,1.2,24.794,1.641,8.541,3.16,18.4,4.464,24.919,2.862,14.328,5.963,34.985,5.963,34.985Zm-2.391-10.637-14.453-66.182a6.5,6.5,0,0,1,6.959-7.871c5.875.568,13.684,2.556,19.976,8.439,10.3,9.654,12.479,25.055,8.7,38.188S2244.813,706.786,2238.2,710.449Z" transform="translate(-1599.317 -457.216)" fill="#7e718f"/>
  <path id="Trazado_108890" data-name="Trazado 108890" d="M2218.05,1043.5l-28.292-69.067a10.469,10.469,0,0,0-7.34-6.247h0a6.036,6.036,0,0,1-4.384-4.015l-1.343-4.123,6.051-3.047.835,1.454a2.953,2.953,0,0,0,3.541,1.323l3.91-1.363a6.5,6.5,0,0,1,7.9,3.089C2203.779,970.59,2213.353,994.01,2218.05,1043.5Z" transform="translate(-1570.285 -691.751)" fill="#fec89a"/>
  <path id="Trazado_108891" data-name="Trazado 108891" d="M2066.97,745.37s-4.722-20.35-7.337-34.724c-1.187-6.531-3.407-16.267-5.023-24.811-1.951-10.253-3.407-20.211-8.013-23.5-8.7-6.219-17.783.088-22.73,5.031a33.094,33.094,0,0,0-7.9,11.131c-3.833,8.976-5.713,22.148,1.931,37.245,12.724,25.158,39.014,26.418,39.014,26.418l.8,7.57Zm-40.746-24.1c-8.348-10.818-12-25.938-5.963-38.708,3.691-7.794,10.222-12.511,15.467-15.2a6.5,6.5,0,0,1,9.37,4.756l10.929,66.855C2048.514,738,2034.575,732.087,2026.224,721.272Z" transform="translate(-1452.811 -478.903)" fill="#7e718f"/>
  <path id="Trazado_108892" data-name="Trazado 108892" d="M2229.385,1005.979a4.947,4.947,0,0,0,4.827-4.591,4.4,4.4,0,0,0,0-.471,4.158,4.158,0,0,0-.031-.46,4.946,4.946,0,0,0-9.847.221c0,.156-.017.31-.014.463s.017.315.034.469A4.955,4.955,0,0,0,2229.385,1005.979Z" transform="translate(-1604.389 -719.735)" fill="#ffbc82"/>
  <path id="Trazado_108893" data-name="Trazado 108893" d="M2224.334,1012.643l9.847-.221a4.338,4.338,0,0,0,0-.471,4.16,4.16,0,0,0-.031-.46l-9.847.221c0,.156-.017.31-.014.463S2224.317,1012.487,2224.334,1012.643Z" transform="translate(-1604.368 -730.769)" fill="#fec89a"/>
  <path id="Trazado_108894" data-name="Trazado 108894" d="M2176.992,533.6h0a9.819,9.819,0,0,0,1.5-13.763L2155.2,490.874a9.819,9.819,0,0,0-13.763-1.494h0a9.816,9.816,0,0,0-1.493,13.763l23.284,28.963A9.816,9.816,0,0,0,2176.992,533.6Z" transform="translate(-1542.436 -355.372)" fill="#f7b897"/>
  <path id="Trazado_108895" data-name="Trazado 108895" d="M2063.436,620.016c-.46-1.136,10.236-5.775,10.236-5.775-1.1.224-9.938,3.3-10.327,2.326-.284-.676,1.5-1.465,4.418-2.839,3.64-1.7,7.152-2.448,6.934-3.075-.417-1.193-6.017-1.136-6.091-1.831-.125-1.159,2.288-1.295,3.546-1.3a48.2,48.2,0,0,1,7.246.114,10.7,10.7,0,0,0,5.7-.508,161.544,161.544,0,0,0,14.842-6.815c8.762-4.424,13.235-6.786,13.439-6.872h0a9.333,9.333,0,1,1,5.427,17.6h-.017c-4.174.852-26.294,4.444-28.963,5.222a55.606,55.606,0,0,0-8.621,3.22c-1.434.707-10.06,4.148-10.708,3.691-.821-.568,6.815-4.961,6.815-4.961s-10.935,4.384-11.074,4.1c-.633-1.17,7.334-4.654,9.311-6C2075.53,616.345,2063.825,620.973,2063.436,620.016Z" transform="translate(-1489.103 -430.726)" fill="#f7b897"/>
  <path id="Trazado_108896" data-name="Trazado 108896" d="M2165.142,505.183s-10.6,11.511-16.81,12.494c0,0-10.79-13.252-13.062-16.895s.744-12.21,7.757-13.345,8.865,1.343,11.4,3.938S2165.142,505.183,2165.142,505.183Z" transform="translate(-1540.092 -355.316)" fill="#e58e91"/>
  <rect id="Rectángulo_38405" data-name="Rectángulo 38405" width="325.412" height="67.835" transform="translate(34.693 287.11)" fill="#ffdecc"/>
  <path id="Trazado_108897" data-name="Trazado 108897" d="M1240.21,1011.111h12.528a3.691,3.691,0,0,1,3.691,3.691v60.441a3.691,3.691,0,0,1-3.691,3.691H1240.21v-67.824Z" transform="translate(-888.056 -724.001)" fill="#7e718f"/>
  <path id="Trazado_108898" data-name="Trazado 108898" d="M97.331,1011.14h12.528v67.824H97.331a3.691,3.691,0,0,1-3.691-3.691v-60.43a3.691,3.691,0,0,1,3.691-3.7Z" transform="translate(-67.051 -724.03)" fill="#7e718f"/>
  <line id="Línea_802" data-name="Línea 802" y2="19.016" transform="translate(48.703 287.11)" fill="none" stroke="#ffb4a2" stroke-miterlimit="10" stroke-width="5.77"/>
  <line id="Línea_803" data-name="Línea 803" y2="19.016" transform="translate(72.776 287.11)" fill="none" stroke="#ffb4a2" stroke-miterlimit="10" stroke-width="5.77"/>
  <line id="Línea_804" data-name="Línea 804" y2="19.016" transform="translate(96.849 287.11)" fill="none" stroke="#ffb4a2" stroke-miterlimit="10" stroke-width="5.77"/>
  <line id="Línea_805" data-name="Línea 805" y2="19.016" transform="translate(120.922 287.11)" fill="none" stroke="#ffb4a2" stroke-miterlimit="10" stroke-width="5.77"/>
  <line id="Línea_806" data-name="Línea 806" y2="19.016" transform="translate(144.995 287.11)" fill="none" stroke="#ffb4a2" stroke-miterlimit="10" stroke-width="5.77"/>
  <line id="Línea_807" data-name="Línea 807" y2="19.016" transform="translate(169.068 287.11)" fill="none" stroke="#ffb4a2" stroke-miterlimit="10" stroke-width="5.77"/>
  <line id="Línea_808" data-name="Línea 808" y2="19.016" transform="translate(193.141 287.11)" fill="none" stroke="#ffb4a2" stroke-miterlimit="10" stroke-width="5.77"/>
  <line id="Línea_809" data-name="Línea 809" y2="19.016" transform="translate(217.214 287.11)" fill="none" stroke="#ffb4a2" stroke-miterlimit="10" stroke-width="5.77"/>
  <line id="Línea_810" data-name="Línea 810" y2="19.016" transform="translate(241.287 287.11)" fill="none" stroke="#ffb4a2" stroke-miterlimit="10" stroke-width="5.77"/>
  <line id="Línea_811" data-name="Línea 811" y2="19.016" transform="translate(265.36 287.11)" fill="none" stroke="#ffb4a2" stroke-miterlimit="10" stroke-width="5.77"/>
  <line id="Línea_812" data-name="Línea 812" y2="19.016" transform="translate(289.433 287.11)" fill="none" stroke="#ffb4a2" stroke-miterlimit="10" stroke-width="5.77"/>
  <line id="Línea_813" data-name="Línea 813" y2="19.016" transform="translate(313.506 287.11)" fill="none" stroke="#ffb4a2" stroke-miterlimit="10" stroke-width="5.77"/>
  <line id="Línea_814" data-name="Línea 814" y2="19.016" transform="translate(337.576 287.11)" fill="none" stroke="#ffb4a2" stroke-miterlimit="10" stroke-width="5.77"/>
</svg>
