<svg xmlns="http://www.w3.org/2000/svg" width="277.34" height="254.698" viewBox="0 0 277.34 254.698">
  <g id="pliegues-01" transform="translate(-5.5 -5.066)">
    <path id="Trazado_108899" data-name="Trazado 108899" d="M223.074,161.052s-1.471,3.442-3.209,4.947-4.947,2.943-6.952,6.152c-1.463,2.332-2.409,4.947-1.067,5.747s6.419,1.067,9.757-1.342,5.085-4.947,7.494-5.61,3.743-3.442,2.934-5.214-1.463-6.823-1.463-6.823Z" transform="translate(-28.717 -21.477)" fill="#a767c8"/>
    <path id="Trazado_108900" data-name="Trazado 108900" d="M223.074,159.8s-1.471,3.442-3.209,4.947-4.947,2.943-6.952,6.152c-1.463,2.34-2.409,4.947-1.067,5.747s6.419,1.075,9.757-1.334,5.085-4.947,7.494-5.618,3.743-3.442,2.934-5.214-1.463-6.814-1.463-6.814Z" transform="translate(-28.717 -21.304)" fill="#4e2567"/>
    <path id="Trazado_108901" data-name="Trazado 108901" d="M223.87,77a137.607,137.607,0,0,0-6.419,17.113c-2.676,9.094,5.352,33.555,5.481,36.369s0,17.784,0,17.784,1.075,3.614,5.085,2l4.009-1.6s4.009-11.9,4.551-19.927-1.609-18.189-1.609-18.989.8-20.323.8-20.323l-1.471-12.3Z" transform="translate(-29.513 -10.042)" fill="#4e2567"/>
    <path id="Trazado_108902" data-name="Trazado 108902" d="M253.731,197.767s-.663,3.88-2,4.818-8.423,7.744-6.548,9.094,8.69,1.2,11.9-1.2,4.3-5.618,6.281-6.419,3.08-2.142,3.08-3.209S263.5,195.9,263.5,195.9Z" transform="translate(-33.416 -26.641)" fill="#a767c8"/>
    <path id="Trazado_108903" data-name="Trazado 108903" d="M253.731,196.526s-.663,3.88-2,4.818-8.423,7.744-6.548,9.086,8.69,1.2,11.9-1.2,4.3-5.61,6.281-6.419,3.08-2.134,3.08-3.209-2.943-4.947-2.943-4.947Z" transform="translate(-33.416 -26.467)" fill="#4e2567"/>
    <path id="Trazado_108904" data-name="Trazado 108904" d="M231.39,90.679s2.013,44.663,5.618,49.9a80.877,80.877,0,0,1,10.97,21.389,69.065,69.065,0,0,1,3.072,18.989s2.943,4.3,6.685,2,4.414-4.138,4.414-4.138-1.2-22.37-4.009-28.221a51.373,51.373,0,0,0-7.89-11.185s12.433-46.263,1.721-55.625c-3.183-2.788-15.651-6.556-15.651-6.556Z" transform="translate(-31.535 -10.076)" fill="#61317c"/>
    <path id="Trazado_108905" data-name="Trazado 108905" d="M233.319,30.092s-5.481,7.744-5.61,16.442.663,9.094.533,13.241-6.023,15.109-6.023,15.109,21.665,7.623,24.762,8.294,4.414-.809,4.414-.809,5.076-12.3,6.023-23.394,5.481-15.96.267-21.441-6.952-6.152-15.487-10.695S233.319,30.092,233.319,30.092Z" transform="translate(-30.255 -2.841)" fill="#734393"/>
    <path id="Trazado_108906" data-name="Trazado 108906" d="M251.271,52.1s4.543,3.743,4.543,5.076S259.161,64,259.824,64.8l.671.809s-5.481,1.867-8.157,3.872-11.1,6.556-11.1,6.556-3.743-1.342-5.481-.671-4.147.671-4.543,1.2a18.343,18.343,0,0,1-2.676,2.8c-.4.138-1.721,1.076.533.542a8.913,8.913,0,0,0,3.614-1.721l2.667.542-2.435,2.745s-4.147,2-5.352,3.209-1.721,2.142-.938,2,3.442-1.867,5.085-2.676l1.6-.8-1.6,2.943s-1.342.671-1.721.8-.671,1.076-.671,1.076h2.271s-.129.8.8.533a1.721,1.721,0,0,1,1.471.129s.138.938,1.2,0,3.872-4.379,3.872-4.379l4.147-5.076s20.727-3.614,23.936-7.09,1.359-11.323.31-15.246-4.3-14.7-9.094-15.487S248.733,45.548,251.271,52.1Z" transform="translate(-30.819 -5.065)" fill="#fbab79"/>
    <path id="Trazado_108907" data-name="Trazado 108907" d="M231.71,35.96s-9.223-.938-10.557-.809-6.289.4-6.289.4-5.747-2.8-3.743-6.023,10.695-3.88,14.171-5.489,11.1.138,12.3.938a21.131,21.131,0,0,1,2.581,2.142Z" transform="translate(-28.646 -2.557)" fill="#734393"/>
    <path id="Trazado_108908" data-name="Trazado 108908" d="M207.571,32.009s1.342-2.409,3.614-2.409,4.147,2.28,4.147,5.618-1.342,5.747-.671,8.027,1.334,2.943.671,3.209-4.681-.4-5.489-.542S204.1,38.548,207.571,32.009Z" transform="translate(-28.039 -3.425)" fill="#f99d5a"/>
    <path id="Trazado_108909" data-name="Trazado 108909" d="M209.043,48.848a34.941,34.941,0,0,0,5.833,1.471,6.461,6.461,0,0,0,3.39-1.11c.353-.138,3.614-.318,3.743-.447s.31-1.162-1.024-1.781-3.743.439-3.743.439l-.585-1.075,1.437-1.127s1.187,1.265,1.919,1.385c.86.138,1.316-.86.946-1.17-1.514-1.162-3.011-3.588-4.25-2.3a18.979,18.979,0,0,1-2.185,2.031s-.267-4.19-1.721-4.681-1.781,1.119-1.781,1.119a.774.774,0,0,0-1.3,0c-.757.8-.706,1.11-.706,1.11s-1.342-1.11-1.609,0a5.36,5.36,0,0,0,0,2.366C207.52,46.077,208.148,48.228,209.043,48.848Z" transform="translate(-28.169 -4.932)" fill="#fbab79"/>
    <path id="Trazado_108910" data-name="Trazado 108910" d="M238.23,32.863l1.609,3.657s-.628,2.5,1.334,3.209,9.895-3.657,10.523-5.885-.809-2.5-.809-2.5-2.314-2.5-2.314-4.19-1.428-1.248-1.428-1.248Z" transform="translate(-32.49 -2.903)" fill="#f99d5a"/>
    <path id="Trazado_108911" data-name="Trazado 108911" d="M231.965,17.752l-.86-2.5s-3.123-2.048,0-5.343,9.542-5.713,12.837-4.551,7.666,3.209,6.5,10.875-2.581,7.666-2.5,8.6-1.721-.86-2.048-.86a25.142,25.142,0,0,0-3.9,1.8c-.533.353-8.2-1.781-8.466-3.209a41.669,41.669,0,0,0-1.575-4.818Z" transform="translate(-31.302 0)" fill="#4e2567"/>
    <path id="Trazado_108912" data-name="Trazado 108912" d="M231.15,16.91a17.011,17.011,0,0,0-.86,4.371c.095,1.428.542.8.275,2.228a17.474,17.474,0,0,0,.353,6.771c.619,1.79.981,4.724,3.562,4.724s3.923-1.153,6.419-2.762,4.732-5.343,4.732-5.343a4.061,4.061,0,0,0,2.762-2.409c.714-1.962-.181-3.571-1.248-3.571s-2.323,1.609-2.323,1.609-1.334,2.048-2.4,1.6.267-3.209-1.256-4.19-2.4.275-4.457-.706S231.15,16.91,231.15,16.91Z" transform="translate(-31.382 -1.653)" fill="#fbab79"/>
    <path id="Trazado_108913" data-name="Trazado 108913" d="M260.85,40.33a6.883,6.883,0,0,1,2.943.938c1.721.929,4.81,5.076,7.09,11.1a38.167,38.167,0,0,1,2.134,12.562s-5.876,3.751-9.628.671-1.6-7.744-5.343-10.428S249.492,43.806,260.85,40.33Z" transform="translate(-34.658 -4.923)" fill="#61317c"/>
    <path id="Trazado_108914" data-name="Trazado 108914" d="M106.63,53.09v62.035L18.56,166.3V104.275Z" transform="translate(-1.823 -6.704)" fill="#7a9dc2"/>
    <path id="Trazado_108915" data-name="Trazado 108915" d="M17.78,112.13v62.026l-4.81-2.77V109.36Z" transform="translate(-1.043 -14.56)" fill="#98c4da"/>
    <path id="Trazado_108916" data-name="Trazado 108916" d="M271.868,222.126l-80.438,53.714L92.751,218.874l-8.045-11.615L18.55,169.066l.688-4.311L73.994,132.8Z" transform="translate(-1.822 -17.832)" fill="#557999"/>
    <path id="Trazado_108917" data-name="Trazado 108917" d="M67.831,136.45l.525,57.371-48.9-28.445Z" transform="translate(-1.949 -18.342)" fill="#7a9dc2"/>
    <g id="Grupo_124639" data-name="Grupo 124639" transform="translate(5.5 37.283)">
      <path id="Trazado_108918" data-name="Trazado 108918" d="M308.27,169.51v62.026L220.2,282.721V220.695Z" transform="translate(-35.473 -60.24)" fill="#7a9dc2"/>
      <path id="Trazado_108919" data-name="Trazado 108919" d="M219.42,228.549v62.026l-4.81-2.779V225.77Z" transform="translate(-34.693 -68.094)" fill="#98c4da"/>
      <path id="Trazado_108920" data-name="Trazado 108920" d="M17.86,147.175l60.8-35.1c2.469-1.428,6.47.86,8.94,5.162s2.461,8.9,0,10.325L26.894,162.6Z" transform="translate(-7.226 -52.162)" fill="#a3c8d8"/>
      <path id="Trazado_108921" data-name="Trazado 108921" d="M26.68,157.924c2.469,4.3,2.469,8.9,0,10.325s-6.47-.86-8.94-5.162-2.461-8.9,0-10.325S24.21,153.648,26.68,157.924Z" transform="translate(-6.951 -57.843)" fill="#557999"/>
      <path id="Trazado_108922" data-name="Trazado 108922" d="M23.991,169.065a5.111,5.111,0,0,1-2.521-.774A14.05,14.05,0,0,1,15.12,157.3c0-2.452.86-4.3,2.4-5.162s3.571-.714,5.687.508l-.525.912c-1.781-1.024-3.442-1.2-4.629-.508s-1.876,2.211-1.876,4.3a12.906,12.906,0,0,0,5.816,10.075,3.072,3.072,0,0,0,3.054.353,3.078,3.078,0,0,0,1.222-2.822c0-2.435-.619-6.023-6.023-9.112a2,2,0,0,0-1.962-.241,1.987,1.987,0,0,0-.766,1.815,11.185,11.185,0,0,0,.774,3.442,6.023,6.023,0,0,1-.25-2.022v-.181a1.119,1.119,0,0,1,.594-.981,4.861,4.861,0,0,1,3.8.258c1.265.74,3.149,3.442,3.244,6.5a2.28,2.28,0,0,1-1.2,2.022,3.166,3.166,0,0,1-3.1.12c-3.51-1.988-4.921-7.279-4.921-9.155a2.96,2.96,0,0,1,1.291-2.727,2.968,2.968,0,0,1,3.011.241c5.842,3.356,6.513,7.322,6.513,10.024a4.137,4.137,0,0,1-1.721,3.734A3.106,3.106,0,0,1,23.991,169.065Zm-5.36-7.52a8.6,8.6,0,0,0,3.313,4.07,2.108,2.108,0,0,0,2.039-.1,1.265,1.265,0,0,0,.688-1.093,7.694,7.694,0,0,0-2.727-5.61,4.3,4.3,0,0,0-2.581-.336.6.6,0,0,0-.232.12v.232a4.586,4.586,0,0,0,1.721,3.88,5.634,5.634,0,0,1-1.454-2.142c0-.637.654-1.075.938-1.239a1.643,1.643,0,0,1,1.523-.189,6.548,6.548,0,0,1,1.962,3.442c0,.069,0,.155,0,.25,0,.7.043,1.652-.619,2.031a1.557,1.557,0,0,1-1.54-.215,7.744,7.744,0,0,1-3.029-3.1Zm3.639,2.177a1.118,1.118,0,0,0,.413.172,1.316,1.316,0,0,0,.086-.422.86.86,0,0,1-.2.155A.654.654,0,0,1,22.27,163.722Zm-.3-1.841h.138l-.086-.095a.258.258,0,0,0-.052.095Zm.052-.095a.275.275,0,0,0,.232,0,.31.31,0,0,0,.12-.112.361.361,0,0,0-.241.052.31.31,0,0,0-.112.06Zm-1.549-1.239a7.468,7.468,0,0,0,.86,1.136.525.525,0,0,1,0-.12.809.809,0,0,1,.379-.714.792.792,0,0,1,.2-.077,2.788,2.788,0,0,0-.576-.714,1.514,1.514,0,0,0-.86.49Z" transform="translate(-6.843 -57.739)" fill="#a3c8d8"/>
      <path id="Trazado_108923" data-name="Trazado 108923" d="M35.92,155.286l60.8-35.1c2.469-1.42,6.47.86,8.94,5.162s2.469,8.9,0,10.325L44.954,170.73Z" transform="translate(-9.747 -53.294)" fill="#fc8abe"/>
      <ellipse id="Elipse_5173" data-name="Elipse 5173" cx="5.162" cy="8.94" rx="5.162" ry="8.94" transform="translate(21.859 104.482) rotate(-30)" fill="#fb4ea1"/>
      <path id="Trazado_108924" data-name="Trazado 108924" d="M42.061,177.167a5.162,5.162,0,0,1-2.53-.766,14.042,14.042,0,0,1-6.341-10.987c0-2.444.86-4.3,2.4-5.162s3.562-.714,5.679.508l-.5.921c-1.781-1.024-3.442-1.2-4.629-.508s-1.876,2.211-1.876,4.3a12.906,12.906,0,0,0,5.816,10.075,3.073,3.073,0,0,0,3.054.353,3.078,3.078,0,0,0,1.222-2.822c0-2.435-.619-6.023-6.023-9.112a2.013,2.013,0,0,0-1.97-.241,1.987,1.987,0,0,0-.766,1.815,11.013,11.013,0,0,0,.783,3.442,5.859,5.859,0,0,1-.258-2.022v-.181a1.093,1.093,0,0,1,.585-.972,4.859,4.859,0,0,1,3.8.258c1.265.731,3.149,3.442,3.244,6.5a2.263,2.263,0,0,1-1.2,2.022,3.166,3.166,0,0,1-3.1.12c-3.51-1.988-4.921-7.279-4.921-9.155a2.661,2.661,0,0,1,4.311-2.487c5.833,3.356,6.513,7.331,6.513,10.024a4.146,4.146,0,0,1-1.721,3.734A3.149,3.149,0,0,1,42.061,177.167Zm-5.369-7.52A8.6,8.6,0,0,0,40,173.725a2.091,2.091,0,0,0,2.039-.1,1.256,1.256,0,0,0,.688-1.084,7.728,7.728,0,0,0-2.719-5.618,4.3,4.3,0,0,0-2.581-.327.491.491,0,0,0-.232.12v.206a4.56,4.56,0,0,0,1.721,3.88,5.24,5.24,0,0,1-1.454-2.142c0-.628.645-1.076.929-1.239a1.643,1.643,0,0,1,1.523-.181,6.487,6.487,0,0,1,1.962,3.4v.25c0,.7.043,1.652-.619,2.039a1.532,1.532,0,0,1-1.532-.224,7.743,7.743,0,0,1-3.037-3.046Zm3.648,2.185a1.119,1.119,0,0,0,.43.172.955.955,0,0,0,.086-.413,1.12,1.12,0,0,1-.2.155.731.731,0,0,1-.318.095Zm-.31-1.85h.138l-.086-.086a.233.233,0,0,0-.052.095Zm.052-.086a.353.353,0,0,0,.232,0,.318.318,0,0,0,.12-.12.37.37,0,0,0-.241.052.318.318,0,0,0-.112.077Zm-1.549-1.256a7.89,7.89,0,0,0,.86,1.144.654.654,0,0,1,0-.129.783.783,0,0,1,.379-.706.577.577,0,0,1,.2-.086,3,3,0,0,0-.568-.714,1.506,1.506,0,0,0-.869.5Z" transform="translate(-9.366 -58.871)" fill="#fc8abe"/>
      <path id="Trazado_108925" data-name="Trazado 108925" d="M53.57,163.806l60.8-35.1c2.469-1.42,6.47.86,8.94,5.162s2.469,8.9,0,10.325l-60.7,35.044Z" transform="translate(-12.211 -54.484)" fill="#a767c8"/>
      <path id="Trazado_108926" data-name="Trazado 108926" d="M62.4,174.554c2.469,4.3,2.469,8.9,0,10.325s-6.47-.86-8.94-5.162-2.469-8.9,0-10.325S59.93,170.286,62.4,174.554Z" transform="translate(-11.937 -60.164)" fill="#734393"/>
      <path id="Trazado_108927" data-name="Trazado 108927" d="M59.711,185.7a5.162,5.162,0,0,1-2.53-.766,14.059,14.059,0,0,1-6.341-10.987c0-2.444.86-4.3,2.4-5.162s3.562-.714,5.687.508l-.525.912c-1.781-1.024-3.442-1.2-4.638-.508S51.89,171.9,51.89,174a12.906,12.906,0,0,0,5.816,10.075,3.088,3.088,0,0,0,3.063.353,3.08,3.08,0,0,0,1.222-2.822c0-2.435-.628-6.023-6.023-9.112a2,2,0,0,0-1.962-.241,1.97,1.97,0,0,0-.766,1.824,10.953,10.953,0,0,0,.774,3.442,5.808,5.808,0,0,1-.25-2.022v-.181a1.084,1.084,0,0,1,.594-.972,4.838,4.838,0,0,1,3.794.258c1.265.731,3.158,3.442,3.252,6.5a2.28,2.28,0,0,1-1.2,2.022,3.183,3.183,0,0,1-3.106.12c-3.5-1.988-4.921-7.279-4.921-9.146a2.659,2.659,0,0,1,4.3-2.5c5.876,3.321,6.539,7.262,6.539,9.955a4.127,4.127,0,0,1-1.721,3.734,3.106,3.106,0,0,1-1.592.413Zm-5.36-7.52a8.6,8.6,0,0,0,3.3,4.07,2.091,2.091,0,0,0,2.039-.1,1.256,1.256,0,0,0,.688-1.084,7.746,7.746,0,0,0-2.719-5.618,4.3,4.3,0,0,0-2.581-.327.6.6,0,0,0-.241.12v.206a4.56,4.56,0,0,0,1.721,3.88,5.24,5.24,0,0,1-1.454-2.142c0-.628.654-1.076.929-1.239a1.661,1.661,0,0,1,1.532-.181,6.479,6.479,0,0,1,1.953,3.442v.25c0,.7.052,1.652-.611,2.039a1.549,1.549,0,0,1-1.54-.224,7.649,7.649,0,0,1-3.02-3.089Zm3.639,2.185a1.187,1.187,0,0,0,.4.163.955.955,0,0,0,.086-.413,1.067,1.067,0,0,1-.189.155.766.766,0,0,1-.3.095Zm-.31-1.85h.181a.4.4,0,0,0-.086-.086A.232.232,0,0,0,57.68,178.512Zm.052-.086a.353.353,0,0,0,.232,0,.267.267,0,0,0,.12-.12.37.37,0,0,0-.224.052.319.319,0,0,0-.129.069Zm-1.54-1.256a7.691,7.691,0,0,0,.86,1.144.654.654,0,0,1,0-.129.783.783,0,0,1,.379-.706.706.706,0,0,1,.206-.086,3.218,3.218,0,0,0-.576-.714,1.463,1.463,0,0,0-.869.49Z" transform="translate(-11.83 -60.062)" fill="#a767c8"/>
      <path id="Trazado_108928" data-name="Trazado 108928" d="M27.6,135.806l60.8-35.1c2.469-1.42,6.47.86,8.94,5.162s2.469,8.9,0,10.325l-60.7,35.044Z" transform="translate(-8.585 -50.575)" fill="#fddaa5"/>
      <path id="Trazado_108929" data-name="Trazado 108929" d="M36.429,146.554c2.469,4.3,2.469,8.9,0,10.325s-6.47-.86-8.94-5.162-2.469-8.9,0-10.325S33.96,142.286,36.429,146.554Z" transform="translate(-8.311 -56.255)" fill="#fac26a"/>
      <path id="Trazado_108930" data-name="Trazado 108930" d="M33.741,157.7a5.162,5.162,0,0,1-2.53-.766,14.059,14.059,0,0,1-6.341-10.987c0-2.444.86-4.3,2.4-5.162s3.562-.714,5.687.508l-.533.912c-1.772-1.024-3.442-1.2-4.629-.508S25.92,143.9,25.92,146a12.906,12.906,0,0,0,5.816,10.075,3.088,3.088,0,0,0,3.063.353,3.055,3.055,0,0,0,1.213-2.822c0-2.435-.619-6.023-5.98-9.112a2.013,2.013,0,0,0-1.97-.241,1.979,1.979,0,0,0-.757,1.807,10.944,10.944,0,0,0,.774,3.442,6.074,6.074,0,0,1-.258-2.022,1.273,1.273,0,0,0,0-.181,1.084,1.084,0,0,1,.594-.972,4.838,4.838,0,0,1,3.794.258c1.265.731,3.149,3.442,3.244,6.5a2.263,2.263,0,0,1-1.2,2.022,3.166,3.166,0,0,1-3.1.12c-3.5-1.988-4.921-7.279-4.921-9.155a2.96,2.96,0,0,1,1.291-2.727,2.986,2.986,0,0,1,3.02.241c5.833,3.356,6.513,7.331,6.513,10.024a4.127,4.127,0,0,1-1.721,3.734A3.132,3.132,0,0,1,33.741,157.7Zm-5.317-7.52a8.544,8.544,0,0,0,3.3,4.07,2.091,2.091,0,0,0,2.039-.1,1.256,1.256,0,0,0,.688-1.084,7.728,7.728,0,0,0-2.719-5.618,4.3,4.3,0,0,0-2.581-.327.49.49,0,0,0-.232.12v.206a4.56,4.56,0,0,0,1.721,3.88,5.24,5.24,0,0,1-1.454-2.142c0-.628.645-1.076.929-1.239a1.661,1.661,0,0,1,1.488-.163,6.53,6.53,0,0,1,1.953,3.442c0,.077,0,.163,0,.25,0,.7.043,1.652-.611,2.039a1.549,1.549,0,0,1-1.54-.224,7.649,7.649,0,0,1-2.986-3.106Zm3.639,2.185a1.188,1.188,0,0,0,.4.163.955.955,0,0,0,.086-.413.86.86,0,0,1-.2.155.731.731,0,0,1-.336.095Zm-.31-1.85h.112a.4.4,0,0,0-.086-.086.232.232,0,0,0-.069.086Zm.052-.086a.353.353,0,0,0,.232,0,.318.318,0,0,0,.12-.12.37.37,0,0,0-.293.052.319.319,0,0,0-.1.069Zm-1.54-1.256a7.125,7.125,0,0,0,.86,1.144.654.654,0,0,1,0-.129.783.783,0,0,1,.379-.706.62.62,0,0,1,.207-.086,3.218,3.218,0,0,0-.576-.714,1.463,1.463,0,0,0-.912.49Z" transform="translate(-8.204 -56.153)" fill="#fddaa5"/>
      <path id="Trazado_108931" data-name="Trazado 108931" d="M45.66,143.925l60.8-35.1c2.469-1.428,6.47.86,8.94,5.162s2.469,8.9,0,10.325L54.7,159.344Z" transform="translate(-11.107 -51.708)" fill="#98c4da"/>
      <path id="Trazado_108932" data-name="Trazado 108932" d="M54.489,154.674c2.469,4.3,2.469,8.9,0,10.325s-6.47-.86-8.94-5.162-2.469-8.9,0-10.325S52.02,150.4,54.489,154.674Z" transform="translate(-10.833 -57.389)" fill="#557999"/>
      <path id="Trazado_108933" data-name="Trazado 108933" d="M51.8,165.81a5.162,5.162,0,0,1-2.53-.766,14.05,14.05,0,0,1-6.341-10.97c0-2.444.86-4.3,2.4-5.162s3.571-.714,5.687.508l-.525.912c-1.781-1.024-3.442-1.2-4.638-.508s-1.876,2.211-1.876,4.3A12.906,12.906,0,0,0,49.8,164.2a3.063,3.063,0,0,0,3.063.353,3.068,3.068,0,0,0,1.222-2.822c0-2.435-.628-6.023-6.023-9.1a1.634,1.634,0,0,0-2.727,1.575,10.953,10.953,0,0,0,.774,3.442,5.808,5.808,0,0,1-.25-2.022v-.172a1.093,1.093,0,0,1,.594-.981,4.838,4.838,0,0,1,3.794.258c1.265.731,3.158,3.442,3.252,6.5a2.271,2.271,0,0,1-1.2,2.022,3.158,3.158,0,0,1-3.106.12c-3.5-1.988-4.921-7.279-4.921-9.146a2.659,2.659,0,0,1,4.3-2.5c5.842,3.356,6.513,7.331,6.513,10.024a4.079,4.079,0,0,1-1.721,3.734,3.106,3.106,0,0,1-1.566.327ZM46.432,158.3a8.6,8.6,0,0,0,3.313,4.07,2.117,2.117,0,0,0,2.031-.1,1.282,1.282,0,0,0,.688-1.093,7.746,7.746,0,0,0-2.719-5.618,4.3,4.3,0,0,0-2.581-.327.516.516,0,0,0-.232.12,1.721,1.721,0,0,0,0,.215,4.569,4.569,0,0,0,1.721,3.88,5.488,5.488,0,0,1-1.454-2.151c0-.628.654-1.075.929-1.23a1.643,1.643,0,0,1,1.532-.189,6.479,6.479,0,0,1,1.936,3.364q0,.116,0,.258c0,.688.052,1.643-.611,2.031a1.575,1.575,0,0,1-1.54-.215,7.743,7.743,0,0,1-3.011-3.011Zm3.639,2.177a1.007,1.007,0,0,0,.4.163.929.929,0,0,0,.086-.413,1.067,1.067,0,0,1-.189.155.766.766,0,0,1-.293.095Zm-.31-1.85h.112l-.086-.086Zm.052-.086a.327.327,0,0,0,.353-.155.4.4,0,0,0-.232.052.284.284,0,0,0-.112.1Zm-1.54-1.256a7.693,7.693,0,0,0,.86,1.144.612.612,0,0,1,0-.12.783.783,0,0,1,.379-.714.672.672,0,0,1,.206-.077,3.321,3.321,0,0,0-.576-.723,1.463,1.463,0,0,0-.86.49Z" transform="translate(-10.725 -57.288)" fill="#98c4da"/>
      <path id="Trazado_108934" data-name="Trazado 108934" d="M63.32,152.445l60.813-35.1c2.461-1.428,6.47.86,8.931,5.162s2.469,8.9,0,10.325l-60.71,35.035Z" transform="translate(-13.572 -52.897)" fill="#734393"/>
      <path id="Trazado_108935" data-name="Trazado 108935" d="M72.139,163.194c2.469,4.3,2.469,8.9,0,10.325s-6.47-.86-8.94-5.162-2.469-8.9,0-10.325S69.652,158.918,72.139,163.194Z" transform="translate(-13.297 -58.578)" fill="#4e2567"/>
      <path id="Trazado_108936" data-name="Trazado 108936" d="M69.451,174.327a5.111,5.111,0,0,1-2.521-.766,14.033,14.033,0,0,1-6.35-10.987c0-2.444.86-4.3,2.4-5.162s3.571-.714,5.687.516l-.525.912c-1.781-1.032-3.442-1.213-4.638-.516s-1.867,2.211-1.867,4.3A12.906,12.906,0,0,0,67.455,172.7a2.579,2.579,0,0,0,4.276-2.469c0-2.435-.619-6.023-6.023-9.1a1.635,1.635,0,0,0-2.727,1.575,11.306,11.306,0,0,0,.774,3.442,5.876,5.876,0,0,1-.25-2.031v-.25a1.119,1.119,0,0,1,.594-.981,4.838,4.838,0,0,1,3.794.258c1.273.731,3.158,3.442,3.252,6.5a2.271,2.271,0,0,1-1.2,2.022,3.158,3.158,0,0,1-3.106.12c-3.5-1.988-4.913-7.279-4.913-9.146a2.65,2.65,0,0,1,4.3-2.487c5.842,3.347,6.513,7.322,6.513,10.015a4.127,4.127,0,0,1-1.721,3.734A3.106,3.106,0,0,1,69.451,174.327Zm-5.36-7.511a8.6,8.6,0,0,0,3.313,4.07,2.134,2.134,0,0,0,2.039-.1,1.3,1.3,0,0,0,.688-1.093,7.766,7.766,0,0,0-2.727-5.618,4.3,4.3,0,0,0-2.581-.327.516.516,0,0,0-.232.12,1.8,1.8,0,0,1,0,.215,4.62,4.62,0,0,0,1.721,3.88,5.587,5.587,0,0,1-1.454-2.151c0-.628.654-1.076.929-1.23a1.643,1.643,0,0,1,1.531-.189,6.522,6.522,0,0,1,1.962,3.4v.258c0,.7.052,1.643-.611,2.031a1.575,1.575,0,0,1-1.54-.215,7.744,7.744,0,0,1-3.037-3.046Zm3.639,2.211a.981.981,0,0,0,.413.163,1.256,1.256,0,0,0,.086-.413,1.119,1.119,0,0,1-.2.155A.766.766,0,0,1,67.73,169.027Zm-.3-1.85h.138a.43.43,0,0,0-.095-.086.405.405,0,0,0-.043.052Zm0-.086a.293.293,0,0,0,.241,0,.318.318,0,0,0,.12-.12.413.413,0,0,0-.241.052.472.472,0,0,0-.077.034Zm-1.54-1.256a8.344,8.344,0,0,0,.86,1.144v-.12a.749.749,0,0,1,.576-.792,2.874,2.874,0,0,0-.576-.723,1.489,1.489,0,0,0-.817.456Z" transform="translate(-13.189 -58.475)" fill="#734393"/>
      <path id="Trazado_108937" data-name="Trazado 108937" d="M21.51,114.9l60.8-35.113c2.469-1.42,6.47.86,8.94,5.162s2.469,8.9,0,10.325L30.536,130.323Z" transform="translate(-7.735 -47.656)" fill="#734393"/>
      <path id="Trazado_108938" data-name="Trazado 108938" d="M30.339,125.654c2.469,4.3,2.469,8.9,0,10.325s-6.47-.86-8.94-5.162-2.469-8.9,0-10.325S27.87,121.378,30.339,125.654Z" transform="translate(-7.461 -53.338)" fill="#4e2567"/>
      <path id="Trazado_108939" data-name="Trazado 108939" d="M27.651,136.792a5.162,5.162,0,0,1-2.53-.766,14.059,14.059,0,0,1-6.341-10.953c0-2.444.86-4.3,2.4-5.162s3.562-.714,5.687.508l-.533.912c-1.772-1.024-3.442-1.2-4.629-.508s-1.876,2.16-1.876,4.25a12.906,12.906,0,0,0,5.816,10.075,3.063,3.063,0,0,0,3.063.353,3.074,3.074,0,0,0,1.213-2.822c0-2.435-.619-6.023-5.98-9.1a2,2,0,0,0-1.97-.25,1.987,1.987,0,0,0-.757,1.824,10.953,10.953,0,0,0,.774,3.442,5.808,5.808,0,0,1-.25-2.022v-.181a1.084,1.084,0,0,1,.594-.972,4.838,4.838,0,0,1,3.794.258c1.265.731,3.149,3.442,3.244,6.5a2.263,2.263,0,0,1-1.2,2.022,3.14,3.14,0,0,1-3.1.12c-3.5-1.988-4.921-7.279-4.921-9.146a2.968,2.968,0,0,1,1.291-2.736,2.986,2.986,0,0,1,3.02.241C30.3,126.029,30.98,130,30.98,132.7a4.127,4.127,0,0,1-1.721,3.734,3.132,3.132,0,0,1-1.609.361Zm-5.36-7.511a8.673,8.673,0,0,0,3.3,4.07,2.116,2.116,0,0,0,2.039-.112,1.256,1.256,0,0,0,.688-1.084,7.746,7.746,0,0,0-2.719-5.618,4.3,4.3,0,0,0-2.581-.327.6.6,0,0,0-.241.12v.206a4.577,4.577,0,0,0,1.721,3.889,5.317,5.317,0,0,1-1.454-2.151c0-.628.645-1.076.929-1.23a1.635,1.635,0,0,1,1.532-.189,6.53,6.53,0,0,1,1.953,3.442v.25c0,.7.043,1.652-.611,2.039a1.575,1.575,0,0,1-1.54-.215A7.744,7.744,0,0,1,22.29,129.281Zm3.639,2.177a1.007,1.007,0,0,0,.4.163.929.929,0,0,0,.086-.413.861.861,0,0,1-.2.155A.689.689,0,0,1,25.93,131.458Zm-.31-1.85h.138a.4.4,0,0,0-.086-.086A.232.232,0,0,0,25.62,129.608Zm.052-.086a.3.3,0,0,0,.232,0,.318.318,0,0,0,.12-.12.37.37,0,0,0-.241.052A.319.319,0,0,0,25.672,129.522Zm-1.54-1.256a7.124,7.124,0,0,0,.86,1.11.611.611,0,0,1,0-.12.783.783,0,0,1,.379-.714.6.6,0,0,1,.206-.077,3.321,3.321,0,0,0-.576-.723A1.463,1.463,0,0,0,24.132,128.266Z" transform="translate(-7.354 -53.239)" fill="#734393"/>
      <path id="Trazado_108940" data-name="Trazado 108940" d="M39.57,123.018l60.8-35.087c2.469-1.428,6.47.86,8.94,5.162s2.469,8.9,0,10.325l-60.7,35.027Z" transform="translate(-10.256 -48.792)" fill="#fbab79"/>
      <path id="Trazado_108941" data-name="Trazado 108941" d="M48.4,133.764c2.469,4.3,2.469,8.9,0,10.325s-6.47-.86-8.94-5.162-2.469-8.9,0-10.325S45.93,129.488,48.4,133.764Z" transform="translate(-9.982 -54.47)" fill="#fd8e79"/>
      <path id="Trazado_108942" data-name="Trazado 108942" d="M45.711,144.9a5.162,5.162,0,0,1-2.53-.766,14.033,14.033,0,0,1-6.341-10.987c0-2.444.86-4.3,2.4-5.162s3.571-.714,5.687.516l-.525.912c-1.781-1.032-3.442-1.213-4.638-.516s-1.876,2.211-1.876,4.3a12.906,12.906,0,0,0,5.816,10.075,3.089,3.089,0,0,0,3.063.361,3.1,3.1,0,0,0,1.222-2.831c0-2.435-.628-6.023-6.023-9.1a1.987,1.987,0,0,0-1.962-.25,1.988,1.988,0,0,0-.766,1.824,11.047,11.047,0,0,0,.774,3.442,5.851,5.851,0,0,1-.25-2.031v-.172a1.1,1.1,0,0,1,.594-.981,4.838,4.838,0,0,1,3.794.258c1.265.731,3.158,3.442,3.252,6.5a2.3,2.3,0,0,1-1.2,2.031,3.183,3.183,0,0,1-3.106.112c-3.5-1.988-4.921-7.279-4.921-9.146a2.657,2.657,0,0,1,4.311-2.487c5.842,3.347,6.513,7.322,6.513,10.015a4.1,4.1,0,0,1-1.721,3.743,3.184,3.184,0,0,1-1.575.344Zm-5.36-7.511a8.6,8.6,0,0,0,3.313,4.07,2.117,2.117,0,0,0,2.031-.1,1.282,1.282,0,0,0,.688-1.093,7.764,7.764,0,0,0-2.719-5.618,4.4,4.4,0,0,0-2.581-.327.516.516,0,0,0-.232.12v.215a4.569,4.569,0,0,0,1.721,3.88,5.488,5.488,0,0,1-1.454-2.151c0-.628.654-1.067.929-1.23a1.661,1.661,0,0,1,1.531-.189,6.556,6.556,0,0,1,2,3.4v.258c0,.7.052,1.652-.611,2.031a1.575,1.575,0,0,1-1.54-.215,7.744,7.744,0,0,1-3.08-3.046Zm3.639,2.177a1.007,1.007,0,0,0,.4.163.929.929,0,0,0,.086-.413,1.066,1.066,0,0,1-.189.155.766.766,0,0,1-.3.095Zm-.31-1.85h.181a.275.275,0,0,0-.086-.086Zm.052-.086a.327.327,0,0,0,.353-.155.4.4,0,0,0-.232.052.361.361,0,0,0-.12.1Zm-1.54-1.256a7.691,7.691,0,0,0,.86,1.144c0-.043,0-.086,0-.12a.783.783,0,0,1,.379-.714,1.007,1.007,0,0,1,.206-.077,3.02,3.02,0,0,0-.576-.714,1.411,1.411,0,0,0-.869.482Z" transform="translate(-9.875 -54.366)" fill="#fbab79"/>
      <path id="Trazado_108943" data-name="Trazado 108943" d="M57.23,131.535l60.8-35.1c2.461-1.428,6.47.86,8.931,5.162s2.469,8.9,0,10.325l-60.7,35.044Z" transform="translate(-12.722 -49.978)" fill="#e73f8f"/>
      <path id="Trazado_108944" data-name="Trazado 108944" d="M66.049,142.284c2.469,4.3,2.469,8.9,0,10.325s-6.47-.86-8.94-5.162-2.469-8.9,0-10.325S63.58,138.008,66.049,142.284Z" transform="translate(-12.446 -55.659)" fill="#b53e77"/>
      <path id="Trazado_108945" data-name="Trazado 108945" d="M63.361,153.417a5.111,5.111,0,0,1-2.521-.766,14.016,14.016,0,0,1-6.35-10.987c0-2.444.86-4.3,2.4-5.162s3.571-.714,5.687.516l-.525.912c-1.781-1.032-3.442-1.213-4.638-.516s-1.867,2.22-1.867,4.3a12.906,12.906,0,0,0,5.816,10.075,2.576,2.576,0,0,0,4.276-2.469c0-2.435-.619-6.023-6.023-9.1a1.988,1.988,0,0,0-1.962-.25,2.013,2.013,0,0,0-.766,1.824,11.306,11.306,0,0,0,.774,3.442,6.074,6.074,0,0,1-.25-2.031v-.172a1.119,1.119,0,0,1,.594-.981,4.838,4.838,0,0,1,3.794.258c1.273.731,3.158,3.442,3.252,6.5a2.3,2.3,0,0,1-1.2,2.031,3.183,3.183,0,0,1-3.106.112c-3.5-1.988-4.913-7.279-4.913-9.146a2.65,2.65,0,0,1,4.3-2.487c5.842,3.347,6.513,7.322,6.513,10.015a4.153,4.153,0,0,1-1.721,3.743A3.184,3.184,0,0,1,63.361,153.417ZM58,145.906a8.6,8.6,0,0,0,3.313,4.07,2.134,2.134,0,0,0,2.039-.1,1.3,1.3,0,0,0,.688-1.093,7.766,7.766,0,0,0-2.727-5.618,4.388,4.388,0,0,0-2.581-.327.516.516,0,0,0-.232.12v.215a4.62,4.62,0,0,0,1.721,3.88,5.587,5.587,0,0,1-1.454-2.151c0-.628.654-1.067.938-1.23a1.643,1.643,0,0,1,1.523-.189,6.556,6.556,0,0,1,1.962,3.442v.258c0,.7.052,1.652-.611,2.031a1.574,1.574,0,0,1-1.54-.215A7.743,7.743,0,0,1,58,145.906Zm3.639,2.177a.981.981,0,0,0,.413.163,1.256,1.256,0,0,0,.086-.413,1.118,1.118,0,0,1-.2.155.766.766,0,0,1-.3.095Zm-.3-1.85h.138a.429.429,0,0,0-.095-.086.4.4,0,0,0-.043.086Zm0-.086a.293.293,0,0,0,.241,0,.387.387,0,0,0,.12-.112.344.344,0,0,0-.241.043.473.473,0,0,0-.077.069ZM59.8,144.89a8.344,8.344,0,0,0,.86,1.144v-.12a.749.749,0,0,1,.576-.792,2.641,2.641,0,0,0-.576-.714,1.428,1.428,0,0,0-.817.482Z" transform="translate(-12.339 -55.555)" fill="#e73f8f"/>
      <path id="Trazado_108946" data-name="Trazado 108946" d="M313.55,169.51v5.128l-88.07,51.176v-5.119Z" transform="translate(-36.21 -60.24)" fill="#557999"/>
      <path id="Trazado_108947" data-name="Trazado 108947" d="M282.84,151.78l-88.07,51.185L5.5,93.686,93.579,42.51Z" transform="translate(-5.5 -42.51)" fill="#98c4da"/>
      <path id="Trazado_108948" data-name="Trazado 108948" d="M205.195,251.094,147.66,217.882V188.56l57.535,33.211Z" transform="translate(-25.346 -62.899)" fill="#98c4da"/>
      <path id="Trazado_108949" data-name="Trazado 108949" d="M188.49,212.225v4.741l-2.5,1.351-8.2-4.741-2.5-4.225V204.61Z" transform="translate(-29.205 -65.14)" fill="#557999"/>
      <path id="Trazado_108950" data-name="Trazado 108950" d="M205.195,286.012l-57.535-33.22V223.47l57.535,33.22Z" transform="translate(-25.346 -67.773)" fill="#98c4da"/>
      <path id="Trazado_108951" data-name="Trazado 108951" d="M184.152,244.287v3.545l-1.858,1.007-6.126-3.536-1.867-3.158V238.6Z" transform="translate(-29.065 -69.885)" fill="#557999"/>
      <path id="Trazado_108952" data-name="Trazado 108952" d="M136.255,211.292,78.72,178.072V148.75l57.535,33.22Z" transform="translate(-15.722 -57.342)" fill="#98c4da"/>
      <path id="Trazado_108953" data-name="Trazado 108953" d="M118.87,172.7v4.5l-2.366,1.282-7.778-4.491-2.366-4.018V165.48Z" transform="translate(-19.58 -59.677)" fill="#557999"/>
      <path id="Trazado_108954" data-name="Trazado 108954" d="M136.255,246.2,78.72,212.992V183.67l57.535,33.211Z" transform="translate(-15.722 -62.217)" fill="#98c4da"/>
      <path id="Trazado_108955" data-name="Trazado 108955" d="M119.48,207.1v4.491l-2.366,1.291-7.778-4.5-2.366-4.009v-4.5Z" transform="translate(-19.666 -64.478)" fill="#557999"/>
      <path id="Trazado_108956" data-name="Trazado 108956" d="M194.77,211.269v5.119L5.5,107.118V101.99Z" transform="translate(-5.5 -50.814)" fill="#7a9dc2"/>
    </g>
    <path id="Trazado_108957" data-name="Trazado 108957" d="M158.82,166.366l71.508-41.3c2.908-1.721,7.615,1.041,10.514,6.066s2.908,10.462,0,12.14l-71.413,41.222Z" transform="translate(-21.404 -16.681)" fill="#fddaa5"/>
    <ellipse id="Elipse_5174" data-name="Elipse 5174" cx="6.066" cy="10.514" rx="6.066" ry="10.514" transform="translate(132.348 152.602) rotate(-30)" fill="#fac26a"/>
    <path id="Trazado_108958" data-name="Trazado 108958" d="M166.037,192.1a6.023,6.023,0,0,1-2.977-.9,16.514,16.514,0,0,1-7.46-12.906c0-2.874,1.007-5.042,2.822-6.092s4.2-.86,6.685.6l-.619,1.075c-2.091-1.213-4.027-1.428-5.446-.6s-2.2,2.581-2.2,5.016a15.1,15.1,0,0,0,6.883,11.856c1.394.8,2.667.946,3.6.413s1.437-1.721,1.437-3.321c0-2.865-.731-7.09-7.038-10.712a1.927,1.927,0,0,0-3.209,1.85,12.907,12.907,0,0,0,.912,4.035,6.883,6.883,0,0,1-.3-2.375v-.215a1.273,1.273,0,0,1,.7-1.144c1.119-.654,3.442-.267,4.465.3,1.488.86,3.708,4.078,3.82,7.64a2.684,2.684,0,0,1-1.411,2.383,3.717,3.717,0,0,1-3.648.138c-4.121-2.34-5.782-8.561-5.782-10.764a3.123,3.123,0,0,1,5.068-2.925c6.883,3.949,7.658,8.6,7.658,11.787,0,2.065-.731,3.631-2.056,4.4a3.717,3.717,0,0,1-1.893.465Zm-6.307-8.836a10.075,10.075,0,0,0,3.889,4.784,2.5,2.5,0,0,0,2.4-.12,1.523,1.523,0,0,0,.809-1.282c-.1-3.183-2.142-6.023-3.2-6.608a5.085,5.085,0,0,0-3.029-.387.7.7,0,0,0-.275.138v.25a5.412,5.412,0,0,0,2.022,4.569c-.8-.86-1.721-1.988-1.721-2.53,0-.74.766-1.256,1.093-1.445a1.944,1.944,0,0,1,1.8-.224,7.744,7.744,0,0,1,2.306,4v.3c0,.86.06,1.936-.723,2.392a1.85,1.85,0,0,1-1.807-.258A9.112,9.112,0,0,1,159.73,183.267Zm4.3,2.581a1.334,1.334,0,0,0,.473.2,1.2,1.2,0,0,0,.1-.49.775.775,0,0,1-.232.181.74.74,0,0,1-.361.086Zm-.37-2.168h.163a.387.387,0,0,0-.1-.1.646.646,0,0,0-.034.077Zm.06-.1a.37.37,0,0,0,.284-.043.353.353,0,0,0,.138-.138.439.439,0,0,0-.284.06.628.628,0,0,0-.172.095Zm-1.815-1.48a8.447,8.447,0,0,0,1.041,1.342.738.738,0,0,1,0-.138.938.938,0,0,1,.447-.86.757.757,0,0,1,.232-.086,3.441,3.441,0,0,0-.671-.86,1.721,1.721,0,0,0-1.067.576Z" transform="translate(-20.955 -23.24)" fill="#fddaa5"/>
    <path id="Trazado_108959" data-name="Trazado 108959" d="M180.06,175.909l71.516-41.3c2.9-1.678,7.606,1.041,10.514,6.066s2.9,10.462,0,12.14l-71.413,41.222Z" transform="translate(-24.369 -18.016)" fill="#fc8abe"/>
    <path id="Trazado_108960" data-name="Trazado 108960" d="M190.441,188.545c2.9,5.033,2.9,10.471,0,12.14s-7.615-1.041-10.514-6.066-2.908-10.462,0-12.14S187.533,183.521,190.441,188.545Z" transform="translate(-24.047 -24.698)" fill="#fb4ea1"/>
    <path id="Trazado_108961" data-name="Trazado 108961" d="M187.307,201.67a6.023,6.023,0,0,1-2.968-.86A16.487,16.487,0,0,1,176.87,187.9c0-2.874,1.007-5.042,2.831-6.092s4.19-.86,6.685.6l-.619,1.075c-2.091-1.213-4.027-1.42-5.446-.6s-2.211,2.581-2.211,5.016a15.083,15.083,0,0,0,6.883,11.856c1.385.8,2.667.946,3.588.413a3.63,3.63,0,0,0,1.437-3.321c0-2.865-.731-7.09-7.038-10.712a2.349,2.349,0,0,0-2.306-.284,2.314,2.314,0,0,0-.9,2.134,13.19,13.19,0,0,0,.912,4.044,7.046,7.046,0,0,1-.293-2.383v-.206a1.3,1.3,0,0,1,.7-1.153c1.127-.654,3.485-.267,4.465.3,1.488.86,3.708,4.078,3.82,7.64a2.676,2.676,0,0,1-1.4,2.383,3.717,3.717,0,0,1-3.648.138c-4.121-2.34-5.79-8.6-5.79-10.764a3.123,3.123,0,0,1,5.068-2.925c6.883,3.949,7.658,8.6,7.658,11.787,0,2.074-.731,3.631-2.056,4.4a3.717,3.717,0,0,1-1.893.422ZM181,192.834a10.144,10.144,0,0,0,3.9,4.784,2.478,2.478,0,0,0,2.392-.12,1.488,1.488,0,0,0,.809-1.282c-.095-3.183-2.134-6.023-3.2-6.608a5.162,5.162,0,0,0-3.029-.387.7.7,0,0,0-.275.138v.258a5.377,5.377,0,0,0,2.022,4.56c-.809-.86-1.721-1.979-1.721-2.521,0-.74.766-1.265,1.093-1.454a1.944,1.944,0,0,1,1.8-.224,7.744,7.744,0,0,1,2.306,4c0,.086,0,.189,0,.3,0,.86.052,1.936-.723,2.392a1.833,1.833,0,0,1-1.807-.258,9.1,9.1,0,0,1-3.588-3.6Zm4.3,2.581a1.187,1.187,0,0,0,.482.189,1.222,1.222,0,0,0,.095-.49.861.861,0,0,1-.224.181.9.9,0,0,1-.4.086Zm-.361-2.177h.163l-.1-.1a.318.318,0,0,0-.1.069Zm.06-.1a.353.353,0,0,0,.275,0,.3.3,0,0,0,.138-.138.413.413,0,0,0-.275.06.482.482,0,0,0-.181.009Zm-1.815-1.48a9.237,9.237,0,0,0,1.032,1.351.861.861,0,0,1,0-.146.921.921,0,0,1,.447-.86.645.645,0,0,1,.241-.095,3.657,3.657,0,0,0-.68-.86,1.721,1.721,0,0,0-1.084.576Z" transform="translate(-23.924 -24.582)" fill="#fc8abe"/>
    <path id="Trazado_108962" data-name="Trazado 108962" d="M200.82,185.929l71.516-41.3c2.908-1.678,7.615,1.041,10.514,6.066s2.908,10.471,0,12.14l-71.413,41.222Z" transform="translate(-27.267 -19.414)" fill="#734393"/>
    <ellipse id="Elipse_5175" data-name="Elipse 5175" cx="6.066" cy="10.514" rx="6.066" ry="10.514" transform="translate(168.487 169.439) rotate(-30)" fill="#4e2567"/>
    <path id="Trazado_108963" data-name="Trazado 108963" d="M208.038,211.668a6.023,6.023,0,0,1-2.968-.86,16.527,16.527,0,0,1-7.46-12.906c0-2.882,1-5.042,2.822-6.1s4.2-.86,6.685.6l-.619,1.076c-2.091-1.2-4.027-1.42-5.446-.6s-2.2,2.581-2.2,5.025a15.127,15.127,0,0,0,6.84,11.848c1.394.8,2.667.955,3.6.413a3.621,3.621,0,0,0,1.437-3.321c0-2.857-.731-7.081-7.047-10.712a2.349,2.349,0,0,0-2.306-.284,2.323,2.323,0,0,0-.86,2.142,12.966,12.966,0,0,0,.921,4.035,6.883,6.883,0,0,1-.3-2.383v-.206a1.308,1.308,0,0,1,.7-1.153c1.127-.645,3.442-.267,4.465.3,1.5.86,3.708,4.078,3.82,7.649a2.667,2.667,0,0,1-1.4,2.375,3.717,3.717,0,0,1-3.648.138c-4.121-2.332-5.79-8.561-5.79-10.755a3.132,3.132,0,0,1,5.068-2.934c6.883,3.949,7.666,8.6,7.666,11.787,0,2.074-.731,3.631-2.056,4.4A3.64,3.64,0,0,1,208.038,211.668Zm-6.3-8.836a10.075,10.075,0,0,0,3.889,4.784,2.478,2.478,0,0,0,2.392-.12,1.471,1.471,0,0,0,.809-1.282c-.095-3.183-2.134-6.023-3.2-6.608a5.162,5.162,0,0,0-3.029-.387.559.559,0,0,0-.267.146v.258a5.377,5.377,0,0,0,2.022,4.56c-.809-.86-1.721-1.979-1.721-2.521,0-.74.766-1.265,1.1-1.454a1.944,1.944,0,0,1,1.79-.224,7.649,7.649,0,0,1,2.306,4v.3c0,.86.052,1.944-.723,2.392a1.833,1.833,0,0,1-1.807-.258,9,9,0,0,1-3.562-3.588Zm4.3,2.581a1.136,1.136,0,0,0,.482.189,1.2,1.2,0,0,0,.1-.49,1.179,1.179,0,0,1-.232.189,1.058,1.058,0,0,1-.379.095Zm-.361-2.177h.163a.585.585,0,0,0-.1-.1.648.648,0,0,0-.052.086Zm.06-.1a.344.344,0,0,0,.275-.043.3.3,0,0,0,.138-.138.49.49,0,0,0-.275.06.482.482,0,0,0-.189.1Zm-1.815-1.471A9.771,9.771,0,0,0,204.958,203c0-.052,0-.095,0-.146a.921.921,0,0,1,.447-.86.861.861,0,0,1,.241-.095,3.442,3.442,0,0,0-.68-.86,1.721,1.721,0,0,0-1.067.6Z" transform="translate(-26.819 -25.976)" fill="#734393"/>
    <path id="Trazado_108964" data-name="Trazado 108964" d="M188.6,90.952s-8.759,12.906-8.329,15.367c0,0-2.426,8.6-10.807,8.415s-14.36-7.83-14.36-7.83-.568-7.744-1.136-10.48-2.874-1.876-4.3-6.883c-.981-3.442,5.765-18.24,9.464-25.554,1.721-3.373,4.595-4.629,8.191-3.442l1.428-.706,9.619.86a19.133,19.133,0,0,1,1.153,3.734c.86,3.3,1.876,3.011,7.9,7.744S188.6,90.952,188.6,90.952Z" transform="translate(-20.112 -7.647)" fill="#fddaa5"/>
    <path id="Trazado_108965" data-name="Trazado 108965" d="M181.973,61.243c0,1.867-2.624,3.381-5.851,3.381s-5.842-1.514-5.842-3.381,2.581-3.373,5.842-3.373S181.973,59.384,181.973,61.243Z" transform="translate(-23.004 -7.372)" fill="#a767c8"/>
    <path id="Trazado_108966" data-name="Trazado 108966" d="M181.64,60.533c0,1.721-2.444,3.158-5.455,3.158s-5.455-1.411-5.455-3.158,2.444-4.663,5.455-4.663S181.64,58.8,181.64,60.533Z" transform="translate(-23.067 -7.092)" fill="#61317c"/>
    <path id="Trazado_108967" data-name="Trazado 108967" d="M194.548,87.4c-2.357,4.087-6.178,6.3-8.535,4.93s-2.357-5.773,0-9.86,6.178-6.289,8.535-4.93S196.94,83.327,194.548,87.4Z" transform="translate(-24.954 -10.062)" fill="#f6b85d"/>
    <path id="Trazado_108968" data-name="Trazado 108968" d="M178.635,55.824A1.833,1.833,0,1,1,176.8,54a1.833,1.833,0,0,1,1.833,1.824Z" transform="translate(-23.659 -6.831)" fill="#734393"/>
    <path id="Trazado_108969" data-name="Trazado 108969" d="M160.144,69.56s-.146,4.164,5.3,6.6,8.466,1.575,8.466,1.575-6.453,11.331-6.883,15.349-1.162,22.078-1.162,22.078a12.742,12.742,0,0,1-5.73-1.291,8.423,8.423,0,0,1-3.872-3.726s-4.3-23.515-3.442-28.247S160.144,69.56,160.144,69.56Z" transform="translate(-20.551 -9.004)" fill="#a767c8"/>
    <path id="Trazado_108970" data-name="Trazado 108970" d="M166.81,59.993S155.341,71.178,153.9,81.5s1.153,26.388,1.153,26.388-2.874.284-5.455-5.162-2-5.739-2.581-7.744-3.726-2.3-2.865-7.167,1.144-4.3,1.721-6.6-2.581-14.627,1.437-17.208,4.586,1.721,4.586-3.442-2-5.739.576-6.883c2.074-.921,6.186.749,7.744,1.445a1.153,1.153,0,0,0,1.153-.12,3.571,3.571,0,0,1,5.6,3.209Z" transform="translate(-19.336 -6.75)" fill="#61317c"/>
    <path id="Trazado_108971" data-name="Trazado 108971" d="M182.709,66.5s16.348-6.883,20.082-1.144-5.455,4.3-9.464,7.744,6.023,5.446-3.158,6.307-10.609,2.581-8.888,6.023-1.153,8.9-2.3,9.18.86,5.162,1.721,5.739-6.307,4.87-6.307,9.748.86,5.739,0,5.739-7.176-1.721-7.176-1.721-4.44-22.086.723-30.974S182.709,66.5,182.709,66.5Z" transform="translate(-22.329 -8.098)" fill="#61317c"/>
    <path id="Trazado_108972" data-name="Trazado 108972" d="M215.5,48.23,185.62,64.578Z" transform="translate(-25.145 -6.026)" fill="#a3c8d8"/>
    <path id="Trazado_108973" data-name="Trazado 108973" d="M185.707,64.719l-.207-.379,29.882-16.33.207.379Z" transform="translate(-25.129 -5.995)" fill="#61317c"/>
    <path id="Trazado_108974" data-name="Trazado 108974" d="M224.319,47.809s-3.545-.275-3.923-.163a.327.327,0,0,0,.112.645C220.981,48.291,224.319,47.809,224.319,47.809Z" transform="translate(-29.962 -5.94)" fill="#a3c8d8"/>
    <path id="Trazado_108975" data-name="Trazado 108975" d="M98.915,116.766c-.224,0-3.674-.241-3.674-.241L72.63,106.2s9.275,5.722,14.807,8.363,6.935,3.226,6.935,3.226l4.508.533Z" transform="translate(-9.372 -14.119)" fill="#557999"/>
    <path id="Trazado_108976" data-name="Trazado 108976" d="M95.018,115.442c1.273.731,3.063,5.317,3.063,5.317l-4.3.731-1.153-5.24-20-10.041a26.775,26.775,0,0,1,6.341,1.583C85.3,110.331,94.157,114.943,95.018,115.442Z" transform="translate(-9.372 -14.12)" fill="#98c4da"/>
    <path id="Trazado_108977" data-name="Trazado 108977" d="M95.928,115.395c1.273.74,3.072,5.317,3.072,5.317l-4.354.74-1.153-5.24L72.74,106.18a28.5,28.5,0,0,1,7.107,1.566C86.214,110.327,95.067,114.9,95.928,115.395Z" transform="translate(-9.387 -14.116)" fill="#7a9dc2"/>
    <path id="Trazado_108978" data-name="Trazado 108978" d="M112.754,117.413c-3.252-1.1-8.6-.86-10.247.964s2.435,2.951,2.435,2.951c4.379,1.015,6.72,3.837,8.277,3.39C118.028,123.349,117.839,119.142,112.754,117.413Zm1.721,4.853a1.342,1.342,0,0,1-.749,1.058c-.929.4-1.325-.353-1.781-.619a19.153,19.153,0,0,0-5.782-2.5c-.06,0-2.185-.516-1.549-1.23a.74.74,0,0,1,.224-.181c.792-.456,3.571-.568,6.135.31,2.71.921,3.571,2.28,3.485,3.158Z" transform="translate(-13.488 -15.592)" fill="#b53e77"/>
    <path id="Trazado_108979" data-name="Trazado 108979" d="M112.329,117c-3.252-1.1-7.907-1.153-9.525.671s2.117,2.581,2.117,2.581c4.379,1.024,6.72,3.846,8.277,3.442C118.007,122.313,117.414,118.734,112.329,117Zm2.108,4.225a1.342,1.342,0,0,1-.749,1.058c-.929.4-1.325-.353-1.781-.619a19.152,19.152,0,0,0-5.782-2.5c-.06,0-2.185-.516-1.549-1.23a.938.938,0,0,1,.224-.189c.792-.447,3.571-.559,6.135.318,2.727.921,3.588,2.263,3.5,3.123Z" transform="translate(-13.527 -15.519)" fill="#fb4ea1"/>
    <path id="Trazado_108980" data-name="Trazado 108980" d="M108.708,123.54c-1.05-.723-6.178-2.117-9.2-1.962-4.216.224-3.244,1.471-2.986,2.357s2.581,5.274,6.986,5.214C109.525,129.081,110.557,124.822,108.708,123.54Zm-3.106,3.528a5.455,5.455,0,0,1-4.646-.3c-1.394-.8-1.514-1.342-.473-1.944a4.982,4.982,0,0,1,4.414.37c1.394.809,1.747,1.273.706,1.91Z" transform="translate(-12.668 -16.264)" fill="#b53e77"/>
    <path id="Trazado_108981" data-name="Trazado 108981" d="M108.309,123a12.691,12.691,0,0,0-6.883-1.506c-4.216.224-5.111.155-4.853,1.041s2.581,5.266,6.986,5.214C109.565,127.673,110.159,124.283,108.309,123Zm-2.727,3.338a5.008,5.008,0,0,1-4.414-.37c-1.394-.8-1.721-1.953-.645-2.581a4.917,4.917,0,0,1,4.414.361C106.33,124.55,106.623,125.737,105.582,126.34Z" transform="translate(-12.709 -16.25)" fill="#fb4ea1"/>
    <ellipse id="Elipse_5176" data-name="Elipse 5176" cx="9.963" cy="5.756" rx="9.963" ry="5.756" transform="translate(80.131 59.386)" fill="#e6bbeb"/>
    <path id="Trazado_108982" data-name="Trazado 108982" d="M111.626,71.6a3.638,3.638,0,0,0-.069-.594c-.017-.12-.069-.413-.095-.525-.06-.318-.181-.8-.241-1.015s-.086-.284-.129-.4-.095-.275-.138-.387-.1-.275-.155-.387c-.206-.5-.439-.912-.5-1.032a3.528,3.528,0,0,0-.258-.4c-.086-.12-.327-.473-.473-.671s-.473-.525-.688-.749a6.16,6.16,0,0,0-.559-.49c-.25-.189-.6-.422-.86-.594l-.095-.06-.645-.344-.473-.206a9.043,9.043,0,0,0-1.05-.37c-.568-.163-1-.241-1-.241l-.473-.069a7.743,7.743,0,0,0-.938-.086h-.929a4.381,4.381,0,0,0-.473,0,6.78,6.78,0,0,0-.989.129c-.284.06-.663.155-.946.232s-.4.12-.568.181a10.161,10.161,0,0,0-.989.413l-.482.25c-.138.086-.327.189-.465.284a7.485,7.485,0,0,0-.86.628c-.112.1-.275.232-.387.344s-.4.43-.568.628a4.464,4.464,0,0,0-.31.4l-.361.533c-.095.155-.336.585-.482.86l-.2.447c-.146.387-.189.5-.284.809s-.155.5-.206.714-.095.4-.138.637c0,.052-.06.318-.095.533a4.2,4.2,0,0,1-.06.594c-.112,1.42.749,2.865,2.581,3.975a14.542,14.542,0,0,0,13.19.129C110.791,74.653,111.746,73.122,111.626,71.6Zm-8.6-6.023a1.583,1.583,0,0,1-1.42,0c-.379-.232-.361-.6,0-.86a1.54,1.54,0,0,1,1.411,0c.387.336.37.706-.026.921Z" transform="translate(-12.214 -8.083)" fill="#a767c8"/>
    <path id="Trazado_108983" data-name="Trazado 108983" d="M104.335,65.9a1.583,1.583,0,0,1-1.42,0c-.379-.232-.361-.6,0-.86a1.54,1.54,0,0,1,1.411,0C104.748,65.318,104.73,65.688,104.335,65.9Z" transform="translate(-13.561 -8.349)" fill="#e6bbeb"/>
    <rect id="Rectángulo_38406" data-name="Rectángulo 38406" width="3.631" height="0.224" transform="translate(92.773 62.414) rotate(-65.57)" fill="#7a9dc2"/>
    <rect id="Rectángulo_38407" data-name="Rectángulo 38407" width="2.185" height="0.224" transform="translate(94.411 64.947) rotate(-26.55)" fill="#7a9dc2"/>
    <rect id="Rectángulo_38408" data-name="Rectángulo 38408" width="0.224" height="2.185" transform="translate(82.404 63.584) rotate(-63.43)" fill="#7a9dc2"/>
    <rect id="Rectángulo_38409" data-name="Rectángulo 38409" width="4.336" height="0.224" transform="matrix(0.512, -0.859, 0.859, 0.512, 96.838, 59.466)" fill="#7a9dc2"/>
    <rect id="Rectángulo_38410" data-name="Rectángulo 38410" width="0.224" height="6.221" transform="translate(82.929 50.776) rotate(-26.57)" fill="#7a9dc2"/>
    <rect id="Rectángulo_38411" data-name="Rectángulo 38411" width="0.224" height="3.467" transform="translate(79.699 58.429) rotate(-57.86)" fill="#7a9dc2"/>
    <path id="Trazado_108984" data-name="Trazado 108984" d="M92.571,66.5a1.015,1.015,0,1,1-1.015-1.015A1.015,1.015,0,0,1,92.571,66.5Z" transform="translate(-11.872 -8.434)" fill="#b53e77"/>
    <path id="Trazado_108985" data-name="Trazado 108985" d="M96.5,58.155a1.015,1.015,0,1,1-1.015-1.015A1.015,1.015,0,0,1,96.5,58.155Z" transform="translate(-12.421 -7.27)" fill="#fc8abe"/>
    <rect id="Rectángulo_38412" data-name="Rectángulo 38412" width="4.724" height="0.224" transform="translate(91.813 55.617) rotate(-76.59)" fill="#7a9dc2"/>
    <path id="Trazado_108986" data-name="Trazado 108986" d="M108.062,58.443a1.015,1.015,0,1,1-.86-1.144A1.015,1.015,0,0,1,108.062,58.443Z" transform="translate(-14.036 -7.29)" fill="#f99d5a"/>
    <circle id="Elipse_5177" data-name="Elipse 5177" cx="1.015" cy="1.015" r="1.015" transform="translate(98.104 54.792)" fill="#abe4e7"/>
    <path id="Trazado_108987" data-name="Trazado 108987" d="M112.191,73.405a1.015,1.015,0,1,1-1.015-1.015A1.015,1.015,0,0,1,112.191,73.405Z" transform="translate(-14.611 -9.399)" fill="#b53e77"/>
    <circle id="Elipse_5178" data-name="Elipse 5178" cx="1.015" cy="1.015" r="1.015" transform="translate(81.301 62.2)" fill="#abe4e7"/>
    <rect id="Rectángulo_38413" data-name="Rectángulo 38413" width="0.224" height="4.293" transform="matrix(0.876, -0.482, 0.482, 0.876, 86.723, 61.207)" fill="#7a9dc2"/>
    <path id="Trazado_108988" data-name="Trazado 108988" d="M100.671,69.832a1.015,1.015,0,1,1-.3-.735,1.015,1.015,0,0,1,.3.735Z" transform="translate(-13.003 -8.897)" fill="#f99d5a"/>
    <path id="Trazado_108989" data-name="Trazado 108989" d="M110.141,67.545a1.015,1.015,0,1,1-1.015-1.015,1.015,1.015,0,0,1,1.015,1.015Z" transform="translate(-14.325 -8.581)" fill="#fc8abe"/>
    <path id="Trazado_108990" data-name="Trazado 108990" d="M101.561,57.578c-.077-.981-.749-.86-.731,0,.06,2.53.508,6.53.508,6.53h.31S101.682,59.342,101.561,57.578Zm-.258,2.3a.129.129,0,0,1-.138-.12l-.12-2.263a.134.134,0,0,1,.267-.009l.112,2.254a.129.129,0,0,1-.12.138Z" transform="translate(-13.308 -7.234)" fill="#b2deed"/>
    <path id="Trazado_108991" data-name="Trazado 108991" d="M110.085,60.4c.181-.637-.258-.74-.447-.189-.542,1.609-1.187,4.242-1.187,4.242l.2.069S109.784,61.546,110.085,60.4ZM109.4,61.8a.1.1,0,0,1-.06-.112l.447-1.454a.09.09,0,0,1,.172.052l-.447,1.42a.1.1,0,0,1-.112.095Z" transform="translate(-14.372 -7.649)" fill="#b2deed"/>
    <path id="Trazado_108992" data-name="Trazado 108992" d="M117.621,68.912c.559-.353.293-.723-.215-.447-1.48.86-3.726,2.34-3.726,2.34l.095.189S116.605,69.523,117.621,68.912Zm-1.454.568a.086.086,0,0,1,0-.12l1.308-.774a.086.086,0,0,1,.12,0,.1.1,0,0,1,0,.12l-1.308.774a.1.1,0,0,1-.12-.017Z" transform="translate(-15.102 -8.837)" fill="#b2deed"/>
    <path id="Trazado_108993" data-name="Trazado 108993" d="M104.75,69.238c-.086-.8-.533-.714-.49,0,.129,2.074.559,5.369.559,5.369h.206S104.9,70.675,104.75,69.238Zm-.095,1.91a.095.095,0,0,1-.095-.1l-.155-1.858a.086.086,0,0,1,.077-.112.1.1,0,0,1,.095.095l.155,1.858A.12.12,0,0,1,104.655,71.148Z" transform="translate(-13.787 -8.879)" fill="#b2deed"/>
  </g>
</svg>
