<svg xmlns="http://www.w3.org/2000/svg" width="135" height="135" viewBox="0 0 135 135">
  <g id="Grupo_124651" data-name="Grupo 124651" transform="translate(8658 6213)">
    <g id="Grupo_124649" data-name="Grupo 124649">
      <g id="Grupo_124648" data-name="Grupo 124648" transform="translate(-9125 -9780.73)">
        <circle id="Elipse_5053" data-name="Elipse 5053" cx="67.5" cy="67.5" r="67.5" transform="translate(467 3567.73)" fill="#bf3976"/>
      </g>
      <g id="tshirt" transform="translate(-8657.597 -6192.275)">
        <path id="Trazado_107937" data-name="Trazado 107937" d="M104.25,65.821a1.738,1.738,0,0,0,1.736-1.736v-6.81a1.738,1.738,0,0,0-1.736-1.736H97.44A1.738,1.738,0,0,0,95.7,57.276v2.034H80.374V48.588a1.37,1.37,0,1,0-2.741,0V59.309h-4.94V57.276a1.738,1.738,0,0,0-1.736-1.736h-6.81a1.738,1.738,0,0,0-1.736,1.736v.939H58.794a1.37,1.37,0,1,0,0,2.741h3.619v3.13a1.738,1.738,0,0,0,1.736,1.736h2.035V69.5H34.219V26.079a1.37,1.37,0,1,0-2.741,0V36.4l-9.025-2.443a.156.156,0,0,1-.11-.187l4.846-21.241a4.323,4.323,0,0,1,1.932-2.72l10.369-6.5a3.713,3.713,0,0,1,1.976-.569h1.249A13.633,13.633,0,0,0,55.927,13.219,13.632,13.632,0,0,0,69.138,2.741h1.249a3.721,3.721,0,0,1,1.976.569l10.369,6.5a4.323,4.323,0,0,1,1.931,2.719l4.846,21.241a.156.156,0,0,1-.111.187L80.374,36.4V26.079a1.37,1.37,0,1,0-2.741,0V42.192a1.37,1.37,0,0,0,2.741,0V39.241L90.114,36.6a2.89,2.89,0,0,0,2.067-3.442L87.336,11.922A7.046,7.046,0,0,0,84.188,7.49L73.819.987A6.459,6.459,0,0,0,70.387,0H41.465a6.45,6.45,0,0,0-3.432.988l-10.369,6.5a7.047,7.047,0,0,0-3.148,4.432l-4.845,21.24a2.889,2.889,0,0,0,2.067,3.442l9.741,2.637V76.684a3.2,3.2,0,0,0,3.2,3.2h1.831a1.37,1.37,0,0,0,0-2.741H34.676a.457.457,0,0,1-.457-.457V72.24H66.183v4.9H42.9a1.37,1.37,0,1,0,0,2.741H66.183v3.388H64.148A1.738,1.738,0,0,0,62.413,85v6.81a1.738,1.738,0,0,0,1.736,1.736h6.81a1.738,1.738,0,0,0,1.736-1.736V89.779H95.7v2.035A1.738,1.738,0,0,0,97.44,93.55h6.81a1.738,1.738,0,0,0,1.736-1.736V85a1.738,1.738,0,0,0-1.736-1.736h-2.034V65.821h2.033ZM55.927,10.479A10.882,10.882,0,0,1,45.549,2.741H66.3a10.88,10.88,0,0,1-10.376,7.738Zm42.518,47.8h4.8v4.8h-4.8Zm-33.292,0h4.8v4.8h-4.8Zm0,32.529v-4.8h4.8v2.382c0,.006,0,.012,0,.018s0,.012,0,.018V90.81Zm38.092,0h-4.8v-4.8h4.8Zm-3.77-7.541H97.44A1.738,1.738,0,0,0,95.7,85v2.034H72.694V85a1.738,1.738,0,0,0-1.736-1.736H68.924V65.821h2.035a1.738,1.738,0,0,0,1.736-1.736V62.05H95.7v2.035a1.738,1.738,0,0,0,1.736,1.736h2.035V83.269Z" transform="translate(4 0.275)" fill="#fff"/>
        <path id="Trazado_107938" data-name="Trazado 107938" d="M343.2,369.784H337.7V364.29a1.37,1.37,0,0,0-2.741,0v5.493H329.47a1.37,1.37,0,1,0,0,2.741h5.493v5.493a1.37,1.37,0,0,0,2.741,0v-5.493H343.2a1.37,1.37,0,0,0,0-2.741Z" transform="translate(-252.135 -296.609)" fill="#fff"/>
        <path id="Trazado_107939" data-name="Trazado 107939" d="M177.262,318.611h-4.324a1.37,1.37,0,1,0,0,2.741h4.324a1.37,1.37,0,1,0,0-2.741Z" transform="translate(-124.204 -260.396)" fill="#fff"/>
        <path id="Trazado_107940" data-name="Trazado 107940" d="M129.319,309.261A1.683,1.683,0,0,0,131,310.941h2.017a1.37,1.37,0,1,0,0-2.741h-.957v-.957a1.37,1.37,0,1,0-2.741,0Z" transform="translate(-89.674 -249.985)" fill="#fff"/>
        <path id="Trazado_107941" data-name="Trazado 107941" d="M133.017,102.138H131a1.682,1.682,0,0,0-1.681,1.681v2.017a1.37,1.37,0,1,0,2.741,0v-.957h.957a1.37,1.37,0,1,0,0-2.741Z" transform="translate(-89.674 -83.476)" fill="#fff"/>
        <path id="Trazado_107942" data-name="Trazado 107942" d="M284.866,103.819a1.682,1.682,0,0,0-1.681-1.681h-2.017a1.37,1.37,0,0,0,0,2.741h.957v.957a1.37,1.37,0,1,0,2.741,0Z" transform="translate(-212.659 -83.476)" fill="#fff"/>
        <path id="Trazado_107943" data-name="Trazado 107943" d="M177.262,102.138h-4.324a1.37,1.37,0,1,0,0,2.741h4.324a1.37,1.37,0,1,0,0-2.741Z" transform="translate(-124.204 -83.476)" fill="#fff"/>
        <path id="Trazado_107944" data-name="Trazado 107944" d="M227.992,102.138a1.37,1.37,0,1,0,0,2.741h4.324a1.37,1.37,0,0,0,0-2.741Z" transform="translate(-169.199 -83.476)" fill="#fff"/>
        <path id="Trazado_107945" data-name="Trazado 107945" d="M129.319,204.237a1.37,1.37,0,0,0,2.741,0v-4.324a1.37,1.37,0,1,0-2.741,0Z" transform="translate(-89.674 -162.265)" fill="#fff"/>
        <path id="Trazado_107946" data-name="Trazado 107946" d="M130.689,151.942a1.37,1.37,0,0,0,1.37-1.37v-4.324a1.37,1.37,0,0,0-2.741,0v4.324a1.37,1.37,0,0,0,1.37,1.37Z" transform="translate(-89.674 -118.406)" fill="#fff"/>
        <path id="Trazado_107947" data-name="Trazado 107947" d="M295.277,198.421a1.37,1.37,0,1,0-2.741,0v4.324a1.37,1.37,0,1,0,2.741,0Z" transform="translate(-223.069 -161.047)" fill="#fff"/>
        <path id="Trazado_107948" data-name="Trazado 107948" d="M295.277,145.033a1.37,1.37,0,0,0-2.741,0v4.324a1.37,1.37,0,0,0,2.741,0Z" transform="translate(-223.069 -117.414)" fill="#fff"/>
        <path id="Trazado_107949" data-name="Trazado 107949" d="M129.319,257.9a1.37,1.37,0,1,0,2.741,0v-4.324a1.37,1.37,0,1,0-2.741,0Z" transform="translate(-89.674 -206.126)" fill="#fff"/>
        <path id="Trazado_107950" data-name="Trazado 107950" d="M293.906,252.208a1.37,1.37,0,0,0-1.37,1.37V257.9a1.37,1.37,0,0,0,2.741,0v-4.324a1.37,1.37,0,0,0-1.37-1.37Z" transform="translate(-223.069 -206.126)" fill="#fff"/>
      </g>
    </g>
  </g>
</svg>
