<svg xmlns="http://www.w3.org/2000/svg" width="104.096" height="134.947" viewBox="0 0 104.096 134.947">
  <g id="sketch" transform="translate(-58.525)">
    <g id="Grupo_124513" data-name="Grupo 124513" transform="translate(60.502 1.977)">
      <path id="Trazado_107929" data-name="Trazado 107929" d="M189.556,128.478H197.2L195.354,7.5H113a1.977,1.977,0,0,0-1.977,1.977v9.884Z" transform="translate(-99.165 -7.5)" fill="#f4e2c1"/>
      <path id="Trazado_107930" data-name="Trazado 107930" d="M197.331,7.5h-1.977V124.656a1.977,1.977,0,0,1-1.977,1.977H191.4V21.337a1.977,1.977,0,0,0-1.977-1.977h-78.4V128.61A1.977,1.977,0,0,0,113,130.586h84.328a1.977,1.977,0,0,0,1.977-1.977V9.477A1.977,1.977,0,0,0,197.331,7.5Z" transform="translate(-99.165 -7.5)" fill="#f3d69e"/>
      <path id="Trazado_107931" data-name="Trazado 107931" d="M152.2,158.478,150.354,37.5H68a1.977,1.977,0,0,0-1.977,1.977V156.633Z" transform="translate(-66.026 -29.593)" fill="#f5fcff"/>
      <path id="Trazado_107932" data-name="Trazado 107932" d="M152.331,37.5h-1.977V154.656a1.977,1.977,0,0,1-1.977,1.977H66.026v1.977A1.977,1.977,0,0,0,68,160.586h84.328a1.977,1.977,0,0,0,1.977-1.977V39.477A1.977,1.977,0,0,0,152.331,37.5Z" transform="translate(-66.026 -29.593)" fill="#dcf2f6"/>
      <path id="Trazado_107933" data-name="Trazado 107933" d="M153.357,186.593l3.7-9.219c-3.123-2.145-8.238-4.927-13.761-4.927-3.459,0-4.809,1.906-.8,14.176-4.61,8.4-12.566,25.4-16.466,49.982,0,0,9.139,3.708,24.39,3.708,25.444,0,40.2-11.749,40.2-11.749C177.613,204.286,158.9,190.154,153.357,186.593Z" transform="translate(-110.213 -128.971)" fill="#da8bc1"/>
      <g id="Grupo_124512" data-name="Grupo 124512" transform="translate(38.09 16.08)">
        <path id="Trazado_107934" data-name="Trazado 107934" d="M213.093,68.508a11.247,11.247,0,0,0-2.549.273c0,6.334,2.4,8.7,8.773,8.7.194,0,.379,0,.567.008l2.048-5.181S219.317,68.508,213.093,68.508Z" transform="translate(-210.544 -68.508)" fill="#bae6ef"/>
        <path id="Trazado_107935" data-name="Trazado 107935" d="M239.685,110.6c3.529-3.529,1.748-7.861-7.645-8.029l-4.989,12.62a44.172,44.172,0,0,1,7.23,3.681s1.979,1.248,4.417,2.953c0,0,2.432-.756,5.95-4.274C246.546,115.653,247.08,110.6,239.685,110.6Z" transform="translate(-222.7 -93.593)" fill="#bae6ef"/>
      </g>
    </g>
    <g id="Grupo_124514" data-name="Grupo 124514" transform="translate(58.525)">
      <path id="Trazado_107936" data-name="Trazado 107936" d="M146.807,134.947H62.479a3.958,3.958,0,0,1-3.954-3.954V79.268a1.977,1.977,0,0,1,3.954,0v51.725h84.328V11.861H62.479v59.5a1.977,1.977,0,1,1-3.954,0v-59.5a3.958,3.958,0,0,1,3.954-3.954h7.907V3.954A3.958,3.958,0,0,1,74.339,0h31.969a1.977,1.977,0,1,1,0,3.954H74.339V7.907h72.468a3.958,3.958,0,0,1,3.954,3.954V123.086h7.907V105.779a1.977,1.977,0,1,1,3.954,0v17.307a3.958,3.958,0,0,1-3.954,3.954h-7.907v3.954A3.958,3.958,0,0,1,146.807,134.947Zm-51.743-5.983a1.978,1.978,0,0,1-1.861-1.309,90.971,90.971,0,0,1-3.51-13.013,59.85,59.85,0,0,1-14.12-3.2,1.977,1.977,0,0,1-1.209-2.141C78,86.372,85.137,69.631,90.64,59.428a51.608,51.608,0,0,1-2.156-8.606,35.138,35.138,0,0,1-9.925,7.593,36.473,36.473,0,0,1-8.174,3.057v3.916a1.977,1.977,0,0,1-3.954,0V59.852a1.977,1.977,0,0,1,1.707-1.958,30.489,30.489,0,0,0,8.739-3.061A29.926,29.926,0,0,0,90.662,40.354a1.977,1.977,0,0,1,3.6,1.63q-.346.764-.717,1.49h.038a20.889,20.889,0,0,1,5.425.751l2.589-6.549H94.9a1.977,1.977,0,0,1-1.825-1.218c-2.722-6.55-2.863-12.684-.376-16.411,1.208-1.81,3.652-3.967,8.44-3.967,7.18,0,10.336,4.463,10.467,4.653a1.976,1.976,0,0,1,.21,1.848l-1.055,2.669c3.251.4,6.862,1.544,8.1,4.521a5.128,5.128,0,0,1,.069,3.717,6.144,6.144,0,0,1,4.395,3.464,6.11,6.11,0,0,1-1.385,6.461,1.977,1.977,0,0,1-2.8-2.8,2.208,2.208,0,0,0,.528-2.153c-.37-.892-1.9-1.425-4.093-1.425a1.977,1.977,0,0,1-1.4-3.374c.892-.892,1.275-1.782,1.027-2.383-.307-.741-1.911-1.93-5.952-2.217l-6.513,16.475a33.009,33.009,0,0,1,3.661,1.881l1.936-4.823a1.976,1.976,0,0,1,2.889-.936c.139.088,3.457,2.184,6.833,4.685,6.6,4.889,7.511,6.928,7.511,8.4,0,2.83-3.325,4.559-5.826,5.615a40.515,40.515,0,0,1-4.885,1.67,1.977,1.977,0,0,1-1-3.824c3.455-.908,6.956-2.494,7.684-3.45-.314-.514-1.565-2.117-6.286-5.568-1.518-1.11-3.012-2.131-4.146-2.887l-1.351,3.365c1.23.925,1.969,1.605,2.068,1.7a1.977,1.977,0,0,1-2.692,2.9c-.015-.014-.337-.309-.91-.769l-2.148,5.353a123.4,123.4,0,0,1,36.573,41.788,1.977,1.977,0,0,1-.511,2.48,41.491,41.491,0,0,1-5.742,3.615q.489.891.983,1.812a1.977,1.977,0,1,1-3.485,1.867q-.523-.977-1.038-1.915c-1.693.78-3.608,1.576-5.737,2.337a1.977,1.977,0,0,1-1.331-3.723c1.891-.676,3.6-1.381,5.122-2.072a154.182,154.182,0,0,0-17.8-25c-.676-.8-1.314-1.551-1.913-2.27a1.977,1.977,0,0,1,3.04-2.528c.591.71,1.221,1.454,1.889,2.242a160.072,160.072,0,0,1,18.335,25.8c1.7-.912,3-1.722,3.874-2.306C124.3,75.692,104.8,62.685,102.579,61.26a1.977,1.977,0,0,1-.766-2.4l3.095-7.71c-2.913-1.8-7.021-3.723-11.321-3.723-.744,0-1.024.116-1.069.177-.256.352-.856,2.216,2.145,11.409a1.977,1.977,0,0,1-.146,1.564C89.241,70.192,82.248,86.2,78.533,108.3a63.346,63.346,0,0,0,10.524,2.258,40.319,40.319,0,0,1-.315-4.783,1.977,1.977,0,0,1,3.954,0,38.385,38.385,0,0,0,.408,5.233c2.36.206,4.907.329,7.6.329a76.52,76.52,0,0,0,17.148-1.916,1.977,1.977,0,1,1,.887,3.853,78.292,78.292,0,0,1-8.185,1.428,32.747,32.747,0,0,1-1.074,7.071,1.977,1.977,0,0,1-3.845-.919,29.717,29.717,0,0,0,.943-5.771q-2.918.207-5.874.207c-2.46,0-4.764-.094-6.9-.252a88.749,88.749,0,0,0,3.119,11.275,1.977,1.977,0,0,1-1.192,2.529,1.939,1.939,0,0,1-.67.119Zm26.579-74.011ZM96.255,33.723h6.907l1.913-4.838c-4.881-.542-7.517-2.959-8.247-7.584a4.448,4.448,0,0,0-.838.941C94.425,24.587,94.547,29,96.255,33.723Zm4.384-13.679c.329,3.621,1.88,4.864,5.957,4.994l1.092-2.763a9.583,9.583,0,0,0-6.547-2.241C100.97,20.033,100.8,20.037,100.639,20.044Zm60.006,79.805a1.977,1.977,0,0,1-1.977-1.977V3.954H114.215a1.977,1.977,0,0,1,0-3.954h44.453a3.958,3.958,0,0,1,3.954,3.954V97.872A1.976,1.976,0,0,1,160.645,99.849Z" transform="translate(-58.525)"/>
    </g>
  </g>
</svg>
