<svg xmlns="http://www.w3.org/2000/svg" width="100" height="100" viewBox="0 0 100 100">
  <g id="Grupo_124681" data-name="Grupo 124681" transform="translate(-7409 8948)">
    <g id="Grupo_124675" data-name="Grupo 124675" transform="translate(7408.886 -8948.313)">
      <circle id="Elipse_5151" data-name="Elipse 5151" cx="50" cy="50" r="50" transform="translate(0.114 0.313)" fill="#bf3976"/>
    </g>
    <g id="online-lesson" transform="translate(7428 -8953.951)">
      <circle id="Elipse_5165" data-name="Elipse 5165" cx="1.218" cy="1.218" r="1.218" transform="translate(29.963 64.786)" fill="#fff"/>
      <path id="Trazado_108247" data-name="Trazado 108247" d="M57.481,28.952H4.882A4.887,4.887,0,0,0,0,33.834V67.909A4.887,4.887,0,0,0,4.882,72.79H24.473l-1.366,4.2a3.661,3.661,0,0,0,.612,7.27H38.644a3.661,3.661,0,0,0,.612-7.27l-1.366-4.2H57.481a4.887,4.887,0,0,0,4.882-4.882V33.834A4.887,4.887,0,0,0,57.481,28.952ZM39.865,80.6a1.222,1.222,0,0,1-1.22,1.22H23.719a1.22,1.22,0,1,1,0-2.441H38.644A1.222,1.222,0,0,1,39.865,80.6ZM36.673,76.94H25.69l1.349-4.149h8.285Zm23.249-9.031a2.444,2.444,0,0,1-2.441,2.441H4.882a2.444,2.444,0,0,1-2.441-2.441V33.834a2.444,2.444,0,0,1,2.441-2.441h52.6a2.444,2.444,0,0,1,2.441,2.441V67.909Z" fill="#fff"/>
      <path id="Trazado_108248" data-name="Trazado 108248" d="M93.875,74.646H48.745A3.054,3.054,0,0,0,45.694,77.7V104.3a3.055,3.055,0,0,0,3.051,3.051H65.839a1.22,1.22,0,1,0,0-2.441H48.745a.611.611,0,0,1-.61-.61V77.7a.611.611,0,0,1,.61-.61h45.13a.611.611,0,0,1,.61.61V104.3a.611.611,0,0,1-.61.61H76.78a1.22,1.22,0,1,0,0,2.441H93.875a3.055,3.055,0,0,0,3.051-3.051V77.7a3.054,3.054,0,0,0-3.051-3.051Z" transform="translate(-40.128 -40.128)" fill="#fff"/>
      <path id="Trazado_108249" data-name="Trazado 108249" d="M106.63,121.593v-4.047a3.055,3.055,0,0,0-3.051-3.051H97.015a3.055,3.055,0,0,0-3.051,3.051v4.047a3.055,3.055,0,0,0,3.051,3.051h6.564A3.055,3.055,0,0,0,106.63,121.593Zm-2.441,0a.611.611,0,0,1-.61.61H97.015a.611.611,0,0,1-.61-.61v-4.047a.611.611,0,0,1,.61-.61h6.564a.611.611,0,0,1,.61.61Z" transform="translate(-82.519 -75.124)" fill="#fff"/>
      <path id="Trazado_108250" data-name="Trazado 108250" d="M329.789,194.556a1.22,1.22,0,0,0-.863-.863l-8.959-2.4a1.22,1.22,0,0,0-1.495,1.495l2.4,8.959a1.22,1.22,0,0,0,2.042.547l.69-.69,3.257,3.257a1.22,1.22,0,0,0,1.726,0l3.452-3.452a1.22,1.22,0,0,0,0-1.726l-3.257-3.257.69-.69A1.22,1.22,0,0,0,329.789,194.556Zm-.338,5.989-1.726,1.726-3.257-3.257a1.221,1.221,0,0,0-1.726,0l-.059.059-1.306-4.876,4.876,1.306-.059.059a1.22,1.22,0,0,0,0,1.726Z" transform="translate(-279.645 -142.531)" fill="#fff"/>
      <path id="Trazado_108251" data-name="Trazado 108251" d="M213.326,128.539h7.528a1.22,1.22,0,1,0,0-2.441h-7.528a1.22,1.22,0,1,0,0,2.441Z" transform="translate(-186.271 -85.313)" fill="#fff"/>
      <path id="Trazado_108252" data-name="Trazado 108252" d="M213.326,168.617h7.528a1.22,1.22,0,1,0,0-2.441h-7.528a1.22,1.22,0,1,0,0,2.441Z" transform="translate(-186.271 -120.51)" fill="#fff"/>
      <path id="Trazado_108253" data-name="Trazado 108253" d="M213.326,225.995h7.528a1.22,1.22,0,1,0,0-2.441h-7.528a1.22,1.22,0,1,0,0,2.441Z" transform="translate(-186.271 -170.899)" fill="#fff"/>
      <path id="Trazado_108254" data-name="Trazado 108254" d="M222.075,264.853a1.22,1.22,0,0,0-1.22-1.22h-7.528a1.22,1.22,0,1,0,0,2.441h7.528A1.221,1.221,0,0,0,222.075,264.853Z" transform="translate(-186.271 -206.096)" fill="#fff"/>
      <path id="Trazado_108255" data-name="Trazado 108255" d="M104.3,218.013a5.075,5.075,0,1,0,5.075-5.075,5.08,5.08,0,0,0-5.075,5.075Zm7.709,0a2.634,2.634,0,1,1-2.634-2.634A2.637,2.637,0,0,1,112,218.013Z" transform="translate(-91.592 -161.576)" fill="#fff"/>
    </g>
  </g>
</svg>
