<svg xmlns="http://www.w3.org/2000/svg" width="100" height="100" viewBox="0 0 100 100">
  <g id="Grupo_124607" data-name="Grupo 124607" transform="translate(-180 -1239.73)">
    <g id="Grupo_124443" data-name="Grupo 124443" transform="translate(180 1239.417)">
      <circle id="Elipse_5151" data-name="Elipse 5151" cx="50" cy="50" r="50" transform="translate(0 0.313)" fill="#bf3976"/>
    </g>
    <g id="label" transform="translate(197 1264.73)">
      <path id="Trazado_108152" data-name="Trazado 108152" d="M65.15,11.68H14.535V1.3a1.3,1.3,0,0,0-1.3-1.3h-6.1A7.146,7.146,0,0,0,0,7.138V40.232a9.1,9.1,0,0,0,9.085,9.085H65.15a1.3,1.3,0,0,0,1.3-1.3V12.978A1.3,1.3,0,0,0,65.15,11.68ZM7.138,2.6h4.8V11.68h-4.8A4.612,4.612,0,0,1,2.6,7.138,4.547,4.547,0,0,1,7.138,2.6ZM63.852,46.721h-2.6a1.3,1.3,0,1,0-2.6,0H9.085A6.5,6.5,0,0,1,2.6,40.232V12.64l0,0,.017.014a7.167,7.167,0,0,0,4.522,1.62H63.852Zm0,0" fill="#fff"/>
      <path id="Trazado_108153" data-name="Trazado 108153" d="M453.3,310a1.3,1.3,0,1,0,1.3,1.3A1.3,1.3,0,0,0,453.3,310Zm0,0" transform="translate(-393.339 -269.768)" fill="#fff"/>
      <path id="Trazado_108154" data-name="Trazado 108154" d="M453.3,170a1.3,1.3,0,0,0-1.3,1.3v1.3a1.3,1.3,0,1,0,2.6,0v-1.3A1.3,1.3,0,0,0,453.3,170Zm0,0" transform="translate(-393.339 -147.937)" fill="#fff"/>
      <path id="Trazado_108155" data-name="Trazado 108155" d="M452,131.3a1.3,1.3,0,1,0,1.3-1.3A1.3,1.3,0,0,0,452,131.3Zm0,0" transform="translate(-393.339 -113.129)" fill="#fff"/>
      <path id="Trazado_108156" data-name="Trazado 108156" d="M453.3,220a1.3,1.3,0,1,0,1.3,1.3A1.3,1.3,0,0,0,453.3,220Zm0,0" transform="translate(-393.339 -191.448)" fill="#fff"/>
      <path id="Trazado_108157" data-name="Trazado 108157" d="M453.3,260a1.3,1.3,0,0,0-1.3,1.3v1.3a1.3,1.3,0,1,0,2.6,0v-1.3A1.3,1.3,0,0,0,453.3,260Zm0,0" transform="translate(-393.339 -226.257)" fill="#fff"/>
      <path id="Trazado_108158" data-name="Trazado 108158" d="M414.6,281.3a1.3,1.3,0,1,1-1.3-1.3A1.3,1.3,0,0,1,414.6,281.3Zm0,0" transform="translate(-358.531 -243.661)" fill="#fff"/>
      <path id="Trazado_108159" data-name="Trazado 108159" d="M414.6,241.3a1.3,1.3,0,1,1-1.3-1.3A1.3,1.3,0,0,1,414.6,241.3Zm0,0" transform="translate(-358.531 -208.853)" fill="#fff"/>
      <path id="Trazado_108160" data-name="Trazado 108160" d="M414.6,321.3a1.3,1.3,0,1,1-1.3-1.3A1.3,1.3,0,0,1,414.6,321.3Zm0,0" transform="translate(-358.531 -278.47)" fill="#fff"/>
      <path id="Trazado_108161" data-name="Trazado 108161" d="M81.68,320H71.3a1.3,1.3,0,1,0,0,2.6H81.68a1.3,1.3,0,1,0,0-2.6Zm0,0" transform="translate(-60.915 -278.47)" fill="#fff"/>
      <path id="Trazado_108162" data-name="Trazado 108162" d="M191.3,320a1.3,1.3,0,1,0,1.3,1.3A1.3,1.3,0,0,0,191.3,320Zm0,0" transform="translate(-165.342 -278.47)" fill="#fff"/>
      <path id="Trazado_108163" data-name="Trazado 108163" d="M233.893,320h-2.6a1.3,1.3,0,0,0,0,2.6h2.6a1.3,1.3,0,0,0,0-2.6Zm0,0" transform="translate(-200.151 -278.47)" fill="#fff"/>
      <path id="Trazado_108164" data-name="Trazado 108164" d="M334.153,320H331.3a1.3,1.3,0,0,0,0,2.6h2.855a1.3,1.3,0,0,0,0-2.6Zm0,0" transform="translate(-287.173 -278.47)" fill="#fff"/>
      <path id="Trazado_108165" data-name="Trazado 108165" d="M236.489,280H231.3a1.3,1.3,0,0,0,0,2.6h5.191a1.3,1.3,0,0,0,0-2.6Zm0,0" transform="translate(-200.151 -243.661)" fill="#fff"/>
      <path id="Trazado_108166" data-name="Trazado 108166" d="M156.489,280H151.3a1.3,1.3,0,1,0,0,2.6h5.191a1.3,1.3,0,1,0,0-2.6Zm0,0" transform="translate(-130.533 -243.661)" fill="#fff"/>
      <path id="Trazado_108167" data-name="Trazado 108167" d="M317.787,281.3a1.3,1.3,0,0,0-1.3-1.3H311.3a1.3,1.3,0,0,0,0,2.6h5.191A1.3,1.3,0,0,0,317.787,281.3Zm0,0" transform="translate(-269.768 -243.661)" fill="#fff"/>
      <path id="Trazado_108168" data-name="Trazado 108168" d="M71.3,280a1.3,1.3,0,1,0,0,2.6h5.191a1.3,1.3,0,0,0,0-2.6Zm0,0" transform="translate(-60.915 -243.661)" fill="#fff"/>
      <path id="Trazado_108169" data-name="Trazado 108169" d="M351.3,240a1.3,1.3,0,1,0,1.3,1.3A1.3,1.3,0,0,0,351.3,240Zm0,0" transform="translate(-304.577 -208.853)" fill="#fff"/>
      <path id="Trazado_108170" data-name="Trazado 108170" d="M191.3,240a1.3,1.3,0,1,0,1.3,1.3A1.3,1.3,0,0,0,191.3,240Zm0,0" transform="translate(-165.342 -208.853)" fill="#fff"/>
      <path id="Trazado_108171" data-name="Trazado 108171" d="M82.978,241.3a1.3,1.3,0,0,0-1.3-1.3H71.3a1.3,1.3,0,1,0,0,2.6H81.68A1.3,1.3,0,0,0,82.978,241.3Zm0,0" transform="translate(-60.915 -208.853)" fill="#fff"/>
      <path id="Trazado_108172" data-name="Trazado 108172" d="M231.3,240a1.3,1.3,0,0,0,0,2.6H241.68a1.3,1.3,0,0,0,0-2.6Zm0,0" transform="translate(-200.151 -208.853)" fill="#fff"/>
      <path id="Trazado_108173" data-name="Trazado 108173" d="M72.394,148.585h6.489a1.3,1.3,0,0,0,1.205-.816l2.6-6.489a1.3,1.3,0,0,0-1.205-1.78H69.8a1.3,1.3,0,0,0-1.205,1.78l2.6,6.489A1.3,1.3,0,0,0,72.394,148.585Zm7.168-6.489L78,145.989H73.272L71.715,142.1Zm0,0" transform="translate(-59.611 -121.396)" fill="#fff"/>
      <path id="Trazado_108174" data-name="Trazado 108174" d="M190.8,148.585h7.787a1.3,1.3,0,0,0,1.111-1.968l-3.915-6.489a1.3,1.3,0,0,0-1.111-.628h0a1.3,1.3,0,0,0-1.111.633l-3.872,6.489a1.3,1.3,0,0,0,1.115,1.963Zm3.878-5.264,1.61,2.669h-3.2Zm0,0" transform="translate(-164.906 -121.396)" fill="#fff"/>
      <path id="Trazado_108175" data-name="Trazado 108175" d="M299.8,148.585h6.489a1.3,1.3,0,0,0,1.3-1.3V140.8a1.3,1.3,0,0,0-1.3-1.3H299.8a1.3,1.3,0,0,0-1.3,1.3v6.489A1.3,1.3,0,0,0,299.8,148.585Zm1.3-6.489h3.893v3.893H301.1Zm0,0" transform="translate(-259.761 -121.396)" fill="#fff"/>
    </g>
  </g>
</svg>
