<svg xmlns="http://www.w3.org/2000/svg" width="83" height="83" viewBox="0 0 83 83">
  <g id="Grupo_124537" data-name="Grupo 124537" transform="translate(-287 -2120.73)">
    <circle id="Elipse_5147" data-name="Elipse 5147" cx="41.5" cy="41.5" r="41.5" transform="translate(287 2120.73)" fill="#bf3976"/>
    <g id="hips" transform="translate(302 2131.73)">
      <path id="Trazado_108018" data-name="Trazado 108018" d="M73.4,80.77c1.4-4.909,6.888-21.819,6.944-21.989a1.159,1.159,0,1,0-2.205-.716c-.055.17-5.555,17.119-6.969,22.067-2.35,8.23-2.356,28.313-.009,37.7a1.159,1.159,0,1,0,2.249-.563c-2.276-9.1-2.282-28.549-.009-36.5Z" transform="translate(-69.406 -57.263)" fill="#fff"/>
      <path id="Trazado_108019" data-name="Trazado 108019" d="M224,80.132c-1.414-4.948-6.913-21.9-6.969-22.067a1.159,1.159,0,0,0-2.205.716c.055.17,5.542,17.08,6.944,21.989,2.272,7.951,2.267,27.395-.009,36.5a1.159,1.159,0,1,0,2.249.563c2.347-9.387,2.341-29.47-.009-37.7Z" transform="translate(-172.634 -57.263)" fill="#fff"/>
      <path id="Trazado_108020" data-name="Trazado 108020" d="M131.853,152.667a1.159,1.159,0,1,0-1.284-1.93,16.37,16.37,0,0,1-8.63,2.122,17.123,17.123,0,0,1-8.119-1.821v-8.613a1.159,1.159,0,0,0-2.319,0v8.614a17.121,17.121,0,0,1-8.116,1.82,16.371,16.371,0,0,1-8.631-2.123,1.16,1.16,0,0,0-1.284,1.932,18.46,18.46,0,0,0,9.915,2.51,20.722,20.722,0,0,0,7.927-1.457L109.188,177.1a1.16,1.16,0,1,0,2.31.21l1.164-12.805,1.164,12.805a1.16,1.16,0,0,0,1.154,1.055c.035,0,.07,0,.106,0a1.16,1.16,0,0,0,1.05-1.26l-2.126-23.382a20.717,20.717,0,0,0,7.93,1.458,18.445,18.445,0,0,0,9.914-2.511Z" transform="translate(-86.129 -116.917)" fill="#fff"/>
      <path id="Trazado_108021" data-name="Trazado 108021" d="M233.81,198.456a1.159,1.159,0,0,0-1.068-1.244,1.146,1.146,0,0,0-1.244,1.068c-.09,1.182-.2,2.294-.343,3.4a1.16,1.16,0,0,0,1,1.3,1.212,1.212,0,0,0,.147.009,1.161,1.161,0,0,0,1.149-1.013c.145-1.145.262-2.295.354-3.516Z" transform="translate(-184.266 -156.646)" fill="#fff"/>
      <path id="Trazado_108022" data-name="Trazado 108022" d="M223.1,244.415a1.156,1.156,0,0,0-1.422.816q-.426,1.573-.958,3.3a1.16,1.16,0,0,0,2.217.684q.545-1.771.978-3.378A1.16,1.16,0,0,0,223.1,244.415Z" transform="translate(-176.829 -190.141)" fill="#fff"/>
      <path id="Trazado_108023" data-name="Trazado 108023" d="M234.156,179.054h.055a1.16,1.16,0,0,0,1.157-1.1l.03-.662c.044-.955.086-1.877.147-2.786a1.16,1.16,0,0,0-1.08-1.234,1.172,1.172,0,0,0-1.234,1.08c-.061.925-.1,1.863-.15,2.833l-.03.66A1.161,1.161,0,0,0,234.156,179.054Z" transform="translate(-185.619 -139.643)" fill="#fff"/>
      <path id="Trazado_108024" data-name="Trazado 108024" d="M228.982,221.011a1.161,1.161,0,0,0-1.346.936c-.2,1.092-.428,2.219-.687,3.351a1.159,1.159,0,0,0,.871,1.389,1.182,1.182,0,0,0,.26.03,1.161,1.161,0,0,0,1.129-.9c.268-1.167.507-2.331.71-3.46A1.159,1.159,0,0,0,228.982,221.011Z" transform="translate(-181.264 -173.536)" fill="#fff"/>
      <path id="Trazado_108025" data-name="Trazado 108025" d="M87.936,226.688a1.159,1.159,0,0,0,.872-1.389c-.26-1.138-.491-2.266-.686-3.351a1.16,1.16,0,0,0-2.283.41c.2,1.121.441,2.285.709,3.459a1.156,1.156,0,0,0,1.388.871Z" transform="translate(-81.063 -173.537)" fill="#fff"/>
      <path id="Trazado_108026" data-name="Trazado 108026" d="M93.417,245.232a1.159,1.159,0,1,0-2.237.607q.436,1.609.978,3.378a1.16,1.16,0,0,0,2.217-.684Q93.84,246.8,93.417,245.232Z" transform="translate(-84.84 -190.142)" fill="#fff"/>
      <path id="Trazado_108027" data-name="Trazado 108027" d="M82.56,173.268a1.161,1.161,0,0,0-1.08,1.234c.061.91.1,1.831.147,2.786l.03.662a1.16,1.16,0,0,0,1.157,1.1h.055a1.161,1.161,0,0,0,1.1-1.213l-.03-.66c-.045-.971-.088-1.908-.15-2.833A1.17,1.17,0,0,0,82.56,173.268Z" transform="translate(-77.978 -139.643)" fill="#fff"/>
      <path id="Trazado_108028" data-name="Trazado 108028" d="M84.453,202.976a1.16,1.16,0,0,0,1-1.3c-.14-1.106-.252-2.218-.343-3.4a1.159,1.159,0,0,0-2.312.177c.093,1.221.21,2.371.354,3.516a1.16,1.16,0,0,0,1.149,1.013A1.209,1.209,0,0,0,84.453,202.976Z" transform="translate(-78.917 -156.645)" fill="#fff"/>
    </g>
  </g>
</svg>
