<svg xmlns="http://www.w3.org/2000/svg" width="100" height="100" viewBox="0 0 100 100">
  <g id="Grupo_124680" data-name="Grupo 124680" transform="translate(-6781 8948)">
    <g id="Grupo_124677" data-name="Grupo 124677" transform="translate(6601 -10177.73)">
      <g id="Grupo_124441" data-name="Grupo 124441" transform="translate(180 1229.417)">
        <circle id="Elipse_5151" data-name="Elipse 5151" cx="50" cy="50" r="50" transform="translate(0 0.313)" fill="#bf3976"/>
      </g>
      <g id="graphic-design" transform="translate(189 1186.73)">
        <path id="Trazado_108235" data-name="Trazado 108235" d="M70.054,64H11.713A3.717,3.717,0,0,0,8,67.713v40.309a3.717,3.717,0,0,0,3.713,3.713H32.051l-1.514,5.3h-4.5a1.061,1.061,0,0,0-1.061,1.061v3.182a1.061,1.061,0,0,0,1.061,1.061h29.7a1.061,1.061,0,0,0,1.061-1.061V118.1a1.061,1.061,0,0,0-1.061-1.061h-4.5l-1.514-5.3H70.054a3.717,3.717,0,0,0,3.713-3.713V67.713A3.717,3.717,0,0,0,70.054,64ZM54.673,119.159v1.061H27.094v-1.061Zm-21.93-2.122,1.514-5.3H47.509l1.514,5.3Zm38.9-9.016a1.592,1.592,0,0,1-1.591,1.591H11.713a1.592,1.592,0,0,1-1.591-1.591v-2.652H71.645Zm0-4.773H10.122V67.713a1.592,1.592,0,0,1,1.591-1.591H70.054a1.592,1.592,0,0,1,1.591,1.591Z" fill="#fff"/>
        <path id="Trazado_108236" data-name="Trazado 108236" d="M41.061,118.365H45.3a1.061,1.061,0,0,0,1.061-1.061v-4.243A1.061,1.061,0,0,0,45.3,112H41.061A1.061,1.061,0,0,0,40,113.061V117.3A1.061,1.061,0,0,0,41.061,118.365Zm1.061-4.243h2.122v2.121H42.122Z" transform="translate(-27.757 -41.635)" fill="#fff"/>
        <path id="Trazado_108237" data-name="Trazado 108237" d="M41.061,174.365H45.3a1.061,1.061,0,0,0,1.061-1.061v-4.243A1.061,1.061,0,0,0,45.3,168H41.061A1.061,1.061,0,0,0,40,169.061V173.3A1.061,1.061,0,0,0,41.061,174.365Zm1.061-4.243h2.122v2.121H42.122Z" transform="translate(-27.757 -90.21)" fill="#fff"/>
        <path id="Trazado_108238" data-name="Trazado 108238" d="M41.061,230.365H45.3a1.061,1.061,0,0,0,1.061-1.061v-4.243A1.061,1.061,0,0,0,45.3,224H41.061A1.061,1.061,0,0,0,40,225.061V229.3A1.061,1.061,0,0,0,41.061,230.365Zm1.061-4.243h2.122v2.122H42.122Z" transform="translate(-27.757 -138.785)" fill="#fff"/>
        <path id="Trazado_108239" data-name="Trazado 108239" d="M41.061,286.365H45.3a1.061,1.061,0,0,0,1.061-1.061v-4.243A1.061,1.061,0,0,0,45.3,280H41.061A1.061,1.061,0,0,0,40,281.061V285.3A1.061,1.061,0,0,0,41.061,286.365Zm1.061-4.243h2.122v2.121H42.122Z" transform="translate(-27.757 -187.36)" fill="#fff"/>
        <path id="Trazado_108240" data-name="Trazado 108240" d="M425.061,118.365H429.3a1.061,1.061,0,0,0,1.061-1.061v-4.243A1.061,1.061,0,0,0,429.3,112h-4.243A1.061,1.061,0,0,0,424,113.061V117.3A1.061,1.061,0,0,0,425.061,118.365Zm1.061-4.243h2.121v2.121h-2.121Z" transform="translate(-360.841 -41.635)" fill="#fff"/>
        <path id="Trazado_108241" data-name="Trazado 108241" d="M425.061,174.365H429.3a1.061,1.061,0,0,0,1.061-1.061v-4.243A1.061,1.061,0,0,0,429.3,168h-4.243A1.061,1.061,0,0,0,424,169.061V173.3A1.061,1.061,0,0,0,425.061,174.365Zm1.061-4.243h2.121v2.121h-2.121Z" transform="translate(-360.841 -90.21)" fill="#fff"/>
        <path id="Trazado_108242" data-name="Trazado 108242" d="M425.061,230.365H429.3a1.061,1.061,0,0,0,1.061-1.061v-4.243A1.061,1.061,0,0,0,429.3,224h-4.243A1.061,1.061,0,0,0,424,225.061V229.3A1.061,1.061,0,0,0,425.061,230.365Zm1.061-4.243h2.121v2.122h-2.121Z" transform="translate(-360.841 -138.785)" fill="#fff"/>
        <path id="Trazado_108243" data-name="Trazado 108243" d="M425.061,286.365H429.3a1.061,1.061,0,0,0,1.061-1.061v-4.243A1.061,1.061,0,0,0,429.3,280h-4.243A1.061,1.061,0,0,0,424,281.061V285.3A1.061,1.061,0,0,0,425.061,286.365Zm1.061-4.243h2.121v2.121h-2.121Z" transform="translate(-360.841 -187.36)" fill="#fff"/>
        <path id="Trazado_108245" data-name="Trazado 108245" d="M.762,14.292l12.213,3.586a1.059,1.059,0,0,0,1.317-.719L17.879,4.946A1.061,1.061,0,0,0,17.16,3.63L4.946.043A1.061,1.061,0,0,0,3.63.762L.043,12.975a1.061,1.061,0,0,0,.719,1.317Zm4.6-11.914L15.544,5.366,12.555,15.544,2.378,12.555Z" transform="translate(37.755 80.132) rotate(-16)" fill="#fff"/>
        <path id="Trazado_108246" data-name="Trazado 108246" d="M.463,3.263,3.814,4.938a.837.837,0,0,0,.375.088H24.3A2.513,2.513,0,0,0,24.3,0H4.189a.837.837,0,0,0-.375.089L.463,1.764a.838.838,0,0,0,0,1.5Zm24.67-.749a.839.839,0,0,1-.838.838H6.7V1.676H24.3A.839.839,0,0,1,25.133,2.513ZM4.387,1.676h.64V3.351h-.64L2.711,2.513Z" transform="translate(40.027 89.045) rotate(-135)" fill="#fff"/>
      </g>
    </g>
  </g>
</svg>
