<svg xmlns="http://www.w3.org/2000/svg" width="135" height="135" viewBox="0 0 135 135">
  <g id="Grupo_124665" data-name="Grupo 124665" transform="translate(-3689 5174)">
    <circle id="Elipse_5180" data-name="Elipse 5180" cx="67.5" cy="67.5" r="67.5" transform="translate(3689 -5174)" fill="#bf3976"/>
    <g id="pattern" transform="translate(3726.5 -5147)">
      <path id="Trazado_108203" data-name="Trazado 108203" d="M39.63,148.59h-36V90.784A24.264,24.264,0,0,0,13.823,87.8,1.565,1.565,0,0,0,12.3,85.063,21.148,21.148,0,0,1,2.065,87.7,1.565,1.565,0,0,0,.5,89.27v60.886a1.565,1.565,0,0,0,1.565,1.565H39.63a1.565,1.565,0,1,0,0-3.13Zm0,0" transform="translate(0 -71.583)" fill="#fff"/>
      <path id="Trazado_108204" data-name="Trazado 108204" d="M165.392,41.634a12.379,12.379,0,0,1-12.365-12.365V5.307a1.565,1.565,0,0,0-1.287-1.54L131.05.025a1.565,1.565,0,0,0-1.777,1.088,21.036,21.036,0,0,1-1.746,4.122,1.565,1.565,0,0,0,2.737,1.52,24.2,24.2,0,0,0,1.562-3.408L149.9,6.614V29.269a15.518,15.518,0,0,0,13.93,15.417V77.008h-4.7a1.565,1.565,0,1,0,0,3.13h6.261a1.566,1.566,0,0,0,1.565-1.565V43.2a1.565,1.565,0,0,0-1.565-1.565Zm0,0" transform="translate(-106.979 0)" fill="#fff"/>
      <path id="Trazado_108205" data-name="Trazado 108205" d="M42.065,145.23a1.565,1.565,0,0,0,1.565-1.565v-3.13a1.565,1.565,0,1,0-3.13,0v3.13A1.565,1.565,0,0,0,42.065,145.23Zm0,0" transform="translate(-33.739 -117.218)" fill="#fff"/>
      <path id="Trazado_108206" data-name="Trazado 108206" d="M40.5,303.669a1.565,1.565,0,1,0,3.13,0v-3.13a1.565,1.565,0,1,0-3.13,0Zm0,0" transform="translate(-33.739 -252.178)" fill="#fff"/>
      <path id="Trazado_108207" data-name="Trazado 108207" d="M40.5,223.665a1.565,1.565,0,0,0,3.13,0v-3.13a1.565,1.565,0,1,0-3.13,0Zm0,0" transform="translate(-33.739 -184.696)" fill="#fff"/>
      <path id="Trazado_108208" data-name="Trazado 108208" d="M154.99,50.88a1.562,1.562,0,0,0,1.294-.684,30.448,30.448,0,0,0,1.708-2.822,1.565,1.565,0,1,0-2.762-1.473,27.345,27.345,0,0,1-1.532,2.532,1.565,1.565,0,0,0,1.292,2.447Zm0,0" transform="translate(-128.99 -38.018)" fill="#fff"/>
      <path id="Trazado_108209" data-name="Trazado 108209" d="M97.246,110.324a1.557,1.557,0,0,0,.8-.224,30.727,30.727,0,0,0,2.732-1.846,1.565,1.565,0,0,0-1.89-2.5,27.543,27.543,0,0,1-2.452,1.658,1.566,1.566,0,0,0,.807,2.908Zm0,0" transform="translate(-80.282 -88.938)" fill="#fff"/>
      <path id="Trazado_108210" data-name="Trazado 108210" d="M127.473,453.565a1.565,1.565,0,0,0,1.565,1.565h3.13a1.565,1.565,0,1,0,0-3.13h-3.13A1.565,1.565,0,0,0,127.473,453.565Zm0,0" transform="translate(-107.099 -381.253)" fill="#fff"/>
      <path id="Trazado_108211" data-name="Trazado 108211" d="M49.038,455.13h3.13a1.565,1.565,0,1,0,0-3.13h-3.13a1.565,1.565,0,1,0,0,3.13Zm0,0" transform="translate(-39.621 -381.253)" fill="#fff"/>
      <path id="Trazado_108212" data-name="Trazado 108212" d="M40.5,383.669a1.565,1.565,0,1,0,3.13,0v-3.13a1.565,1.565,0,1,0-3.13,0Zm0,0" transform="translate(-33.739 -319.656)" fill="#fff"/>
      <path id="Trazado_108213" data-name="Trazado 108213" d="M320.5,389.719a1.565,1.565,0,0,0,3.13,0v-3.13a1.565,1.565,0,0,0-3.13,0Zm0,0" transform="translate(-269.913 -324.759)" fill="#fff"/>
      <path id="Trazado_108214" data-name="Trazado 108214" d="M235.216,188.634a18.67,18.67,0,0,1-.385-2.857,1.565,1.565,0,1,0-3.126.176,21.652,21.652,0,0,0,.451,3.34,1.565,1.565,0,1,0,3.06-.659Zm0,0" transform="translate(-195.014 -155.454)" fill="#fff"/>
      <path id="Trazado_108215" data-name="Trazado 108215" d="M264.883,262.627a1.566,1.566,0,0,0-.1-2.211,18.93,18.93,0,0,1-1.979-2.1,1.565,1.565,0,1,0-2.438,1.964,22.035,22.035,0,0,0,2.307,2.452,1.567,1.567,0,0,0,2.211-.1Zm0,0" transform="translate(-218.899 -217.389)" fill="#fff"/>
      <path id="Trazado_108216" data-name="Trazado 108216" d="M322.065,311.284a1.565,1.565,0,0,0,1.565-1.565v-3.13a1.565,1.565,0,0,0-3.13,0v3.13A1.565,1.565,0,0,0,322.065,311.284Zm0,0" transform="translate(-269.913 -257.281)" fill="#fff"/>
      <path id="Trazado_108217" data-name="Trazado 108217" d="M293.734,453.565A1.565,1.565,0,0,0,292.169,452h-3.13a1.565,1.565,0,1,0,0,3.13h3.13A1.565,1.565,0,0,0,293.734,453.565Zm0,0" transform="translate(-242.056 -381.253)" fill="#fff"/>
      <path id="Trazado_108218" data-name="Trazado 108218" d="M212.169,452h-3.13a1.565,1.565,0,1,0,0,3.13h3.13a1.565,1.565,0,1,0,0-3.13Zm0,0" transform="translate(-174.577 -381.253)" fill="#fff"/>
      <path id="Trazado_108219" data-name="Trazado 108219" d="M233.065,104.3a1.565,1.565,0,0,0-1.565,1.565V109a1.565,1.565,0,1,0,3.13,0v-3.13A1.565,1.565,0,0,0,233.065,104.3Zm0,0" transform="translate(-194.844 -87.979)" fill="#fff"/>
      <path id="Trazado_108220" data-name="Trazado 108220" d="M203.933,52.027l-3.081-.557a1.565,1.565,0,1,0-.557,3.08l3.081.558a1.621,1.621,0,0,0,.28.025,1.565,1.565,0,0,0,.277-3.106Zm0,0" transform="translate(-167.437 -43.393)" fill="#fff"/>
      <path id="Trazado_108221" data-name="Trazado 108221" d="M282.066,492h0a1.565,1.565,0,1,0,1.566,1.565A1.565,1.565,0,0,0,282.065,492Zm0,0" transform="translate(-236.174 -414.992)" fill="#fff"/>
      <path id="Trazado_108222" data-name="Trazado 108222" d="M104.573,63.677a1.56,1.56,0,0,0,1.107-.459h0a1.565,1.565,0,1,0-1.107.459Zm0,0" transform="translate(-86.463 -51.07)" fill="#fff"/>
    </g>
  </g>
</svg>
