<svg xmlns="http://www.w3.org/2000/svg" width="141" height="141" viewBox="0 0 141 141">
  <g id="Grupo_124669" data-name="Grupo 124669" transform="translate(-325 -14400.73)">
    <rect id="Rectángulo_38242" data-name="Rectángulo 38242" width="141" height="141" rx="70" transform="translate(325 14400.73)" fill="none"/>
    <g id="Page-1" transform="translate(353 14428.73)">
      <g id="_016---Vector-Engineering" data-name="016---Vector-Engineering">
        <path id="Shape" d="M83.167,8.083V18H1V8.083A7.083,7.083,0,0,1,8.083,1h68a7.083,7.083,0,0,1,7.083,7.083Z" transform="translate(0.417 0.417)" fill="#d6ebfb"/>
        <path id="Shape-2" data-name="Shape" d="M55.25,1H51a7.083,7.083,0,0,1,7.083,7.083V18h4.25V8.083A7.083,7.083,0,0,0,55.25,1Z" transform="translate(21.25 0.417)" fill="#0377bc"/>
        <path id="Shape-3" data-name="Shape" d="M83.167,13V71.083a7.083,7.083,0,0,1-7.083,7.083h-68A7.083,7.083,0,0,1,1,71.083V13Z" transform="translate(0.417 5.417)" fill="#f5f5f5"/>
        <path id="Shape-4" data-name="Shape" d="M58.083,13V71.083A7.083,7.083,0,0,1,51,78.167h4.25a7.083,7.083,0,0,0,7.083-7.083V13Z" transform="translate(21.25 5.417)" fill="#cfd8dc"/>
        <circle id="Oval" cx="3" cy="3" r="3" transform="translate(7 7)" fill="#f44335"/>
        <circle id="Oval-2" data-name="Oval" cx="3" cy="3" r="3" transform="translate(18 7)" fill="#ffdc00"/>
        <ellipse id="Oval-3" data-name="Oval" cx="2.5" cy="3" rx="2.5" ry="3" transform="translate(30 7)" fill="#a4c400"/>
        <path id="Shape-5" data-name="Shape" d="M58,10.667A2.833,2.833,0,1,0,58,5H43.833a2.833,2.833,0,0,0,0,5.667Z" transform="translate(17.083 2.083)" fill="#0377bc"/>
        <rect id="Rectangle-path" width="11" height="12" rx="2" transform="translate(17 65)" fill="#cfd8dc"/>
        <rect id="Rectangle-path-2" data-name="Rectangle-path" width="11" height="11" rx="2" transform="translate(17 26)" fill="#cfd8dc"/>
        <rect id="Rectangle-path-3" data-name="Rectangle-path" width="11" height="11" rx="2" transform="translate(57 26)" fill="#cfd8dc"/>
        <path id="Shape-6" data-name="Shape" d="M39.3,55.754l-9.428-1.189a2.944,2.944,0,0,1-2.533-2.408l-3.3-18.7a2.95,2.95,0,0,1,3.413-3.413l18.7,3.3a2.944,2.944,0,0,1,2.408,2.533l1.189,9.429Z" transform="translate(9.999 12.5)" fill="#7f8e94"/>
        <path id="Shape-7" data-name="Shape" d="M53,47.985,41.985,59a2.818,2.818,0,0,1-3.992,0l-3.149-3.128a2.833,2.833,0,0,1,0-4.006l11.02-11.02a2.833,2.833,0,0,1,4.006,0L53,43.986a2.818,2.818,0,0,1,0,4Z" transform="translate(14.173 16.673)" fill="#b3d9c1"/>
        <path id="Shape-8" data-name="Shape" d="M51.866,43.993l-3.128-3.149a2.833,2.833,0,0,0-4.006,0l-.122.122,3.006,3.02a2.818,2.818,0,0,1,0,3.992L36.732,58.864l.129.127a2.818,2.818,0,0,0,3.992,0L51.866,47.978a2.818,2.818,0,0,0,0-3.985Z" transform="translate(15.305 16.673)" fill="#0377bc"/>
        <ellipse id="Oval-4" data-name="Oval" cx="4" cy="4.5" rx="4" ry="4.5" transform="translate(43 51)" fill="#607d8b"/>
        <g id="Grupo_124611" data-name="Grupo 124611">
          <path id="Shape-9" data-name="Shape" d="M76.5,0H8.5A8.508,8.508,0,0,0,0,8.5v68A8.508,8.508,0,0,0,8.5,85h68A8.508,8.508,0,0,0,85,76.5V8.5A8.508,8.508,0,0,0,76.5,0ZM8.5,2.833h68A5.667,5.667,0,0,1,82.167,8.5V17H2.833V8.5A5.667,5.667,0,0,1,8.5,2.833Zm68,79.333H8.5A5.667,5.667,0,0,1,2.833,76.5V19.833H82.167V76.5A5.667,5.667,0,0,1,76.5,82.167Z"/>
          <path id="Shape-10" data-name="Shape" d="M8.25,12.5A4.25,4.25,0,1,0,4,8.25,4.25,4.25,0,0,0,8.25,12.5Zm0-5.667A1.417,1.417,0,1,1,6.833,8.25,1.417,1.417,0,0,1,8.25,6.833Z" transform="translate(1.667 1.667)"/>
          <path id="Shape-11" data-name="Shape" d="M16.25,12.5A4.25,4.25,0,1,0,12,8.25,4.25,4.25,0,0,0,16.25,12.5Zm0-5.667A1.417,1.417,0,1,1,14.833,8.25,1.417,1.417,0,0,1,16.25,6.833Z" transform="translate(5 1.667)"/>
          <path id="Shape-12" data-name="Shape" d="M24.25,12.5A4.25,4.25,0,1,0,20,8.25,4.25,4.25,0,0,0,24.25,12.5Zm0-5.667A1.417,1.417,0,1,1,22.833,8.25,1.417,1.417,0,0,1,24.25,6.833Z" transform="translate(8.333 1.667)"/>
          <path id="Shape-13" data-name="Shape" d="M44.25,12.5H58.417a4.25,4.25,0,1,0,0-8.5H44.25a4.25,4.25,0,1,0,0,8.5Zm0-5.667H58.417a1.417,1.417,0,1,1,0,2.833H44.25a1.417,1.417,0,0,1,0-2.833Z" transform="translate(16.667 1.667)"/>
          <path id="Shape-14" data-name="Shape" d="M60.583,17H54.917a4.25,4.25,0,0,0-4.25,4.25v1.417h-25.5V21.25A4.25,4.25,0,0,0,20.917,17H15.25A4.25,4.25,0,0,0,11,21.25v5.667a4.25,4.25,0,0,0,4.25,4.25h1.417v25.5H15.25A4.25,4.25,0,0,0,11,60.917v5.667a4.25,4.25,0,0,0,4.25,4.25h5.667a4.25,4.25,0,0,0,4.25-4.25V60.917a4.25,4.25,0,0,0-4.25-4.25H19.5v-25.5h1.417a4.25,4.25,0,0,0,4.25-4.25V25.5h25.5v1.417a4.25,4.25,0,0,0,4.25,4.25h5.667a4.25,4.25,0,0,0,4.25-4.25V21.25A4.25,4.25,0,0,0,60.583,17ZM22.333,60.917v5.667A1.417,1.417,0,0,1,20.917,68H15.25a1.417,1.417,0,0,1-1.417-1.417V60.917A1.417,1.417,0,0,1,15.25,59.5h5.667A1.417,1.417,0,0,1,22.333,60.917Zm0-34a1.417,1.417,0,0,1-1.417,1.417H15.25a1.417,1.417,0,0,1-1.417-1.417V21.25a1.417,1.417,0,0,1,1.417-1.417h5.667a1.417,1.417,0,0,1,1.417,1.417Zm39.667,0a1.417,1.417,0,0,1-1.417,1.417H54.917A1.417,1.417,0,0,1,53.5,26.917V21.25a1.417,1.417,0,0,1,1.417-1.417h5.667A1.417,1.417,0,0,1,62,21.25Z" transform="translate(4.583 7.083)"/>
          <path id="Shape-15" data-name="Shape" d="M55.461,44.44A4.234,4.234,0,0,0,51.3,43.378l-.915-7.252a4.336,4.336,0,0,0-3.567-3.758l-18.7-3.3a4.363,4.363,0,0,0-5.052,5.053l3.3,18.7a4.332,4.332,0,0,0,3.751,3.564l7.258.915a4.24,4.24,0,0,0,1.065,4.162l3.141,3.127a4.25,4.25,0,0,0,6,0L58.589,53.578a4.236,4.236,0,0,0,0-5.994ZM29.155,52.331,25.906,33.914l6.4,6.4a5.592,5.592,0,0,0-.8,2.853A5.667,5.667,0,1,0,37.166,37.5a5.592,5.592,0,0,0-2.86.8l-6.395-6.4,18.417,3.248a1.538,1.538,0,0,1,1.251,1.316l1.1,8.741-9.465,9.466-8.745-1.1a1.534,1.534,0,0,1-1.315-1.247Zm8.011-12a2.833,2.833,0,1,1-2.833,2.833A2.833,2.833,0,0,1,37.166,40.332Zm19.42,11.24L45.573,62.585a1.408,1.408,0,0,1-1.992,0l-3.139-3.128a1.417,1.417,0,0,1,0-2L51.455,46.441a1.417,1.417,0,0,1,2,0l3.131,3.146a1.4,1.4,0,0,1,0,1.983Z" transform="translate(9.584 12.085)"/>
        </g>
      </g>
    </g>
  </g>
</svg>
