<svg xmlns="http://www.w3.org/2000/svg" width="86.73" height="82.058" viewBox="0 0 86.73 82.058">
  <g id="Grupo_124667" data-name="Grupo 124667" transform="translate(-8868 7396)">
    <path id="Trazado_108289" data-name="Trazado 108289" d="M15.057,10h73.56a4.871,4.871,0,0,1,4.858,4.858V60.228a4.872,4.872,0,0,1-4.858,4.858H15.057A4.872,4.872,0,0,1,10.2,60.228V14.858A4.872,4.872,0,0,1,15.057,10Zm0,0" transform="translate(8859.528 -7404.306)" fill="#d0d7df" fill-rule="evenodd"/>
    <path id="Trazado_108290" data-name="Trazado 108290" d="M210.341,106.366,186.946,92.86v27.013l11.7-6.753Zm0,0" transform="translate(8712.722 -7473.129)" fill="#fa5c66" fill-rule="evenodd"/>
    <path id="Trazado_108291" data-name="Trazado 108291" d="M116.566,382.9a4.474,4.474,0,0,1,4.461,4.461v6.579a4.461,4.461,0,1,1-8.922,0v-6.579A4.475,4.475,0,0,1,116.566,382.9Zm0,0" transform="translate(8774.885 -7714.04)" fill="#88c9f7" fill-rule="evenodd"/>
    <path id="Trazado_108292" data-name="Trazado 108292" d="M85.168,140.867a1.694,1.694,0,0,0-1.694,1.694v26.366a3.167,3.167,0,0,1-3.164,3.164H6.751a3.167,3.167,0,0,1-3.164-3.164v-5.184a1.694,1.694,0,1,0-3.388,0v5.184a6.559,6.559,0,0,0,6.551,6.551h73.56a6.559,6.559,0,0,0,6.551-6.551V142.561A1.694,1.694,0,0,0,85.168,140.867Zm0,0" transform="translate(8867.834 -7513.004)" fill-rule="evenodd"/>
    <path id="Trazado_108293" data-name="Trazado 108293" d="M1.893,34.61a1.694,1.694,0,0,0,1.694-1.694V6.551A3.167,3.167,0,0,1,6.751,3.387H80.31a3.167,3.167,0,0,1,3.164,3.164v5.184a1.694,1.694,0,0,0,3.388,0V6.551A6.559,6.559,0,0,0,80.31,0H6.751A6.559,6.559,0,0,0,.2,6.551V32.916A1.694,1.694,0,0,0,1.893,34.61Zm0,0" transform="translate(8867.835 -7395.999)" fill-rule="evenodd"/>
    <path id="Trazado_108294" data-name="Trazado 108294" d="M179.486,83.087a1.694,1.694,0,0,0-2.541,1.467v27.013a1.694,1.694,0,0,0,2.541,1.467L202.88,99.528a1.694,1.694,0,0,0,0-2.934Zm.847,25.547V87.488l18.313,10.573Zm0,0" transform="translate(8721.028 -7464.824)" fill-rule="evenodd"/>
    <path id="Trazado_108295" data-name="Trazado 108295" d="M85.168,380.653h-55.4v-1.6a6.155,6.155,0,1,0-12.31,0v1.6H1.894a1.694,1.694,0,1,0,0,3.388H17.462v1.6a6.155,6.155,0,1,0,12.31,0v-1.6h55.4a1.694,1.694,0,1,0,0-3.388Zm-58.784,4.983a2.767,2.767,0,1,1-5.534,0v-6.579a2.767,2.767,0,0,1,5.534,0Zm0,0" transform="translate(8867.834 -7705.734)" fill-rule="evenodd"/>
    <path id="Trazado_108296" data-name="Trazado 108296" d="M1.728,228.373A1.728,1.728,0,1,0,0,226.645,1.731,1.731,0,0,0,1.728,228.373Zm0,0" transform="translate(8868 -7582.817)" fill-rule="evenodd"/>
    <path id="Trazado_108297" data-name="Trazado 108297" d="M493.329,99.871a1.728,1.728,0,1,0,1.728,1.728A1.731,1.731,0,0,0,493.329,99.871Zm0,0" transform="translate(8459.673 -7478.953)" fill-rule="evenodd"/>
  </g>
</svg>
