<svg xmlns="http://www.w3.org/2000/svg" width="83" height="83" viewBox="0 0 83 83">
  <g id="Grupo_124536" data-name="Grupo 124536" transform="translate(-287 -1839.73)">
    <circle id="Elipse_5146" data-name="Elipse 5146" cx="41.5" cy="41.5" r="41.5" transform="translate(287 1839.73)" fill="#bf3976"/>
    <g id="waist" transform="translate(298 1853.73)">
      <g id="Grupo_124516" data-name="Grupo 124516" transform="translate(38.898 7.159)">
        <g id="Grupo_124515" data-name="Grupo 124515">
          <path id="Trazado_108029" data-name="Trazado 108029" d="M327.193,86a1.193,1.193,0,1,0,1.193,1.193A1.194,1.194,0,0,0,327.193,86Z" transform="translate(-326 -86)" fill="#fff"/>
        </g>
      </g>
      <g id="Grupo_124518" data-name="Grupo 124518" transform="translate(8.29 0)">
        <g id="Grupo_124517" data-name="Grupo 124517">
          <path id="Trazado_108030" data-name="Trazado 108030" d="M113.231,53.107c-1.355-4.858-7.26-12.486-6.526-25.849A1.193,1.193,0,0,0,105.513,26H77.951a1.193,1.193,0,0,0-1.191,1.258c.73,13.3-5.158,21.007-6.535,25.839C67.734,61.808,71.8,73.06,77.49,80.423a1.193,1.193,0,0,0,.944.463h26.6a1.193,1.193,0,0,0,.944-.463C111.394,73.417,115.637,61.7,113.231,53.107Zm-37.2-7.518a43.741,43.741,0,0,0,3.157-17.2h25.08a43.753,43.753,0,0,0,3.156,17.2q.142.36.3.727a37.794,37.794,0,0,1-31.986,0Q75.891,45.949,76.035,45.589ZM90.539,78.5H79.025c-6.146-8.216-7.98-17.539-6.8-23.507,6.461,2.481,12.583,7.826,18.318,12.169ZM72.866,52.685a34.389,34.389,0,0,1,1.462-3.3q.212-.438.43-.894a40.179,40.179,0,0,0,33.947,0q.217.455.429.89a33.254,33.254,0,0,1,1.459,3.307c-6.82,2.567-13.247,8.114-18.861,12.386C86.094,60.782,79.687,55.251,72.866,52.685ZM104.438,78.5H92.925V67.161c5.775-4.375,11.859-9.684,18.3-12.162C112.643,62.54,108.943,72.411,104.438,78.5Z" transform="translate(-69.476 -26)" fill="#fff"/>
        </g>
      </g>
      <g id="Grupo_124520" data-name="Grupo 124520" transform="translate(39.345 11.911)">
        <g id="Grupo_124519" data-name="Grupo 124519" transform="translate(0 0)">
          <path id="Trazado_108031" data-name="Trazado 108031" d="M333.411,131.568a47.868,47.868,0,0,1-1.3-4.8,1.193,1.193,0,0,0-2.333.5,50.317,50.317,0,0,0,1.368,5.038,1.193,1.193,0,1,0,2.268-.743Z" transform="translate(-329.749 -125.828)" fill="#fff"/>
        </g>
      </g>
      <g id="Grupo_124522" data-name="Grupo 124522" transform="translate(48.443 4.773)">
        <g id="Grupo_124521" data-name="Grupo 124521" transform="translate(0 0)">
          <path id="Trazado_108032" data-name="Trazado 108032" d="M417.454,70.772h-7.381l2.736-2.736a1.193,1.193,0,0,0-1.687-1.688l-4.773,4.773a1.193,1.193,0,0,0,0,1.688l4.773,4.773a1.193,1.193,0,0,0,1.688-1.688l-2.736-2.736h7.381a1.193,1.193,0,1,0,0-2.386Z" transform="translate(-405.999 -65.999)" fill="#fff"/>
        </g>
      </g>
      <g id="Grupo_124524" data-name="Grupo 124524" transform="translate(0 4.773)">
        <g id="Grupo_124523" data-name="Grupo 124523">
          <path id="Trazado_108033" data-name="Trazado 108033" d="M12.3,71.122,7.526,66.35a1.193,1.193,0,0,0-1.688,1.688l2.736,2.736H1.193a1.193,1.193,0,1,0,0,2.386H8.574L5.838,75.9a1.193,1.193,0,0,0,1.688,1.688L12.3,72.81A1.193,1.193,0,0,0,12.3,71.122Z" transform="translate(0 -66)" fill="#fff"/>
        </g>
      </g>
    </g>
  </g>
</svg>
