<svg xmlns="http://www.w3.org/2000/svg" width="97" height="91.885" viewBox="0 0 97 91.885">
  <g id="graphic-editor" transform="translate(0 -13.498)">
    <g id="Grupo_124602" data-name="Grupo 124602" transform="translate(1.421 14.919)">
      <path id="Trazado_108120" data-name="Trazado 108120" d="M67.5,159H79.814v8.9H67.5Z" transform="translate(-56.133 -132.855)" fill="none" stroke="#000" stroke-linecap="round" stroke-linejoin="round" stroke-miterlimit="10" stroke-width="15"/>
      <path id="Trazado_108121" data-name="Trazado 108121" d="M101.658,79.73H7.5V26.684A5.683,5.683,0,0,1,13.184,21H95.975a5.683,5.683,0,0,1,5.684,5.684Z" transform="translate(-7.5 -21)" fill="#339ce9"/>
      <path id="Trazado_108122" data-name="Trazado 108122" d="M455.867,26.684V79.73h-5.684V26.684A5.683,5.683,0,0,0,444.5,21h5.684A5.683,5.683,0,0,1,455.867,26.684Z" transform="translate(-361.709 -21)" fill="#7cc5ff"/>
      <path id="Trazado_108123" data-name="Trazado 108123" d="M95.975,343.314H13.184A5.683,5.683,0,0,1,7.5,337.631V331h94.158v6.631A5.683,5.683,0,0,1,95.975,343.314Z" transform="translate(-7.5 -272.27)" fill="#fcf1f2"/>
      <path id="Trazado_108124" data-name="Trazado 108124" d="M455.867,331v6.631a5.683,5.683,0,0,1-5.684,5.684H444.5a5.683,5.683,0,0,0,5.684-5.684V331Z" transform="translate(-361.709 -272.27)" fill="#f4e5e0"/>
      <path id="Trazado_108125" data-name="Trazado 108125" d="M210.039,408.314H182L185.031,396h21.977Z" transform="translate(-148.94 -324.955)" fill="#e6d6d1"/>
      <path id="Trazado_108126" data-name="Trazado 108126" d="M292.715,408.314h-5.684L284,396h5.684Z" transform="translate(-231.616 -324.955)" fill="#d3c6c3"/>
      <path id="Trazado_108127" data-name="Trazado 108127" d="M147.882,466.684h39.43a.947.947,0,0,0,.9-1.247l-.831-2.494a2.842,2.842,0,0,0-2.7-1.943H150.51a2.842,2.842,0,0,0-2.7,1.943l-.831,2.494A.947.947,0,0,0,147.882,466.684Z" transform="translate(-120.517 -377.641)" fill="#fcf1f2"/>
      <path id="Trazado_108128" data-name="Trazado 108128" d="M324.5,466.684h-5.684a.947.947,0,0,0,.9-1.247l-.832-2.493a2.84,2.84,0,0,0-2.7-1.944h5.684a2.84,2.84,0,0,1,2.7,1.944l.832,2.493A.947.947,0,0,1,324.5,466.684Z" transform="translate(-257.708 -377.641)" fill="#f4e5e0"/>
      <path id="Trazado_108129" data-name="Trazado 108129" d="M119.723,51H38.068a.568.568,0,0,0-.568.568v52.479h82.791V51.568A.568.568,0,0,0,119.723,51Z" transform="translate(-31.816 -45.316)" fill="#fff"/>
      <path id="Trazado_108130" data-name="Trazado 108130" d="M120.291,56.684H37.5V51.568A.568.568,0,0,1,38.068,51h81.654a.568.568,0,0,1,.568.568Z" transform="translate(-31.816 -45.316)" fill="#c3aff0"/>
      <path id="Trazado_108131" data-name="Trazado 108131" d="M78.867,147H68.447a.947.947,0,0,1-.947-.947v-34.1a.947.947,0,0,1,.947-.947h10.42a.947.947,0,0,1,.947.947v34.1A.947.947,0,0,1,78.867,147Z" transform="translate(-56.133 -93.949)" fill="#6f6571"/>
      <path id="Trazado_108132" data-name="Trazado 108132" d="M214.979,147H163.447a.947.947,0,0,1-.947-.947v-34.1a.947.947,0,0,1,.947-.947h51.531a.947.947,0,0,1,.947.947v34.1A.947.947,0,0,1,214.979,147Z" transform="translate(-133.135 -93.949)" fill="#cdf2f9"/>
      <g id="Grupo_124601" data-name="Grupo 124601" transform="translate(43.764 22.734)">
        <path id="Trazado_108133" data-name="Trazado 108133" d="M343.236,146.684h-3.789a.947.947,0,0,1-.947-.947v-3.789a.947.947,0,0,1,.947-.947h3.789a.947.947,0,0,1,.947.947v3.789A.947.947,0,0,1,343.236,146.684Z" transform="translate(-319.555 -141)" fill="#71ddf9"/>
        <path id="Trazado_108134" data-name="Trazado 108134" d="M343.236,246.684h-3.789a.947.947,0,0,1-.947-.947v-3.789a.947.947,0,0,1,.947-.947h3.789a.947.947,0,0,1,.947.947v3.789A.947.947,0,0,1,343.236,246.684Z" transform="translate(-319.555 -222.055)" fill="#71ddf9"/>
        <path id="Trazado_108135" data-name="Trazado 108135" d="M243.236,146.684h-3.789a.947.947,0,0,1-.947-.947v-3.789a.947.947,0,0,1,.947-.947h3.789a.947.947,0,0,1,.947.947v3.789A.947.947,0,0,1,243.236,146.684Z" transform="translate(-238.5 -141)" fill="#71ddf9"/>
        <path id="Trazado_108136" data-name="Trazado 108136" d="M243.236,246.684h-3.789a.947.947,0,0,1-.947-.947v-3.789a.947.947,0,0,1,.947-.947h3.789a.947.947,0,0,1,.947.947v3.789A.947.947,0,0,1,243.236,246.684Z" transform="translate(-238.5 -222.055)" fill="#71ddf9"/>
      </g>
      <path id="Trazado_108137" data-name="Trazado 108137" d="M67.5,206H79.814v8.9H67.5Z" transform="translate(-56.133 -170.951)" fill="#514a54"/>
      <path id="Trazado_108138" data-name="Trazado 108138" d="M79.814,120.094H67.5v-8.146a.947.947,0,0,1,.947-.947h10.42a.947.947,0,0,1,.947.947Z" transform="translate(-56.133 -93.949)" fill="#514a54"/>
    </g>
    <g id="Grupo_124603" data-name="Grupo 124603" transform="translate(0 13.498)">
      <path id="Trazado_108139" data-name="Trazado 108139" d="M89.9,13.5H7.1A7.112,7.112,0,0,0,0,20.6V80.28a7.112,7.112,0,0,0,7.1,7.1H35.7l-2.332,9.473H31.413a4.258,4.258,0,0,0-4.044,2.915l-.831,2.494a2.385,2.385,0,0,0,2.247,3.117H56.977a1.421,1.421,0,1,0,0-2.842H29.442l.623-1.87a1.419,1.419,0,0,1,1.348-.972H65.586a1.419,1.419,0,0,1,1.348.972l.623,1.87h-3.95a1.421,1.421,0,0,0,0,2.842h4.607a2.385,2.385,0,0,0,2.247-3.117l-.831-2.494a4.258,4.258,0,0,0-4.044-2.915H63.633L61.3,87.385H89.9a7.112,7.112,0,0,0,7.1-7.1V20.6a7.112,7.112,0,0,0-7.1-7.1ZM7.1,16.34H89.9A4.268,4.268,0,0,1,94.158,20.6V72.228H91.316V21.171a1.991,1.991,0,0,0-1.989-1.989H7.673a1.991,1.991,0,0,0-1.989,1.989V40.5a1.421,1.421,0,0,0,2.842,0V27.707H88.475V72.228H8.525v-25.1a1.421,1.421,0,0,0-2.842,0v25.1H2.842V20.6A4.268,4.268,0,0,1,7.1,16.34Zm81.37,8.525H8.525V22.023H88.475ZM60.706,96.857H36.294l2.332-9.473h19.75ZM89.9,84.543H7.1A4.268,4.268,0,0,1,2.842,80.28V75.07H94.158v5.21A4.268,4.268,0,0,1,89.9,84.543Z" transform="translate(0 -13.498)"/>
      <path id="Trazado_108140" data-name="Trazado 108140" d="M157.368,142.336H208.9a2.371,2.371,0,0,0,2.368-2.368v-34.1A2.371,2.371,0,0,0,208.9,103.5H157.368A2.371,2.371,0,0,0,155,105.866v34.1A2.371,2.371,0,0,0,157.368,142.336Zm.474-36h50.584v33.154H157.842Z" transform="translate(-125.635 -86.447)"/>
      <path id="Trazado_108141" data-name="Trazado 108141" d="M256.1,133.5h-3.789a2.371,2.371,0,0,0-2.368,2.368v.474h-10.42v-.474a2.371,2.371,0,0,0-2.368-2.368h-3.789A2.371,2.371,0,0,0,231,135.866v3.789a2.371,2.371,0,0,0,2.368,2.368h.474v10.42h-.474A2.371,2.371,0,0,0,231,154.811V158.6a2.371,2.371,0,0,0,2.368,2.368h3.789a2.371,2.371,0,0,0,2.368-2.368v-.474h10.42v.474a2.371,2.371,0,0,0,2.368,2.368H256.1a2.371,2.371,0,0,0,2.368-2.368v-3.789a2.371,2.371,0,0,0-2.368-2.368h-.474v-10.42h.474a2.371,2.371,0,0,0,2.368-2.368v-3.789A2.371,2.371,0,0,0,256.1,133.5Zm-22.261,2.842h2.842v2.842h-2.842Zm2.842,21.787h-2.842v-2.842h2.842Zm18.945,0h-2.842v-2.842h2.842Zm-2.842-5.684h-.474a2.371,2.371,0,0,0-2.368,2.368v.474h-10.42v-.474a2.371,2.371,0,0,0-2.368-2.368h-.474v-10.42h.474a2.371,2.371,0,0,0,2.368-2.368v-.474h10.42v.474a2.371,2.371,0,0,0,2.368,2.368h.474Zm2.842-13.262h-2.842V136.34h2.842Z" transform="translate(-187.236 -110.764)"/>
      <circle id="Elipse_5161" data-name="Elipse 5161" cx="1.895" cy="1.895" r="1.895" transform="translate(55.604 34.575)"/>
      <path id="Trazado_108142" data-name="Trazado 108142" d="M62.368,142.336h10.42a2.371,2.371,0,0,0,2.368-2.368v-34.1a2.371,2.371,0,0,0-2.368-2.368H62.368A2.371,2.371,0,0,0,60,105.866v34.1A2.371,2.371,0,0,0,62.368,142.336Zm.474-18h9.473V130.4H62.842Zm9.473-2.842H62.842v-6.062h9.473Zm0,18H62.842v-6.252h9.473ZM62.842,106.34h9.473v6.252H62.842Z" transform="translate(-48.633 -86.447)"/>
    </g>
  </g>
</svg>
