<svg xmlns="http://www.w3.org/2000/svg" width="100" height="100" viewBox="0 0 100 100">
  <g id="Grupo_124682" data-name="Grupo 124682" transform="translate(-6781 8695)">
    <g id="Grupo_124674" data-name="Grupo 124674" transform="translate(6781 -8695.313)">
      <circle id="Elipse_5151" data-name="Elipse 5151" cx="50" cy="50" r="50" transform="translate(0 0.313)" fill="#bf3976"/>
    </g>
    <g id="webpage" transform="translate(6799 -8677)">
      <path id="Trazado_108256" data-name="Trazado 108256" d="M15,45h2v2H15Z" fill="#fff"/>
      <path id="Trazado_108257" data-name="Trazado 108257" d="M7,45H9v2H7Z" fill="#fff"/>
      <path id="Trazado_108258" data-name="Trazado 108258" d="M11,45h2v2H11Z" fill="#fff"/>
      <path id="Trazado_108259" data-name="Trazado 108259" d="M58,7H55V4a3,3,0,0,0-3-3H12A3,3,0,0,0,9,4V7H6a5.006,5.006,0,0,0-5,5V46a5.006,5.006,0,0,0,5,5H23.962a5.708,5.708,0,0,1-2.3,4H19a5.006,5.006,0,0,0-5,5,3,3,0,0,0,3,3H47a3,3,0,0,0,3-3,5.006,5.006,0,0,0-5-5H42.334a5.708,5.708,0,0,1-2.3-4H58a5.006,5.006,0,0,0,5-5V12A5.006,5.006,0,0,0,58,7ZM39,27H49V41H39Zm.8-2,3.513-5.622a.833.833,0,0,1,1.365,0L48.2,25Zm6.574-6.682a2.8,2.8,0,0,0-4.756,0L37,25.713V41H26.642l-.853-1.536q.226-.485.409-.974l2.8-.713V30.222l-2.8-.713c-.119-.319-.253-.639-.4-.956l1.479-2.489-5.342-5.342L19.446,22.2c-.317-.147-.638-.281-.956-.4L17.777,19H11V15H53V41H51V25.713ZM9,41H7V13H9Zm2-3.026A4.948,4.948,0,0,0,14,39a5,5,0,0,0,0-10,4.948,4.948,0,0,0-3,1.026V27.69A6.994,6.994,0,1,1,14,41H11ZM11,34a3,3,0,1,1,3,3A3,3,0,0,1,11,34Zm12,0a8.956,8.956,0,0,0-12-8.467V21h5.223l.6,2.354.528.169a10.978,10.978,0,0,1,1.686.7l.492.254,2.095-1.246,3.143,3.143-1.246,2.1.256.493a11.006,11.006,0,0,1,.7,1.683l.168.528,2.353.6v4.445l-2.354.6-.168.528a11.006,11.006,0,0,1-.7,1.683l-.247.476L24.355,41h-4.71A8.985,8.985,0,0,0,23,34ZM55,13h2V41H55ZM12,3H52a1,1,0,0,1,1,1v9H11V4A1,1,0,0,1,12,3ZM48,60a1,1,0,0,1-1,1H17a1,1,0,0,1-1-1,3,3,0,0,1,3-3H45A3,3,0,0,1,48,60Zm-8.47-5H24.47a7.7,7.7,0,0,0,1.492-4H38.037A7.707,7.707,0,0,0,39.53,55ZM61,46a3,3,0,0,1-3,3H6a3,3,0,0,1-3-3V12A3,3,0,0,1,6,9H9v2H7a2,2,0,0,0-2,2V41a2,2,0,0,0,2,2H57a2,2,0,0,0,2-2V13a2,2,0,0,0-2-2H55V9h3a3,3,0,0,1,3,3Z" fill="#fff"/>
      <path id="Trazado_108260" data-name="Trazado 108260" d="M19,5H13v6h6ZM17,9H15V7h2Z" fill="#fff"/>
      <path id="Trazado_108261" data-name="Trazado 108261" d="M27,5H21v6h6ZM25,9H23V7h2Z" fill="#fff"/>
      <path id="Trazado_108262" data-name="Trazado 108262" d="M35,5H29v6h6ZM33,9H31V7h2Z" fill="#fff"/>
      <path id="Trazado_108263" data-name="Trazado 108263" d="M43,37h2v2H43Z" fill="#fff"/>
      <path id="Trazado_108264" data-name="Trazado 108264" d="M43,29h2v2H43Z" fill="#fff"/>
      <path id="Trazado_108265" data-name="Trazado 108265" d="M43,33h2v2H43Z" fill="#fff"/>
    </g>
  </g>
</svg>
