<svg xmlns="http://www.w3.org/2000/svg" width="83" height="83" viewBox="0 0 83 83">
  <g id="Grupo_124545" data-name="Grupo 124545" transform="translate(-955 -1939.73)">
    <circle id="Elipse_5148" data-name="Elipse 5148" cx="41.5" cy="41.5" r="41.5" transform="translate(955 1939.73)" fill="#f3f9ff"/>
    <g id="sewing_1_" data-name="sewing (1)" transform="translate(968 1933.287)">
      <g id="Grupo_124543" data-name="Grupo 124543" transform="translate(0.833 23.275)">
        <path id="Trazado_108053" data-name="Trazado 108053" d="M12.283,80.128A4.783,4.783,0,0,1,7.5,75.345v-44a1.406,1.406,0,0,1,1.406-1.406h3.266a1.406,1.406,0,0,1,1.406,1.406v41.7a1,1,0,0,0,1,1l41.718,0A1.408,1.408,0,0,1,57.7,75.456v3.266a1.406,1.406,0,0,1-1.406,1.406Z" transform="translate(-7.5 -29.943)" fill="#daeaef"/>
        <g id="Grupo_124542" data-name="Grupo 124542" transform="translate(9.736 0.771)">
          <g id="Grupo_124541" data-name="Grupo 124541">
            <g id="Grupo_124540" data-name="Grupo 124540">
              <path id="Trazado_108054" data-name="Trazado 108054" d="M139.933,58.024l-8.95-5.838a3,3,0,0,0-1.035-.451L123.131,50.2H112.759l-6.817,1.536a3,3,0,0,0-1.036.452l-8.987,5.871a1.564,1.564,0,0,0-.547,2l2.793,5.667a1.564,1.564,0,0,0,2.267.612s1.994-1.292,3.3-2.1a.722.722,0,0,1,1.1.614V86.266a1.846,1.846,0,0,0,1.846,1.846h22.508a1.846,1.846,0,0,0,1.846-1.846V64.844a.722.722,0,0,1,1.1-.615c1.309.806,3.316,2.1,3.316,2.1a1.564,1.564,0,0,0,2.271-.62l2.765-5.694A1.564,1.564,0,0,0,139.933,58.024Z" transform="translate(-95.211 -48.721)" fill="#97e4f9"/>
              <g id="Grupo_124538" data-name="Grupo 124538" transform="translate(9.623 12.597)">
                <path id="Trazado_108055" data-name="Trazado 108055" d="M200.886,153.33v18.283a3.138,3.138,0,0,1-3.138,3.138H181.9v.569a1.846,1.846,0,0,0,1.846,1.846h22.508a1.846,1.846,0,0,0,1.846-1.846V153.9a.722.722,0,0,1,1.1-.615l-3.755-2.432a2.954,2.954,0,0,0-4.56,2.479Z" transform="translate(-181.899 -150.372)" fill="#62d8f9"/>
              </g>
              <g id="Grupo_124539" data-name="Grupo 124539" transform="translate(15.099)">
                <path id="Trazado_108056" data-name="Trazado 108056" d="M231.642,38.954l-.366,2.028a2.3,2.3,0,0,0,1.168,2.428l5.307,2.867-3.916-9.389-1.5,1a1.629,1.629,0,0,0-.7,1.064Z" transform="translate(-231.24 -36.889)" fill="#f1faff"/>
                <path id="Trazado_108057" data-name="Trazado 108057" d="M316.383,39.523l.062,1.67a2.3,2.3,0,0,1-1.2,2.1l-5.51,2.98,3.937-9.389,2,1.343A1.629,1.629,0,0,1,316.383,39.523Z" transform="translate(-301.019 -36.889)" fill="#f1faff"/>
              </g>
            </g>
            <path id="Trazado_108058" data-name="Trazado 108058" d="M254.631,36.889l3.916,9.389a1.43,1.43,0,0,0,2.2,0l3.937-9.389Z" transform="translate(-236.935 -36.889)" fill="#dcf5ff"/>
          </g>
        </g>
      </g>
      <g id="Grupo_124544" data-name="Grupo 124544" transform="translate(0 22.443)">
        <path id="Trazado_108059" data-name="Trazado 108059" d="M49.627,66.55l-41.718,0a.165.165,0,0,1-.165-.165v-41.7A2.241,2.241,0,0,0,5.5,22.443H2.239A2.241,2.241,0,0,0,0,24.682v44a5.623,5.623,0,0,0,5.615,5.615h33.82a.833.833,0,1,0,0-1.665H5.615a3.927,3.927,0,0,1-2.208-.676l3.858-3.858a1.817,1.817,0,0,0,.644.119h7.115v.651a.833.833,0,0,0,1.665,0v-.651h4.716v1.073a.833.833,0,1,0,1.665,0V68.213h4.716v.651a.833.833,0,1,0,1.665,0v-.651h4.716v1.073a.833.833,0,1,0,1.665,0V68.214h4.716v.65a.833.833,0,0,0,1.665,0v-.65h7.413a.574.574,0,0,1,.574.574v3.266a.574.574,0,0,1-.574.574h-6.3a.833.833,0,0,0,0,1.665h6.3a2.241,2.241,0,0,0,2.239-2.239V68.788a2.241,2.241,0,0,0-2.239-2.239ZM1.665,24.682a.574.574,0,0,1,.574-.574H5.5a.574.574,0,0,1,.574.574v3.624H4.843a.833.833,0,0,0,0,1.665H6.079v4.274H5.3a.833.833,0,1,0,0,1.665h.777v4.274H4.843a.833.833,0,1,0,0,1.665H6.079v4.274H5.3a.833.833,0,1,0,0,1.665h.777v4.274H4.843a.833.833,0,1,0,0,1.665H6.079V58H5.3a.833.833,0,1,0,0,1.665h.777v6.715a1.824,1.824,0,0,0,.065.478l-3.89,3.89a3.926,3.926,0,0,1-.589-2.072Z" transform="translate(0 -22.443)"/>
        <path id="Trazado_108060" data-name="Trazado 108060" d="M133.725,38.827l-8.943-5.833a3.815,3.815,0,0,0-1.314-.571l-4.07-.917a2.456,2.456,0,0,0-.641-.632l-2-1.343a.846.846,0,0,0-.467-.142H106.241a.846.846,0,0,0-.46.14l-1.5,1a2.468,2.468,0,0,0-.812.907l-4.376.986a3.814,3.814,0,0,0-1.316.572L88.8,38.861a2.4,2.4,0,0,0-.839,3.066l2.793,5.667a2.4,2.4,0,0,0,3.466.943c.019-.012,1.835-1.189,3.116-1.987v3.628a.833.833,0,1,0,1.665,0V46.35a1.556,1.556,0,0,0-2.374-1.321c-1.3.8-3.292,2.1-3.32,2.115a.731.731,0,0,1-1.06-.286L89.456,41.19a.732.732,0,0,1,.256-.936l8.987-5.87.015-.01a2.156,2.156,0,0,1,.749-.326l3.568-.8-.167.923a3.123,3.123,0,0,0,1.592,3.309l5.112,2.762a2.072,2.072,0,0,0,1.688.722h0a2.076,2.076,0,0,0,1.692-.722l5.316-2.874A3.11,3.11,0,0,0,119.9,34.5l-.044-1.178,3.242.731a2.156,2.156,0,0,1,.748.326l.015.01,8.95,5.838a.733.733,0,0,1,.258.932l-2.765,5.694a.73.73,0,0,1-1.07.285c-.02-.013-2.029-1.31-3.331-2.112a1.556,1.556,0,0,0-2.37,1.324V67.766a1.015,1.015,0,0,1-1.014,1.014H100.016A1.015,1.015,0,0,1,99,67.766V54.079a.833.833,0,1,0-1.665,0V67.766a2.682,2.682,0,0,0,2.679,2.679h22.508a2.682,2.682,0,0,0,2.679-2.679V46.543c1.285.8,3.113,1.976,3.124,1.983a2.4,2.4,0,0,0,3.479-.951l2.765-5.694A2.4,2.4,0,0,0,133.725,38.827ZM104.5,34.462c.194-1.064.35-1.966.385-2.108a.8.8,0,0,1,.322-.44l.655-.438,2.621,6.283-3.238-1.749a1.461,1.461,0,0,1-.745-1.548Zm6.4,4.768-3.41-8.176h7.552l-3.428,8.176A1.013,1.013,0,0,1,110.9,39.23Zm6.571-3.332-3.433,1.857,2.632-6.277,1.155.777a.807.807,0,0,1,.351.631l.062,1.67A1.455,1.455,0,0,1,117.474,35.9Z" transform="translate(-77.979 -28.618)"/>
      </g>
    </g>
  </g>
</svg>
