<svg xmlns="http://www.w3.org/2000/svg" width="100" height="100" viewBox="0 0 100 100">
  <g id="Grupo_124608" data-name="Grupo 124608" transform="translate(-808 -1239.73)">
    <g id="Grupo_124445" data-name="Grupo 124445" transform="translate(807.886 1239.417)">
      <circle id="Elipse_5151" data-name="Elipse 5151" cx="50" cy="50" r="50" transform="translate(0.114 0.313)" fill="#bf3976"/>
    </g>
    <g id="fabric" transform="translate(825 1256.73)">
      <path id="Trazado_108149" data-name="Trazado 108149" d="M71.161,433.3a1.3,1.3,0,0,0-1.3-1.3H61.3a1.3,1.3,0,1,0,0,2.6h8.566A1.3,1.3,0,0,0,71.161,433.3Z" transform="translate(-52.213 -375.935)" fill="#fff"/>
      <path id="Trazado_108150" data-name="Trazado 108150" d="M65.15,13.238H26.735V9.085A9.1,9.1,0,0,0,17.65,0H9.085A9.1,9.1,0,0,0,0,9.085V22.971a1.3,1.3,0,1,0,2.6,0V9.085A6.5,6.5,0,0,1,9.085,2.6H17.65a6.5,6.5,0,0,1,6.489,6.489V51.014a9.056,9.056,0,0,0-6.489-2.735H9.085A9.03,9.03,0,0,0,2.66,50.939c-.022.022-.043.045-.064.068V34.651a1.3,1.3,0,1,0-2.6,0V57.363a9.1,9.1,0,0,0,9.085,9.085H65.15a1.3,1.3,0,0,0,1.3-1.3V14.535A1.3,1.3,0,0,0,65.15,13.238Zm-20,2.6L63.852,34.54V47.386L32.3,15.833ZM63.852,30.869,48.816,15.833H63.852ZM28.628,15.833,63.852,51.057V63.852H63.8L26.735,26.788V15.833ZM47.281,63.852,26.735,43.3V30.458L60.128,63.852ZM2.6,57.363a6.485,6.485,0,0,1,6.489-6.489H17.65a6.489,6.489,0,1,1,0,12.978H9.085A6.5,6.5,0,0,1,2.6,57.363Zm24.139,0V46.976L43.61,63.852h-19.6a9.019,9.019,0,0,0,2.729-6.489Z" transform="translate(0)" fill="#fff"/>
      <circle id="Elipse_5162" data-name="Elipse 5162" cx="1.107" cy="1.107" r="1.107" transform="translate(0.001 27.687)" fill="#fff"/>
    </g>
  </g>
</svg>
