<svg xmlns="http://www.w3.org/2000/svg" width="100" height="100" viewBox="0 0 100 100">
  <g id="Grupo_124684" data-name="Grupo 124684" transform="translate(-7100.999 8442)">
    <g id="Grupo_124679" data-name="Grupo 124679" transform="translate(6601 -10177.73)">
      <g id="Grupo_124508" data-name="Grupo 124508" transform="translate(499.886 1735.417)">
        <circle id="Elipse_5151" data-name="Elipse 5151" cx="50" cy="50" r="50" transform="translate(0.114 0.313)" fill="#bf3976"/>
      </g>
      <g id="dummy" transform="translate(380.026 1746.73)">
        <path id="Trazado_108280" data-name="Trazado 108280" d="M183.622,221.2l-1.135-.33a1.962,1.962,0,0,1-1.342-1.372l-1.492-5.6a7.126,7.126,0,0,0-3.76-4.571L170.7,206.8V202.11h10.15a2.321,2.321,0,0,0,2.318-2.318v-3.708a14.592,14.592,0,0,0-2.034-7.429l-1.131-1.91a9.141,9.141,0,0,1-.525-8.283l1.385-3.206a1.142,1.142,0,0,0-2.1-.906l-1.385,3.206a11.426,11.426,0,0,0,.657,10.352l1.131,1.91a12.306,12.306,0,0,1,1.716,6.265v3.708a.034.034,0,0,1-.034.034H158.269l-.034-.034.009-4.191a1.142,1.142,0,0,0-2.282-.089s-.011,3.561-.011,4.279a2.321,2.321,0,0,0,2.318,2.318h10.15V206.8l-5.19,2.535a7.125,7.125,0,0,0-3.76,4.571l-1.492,5.6a1.962,1.962,0,0,1-1.341,1.372l-1.135.33a2.117,2.117,0,0,0,.591,4.15h2.959a3.846,3.846,0,0,0,3.451-2.173l2.632-5.495a1.726,1.726,0,0,1,1.258-.953l.053-.009.716,6.48a2.416,2.416,0,0,0,4.8,0l.716-6.48.053.009a1.726,1.726,0,0,1,1.258.953l2.632,5.495a3.846,3.846,0,0,0,3.451,2.173h2.959a2.117,2.117,0,0,0,.591-4.15Zm-20.55-4.5-2.632,5.494a1.55,1.55,0,0,1-1.391.876h-1.786l.009,0a4.258,4.258,0,0,0,2.911-2.977l1.492-5.6a4.843,4.843,0,0,1,2.556-3.106l4.188-2.045v4.723l-2.42.421A4.013,4.013,0,0,0,163.072,216.7Zm6.619,6.253a.132.132,0,0,1-.262,0l-.732-6.621.863-.15.863.15Zm10.381.117a1.55,1.55,0,0,1-1.391-.876l-2.632-5.494a4.014,4.014,0,0,0-2.926-2.216l-2.42-.421v-4.723l4.188,2.045a4.843,4.843,0,0,1,2.556,3.106l1.492,5.6a4.258,4.258,0,0,0,2.911,2.977l.009,0Z" transform="translate(0 -147.129)" fill="#fff"/>
        <path id="Trazado_108281" data-name="Trazado 108281" d="M164.046,31.333a9.141,9.141,0,0,1-.525,8.283l-1.131,1.911a14.656,14.656,0,0,0-.845,1.661,1.142,1.142,0,1,0,2.1.9,12.361,12.361,0,0,1,.713-1.4l1.131-1.911a11.426,11.426,0,0,0,.656-10.352l-4.6-10.649a1.042,1.042,0,0,1,.668-1.415l6.887-1.981a2.835,2.835,0,0,0,2.042-2.712V10.763h5.653v2.908a2.835,2.835,0,0,0,2.042,2.712l6.887,1.981a1.042,1.042,0,0,1,.668,1.415l-1.251,2.895a1.142,1.142,0,0,0,2.1.906l1.251-2.895a3.326,3.326,0,0,0-2.134-4.515l-6.887-1.981a.541.541,0,0,1-.389-.517V10.293a1.816,1.816,0,0,0-1.814-1.814h-2.155v-1.5a3.583,3.583,0,1,0-2.284,0v1.5h-2.155a1.816,1.816,0,0,0-1.814,1.814v3.378a.54.54,0,0,1-.389.517l-6.887,1.981a3.326,3.326,0,0,0-2.134,4.516Zm9.919-29.049a1.3,1.3,0,1,1-1.3,1.3A1.3,1.3,0,0,1,173.965,2.284Z" transform="translate(-4.404 0)" fill="#fff"/>
      </g>
    </g>
  </g>
</svg>
