<svg xmlns="http://www.w3.org/2000/svg" width="482.559" height="285.243" viewBox="0 0 482.559 285.243">
  <g id="Grupo_60857" data-name="Grupo 60857" transform="translate(-4626.957 -1316.208)">
    <g id="Grupo_60596" data-name="Grupo 60596" transform="translate(4743.522 1316.208)">
      <g id="Grupo_60595" data-name="Grupo 60595" transform="translate(0)">
        <path id="Trazado_107731" data-name="Trazado 107731" d="M5163.972,1555.606c-1.121,0-2.232-.017-3.34-.046a.742.742,0,0,1,.021-1.484h.02c1.947.049,3.925.061,5.9.017h.018a.742.742,0,0,1,.018,1.484Q5165.29,1555.607,5163.972,1555.606Zm8.533-.3a.741.741,0,0,1-.053-1.481c1.961-.139,3.933-.328,5.864-.562a.735.735,0,0,1,.826.646.744.744,0,0,1-.646.826c-1.957.238-3.954.429-5.939.568A.357.357,0,0,1,5172.5,1555.3Zm-17.771-.052a.393.393,0,0,1-.058,0c-1.983-.154-3.981-.356-5.934-.6a.743.743,0,0,1-.644-.829.717.717,0,0,1,.829-.644c1.93.244,3.9.444,5.862.6a.742.742,0,0,1-.057,1.481Zm29.541-1.374a.742.742,0,0,1-.125-1.472c1.95-.336,3.9-.722,5.779-1.145a.732.732,0,0,1,.887.563.741.741,0,0,1-.562.887c-1.907.429-3.876.817-5.854,1.156A.6.6,0,0,1,5184.275,1553.878Zm-41.3-.119a.662.662,0,0,1-.132-.011c-1.978-.354-3.942-.756-5.843-1.191a.745.745,0,0,1-.56-.89.766.766,0,0,1,.889-.559c1.883.432,3.824.829,5.774,1.18a.742.742,0,0,1-.129,1.472Zm52.866-2.469a.742.742,0,0,1-.2-1.458c1.863-.516,3.762-1.1,5.633-1.716a.743.743,0,1,1,.471,1.409c-1.9.629-3.819,1.214-5.71,1.739A.749.749,0,0,1,5195.843,1551.29Zm-64.415-.191a.7.7,0,0,1-.2-.029c-1.89-.536-3.806-1.133-5.7-1.774a.741.741,0,0,1,.477-1.4c1.869.632,3.762,1.22,5.628,1.75a.742.742,0,0,1-.2,1.455Zm75.676-3.551a.742.742,0,0,1-.27-1.434c1.823-.707,3.654-1.475,5.446-2.281a.744.744,0,0,1,.609,1.357c-1.814.814-3.674,1.591-5.518,2.31A.791.791,0,0,1,5207.1,1547.548Zm-86.9-.252a.751.751,0,0,1-.272-.052c-1.853-.736-3.7-1.519-5.481-2.33a.738.738,0,0,1-.367-.983.746.746,0,0,1,.982-.368c1.762.8,3.582,1.577,5.412,2.3a.742.742,0,0,1-.273,1.432Zm97.741-4.606a.742.742,0,0,1-.336-1.4c1.742-.89,3.49-1.838,5.191-2.812a.741.741,0,1,1,.735,1.287c-1.722.988-3.489,1.945-5.253,2.846A.743.743,0,0,1,5217.94,1542.69Zm-108.51-.3a.709.709,0,0,1-.338-.084c-1.746-.9-3.5-1.864-5.227-2.866a.742.742,0,1,1,.748-1.281c1.7.988,3.435,1.942,5.155,2.832a.742.742,0,0,1-.339,1.4Zm118.8-5.62a.742.742,0,0,1-.4-1.365c1.662-1.066,3.3-2.182,4.881-3.313a.742.742,0,1,1,.865,1.206c-1.6,1.148-3.261,2.275-4.945,3.353A.725.725,0,0,1,5228.232,1536.775Zm-129.036-.333a.753.753,0,0,1-.405-.119c-1.646-1.073-3.3-2.209-4.915-3.377a.741.741,0,0,1,.869-1.2c1.6,1.153,3.229,2.272,4.857,3.33a.743.743,0,0,1-.406,1.365Zm138.681-6.568a.742.742,0,0,1-.462-1.325c1.546-1.223,3.067-2.5,4.528-3.777a.741.741,0,0,1,.979,1.113c-1.479,1.3-3.021,2.589-4.586,3.829A.743.743,0,0,1,5237.877,1529.873ZM5089.6,1529.5a.734.734,0,0,1-.463-.162c-1.527-1.223-3.062-2.519-4.563-3.846a.744.744,0,0,1,.986-1.113c1.481,1.316,3,2.594,4.5,3.8a.743.743,0,0,1-.465,1.322Zm157.187-7.449a.741.741,0,0,1-.515-1.275c1.393-1.351,2.784-2.768,4.128-4.206a.743.743,0,0,1,1.086,1.014c-1.363,1.455-2.77,2.887-4.184,4.258A.739.739,0,0,1,5246.786,1522.05Zm-166.055-.414a.736.736,0,0,1-.52-.212c-1.406-1.374-2.806-2.814-4.16-4.278a.743.743,0,0,1,1.091-1.009c1.337,1.446,2.718,2.87,4.107,4.226a.742.742,0,0,1-.519,1.272Zm174.147-8.249a.742.742,0,0,1-.565-1.22c1.268-1.5,2.511-3.046,3.688-4.592a.742.742,0,1,1,1.182.9c-1.2,1.568-2.452,3.131-3.739,4.649A.733.733,0,0,1,5254.879,1513.387Zm-182.2-.458a.734.734,0,0,1-.568-.267c-1.272-1.516-2.524-3.089-3.719-4.672a.741.741,0,0,1,1.183-.893c1.184,1.562,2.418,3.113,3.674,4.614a.743.743,0,0,1-.569,1.217Zm189.388-8.959a.743.743,0,0,1-.611-1.162c1.1-1.6,2.182-3.261,3.215-4.93a.742.742,0,1,1,1.264.777c-1.047,1.7-2.142,3.374-3.256,4.994A.742.742,0,0,1,5262.069,1503.97Zm-196.541-.507a.746.746,0,0,1-.615-.325c-1.115-1.643-2.2-3.33-3.23-5.02a.74.74,0,1,1,1.263-.771c1.021,1.667,2.1,3.333,3.2,4.956a.744.744,0,0,1-.2,1.032A.737.737,0,0,1,5065.528,1503.463Zm202.759-9.571a.73.73,0,0,1-.357-.093.743.743,0,0,1-.293-1.006c.928-1.687,1.839-3.446,2.708-5.226a.733.733,0,0,1,.991-.342.743.743,0,0,1,.342.991c-.878,1.8-1.8,3.582-2.741,5.29A.739.739,0,0,1,5268.287,1493.892Zm-208.932-.559a.738.738,0,0,1-.652-.389c-.945-1.739-1.861-3.527-2.722-5.318a.743.743,0,0,1,1.339-.644c.849,1.768,1.751,3.536,2.687,5.255a.742.742,0,0,1-.3,1.006A.73.73,0,0,1,5059.355,1493.333Zm214.108-10.081a.727.727,0,0,1-.291-.061.736.736,0,0,1-.39-.971c.757-1.78,1.486-3.617,2.17-5.467a.742.742,0,1,1,1.392.516c-.689,1.87-1.432,3.731-2.2,5.53A.734.734,0,0,1,5273.464,1483.252Zm-219.244-.623a.742.742,0,0,1-.686-.455c-.771-1.838-1.5-3.71-2.176-5.571a.742.742,0,1,1,1.4-.5c.664,1.838,1.387,3.687,2.148,5.5a.742.742,0,0,1-.4.971A.716.716,0,0,1,5054.22,1482.629Zm223.337-10.487a.743.743,0,0,1-.707-.962c.579-1.861,1.124-3.768,1.612-5.669a.755.755,0,0,1,.906-.533.743.743,0,0,1,.532.9c-.494,1.925-1.045,3.855-1.636,5.739A.743.743,0,0,1,5277.557,1472.142Zm-227.378-.687a.745.745,0,0,1-.711-.525c-.576-1.89-1.116-3.823-1.6-5.748a.742.742,0,0,1,1.438-.365c.479,1.9,1.012,3.812,1.583,5.678a.748.748,0,0,1-.492.928A.836.836,0,0,1,5050.179,1471.455Zm230.339-10.791a.851.851,0,0,1-.146-.014.746.746,0,0,1-.581-.875c.39-1.893.737-3.843,1.041-5.8a.75.75,0,0,1,.847-.62.742.742,0,0,1,.621.847c-.308,1.982-.662,3.959-1.053,5.872A.746.746,0,0,1,5280.518,1460.664Zm-233.229-.7a.741.741,0,0,1-.728-.6c-.383-1.919-.724-3.9-1.017-5.881a.741.741,0,1,1,1.466-.215c.29,1.96.63,3.913,1.007,5.805a.74.74,0,0,1-.583.873A.869.869,0,0,1,5047.288,1459.96Zm235.027-11.011a.722.722,0,0,1-.075,0,.744.744,0,0,1-.663-.815c.2-1.936.352-3.913.457-5.878a.726.726,0,0,1,.783-.7.745.745,0,0,1,.7.783c-.106,1.988-.263,3.988-.463,5.948A.745.745,0,0,1,5282.315,1448.948Zm-236.757-.716a.746.746,0,0,1-.74-.67c-.19-1.965-.335-3.968-.428-5.954a.745.745,0,0,1,.707-.777.756.756,0,0,1,.776.707c.09,1.962.231,3.939.424,5.878a.744.744,0,0,1-.668.812A.6.6,0,0,1,5045.559,1448.233Zm237.389-11.124a.743.743,0,0,1-.742-.742v-.478c0-1.948-.049-3.93-.145-5.892a.743.743,0,0,1,1.484-.069c.095,1.982.145,3.991.145,5.962v.478A.744.744,0,0,1,5282.947,1437.108ZM5045,1436.4h0a.742.742,0,0,1-.739-.745c0-2.009.061-4.017.16-5.965a.762.762,0,0,1,.778-.7.745.745,0,0,1,.7.78c-.1,1.925-.153,3.907-.158,5.9A.741.741,0,0,1,5045,1436.4Zm237.369-11.6a.744.744,0,0,1-.739-.669c-.19-1.956-.434-3.925-.724-5.846a.74.74,0,0,1,.623-.843.727.727,0,0,1,.844.623c.293,1.945.542,3.939.735,5.921a.742.742,0,0,1-.666.812A.668.668,0,0,1,5282.364,1424.792Zm-236.76-.24a.662.662,0,0,1-.075,0,.746.746,0,0,1-.664-.814c.2-2,.455-3.994.748-5.919a.713.713,0,0,1,.843-.623.742.742,0,0,1,.623.844c-.29,1.9-.535,3.872-.735,5.849A.744.744,0,0,1,5045.6,1424.552Zm235.008-11.484a.739.739,0,0,1-.726-.6c-.389-1.922-.827-3.855-1.3-5.745a.742.742,0,0,1,.536-.9.751.751,0,0,1,.9.536c.483,1.913.931,3.872,1.32,5.82a.739.739,0,0,1-.581.872A.857.857,0,0,1,5280.612,1413.068Zm-233.234-.235a.814.814,0,0,1-.147-.015.742.742,0,0,1-.579-.875c.388-1.916.837-3.873,1.332-5.815a.755.755,0,0,1,.9-.536.742.742,0,0,1,.536.9c-.49,1.919-.933,3.852-1.317,5.745A.739.739,0,0,1,5047.378,1412.834Zm230.319-11.255a.747.747,0,0,1-.71-.525c-.573-1.858-1.205-3.742-1.881-5.6a.747.747,0,0,1,.447-.951.755.755,0,0,1,.95.447c.681,1.878,1.321,3.785,1.9,5.669a.744.744,0,0,1-.493.927A.8.8,0,0,1,5277.7,1401.579Zm-227.38-.232a.708.708,0,0,1-.22-.035.74.74,0,0,1-.487-.927c.594-1.913,1.234-3.815,1.909-5.652a.741.741,0,1,1,1.392.51c-.663,1.814-1.3,3.693-1.887,5.583A.74.74,0,0,1,5050.317,1401.347Zm223.32-10.933a.742.742,0,0,1-.685-.455c-.771-1.829-1.588-3.641-2.429-5.38a.74.74,0,1,1,1.332-.644c.854,1.76,1.684,3.594,2.466,5.449a.741.741,0,0,1-.4.971A.712.712,0,0,1,5273.638,1390.414Zm-219.253-.185a.784.784,0,0,1-.29-.058.746.746,0,0,1-.4-.974c.787-1.846,1.615-3.672,2.464-5.423a.741.741,0,1,1,1.333.649c-.836,1.728-1.654,3.531-2.427,5.353A.748.748,0,0,1,5054.385,1390.229Zm214.094-10.51a.746.746,0,0,1-.652-.386c-.947-1.736-1.942-3.452-2.956-5.107a.742.742,0,1,1,1.264-.777c1.029,1.675,2.035,3.414,3,5.171a.741.741,0,0,1-.651,1.1Zm-208.937-.136a.741.741,0,0,1-.65-1.1c.948-1.73,1.955-3.464,2.993-5.156a.736.736,0,0,1,1.021-.244.743.743,0,0,1,.243,1.02c-1.027,1.67-2.021,3.385-2.955,5.093A.745.745,0,0,1,5059.542,1379.583Zm202.739-9.982a.732.732,0,0,1-.611-.324c-1.1-1.618-2.265-3.226-3.449-4.786a.743.743,0,1,1,1.183-.9c1.2,1.58,2.373,3.211,3.489,4.849a.737.737,0,0,1-.194,1.029A.714.714,0,0,1,5262.281,1369.6Zm-196.54-.11a.725.725,0,0,1-.421-.131.741.741,0,0,1-.191-1.031c1.115-1.629,2.287-3.258,3.486-4.835a.743.743,0,0,1,1.183.9c-1.186,1.557-2.346,3.165-3.446,4.777A.739.739,0,0,1,5065.741,1369.49Zm189.37-9.342a.745.745,0,0,1-.569-.264c-1.241-1.475-2.553-2.963-3.9-4.42a.742.742,0,0,1,1.09-1.009c1.366,1.475,2.7,2.979,3.95,4.472a.742.742,0,0,1-.566,1.22Zm-182.2-.09a.742.742,0,0,1-.568-1.22c1.287-1.525,2.617-3.029,3.956-4.467a.74.74,0,1,1,1.084,1.009c-1.322,1.423-2.635,2.907-3.9,4.414A.74.74,0,0,1,5072.908,1360.059Zm174.136-8.6a.744.744,0,0,1-.52-.211c-1.388-1.354-2.843-2.7-4.317-4.009a.743.743,0,1,1,.985-1.113c1.492,1.322,2.962,2.687,4.371,4.061a.741.741,0,0,1-.52,1.272Zm-166.061-.078a.742.742,0,0,1-.519-1.272c1.44-1.4,2.913-2.768,4.378-4.058a.742.742,0,1,1,.98,1.113c-1.445,1.275-2.9,2.623-4.321,4.006A.74.74,0,0,1,5080.983,1351.381Zm157.178-7.765a.732.732,0,0,1-.464-.162c-1.525-1.218-3.1-2.417-4.693-3.559a.743.743,0,0,1,.869-1.206c1.606,1.159,3.206,2.371,4.752,3.606a.742.742,0,0,1-.464,1.321Zm-148.282-.075a.741.741,0,0,1-.461-1.322c1.547-1.235,3.15-2.446,4.756-3.606a.744.744,0,0,1,.87,1.206c-1.589,1.142-3.171,2.342-4.705,3.559A.729.729,0,0,1,5089.879,1343.541Zm138.67-6.852a.736.736,0,0,1-.4-.119c-1.629-1.055-3.318-2.09-5.019-3.078a.741.741,0,0,1,.744-1.281c1.721,1,3.432,2.043,5.08,3.113a.742.742,0,0,1-.4,1.365Zm-129.037-.075a.742.742,0,0,1-.4-1.365c1.655-1.069,3.37-2.116,5.1-3.116a.743.743,0,1,1,.742,1.287c-1.707.985-3.4,2.02-5.035,3.075A.733.733,0,0,1,5099.512,1336.613Zm118.792-5.855a.748.748,0,0,1-.341-.081c-1.732-.893-3.513-1.754-5.295-2.56a.738.738,0,0,1-.37-.979.726.726,0,0,1,.979-.371c1.806.815,3.611,1.687,5.365,2.588a.742.742,0,0,1-.339,1.4Zm-108.513-.078a.742.742,0,0,1-.339-1.4c1.756-.9,3.567-1.771,5.387-2.589a.741.741,0,1,1,.609,1.351c-1.8.812-3.585,1.67-5.319,2.56A.756.756,0,0,1,5109.791,1330.68Zm97.733-4.8a.749.749,0,0,1-.272-.052c-1.827-.719-3.687-1.4-5.537-2.017a.745.745,0,0,1-.467-.943.757.757,0,0,1,.943-.466c1.867.632,3.756,1.319,5.6,2.046a.742.742,0,0,1-.271,1.432Zm-86.905-.081a.742.742,0,0,1-.272-1.432c1.832-.719,3.723-1.406,5.624-2.04a.742.742,0,0,1,.469,1.408c-1.875.626-3.742,1.3-5.548,2.012A.757.757,0,0,1,5120.619,1325.8Zm75.67-3.7a.709.709,0,0,1-.2-.029c-1.836-.516-3.761-1.006-5.714-1.458a.741.741,0,1,1,.335-1.444c1.975.455,3.922.951,5.78,1.475a.741.741,0,0,1-.2,1.455Zm-64.415-.061a.741.741,0,0,1-.2-1.455c1.883-.531,3.828-1.023,5.781-1.467a.743.743,0,1,1,.331,1.449c-1.931.435-3.853.922-5.713,1.443A.68.68,0,0,1,5131.874,1322.04Zm52.862-2.576a.652.652,0,0,1-.127-.012c-1.957-.345-3.92-.641-5.826-.875a.74.74,0,0,1-.646-.826.76.76,0,0,1,.826-.646c1.936.238,3.921.536,5.9.887a.742.742,0,0,1-.127,1.473Zm-41.3-.038a.742.742,0,0,1-.128-1.472c1.922-.336,3.907-.632,5.9-.878a.754.754,0,0,1,.826.646.74.74,0,0,1-.646.826c-1.972.243-3.932.536-5.83.867A.642.642,0,0,1,5143.434,1319.425Zm29.537-1.435a.373.373,0,0,1-.055,0c-1.921-.145-3.9-.244-5.89-.3a.742.742,0,0,1,.02-1.484h.021c2.009.052,4.014.154,5.959.3a.742.742,0,0,1-.056,1.481Zm-17.772-.014a.742.742,0,0,1-.053-1.481c1.985-.145,3.992-.24,5.959-.287h.018a.742.742,0,0,1,.018,1.484c-1.941.047-3.924.139-5.89.281A.319.319,0,0,1,5155.2,1317.976Z" transform="translate(-5044.254 -1316.208)" fill="#3c251d"/>
      </g>
    </g>
    <g id="Grupo_60666" data-name="Grupo 60666" transform="translate(4633.401 1576.214)">
      <g id="Grupo_60663" data-name="Grupo 60663" transform="translate(0 0)">
        <g id="Grupo_60662" data-name="Grupo 60662">
          <path id="Trazado_107758" data-name="Trazado 107758" d="M4643.726,2296.939h-9.979a.348.348,0,0,1-.347-.347v-9.979a.347.347,0,0,1,.347-.347h9.979a.346.346,0,0,1,.348.347v9.979A.347.347,0,0,1,4643.726,2296.939Zm-9.631-.694h9.285v-9.285h-9.285Z" transform="translate(-4633.4 -2286.266)" fill="#3c251d"/>
        </g>
      </g>
      <g id="Grupo_60665" data-name="Grupo 60665" transform="translate(1.535 1.536)">
        <g id="Grupo_60664" data-name="Grupo 60664">
          <path id="Trazado_107759" data-name="Trazado 107759" d="M4642.205,2298.915a.347.347,0,0,1-.253-.109l-2.729-2.9a.347.347,0,0,1,.506-.476l2.447,2.6,4.441-5.9a.347.347,0,0,1,.555.418l-4.69,6.226a.343.343,0,0,1-.258.137Z" transform="translate(-4639.128 -2291.995)" fill="#3c251d"/>
        </g>
      </g>
    </g>
    <g id="Grupo_60671" data-name="Grupo 60671" transform="translate(4641.316 1412.973)">
      <g id="Grupo_60668" data-name="Grupo 60668" transform="translate(0 0)">
        <g id="Grupo_60667" data-name="Grupo 60667">
          <path id="Trazado_107760" data-name="Trazado 107760" d="M4673.255,1687.9h-9.978a.347.347,0,0,1-.348-.347v-9.978a.347.347,0,0,1,.348-.347h9.978a.346.346,0,0,1,.347.347v9.978A.347.347,0,0,1,4673.255,1687.9Zm-9.631-.694h9.285v-9.284h-9.285Z" transform="translate(-4662.93 -1677.23)" fill="#3c251d"/>
        </g>
      </g>
      <g id="Grupo_60670" data-name="Grupo 60670" transform="translate(1.535 1.536)">
        <g id="Grupo_60669" data-name="Grupo 60669">
          <path id="Trazado_107761" data-name="Trazado 107761" d="M4671.733,1689.879a.347.347,0,0,1-.252-.109l-2.729-2.9a.347.347,0,1,1,.5-.476l2.446,2.6,4.443-5.9a.347.347,0,0,1,.555.417l-4.69,6.226a.347.347,0,0,1-.26.137Z" transform="translate(-4668.657 -1682.959)" fill="#3c251d"/>
        </g>
      </g>
    </g>
    <g id="Grupo_60676" data-name="Grupo 60676" transform="translate(4961.861 1335.805)">
      <g id="Grupo_60673" data-name="Grupo 60673" transform="translate(0 0)">
        <g id="Grupo_60672" data-name="Grupo 60672">
          <path id="Trazado_107762" data-name="Trazado 107762" d="M5869.181,1399.994H5859.2a.347.347,0,0,1-.349-.347v-9.979a.348.348,0,0,1,.349-.347h9.977a.346.346,0,0,1,.347.347v9.979A.346.346,0,0,1,5869.181,1399.994Zm-9.631-.694h9.285v-9.284h-9.285Z" transform="translate(-5858.855 -1389.322)" fill="#3c251d"/>
        </g>
      </g>
      <g id="Grupo_60675" data-name="Grupo 60675" transform="translate(1.535 1.536)">
        <g id="Grupo_60674" data-name="Grupo 60674">
          <path id="Trazado_107763" data-name="Trazado 107763" d="M5867.659,1401.971a.342.342,0,0,1-.252-.109l-2.73-2.9a.347.347,0,0,1,.506-.476l2.447,2.6,4.442-5.9a.347.347,0,0,1,.555.418l-4.69,6.225a.343.343,0,0,1-.258.138Z" transform="translate(-5864.583 -1395.052)" fill="#3c251d"/>
        </g>
      </g>
    </g>
    <g id="Grupo_60679" data-name="Grupo 60679" transform="translate(4779.568 1368.202)">
      <g id="Grupo_60678" data-name="Grupo 60678" transform="translate(0 0)">
        <g id="Grupo_60677" data-name="Grupo 60677">
          <path id="Trazado_107764" data-name="Trazado 107764" d="M5189.67,1523.343a.4.4,0,0,1-.179-.044l-3.851-2.025-3.851,2.025a.389.389,0,0,1-.4-.03.381.381,0,0,1-.153-.374l.734-4.289-3.114-3.037a.382.382,0,0,1,.212-.653l4.307-.626,1.925-3.9a.4.4,0,0,1,.688,0l1.926,3.9,4.306.626a.382.382,0,0,1,.311.261.387.387,0,0,1-.1.392l-3.115,3.037.733,4.289a.378.378,0,0,1-.152.374A.367.367,0,0,1,5189.67,1523.343Zm-4.029-2.885a.409.409,0,0,1,.18.043l3.341,1.757-.638-3.721a.377.377,0,0,1,.111-.338l2.7-2.636-3.736-.543a.381.381,0,0,1-.29-.21l-1.671-3.386-1.671,3.386a.382.382,0,0,1-.291.21l-3.736.543,2.7,2.636a.374.374,0,0,1,.11.338l-.638,3.721,3.342-1.757A.4.4,0,0,1,5185.641,1520.458Z" transform="translate(-5178.735 -1510.191)" fill="#3c251d"/>
        </g>
      </g>
    </g>
    <g id="Grupo_60682" data-name="Grupo 60682" transform="translate(5092.737 1565.899)">
      <g id="Grupo_60681" data-name="Grupo 60681" transform="translate(0 0)">
        <g id="Grupo_60680" data-name="Grupo 60680">
          <path id="Trazado_107765" data-name="Trazado 107765" d="M6360.423,2263.758a.492.492,0,0,1-.217-.053l-4.68-2.461-4.677,2.461a.474.474,0,0,1-.492-.036.461.461,0,0,1-.184-.455l.892-5.211-3.784-3.69a.463.463,0,0,1,.258-.793l5.23-.76,2.34-4.74a.485.485,0,0,1,.837,0l2.339,4.74,5.23.76a.463.463,0,0,1,.258.793l-3.782,3.69.891,5.211a.462.462,0,0,1-.186.455A.452.452,0,0,1,6360.423,2263.758Zm-4.9-3.5a.491.491,0,0,1,.219.052l4.061,2.135-.775-4.521a.45.45,0,0,1,.135-.411l3.285-3.2-4.54-.66a.471.471,0,0,1-.354-.255l-2.03-4.114-2.029,4.114a.467.467,0,0,1-.352.255l-4.539.66,3.283,3.2a.452.452,0,0,1,.135.411l-.773,4.521,4.059-2.135A.5.5,0,0,1,6355.526,2260.253Z" transform="translate(-6347.139 -2247.78)" fill="#3c251d"/>
        </g>
      </g>
    </g>
    <g id="Grupo_60696" data-name="Grupo 60696" transform="translate(4928.726 1373.772)">
      <g id="Grupo_60695" data-name="Grupo 60695" transform="translate(0 0)">
        <ellipse id="Elipse_5115" data-name="Elipse 5115" cx="13.713" cy="21.37" rx="13.713" ry="21.37" fill="#fff"/>
      </g>
    </g>
    <g id="Grupo_60698" data-name="Grupo 60698" transform="translate(4983.511 1370.174)">
      <g id="Grupo_60697" data-name="Grupo 60697">
        <ellipse id="Elipse_5116" data-name="Elipse 5116" cx="8.519" cy="13.276" rx="8.519" ry="13.276" fill="#fff"/>
      </g>
    </g>
    <g id="Grupo_60723" data-name="Grupo 60723" transform="translate(4730.202 1333.419)">
      <g id="Grupo_60700" data-name="Grupo 60700">
        <g id="Grupo_60699" data-name="Grupo 60699">
          <path id="Trazado_107771" data-name="Trazado 107771" d="M5012.7,1384.847l-14.888,2.761c-1.557.289-3-.455-3.228-1.658s.861-2.417,2.418-2.706l14.888-2.761c1.558-.288,3,.455,3.229,1.658S5014.26,1384.559,5012.7,1384.847Zm-15.6-1.089c-1.273.236-2.171,1.176-2,2.1s1.346,1.476,2.619,1.24l14.888-2.76c1.273-.236,2.171-1.177,2-2.1s-1.346-1.476-2.62-1.24Z" transform="translate(-4994.559 -1380.422)" fill="#3c251d"/>
        </g>
      </g>
      <g id="Grupo_60702" data-name="Grupo 60702" transform="translate(4.141 22.33)">
        <g id="Grupo_60701" data-name="Grupo 60701">
          <path id="Trazado_107772" data-name="Trazado 107772" d="M5028.154,1468.16l-14.888,2.761c-1.557.289-3-.455-3.228-1.658s.862-2.417,2.419-2.706l14.887-2.76c1.557-.289,3,.455,3.227,1.658S5029.71,1467.871,5028.154,1468.16Zm-15.6-1.089c-1.273.236-2.171,1.176-2,2.1s1.346,1.476,2.619,1.24l14.888-2.761c1.272-.236,2.171-1.177,2-2.1s-1.347-1.476-2.62-1.24Z" transform="translate(-5010.009 -1463.735)" fill="#3c251d"/>
        </g>
      </g>
      <g id="Grupo_60704" data-name="Grupo 60704" transform="translate(2.951 3.946)">
        <g id="Grupo_60703" data-name="Grupo 60703">
          <path id="Trazado_107773" data-name="Trazado 107773" d="M5024.409,1414.04l-15.335,2.844-3.5-18.9,15.336-2.844Zm-14.918,2.235,14.311-2.653-3.314-17.871-14.311,2.654Z" transform="translate(-5005.569 -1395.143)" fill="#3c251d"/>
        </g>
      </g>
      <g id="Grupo_60706" data-name="Grupo 60706" transform="translate(5.177 4.942)">
        <g id="Grupo_60705" data-name="Grupo 60705" transform="translate(0 0)">
          <rect id="Rectángulo_6948" data-name="Rectángulo 6948" width="18.277" height="0.523" transform="matrix(0.701, -0.713, 0.713, 0.701, 0, 13.035)" fill="#3c251d"/>
        </g>
      </g>
      <g id="Grupo_60708" data-name="Grupo 60708" transform="translate(5.754 7.398)">
        <g id="Grupo_60707" data-name="Grupo 60707">
          <path id="Trazado_107774" data-name="Trazado 107774" d="M5016.233,1421.659l-.048-.257-.159-.206c.336-.289,9.226-9.606,12.624-13.172l.376.36C5016.413,1421.625,5016.345,1421.638,5016.233,1421.659Z" transform="translate(-5016.026 -1408.024)" fill="#3c251d"/>
        </g>
      </g>
      <g id="Grupo_60710" data-name="Grupo 60710" transform="translate(6.279 10.241)">
        <g id="Grupo_60709" data-name="Grupo 60709" transform="translate(0 0)">
          <rect id="Rectángulo_6949" data-name="Rectángulo 6949" width="18.413" height="0.521" transform="matrix(0.689, -0.725, 0.725, 0.689, 0, 13.341)" fill="#3c251d"/>
        </g>
      </g>
      <g id="Grupo_60712" data-name="Grupo 60712" transform="translate(3.353 5.822)">
        <g id="Grupo_60711" data-name="Grupo 60711">
          <path id="Trazado_107775" data-name="Trazado 107775" d="M5020.725,1402.662l-13.348,2.475a.261.261,0,1,1-.095-.514l13.347-2.475a.261.261,0,0,1,.1.513Z" transform="translate(-5007.069 -1402.144)" fill="#3c251d"/>
        </g>
      </g>
      <g id="Grupo_60714" data-name="Grupo 60714" transform="translate(3.831 8.812)">
        <g id="Grupo_60713" data-name="Grupo 60713">
          <path id="Trazado_107776" data-name="Trazado 107776" d="M5019.333,1413.815l-10.171,1.886a.261.261,0,1,1-.095-.514l10.17-1.886a.261.261,0,1,1,.1.513Z" transform="translate(-5008.854 -1413.298)" fill="#3c251d"/>
        </g>
      </g>
      <g id="Grupo_60716" data-name="Grupo 60716" transform="translate(4.206 11.374)">
        <g id="Grupo_60715" data-name="Grupo 60715">
          <path id="Trazado_107777" data-name="Trazado 107777" d="M5017.812,1423.376l-7.252,1.344a.261.261,0,0,1-.095-.513l7.251-1.345a.261.261,0,0,1,.1.513Z" transform="translate(-5010.252 -1422.859)" fill="#3c251d"/>
        </g>
      </g>
      <g id="Grupo_60718" data-name="Grupo 60718" transform="translate(7.866 19.541)">
        <g id="Grupo_60717" data-name="Grupo 60717">
          <path id="Trazado_107778" data-name="Trazado 107778" d="M5036.921,1453.844l-12.706,2.356a.261.261,0,0,1-.1-.513l12.706-2.356a.261.261,0,0,1,.1.514Z" transform="translate(-5023.907 -1453.327)" fill="#3c251d"/>
        </g>
      </g>
      <g id="Grupo_60720" data-name="Grupo 60720" transform="translate(10.504 17.327)">
        <g id="Grupo_60719" data-name="Grupo 60719">
          <path id="Trazado_107779" data-name="Trazado 107779" d="M5043.713,1445.585l-9.656,1.791a.261.261,0,0,1-.1-.513l9.657-1.791a.261.261,0,1,1,.095.513Z" transform="translate(-5033.749 -1445.067)" fill="#3c251d"/>
        </g>
      </g>
      <g id="Grupo_60722" data-name="Grupo 60722" transform="translate(13.537 14.83)">
        <g id="Grupo_60721" data-name="Grupo 60721">
          <path id="Trazado_107780" data-name="Trazado 107780" d="M5051.5,1436.27l-6.128,1.137a.261.261,0,1,1-.095-.514l6.127-1.136a.261.261,0,1,1,.1.513Z" transform="translate(-5045.064 -1435.753)" fill="#3c251d"/>
        </g>
      </g>
    </g>
    <g id="Grupo_60856" data-name="Grupo 60856" transform="translate(4647.565 1323.348)">
      <g id="Grupo_60729" data-name="Grupo 60729" transform="translate(338.72 222.047)">
        <g id="Grupo_60728" data-name="Grupo 60728">
          <path id="Trazado_107783" data-name="Trazado 107783" d="M5964.433,2224.472l-1.549-51.9-12.91-1.291,3.278,52.6C5956.85,2224,5960.606,2224.173,5964.433,2224.472Z" transform="translate(-5949.974 -2171.283)" fill="#c58f6d"/>
        </g>
      </g>
      <g id="Grupo_60735" data-name="Grupo 60735" transform="translate(0 217.859)">
        <g id="Grupo_60734" data-name="Grupo 60734">
          <rect id="Rectángulo_6950" data-name="Rectángulo 6950" width="392.991" height="6.447" fill="#c58f6d"/>
        </g>
      </g>
      <g id="Grupo_60845" data-name="Grupo 60845" transform="translate(49.413 265.042)" opacity="0.5" style="mix-blend-mode: multiply;isolation: isolate">
        <g id="Grupo_60844" data-name="Grupo 60844">
          <g id="Grupo_60843" data-name="Grupo 60843">
            <path id="Trazado_107807" data-name="Trazado 107807" d="M4880.549,2344.67c-3.374-4.285-6.674-8.634-9.949-12.977l5.8,13.061Z" transform="translate(-4870.6 -2331.693)" fill="#e27976"/>
          </g>
        </g>
      </g>
      <g id="Grupo_60853" data-name="Grupo 60853" transform="translate(199.16 10.778)" opacity="0.35">
        <g id="Grupo_60852" data-name="Grupo 60852">
          <path id="Trazado_107811" data-name="Trazado 107811" d="M5447.9,1390.705a17.8,17.8,0,0,1-.019-1.784c-.2-1.9-2.487-2.77-4.392-2.859s-4.034.119-5.494-1.109c-.507-.426-.881-.994-1.395-1.412a1.676,1.676,0,0,0-1.836-.325,2.155,2.155,0,0,0-.655.744,42.016,42.016,0,0,0-4.816,10.8,8.393,8.393,0,0,0,4.77-1.482,29.328,29.328,0,0,1,2.948-2.18,3,3,0,0,1,3.426.186c1.391,1.383.205,3.868,1.013,5.656.736,1.631,2.839,2.1,4.626,2.009a13.736,13.736,0,0,0,6.674-2.12c1.75-1.117,3.351-2.992,3.012-5.039-1.456-.141-2.86.514-4.311.709S5448.2,1392.136,5447.9,1390.705Z" transform="translate(-5429.293 -1383.056)" fill="#fff"/>
        </g>
      </g>
      <g id="Grupo_60855" data-name="Grupo 60855" transform="translate(164.489 45.825)" opacity="0.33">
        <g id="Grupo_60854" data-name="Grupo 60854">
          <path id="Trazado_107812" data-name="Trazado 107812" d="M5332.512,1541.345c-.507,1.4-2.61,1.564-3.766.626a6.345,6.345,0,0,1-1.83-3.967,9.378,9.378,0,0,0-1.374-4.2,5.671,5.671,0,0,0-5.51-1.737,16.923,16.923,0,0,0-5.515,2.476,8.508,8.508,0,0,1-4.576,1.646,5.349,5.349,0,0,1-4.353-3.165,10.035,10.035,0,0,1-.663-5.537c.25-2.044.63-4.61-1.106-5.717a12.673,12.673,0,0,0-1.678-.7,3.82,3.82,0,1,1,3.441-6.814,6.346,6.346,0,0,1,2.557,3.5c1.119,3.022,1.636,6.679,4.37,8.385,2.687,1.677,6.21.606,9.312,1.246a8.6,8.6,0,0,1,6.275,5.53,13.848,13.848,0,0,0,1.208,3.36,17.319,17.319,0,0,0,2.249,2.223A2.894,2.894,0,0,1,5332.512,1541.345Z" transform="translate(-5299.937 -1513.816)" fill="#fff"/>
        </g>
      </g>
      <g id="banner-01" transform="translate(-18.661 -62.374)">
        <path id="Trazado_107849" data-name="Trazado 107849" d="M775.316,386.671l10.417,123.884s1.088,7.51-4.494,7.523c-9.183.022-45.712,0-45.712,0s6.911-1.562,6.829-5.079c-.1-4.148-12.186-127.5-12.186-127.5Z" transform="translate(-539.674 -238.158)" fill="#e54573"/>
        <path id="Trazado_107850" data-name="Trazado 107850" d="M721.72,507.739c1.806,0,36.7.115,45.64,0,3.9-.048,4.581-3.464,4.613-5.678a11.067,11.067,0,0,0-.12-1.843l-.27-3.229-.692-8.206-.609-7.244-.783-9.316-.653-7.865-7.4-88.027L716.31,375.16s5.086,51.622,8.685,89.2c.4,4.187.783,8.2,1.138,11.949q.17,1.8.331,3.5c.333,3.556.64,6.82.905,9.7q.209,2.285.385,4.224c.459,5.068.727,8.3.731,8.922a5.217,5.217,0,0,1-.087,1C727.646,507.611,722.4,507.739,721.72,507.739Z" transform="translate(-528.83 -230.068)" fill="#f9698c"/>
        <path id="Trazado_107851" data-name="Trazado 107851" d="M288.9,81.1H505.6l-25.38,101.942L476.75,197l-11.821,47.481H245.33Z" transform="translate(-160.342 0)" fill="#f9698c"/>
        <path id="Trazado_107852" data-name="Trazado 107852" d="M1295.124,81.1l3.517,1.173L1259.126,248.03l-4.676-3.547Z" transform="translate(-949.863 0)" fill="#e54573"/>
        <path id="Trazado_107853" data-name="Trazado 107853" d="M469.606,835.437H251.358l-6.028-3.547h219.6Z" transform="translate(-160.342 -587.407)" fill="#e54573"/>
        <rect id="Rectángulo_7000" data-name="Rectángulo 7000" width="47.253" height="2.246" transform="translate(185.367 277.721)" fill="#e54573"/>
        <path id="Trazado_107854" data-name="Trazado 107854" d="M319.12,81.1H535.827L503.165,212.367l-219.205.041Z" transform="translate(-190.566 0)" fill="#f9698c"/>
        <path id="Trazado_107855" data-name="Trazado 107855" d="M330.93,232h202.9l22.978-91.537,1.76-7.018,1.5-5.989,3.525-14.04H363.62l-3.869,14.04-1.652,5.989-1.935,7.018Z" transform="translate(-227.314 -25.287)" fill="#ffd7ab"/>
        <path id="Trazado_107856" data-name="Trazado 107856" d="M467.239,113.42H667.218l-3.525,14.04H463.37Z" transform="translate(-330.933 -25.287)" fill="#f9b170"/>
        <path id="Trazado_107857" data-name="Trazado 107857" d="M1347.9,134.52a1.315,1.315,0,0,1,1.306,1.754,2.393,2.393,0,0,1-2.193,1.756,1.316,1.316,0,0,1-1.306-1.756A2.394,2.394,0,0,1,1347.9,134.52Z" transform="translate(-1021.218 -41.795)" fill="#fffff8"/>
        <path id="Trazado_107858" data-name="Trazado 107858" d="M1321.12,134.52a1.315,1.315,0,0,1,1.306,1.754,2.394,2.394,0,0,1-2.191,1.756,1.327,1.327,0,0,1-1.319-1.756,2.394,2.394,0,0,1,2.2-1.754Z" transform="translate(-1000.257 -41.795)" fill="#fffff8"/>
        <path id="Trazado_107859" data-name="Trazado 107859" d="M1290.115,136.274a2.394,2.394,0,0,1,2.191-1.754,1.326,1.326,0,0,1,1.319,1.754,2.393,2.393,0,0,1-2.193,1.756A1.329,1.329,0,0,1,1290.115,136.274Z" transform="translate(-977.725 -41.795)" fill="#fffff8"/>
        <rect id="Rectángulo_7003" data-name="Rectángulo 7003" width="64.303" height="70.107" transform="translate(40.39 210.126)" fill="#f4925d"/>
        <rect id="Rectángulo_7004" data-name="Rectángulo 7004" width="64.303" height="70.107" transform="translate(60.217 210.126)" fill="#f9b170"/>
        <path id="Trazado_107860" data-name="Trazado 107860" d="M236.843,766.114a1.249,1.249,0,0,0-.218,1.336h0a8.336,8.336,0,0,0,2.629,2.883c.159.128.3.244.422.35l.094.085.074.068c1.153,1.064.72,1.306,2.794,3.469,2.365,2.461,4,2.5,4.459,2.281.392-.192-.4-1.5-1.288-2.964-.044-.07-.085-.141-.128-.218l-.35-.579c-1.036-1.767-.768-2.594-.524-5.223.2-2.135,3.323-11.932,3.323-11.932l-4.539-.781s-1.367,7.8-2.87,9c-.805.64-1.7.653-2.479,1.123l-.161.1A5.99,5.99,0,0,0,236.843,766.114Z" transform="translate(-153.45 -527.163)" fill="#c97e67"/>
        <path id="Trazado_107861" data-name="Trazado 107861" d="M236.843,802.5a1.249,1.249,0,0,0-.218,1.336h0a9.653,9.653,0,0,0,2.633,2.875c.157.128.294.248.418.359l.094.085.074.067c1.153,1.064.72,1.306,2.794,3.469,2.365,2.461,4,2.5,4.459,2.281.392-.192-.4-1.5-1.288-2.964a10.085,10.085,0,0,1-4.217-3.107c-1.423-1.817-2.374-4.154-3.345-5.506l-.161.1A5.99,5.99,0,0,0,236.843,802.5Z" transform="translate(-153.45 -563.544)" fill="#33353b"/>
        <path id="Trazado_107862" data-name="Trazado 107862" d="M392.981,758.321c.281,1.4,2.276,1.166,4.5.622s1.7.1,4.87-.248,4.135-1.523,4.23-2.006c.085-.418-1.482-.566-3.162-.76l-.638-.076c-1.9-.237-3.288-1.462-5.005-2.468-1.632-.953-4.069-4.835-4.069-4.835l-4.352.346s2.283,3.467,3.166,4.972a5.353,5.353,0,0,1,.435,2.966A5.575,5.575,0,0,0,392.981,758.321Z" transform="translate(-273.029 -522.203)" fill="#c97e67"/>
        <path id="Trazado_107863" data-name="Trazado 107863" d="M410.226,785.474c2.228-.544,1.7.1,4.87-.248s4.135-1.523,4.23-2.006c.085-.418-1.482-.566-3.162-.76l-.015.033A8.95,8.95,0,0,1,411.6,783.9c-2.152.052-4.431-.564-5.917-.54a5.576,5.576,0,0,0,.033,1.486C406,786.251,408,786.018,410.226,785.474Z" transform="translate(-285.774 -548.734)" fill="#33353b"/>
        <path id="Trazado_107864" data-name="Trazado 107864" d="M361.51,489.029s1.036-2.54,2.176-2.642,4.766-.675,5.027-.157a3.569,3.569,0,0,1-.779,3.057c-.779.664-5.595,1.763-5.595,1.763Z" transform="translate(-251.24 -316.801)" fill="#c97e67"/>
        <path id="Trazado_107865" data-name="Trazado 107865" d="M275.7,640.557l-9.375,25.228a8.542,8.542,0,0,1-2.829-.257,12.125,12.125,0,0,1-2.727-1.328s2.333-24.218,6.6-29.265S275.7,640.557,275.7,640.557Z" transform="translate(-172.422 -432.253)" fill="#33353b"/>
        <path id="Trazado_107866" data-name="Trazado 107866" d="M140.329,591.95s26.936-9.107,32.945-7.181S197.32,622.6,197.32,622.6a3.5,3.5,0,0,1-1.523.957,14.337,14.337,0,0,1-3.534.363s-16.28-13.953-18.219-18.023-2.711-7.947-4.65-7.56-25,9.5-30.233,4.072a15.1,15.1,0,0,1-3.863-12.478Z" transform="translate(-74.127 -393.854)" fill="#44474f"/>
        <path id="Trazado_107867" data-name="Trazado 107867" d="M150.274,341.608a15.172,15.172,0,0,0,1.147-5.277,16.16,16.16,0,0,1-1.885,5.834c-5.6,3.678-16.341,15.96-16.127,18.28,0,0-3.782-6.415-3.847-6.452,0,0-6.977-8.872,1.293-13.956,4.2-2.583,4.18-5.9,4-8.776s1.147-15.276,9.575-12.032a5.5,5.5,0,0,1,1.959-.511,1.669,1.669,0,0,0-.746.355,6.506,6.506,0,0,1,3.536.677C152.256,321.51,155.018,337.256,150.274,341.608Z" transform="translate(-67.614 -185.888)" fill="#33353b"/>
        <path id="Trazado_107868" data-name="Trazado 107868" d="M201.2,397.57c.028.013-2.7,1.432-4.761.87-1.935-.527-3.2-3.034-3.171-3.047.818-.161,1.055-1.286,1.038-6.124l.37.074,6.224,1.232s-.141,1.959-.146,3.806C200.75,395.935,200.846,397.4,201.2,397.57Z" transform="translate(-119.61 -241.108)" fill="#c97e67"/>
        <path id="Trazado_107869" data-name="Trazado 107869" d="M205.964,390.862s-.141,1.959-.146,3.806c-3.482-.1-5.323-3.277-6.078-5.038Z" transform="translate(-124.673 -241.389)" fill="#b2604d"/>
        <path id="Trazado_107870" data-name="Trazado 107870" d="M188.455,340.537a18.347,18.347,0,0,1-2.265-5.351c-.311-1.76.585-8.287,7.144-7.347a8.9,8.9,0,0,1,3.7,1.4c1.423.96,3.482,3.047,1.182,8.733l-.6,1.924Z" transform="translate(-114.03 -192.973)" fill="#33353b"/>
        <path id="Trazado_107871" data-name="Trazado 107871" d="M203.7,353.316s-8.241.137-8.248-5.005-1.073-8.557,4.18-8.87,6.287,1.656,6.7,3.369S205.846,353.148,203.7,353.316Z" transform="translate(-121.248 -202.096)" fill="#c97e67"/>
        <path id="Trazado_107872" data-name="Trazado 107872" d="M186.382,336.36s5.63-3.847,7.4-1.188c.54-.461,1.5-.8,2.772.744,1.911,2.315.218,6.409.218,6.409-.783.091-.968-2.6-1.38-3.906a6.534,6.534,0,0,0-1.834-2.429c-.718,1.621-2.7,5.5-5.421,6.2-3.464.892-4.966-.037-4.966-.037A9.793,9.793,0,0,0,186.382,336.36Z" transform="translate(-111.709 -198.049)" fill="#33353b"/>
        <path id="Trazado_107873" data-name="Trazado 107873" d="M129.346,461.418c.435,1.234,1.808,1.552,3.634,1.336,3.482-.407,8.659-2.744,12.387-4.352,5.686-2.463,8.269-.148,10.078-1.717s-2.067-5.055,1.293-21.248c1.14-5.493-6.076-17.274-6.076-17.274s-.5,3.192-7.536-.683a64.824,64.824,0,0,0-5.582,8.846c-2.886,5.475-5.658,12.088-4.838,15.5C134.244,448.309,128.04,457.832,129.346,461.418Z" transform="translate(-69.456 -263.178)" fill="#fffff8"/>
        <path id="Trazado_107874" data-name="Trazado 107874" d="M227.9,420.57l4.254,17.477s.529.944,1.36,2.287c1.958,3.151,5.558,8.507,7.869,9.051,1.14.27,3.562-.679,6.246-2.035a126.936,126.936,0,0,0,11.068-6.576c.387-2.326-1.636-4.222-1.636-4.222s-12.145,4.57-13.351,4.65c-2.631.187-5.305-12.5-7.762-16.732C234.169,421.412,227.9,420.57,227.9,420.57Z" transform="translate(-146.705 -265.596)" fill="#fffff8"/>
        <path id="Trazado_107875" data-name="Trazado 107875" d="M225.27,387.514s.155.653,1.776.553c0,0,1.362-.085,1.321-.8A4.436,4.436,0,0,0,225.27,387.514Z" transform="translate(-144.647 -239.411)" fill="#fffff8"/>
        <path id="Trazado_107876" data-name="Trazado 107876" d="M129.346,516.029c.435,1.234,1.808,1.552,3.634,1.336,2.411-1.049,12.826-5.086,12.711-7.819-.174-4.048-2-4.178-.712-9.175,1.038-4.011-8.585-11.47-10.121-13.092-2.886,5.475-2.966,5.734-2.152,9.14C134.244,502.92,128.04,512.443,129.346,516.029Z" transform="translate(-69.456 -317.789)" fill="#fff2e2"/>
        <path id="Trazado_107877" data-name="Trazado 107877" d="M253.7,508.885c1.958,3.151,5.558,8.507,7.869,9.051,1.14.27,3.562-.679,6.246-2.035a16.22,16.22,0,0,1-5.706.313c-2-.194-2.585-2.648-5.752-6.331C254.3,507.494,253.8,508.1,253.7,508.885Z" transform="translate(-166.891 -334.148)" fill="#fff2e2"/>
        <path id="Trazado_107878" data-name="Trazado 107878" d="M204.846,543.106a4.966,4.966,0,0,1,3.393-1.034c1.652.322,2.455,1.454,2.394,1.959a2.948,2.948,0,0,1-2.2,2.1,23.858,23.858,0,0,1-4.846-.775Z" transform="translate(-127.685 -360.619)" fill="#c97e67"/>
        <path id="Trazado_107879" data-name="Trazado 107879" d="M130.63,417.43s-6.718.416-9.042,3.658c-3.264,4.57-11.129,24.871-7.4,27.467,4.191,2.923,20.436-.087,20.436-.087s.494-2.315-.194-3.434-11.888-2.929-12.4-3.445,6.459-10.08,6.459-11.629S130.63,417.43,130.63,417.43Z" transform="translate(-56.971 -263.14)" fill="#fffff8"/>
        <path id="Trazado_107880" data-name="Trazado 107880" d="M217.42,533.013h24.741l4.459-15.553h-24.7Z" transform="translate(-138.506 -341.402)" fill="#33353b"/>
        <rect id="Rectángulo_7005" data-name="Rectángulo 7005" width="32.344" height="0.605" transform="translate(103.57 191.611) rotate(180)" fill="#33353b"/>
        <path id="Trazado_107881" data-name="Trazado 107881" d="M287.736,548.44a.721.721,0,0,0-.707-.99,1.419,1.419,0,0,0-1.273.99.72.72,0,0,0,.705.99,1.417,1.417,0,0,0,1.275-.99Z" transform="translate(-191.939 -364.865)" fill="#fffff8"/>
        <path id="Trazado_107888" data-name="Trazado 107888" d="M440.179,302.245H384.03l25.252-91.185h56.3Z" transform="translate(-268.859 -101.679)" fill="#fffff8"/>
        <path id="Trazado_107889" data-name="Trazado 107889" d="M499.266,276.959a4.219,4.219,0,0,0,1.066,3.549c1.478,1.465-5.477,7.381-8.137,17.261-2.638,9.8-8.546,31.08-13.886,38.135.357-.435,1.636-1.654,4.28-1.023,3.179.759,8.8,1.824,11.331-.176,1.771-1.4,4.944.089,6.689,1.11-1.356-7.144,4.522-28.29,7.321-38.056,2.829-9.88-.838-15.794,1.454-17.261a7.834,7.834,0,0,0,3.047-3.549,39.661,39.661,0,0,0,4.024-1.634c.69-1.974-.218-4.764-.218-4.764a5.674,5.674,0,0,1-4.276,2.03,11.679,11.679,0,0,0-5.395,1.8,6.6,6.6,0,0,0-4.391-1.8c-2.838-.113-3.149-2.03-3.149-2.03s-2.461,2.79-2.868,4.764A20.785,20.785,0,0,0,499.266,276.959Z" transform="translate(-342.622 -148.223)" fill="#33353b"/>
        <path id="Trazado_107890" data-name="Trazado 107890" d="M743.722,441.255H727.39l7.344-26.525h16.378Z" transform="translate(-537.499 -261.027)" fill="#fffff8"/>
        <path id="Trazado_107891" data-name="Trazado 107891" d="M760.907,433.9a1.227,1.227,0,0,0,.309,1.032c.435.435-1.593,2.148-2.365,5.023s-2.476,9.051-4.041,11.1a1.17,1.17,0,0,1,1.245-.3c.925.218,2.561.531,3.3-.052.516-.407,1.438.026,1.945.324-.394-2.078,1.306-8.23,2.13-11.07.825-2.875-.244-4.6.422-5.023a2.281,2.281,0,0,0,.886-1.032,11.544,11.544,0,0,0,1.171-.477,2.61,2.61,0,0,0-.065-1.384,1.652,1.652,0,0,1-1.245.59,3.4,3.4,0,0,0-1.569.524,1.922,1.922,0,0,0-1.277-.524c-.825-.033-.916-.59-.916-.59a4.22,4.22,0,0,0-.834,1.384A6.093,6.093,0,0,0,760.907,433.9Z" transform="translate(-558.952 -274.57)" fill="#33353b"/>
        <path id="Trazado_107892" data-name="Trazado 107892" d="M855.962,441.295H839.63l7.344-26.525h16.378Z" transform="translate(-625.314 -261.059)" fill="#fffff8"/>
        <path id="Trazado_107893" data-name="Trazado 107893" d="M873.145,433.948a1.223,1.223,0,0,0,.311,1.031c.435.435-1.593,2.148-2.368,5.022s-2.485,9.044-4.039,11.1a1.169,1.169,0,0,1,1.245-.3c.925.218,2.561.531,3.3-.052.516-.407,1.439.026,1.945.324-.394-2.078,1.306-8.228,2.13-11.07s-.244-4.6.422-5.023a2.271,2.271,0,0,0,.884-1.031,11.331,11.331,0,0,0,1.171-.477,2.594,2.594,0,0,0-.063-1.384,1.651,1.651,0,0,1-1.245.59,3.391,3.391,0,0,0-1.569.524,1.921,1.921,0,0,0-1.277-.524c-.825-.033-.916-.59-.916-.59a4.224,4.224,0,0,0-.834,1.384A6.014,6.014,0,0,0,873.145,433.948Z" transform="translate(-646.767 -274.609)" fill="#f9698c"/>
        <path id="Trazado_107894" data-name="Trazado 107894" d="M970.882,444.425H954.55l7.344-26.525h16.378Z" transform="translate(-715.225 -263.507)" fill="#fffff8"/>
        <path id="Trazado_107895" data-name="Trazado 107895" d="M988.085,437.078a1.232,1.232,0,0,0,.311,1.031c.435.435-1.593,2.148-2.368,5.023s-2.485,9.044-4.039,11.1a1.17,1.17,0,0,1,1.245-.3c.925.218,2.561.531,3.3-.052.516-.407,1.438.026,1.945.324-.394-2.078,1.317-8.228,2.13-11.07s-.244-4.6.422-5.023a2.271,2.271,0,0,0,.883-1.032,11.332,11.332,0,0,0,1.171-.477,2.6,2.6,0,0,0-.063-1.384,1.652,1.652,0,0,1-1.245.59,3.4,3.4,0,0,0-1.569.524,1.922,1.922,0,0,0-1.277-.524c-.825-.033-.916-.59-.916-.59a4.221,4.221,0,0,0-.833,1.384A6.01,6.01,0,0,0,988.085,437.078Z" transform="translate(-736.694 -277.058)" fill="#f9b170"/>
        <path id="Trazado_107896" data-name="Trazado 107896" d="M826.888,338.514H788.2a4.352,4.352,0,0,1-4.18-5.538h0a4.352,4.352,0,0,1,4.18-3.155h38.69a4.352,4.352,0,0,1,4.18,5.538h0A4.352,4.352,0,0,1,826.888,338.514Z" transform="translate(-581.674 -194.595)" fill="#33353b"/>
        <path id="Trazado_107897" data-name="Trazado 107897" d="M906.482,221.286H807.05l1.456-4.816h99.432Z" transform="translate(-599.824 -105.911)" fill="#f9b170"/>
        <path id="Trazado_107898" data-name="Trazado 107898" d="M894.562,258.846H795.13l1.454-4.816h99.432Z" transform="translate(-590.498 -135.298)" fill="#f9b170"/>
      </g>
      <g id="Grupo_60822" data-name="Grupo 60822" transform="translate(248.437 102.51)">
        <g id="Grupo_60768" data-name="Grupo 60768" transform="translate(50.838 17.42)">
          <g id="Grupo_60767" data-name="Grupo 60767">
            <rect id="Rectángulo_6954" data-name="Rectángulo 6954" width="7.4" height="2.878" fill="#3c251d"/>
          </g>
        </g>
        <g id="Grupo_60770" data-name="Grupo 60770" transform="translate(3.289 65.517)">
          <g id="Grupo_60769" data-name="Grupo 60769">
            <rect id="Rectángulo_6955" data-name="Rectángulo 6955" width="32.887" height="2.604" fill="#a6bfd5"/>
          </g>
        </g>
        <g id="Grupo_60772" data-name="Grupo 60772" transform="translate(125.518 32.904)">
          <g id="Grupo_60771" data-name="Grupo 60771">
            <rect id="Rectángulo_6956" data-name="Rectángulo 6956" width="9.729" height="24.528" fill="#a6bfd5"/>
          </g>
        </g>
        <g id="Grupo_60774" data-name="Grupo 60774" transform="translate(0 19.886)">
          <g id="Grupo_60773" data-name="Grupo 60773">
            <path id="Trazado_107800" data-name="Trazado 107800" d="M5597.036,1772.116h-32.75a7.263,7.263,0,0,0-7.263,7.262v34.805a3.974,3.974,0,0,0,3.975,3.974h32.063a3.973,3.973,0,0,0,3.975-3.974V1806.1a5.481,5.481,0,0,1,5.481-5.481h24.528a6.99,6.99,0,0,1,6.989,6.988v43.164h-77.011v17.814h124.235a2.381,2.381,0,0,0,2.379-2.382v-86.824a7.263,7.263,0,0,0-7.262-7.262Z" transform="translate(-5557.023 -1772.116)" fill="#fff"/>
          </g>
        </g>
        <g id="Grupo_60776" data-name="Grupo 60776" transform="translate(54.568 25.055)">
          <g id="Grupo_60775" data-name="Grupo 60775" transform="translate(0 0)">
            <circle id="Elipse_5117" data-name="Elipse 5117" cx="5.926" cy="5.926" r="5.926" transform="translate(0 2.723) rotate(-13.283)" fill="#faefe4"/>
          </g>
        </g>
        <g id="Grupo_60778" data-name="Grupo 60778" transform="translate(76.953 23.803)">
          <g id="Grupo_60777" data-name="Grupo 60777" transform="translate(0 0)">
            <circle id="Elipse_5118" data-name="Elipse 5118" cx="5.926" cy="5.926" r="5.926" transform="translate(0 8.381) rotate(-45)" fill="#faefe4"/>
          </g>
        </g>
        <g id="Grupo_60780" data-name="Grupo 60780" transform="translate(101.002 23.803)">
          <g id="Grupo_60779" data-name="Grupo 60779" transform="translate(0 0)">
            <circle id="Elipse_5119" data-name="Elipse 5119" cx="5.926" cy="5.926" r="5.926" transform="translate(0 8.381) rotate(-45)" fill="#faefe4"/>
          </g>
        </g>
        <g id="Grupo_60782" data-name="Grupo 60782" transform="translate(29.05 19.843)">
          <g id="Grupo_60781" data-name="Grupo 60781">
            <rect id="Rectángulo_6957" data-name="Rectángulo 6957" width="0.959" height="44.851" fill="#e17660"/>
          </g>
        </g>
        <g id="Grupo_60784" data-name="Grupo 60784" transform="translate(32.339 19.843)">
          <g id="Grupo_60783" data-name="Grupo 60783">
            <rect id="Rectángulo_6958" data-name="Rectángulo 6958" width="0.959" height="34.66" fill="#e17660"/>
          </g>
        </g>
        <g id="Grupo_60786" data-name="Grupo 60786" transform="translate(87.15 53.732)">
          <g id="Grupo_60785" data-name="Grupo 60785">
            <rect id="Rectángulo_6959" data-name="Rectángulo 6959" width="7.605" height="2.261" fill="#3c251d"/>
          </g>
        </g>
        <g id="Grupo_60788" data-name="Grupo 60788" transform="translate(101.23 53.732)">
          <g id="Grupo_60787" data-name="Grupo 60787">
            <rect id="Rectángulo_6960" data-name="Rectángulo 6960" width="7.605" height="2.261" fill="#3c251d"/>
          </g>
        </g>
        <g id="Grupo_60790" data-name="Grupo 60790" transform="translate(115.172 53.732)">
          <g id="Grupo_60789" data-name="Grupo 60789">
            <rect id="Rectángulo_6961" data-name="Rectángulo 6961" width="7.605" height="2.261" fill="#3c251d"/>
          </g>
        </g>
        <g id="Grupo_60792" data-name="Grupo 60792" transform="translate(87.15 61.954)">
          <g id="Grupo_60791" data-name="Grupo 60791">
            <rect id="Rectángulo_6962" data-name="Rectángulo 6962" width="7.605" height="2.261" fill="#3c251d"/>
          </g>
        </g>
        <g id="Grupo_60794" data-name="Grupo 60794" transform="translate(101.23 61.954)">
          <g id="Grupo_60793" data-name="Grupo 60793">
            <rect id="Rectángulo_6963" data-name="Rectángulo 6963" width="7.605" height="2.261" fill="#3c251d"/>
          </g>
        </g>
        <g id="Grupo_60796" data-name="Grupo 60796" transform="translate(115.172 61.954)">
          <g id="Grupo_60795" data-name="Grupo 60795">
            <rect id="Rectángulo_6964" data-name="Rectángulo 6964" width="7.605" height="2.261" fill="#3c251d"/>
          </g>
        </g>
        <g id="Grupo_60798" data-name="Grupo 60798" transform="translate(87.15 69.628)">
          <g id="Grupo_60797" data-name="Grupo 60797">
            <rect id="Rectángulo_6965" data-name="Rectángulo 6965" width="7.605" height="2.261" fill="#3c251d"/>
          </g>
        </g>
        <g id="Grupo_60800" data-name="Grupo 60800" transform="translate(101.23 69.628)">
          <g id="Grupo_60799" data-name="Grupo 60799">
            <rect id="Rectángulo_6966" data-name="Rectángulo 6966" width="7.605" height="2.261" fill="#3c251d"/>
          </g>
        </g>
        <g id="Grupo_60802" data-name="Grupo 60802" transform="translate(115.172 69.628)">
          <g id="Grupo_60801" data-name="Grupo 60801">
            <rect id="Rectángulo_6967" data-name="Rectángulo 6967" width="7.605" height="2.261" fill="#3c251d"/>
          </g>
        </g>
        <g id="Grupo_60804" data-name="Grupo 60804" transform="translate(84.684 87.304)">
          <g id="Grupo_60803" data-name="Grupo 60803">
            <rect id="Rectángulo_6968" data-name="Rectángulo 6968" width="16.717" height="8.496" rx="0.992" fill="#faefe4"/>
          </g>
        </g>
        <g id="Grupo_60806" data-name="Grupo 60806" transform="translate(21.993 66.784)">
          <g id="Grupo_60805" data-name="Grupo 60805">
            <rect id="Rectángulo_6969" data-name="Rectángulo 6969" width="4.316" height="10.585" fill="#a6bfd5"/>
          </g>
        </g>
        <g id="Grupo_60808" data-name="Grupo 60808" transform="translate(24.871 71.101)">
          <g id="Grupo_60807" data-name="Grupo 60807">
            <rect id="Rectángulo_6970" data-name="Rectángulo 6970" width="8.324" height="1.747" fill="#a6bfd5"/>
          </g>
        </g>
        <g id="Grupo_60810" data-name="Grupo 60810" transform="translate(32.476 69.765)">
          <g id="Grupo_60809" data-name="Grupo 60809">
            <rect id="Rectángulo_6971" data-name="Rectángulo 6971" width="2.055" height="4.625" fill="#a6bfd5"/>
          </g>
        </g>
        <g id="Grupo_60812" data-name="Grupo 60812" transform="translate(23.432 75.109)">
          <g id="Grupo_60811" data-name="Grupo 60811">
            <path id="Trazado_107801" data-name="Trazado 107801" d="M5651.816,1993.816h-.72l.258,16.341h.136Z" transform="translate(-5651.097 -1993.816)" fill="#a6bfd5"/>
          </g>
        </g>
        <g id="Grupo_60819" data-name="Grupo 60819" transform="translate(97.81)">
          <g id="Grupo_60814" data-name="Grupo 60814" transform="translate(3.289 3.015)">
            <g id="Grupo_60813" data-name="Grupo 60813">
              <rect id="Rectángulo_6972" data-name="Rectángulo 6972" width="6.372" height="14.525" fill="#e27976"/>
            </g>
          </g>
          <g id="Grupo_60816" data-name="Grupo 60816" transform="translate(0 16.717)">
            <g id="Grupo_60815" data-name="Grupo 60815">
              <path id="Rectángulo_6973" data-name="Rectángulo 6973" d="M.736,0H12.213a.736.736,0,0,1,.736.736V3.152a0,0,0,0,1,0,0H0a0,0,0,0,1,0,0V.736A.736.736,0,0,1,.736,0Z" fill="#e3b385"/>
            </g>
          </g>
          <g id="Grupo_60818" data-name="Grupo 60818">
            <g id="Grupo_60817" data-name="Grupo 60817">
              <path id="Rectángulo_6974" data-name="Rectángulo 6974" d="M0,0H12.949a0,0,0,0,1,0,0V2.416a.736.736,0,0,1-.736.736H.736A.736.736,0,0,1,0,2.416V0A0,0,0,0,1,0,0Z" fill="#e3b385"/>
            </g>
          </g>
        </g>
        <g id="Grupo_60821" data-name="Grupo 60821" transform="translate(74.544 12.624)">
          <g id="Grupo_60820" data-name="Grupo 60820">
            <rect id="Rectángulo_6975" data-name="Rectángulo 6975" width="5.755" height="7.263" fill="#a6bfd5"/>
          </g>
        </g>
      </g>
    </g>
    <g id="Grupo_60661" data-name="Grupo 60661" transform="translate(4626.958 1449.506)">
      <g id="Grupo_60651" data-name="Grupo 60651" transform="translate(0 0)">
        <g id="Grupo_60632" data-name="Grupo 60632" transform="translate(11.101 2.806)">
          <g id="Grupo_60631" data-name="Grupo 60631">
            <path id="Trazado_107745" data-name="Trazado 107745" d="M6090.424,1849.99a38.034,38.034,0,0,0-6.575-.534c-.1-.137-.189-.264-.28-.38-.462-.595-1.038-1.365-1.659-2.252l6.453-.823-7.877-1.316c-2.851-4.521-5.614-10.518-2.615-13.272,2.3-2.112,6.124-.643,9.846,2.665l.229,8.508,2.261-6a36.832,36.832,0,0,1,4.422,6.208l-1.171,6.117,2.216-4.127c.037.077.076.153.113.23.264.553.507,1.11.737,1.667l-2.627,7.356,3.619-4.647c.381,1.185.693,2.359.94,3.5l-2.862,5.81,3.318-3.266c.763,5.378.051,9.577-1.407,10.083-4.449,1.548-9.783-9.824-12.9-14.9C6087.043,1850.254,6090.424,1849.99,6090.424,1849.99Z" transform="translate(-6076.574 -1830.429)" fill="#0ac4bf"/>
          </g>
        </g>
        <g id="Grupo_60634" data-name="Grupo 60634" transform="translate(15.001 6.357)">
          <g id="Grupo_60633" data-name="Grupo 60633">
            <path id="Trazado_107746" data-name="Trazado 107746" d="M6118.591,1915.832h-.007a.223.223,0,0,1-.217-.229c.006-.172.485-17.41-2.351-32.2-2.829-14.761-15.776-31.065-15.907-31.227a.223.223,0,1,1,.348-.279c.132.164,13.148,16.554,16,31.422,2.845,14.838,2.364,32.123,2.359,32.295A.223.223,0,0,1,6118.591,1915.832Z" transform="translate(-6100.061 -1851.815)" fill="#242433"/>
          </g>
        </g>
        <g id="Grupo_60636" data-name="Grupo 60636" transform="translate(36.982)">
          <g id="Grupo_60635" data-name="Grupo 60635">
            <path id="Trazado_107747" data-name="Trazado 107747" d="M6235.807,1847.522l-2.924-2.4c-.1-.76-.176-1.556-.242-2.379l4.248,2.2-4.385-4.476a72.954,72.954,0,0,1,.132-8.3l6.373,4.163-5.97-8.072a38.718,38.718,0,0,1,2.213-9.131l4.139,3.7a74.541,74.541,0,0,0-1.561-7.872,4.476,4.476,0,0,1,3.448-1.412c4.344.253,5.96,6.493,5.75,13.965-1.637,2.6-4.313,6.754-5.136,7.446l4.762-2.542c-1.24,10.157-5.27,20.687-10.1,21.019-1.4.1-2.481-2.041-3.185-5.368Z" transform="translate(-6232.442 -1813.53)" fill="#0ac4bf"/>
          </g>
        </g>
        <g id="Grupo_60638" data-name="Grupo 60638" transform="translate(36.47 4.023)">
          <g id="Grupo_60637" data-name="Grupo 60637">
            <path id="Trazado_107748" data-name="Trazado 107748" d="M6229.944,1906.145a.222.222,0,0,1-.221-.2c-.991-9.894.17-14.992,2.1-23.439.584-2.562,1.246-5.467,1.948-8.921,3-14.8,4.756-35.416,4.772-35.623a.226.226,0,0,1,.242-.2.222.222,0,0,1,.2.241c-.017.207-1.773,20.844-4.78,35.675-.7,3.459-1.364,6.365-1.949,8.93-1.981,8.688-3.072,13.474-2.088,23.3a.223.223,0,0,1-.2.244Z" transform="translate(-6229.362 -1837.757)" fill="#242433"/>
          </g>
        </g>
        <g id="Grupo_60640" data-name="Grupo 60640" transform="translate(42.381 37.149)">
          <g id="Grupo_60639" data-name="Grupo 60639">
            <path id="Trazado_107749" data-name="Trazado 107749" d="M6275.8,2038.095c-.062,1.819-.143,5.271-.143,5.271l4.37-6.083c7.1-.3,13.77,2.9,13.417,7.536l-8.434-2.8,6.019,5.762c-1.821.574-5.2.991-11.509.948-.2,0-.381,0-.572.006l-4.772-3.562,2.733,3.663a20.959,20.959,0,0,0-3.175.522l-3.554-2.571,2.214,2.958c-4.713,1.572-5.708,4.178-7.115,1.847C6263.586,2048.793,6268.938,2040.66,6275.8,2038.095Z" transform="translate(-6264.961 -2037.263)" fill="#0ac4bf"/>
          </g>
        </g>
        <g id="Grupo_60642" data-name="Grupo 60642" transform="translate(37.554 41.849)">
          <g id="Grupo_60641" data-name="Grupo 60641">
            <path id="Trazado_107750" data-name="Trazado 107750" d="M6236.109,2096.009h-.019a.223.223,0,0,1-.2-.241c.01-.129,1.11-13.036,5.276-20.849,4.194-7.866,13.885-8.817,19.092-9.327l.206-.02a.218.218,0,0,1,.245.2.224.224,0,0,1-.2.244l-.207.021c-5.124.5-14.66,1.437-18.741,9.093-4.123,7.731-5.216,20.547-5.227,20.676A.222.222,0,0,1,6236.109,2096.009Z" transform="translate(-6235.886 -2065.569)" fill="#242433"/>
          </g>
        </g>
        <g id="Grupo_60644" data-name="Grupo 60644" transform="translate(0 37.149)">
          <g id="Grupo_60643" data-name="Grupo 60643">
            <path id="Trazado_107751" data-name="Trazado 107751" d="M6027.377,2038.095c.062,1.819.141,5.271.141,5.271l-4.37-6.083c-7.1-.3-13.77,2.9-13.417,7.536l8.433-2.8-6.018,5.762c1.822.574,5.2.991,11.509.948.2,0,.382,0,.571.006l4.774-3.562-2.733,3.663a20.941,20.941,0,0,1,3.174.522l3.555-2.571-2.215,2.958c4.714,1.572,5.708,4.178,7.116,1.847C6039.586,2048.793,6034.233,2040.66,6027.377,2038.095Z" transform="translate(-6009.718 -2037.263)" fill="#0ac4bf"/>
          </g>
        </g>
        <g id="Grupo_60646" data-name="Grupo 60646" transform="translate(8.501 41.849)">
          <g id="Grupo_60645" data-name="Grupo 60645">
            <path id="Trazado_107752" data-name="Trazado 107752" d="M6085.511,2096.009a.223.223,0,0,1-.223-.2c-.01-.128-1.1-12.944-5.225-20.675-4.082-7.656-13.618-8.591-18.741-9.093l-.207-.021a.223.223,0,0,1-.2-.243.218.218,0,0,1,.245-.2l.206.02c5.207.51,14.9,1.46,19.092,9.327,4.165,7.813,5.266,20.719,5.276,20.849a.222.222,0,0,1-.2.24Z" transform="translate(-6060.914 -2065.568)" fill="#242433"/>
          </g>
        </g>
        <g id="Grupo_60648" data-name="Grupo 60648" transform="translate(42.284 56.605)">
          <g id="Grupo_60647" data-name="Grupo 60647">
            <path id="Trazado_107753" data-name="Trazado 107753" d="M6266.923,2161.884l-.856-2.777a14.4,14.4,0,0,1,1.115-1.413l1.508,2.828-.7-3.656c1.84-1.729,4.173-2.9,6.49-2.251l-3.123,4.905,5.609-3.43c.125.119.251.243.375.377,6.487,6.981-10.816,8.917-12.542,7.75-.829-.561-.37-2.483.855-4.477Z" transform="translate(-6264.376 -2154.436)" fill="#0ac4bf"/>
          </g>
        </g>
        <g id="Grupo_60650" data-name="Grupo 60650" transform="translate(39.434 62.139)">
          <g id="Grupo_60649" data-name="Grupo 60649">
            <path id="Trazado_107754" data-name="Trazado 107754" d="M6247.521,2198.97a.223.223,0,0,1-.221-.192,8.549,8.549,0,0,1,2.341-7.122c1.046-1.228,6.777-3.761,7.02-3.868a.223.223,0,1,1,.182.408c-.06.026-5.881,2.6-6.862,3.75a8.149,8.149,0,0,0-2.238,6.771.222.222,0,0,1-.19.252Z" transform="translate(-6247.213 -2187.768)" fill="#242433"/>
          </g>
        </g>
      </g>
      <g id="Grupo_60653" data-name="Grupo 60653" transform="translate(26.448 67.876)">
        <g id="Grupo_60652" data-name="Grupo 60652">
          <path id="Trazado_107755" data-name="Trazado 107755" d="M6190.549,2222.317H6169v5.214a31.626,31.626,0,0,0,4.788,16.732h11.971a31.63,31.63,0,0,0,4.788-16.732Z" transform="translate(-6169.002 -2222.317)" fill="#339ce9"/>
        </g>
      </g>
      <g id="Grupo_60655" data-name="Grupo 60655" transform="translate(28.231 89.124)">
        <g id="Grupo_60654" data-name="Grupo 60654">
          <path id="Rectángulo_6947" data-name="Rectángulo 6947" d="M0,0H17.981a0,0,0,0,1,0,0V1.744a.949.949,0,0,1-.949.949H.949A.949.949,0,0,1,0,1.744V0A0,0,0,0,1,0,0Z" fill="#eebe80"/>
        </g>
      </g>
      <g id="Grupo_60660" data-name="Grupo 60660" transform="translate(26.448 71.697)">
        <g id="Grupo_60657" data-name="Grupo 60657" transform="translate(0.746 8.187)">
          <g id="Grupo_60656" data-name="Grupo 60656">
            <path id="Trazado_107756" data-name="Trazado 107756" d="M6192.493,2298.333c-2.774.58-5.868.939-8.592-.1a18.818,18.818,0,0,1-2.432-1.2c-.552-.306-1.1-.61-1.671-.884a16.072,16.072,0,0,0-6.305-1.514c.144.657.3,1.31.49,1.956a14.032,14.032,0,0,1,4.978,1.3c.535.255,1.052.542,1.57.831a20.5,20.5,0,0,0,2.687,1.322,12.932,12.932,0,0,0,4.616.782,22.371,22.371,0,0,0,3.828-.374C6191.966,2299.758,6192.241,2299.05,6192.493,2298.333Z" transform="translate(-6173.493 -2294.635)" fill="#f8e6c7"/>
          </g>
        </g>
        <g id="Grupo_60659" data-name="Grupo 60659">
          <g id="Grupo_60658" data-name="Grupo 60658">
            <path id="Trazado_107757" data-name="Trazado 107757" d="M6169,2246.721c0,.295.023.588.031.881.965-.132,1.957-.213,2.947-.271a11.3,11.3,0,0,1,4.452.331,10.931,10.931,0,0,1,2.134,1.207,18.1,18.1,0,0,0,1.7,1.041c2.658,1.361,5.967,1.473,10.063.339q.116-1.03.165-2.069c-3.923,1.2-7,1.212-9.346.009a15.994,15.994,0,0,1-1.517-.931,9.742,9.742,0,0,0-7.769-1.856c-.955.056-1.919.128-2.865.248Z" transform="translate(-6169.002 -2245.329)" fill="#f8e6c7"/>
          </g>
        </g>
      </g>
    </g>
  </g>
</svg>
