<svg xmlns="http://www.w3.org/2000/svg" width="100" height="100" viewBox="0 0 100 100">
  <g id="Grupo_124605" data-name="Grupo 124605" transform="translate(-180 -986.73)">
    <g id="Grupo_124441" data-name="Grupo 124441" transform="translate(180 986.417)">
      <circle id="Elipse_5151" data-name="Elipse 5151" cx="50" cy="50" r="50" transform="translate(0 0.313)" fill="#bf3976"/>
    </g>
    <g id="shirt" transform="translate(113 1003.73)">
      <ellipse id="Elipse_5163" data-name="Elipse 5163" cx="1.689" cy="1.126" rx="1.689" ry="1.126" transform="translate(115.145 64.193)" fill="#fff"/>
      <path id="Trazado_108151" data-name="Trazado 108151" d="M122.6,63.85a1.3,1.3,0,0,0,0,2.6h13.626a1.3,1.3,0,0,0,1.3-1.3V32.833A30.72,30.72,0,0,0,135.517,22.7a28.223,28.223,0,0,1-1.882-9.329V1.3a1.3,1.3,0,1,0-2.6,0V13.367a14.275,14.275,0,0,1-28.551,0V1.3a1.3,1.3,0,0,0-2.6,0V13.367A28.223,28.223,0,0,1,98.011,22.7,30.72,30.72,0,0,0,96,32.833V65.148a1.3,1.3,0,0,0,1.3,1.3h13.626a1.3,1.3,0,1,0,0-2.6H98.6V54.376h36.337V63.85ZM100.477,23.5c.329-1,.661-2.017.958-3.071a16.876,16.876,0,0,0,30.653-.015c.3,1.059.632,2.079.962,3.086a28.222,28.222,0,0,1,1.882,9.329v6.878H98.6V32.833a28.223,28.223,0,0,1,1.882-9.329ZM98.6,51.781V42.307h36.337v9.474Z" fill="#fff"/>
    </g>
  </g>
</svg>
