<svg xmlns="http://www.w3.org/2000/svg" width="100" height="100" viewBox="0 0 100 100">
  <g id="Grupo_124606" data-name="Grupo 124606" transform="translate(-808 -986.73)">
    <g id="Grupo_124441" data-name="Grupo 124441" transform="translate(807.886 986.417)">
      <circle id="Elipse_5151" data-name="Elipse 5151" cx="50" cy="50" r="50" transform="translate(0.114 0.313)" fill="#bf3976"/>
    </g>
    <g id="wardrobe" transform="translate(826 1009.73)">
      <path id="Trazado_108143" data-name="Trazado 108143" d="M3.107,10.86A4.425,4.425,0,0,0,7.38,7.537H27.163a2.208,2.208,0,0,1-1.907,1.107H24.149a1.107,1.107,0,0,0-1.107,1.107v3.542l-9.1,2.022a1.106,1.106,0,0,0-.788,1.492l.5,1.239L4.978,20.88a1.105,1.105,0,0,0-.762.992L2,62.847a1.111,1.111,0,0,0,1.106,1.169h4.43v3.322a1.107,1.107,0,0,0,1.107,1.107H39.653a1.107,1.107,0,0,0,1.107-1.107V64.017h4.43A1.108,1.108,0,0,0,46.3,62.849L44.245,24.912l1.811-4.764,8.036,2.6L56.2,61.8H49.665l1.061-26.534-2.213-.089L47.406,62.865a1.107,1.107,0,0,0,1.106,1.152h8.86a1.108,1.108,0,0,0,1.106-1.167l-2.092-38.7H61.8V46.3H58.479v2.215h4.43A1.107,1.107,0,0,0,64.017,47.4V24.149h3.322a1.107,1.107,0,0,0,.991-1.6L65.008,15.9a1.112,1.112,0,0,0-.751-.586l-9.1-2.022V10.86A4.425,4.425,0,0,0,59.43,7.537h3.637a4.425,4.425,0,0,0,4.272,3.322,1.107,1.107,0,0,0,1.107-1.107V3.107A1.107,1.107,0,0,0,67.339,2a4.425,4.425,0,0,0-4.272,3.322H59.43A4.425,4.425,0,0,0,55.157,2H51.835V4.215h3.322a2.208,2.208,0,0,1,1.907,1.107H41.711A4.425,4.425,0,0,0,37.438,2H34.116V4.215h3.322a2.208,2.208,0,0,1,1.907,1.107H29.529A4.425,4.425,0,0,0,25.256,2H21.934V4.215h3.322a2.208,2.208,0,0,1,1.907,1.107H7.38A4.425,4.425,0,0,0,3.107,2,1.107,1.107,0,0,0,2,3.107V9.752A1.107,1.107,0,0,0,3.107,10.86ZM66.231,4.513V8.348a2.214,2.214,0,0,1,0-3.835Zm-36.7,3.024h9.816a2.208,2.208,0,0,1-1.907,1.107H36.331a1.107,1.107,0,0,0-1.107,1.107v4.43a1.106,1.106,0,0,0,.867,1.081l3,.667-1.487,3.1-2.961-.96.5-1.26a1.106,1.106,0,0,0-.788-1.492l-9.1-2.022V10.86a4.425,4.425,0,0,0,4.272-3.322Zm-5.38,7.779L32.6,17.2l-3.392,8.479-3.127-2.5,4.172-2.5a1.107,1.107,0,0,0,.214-1.732l-2.215-2.215-1.566,1.566L27.9,19.5l-3.753,2.25L20.4,19.5l1.213-1.212-1.566-1.566-2.215,2.215a1.107,1.107,0,0,0,.214,1.732l4.172,2.5-3.127,2.5-3.392-8.479Zm-14.4,48.7h2.215a1.107,1.107,0,0,0,1.106-1.152L11.966,35.179l-2.213.089L10.814,61.8H4.277l2.111-39.05,8.087-2.642,3.11,7.773a1.109,1.109,0,0,0,1.721.453l3.738-2.99V66.231H9.752ZM37.483,61.8l1.061-26.534-2.213-.089L35.224,62.865a1.107,1.107,0,0,0,1.106,1.152h2.215v2.215H25.256V25.346l3.738,2.99a1.109,1.109,0,0,0,1.721-.453l3.1-7.753,8.094,2.625L44.021,61.8Zm5.91-40.882a.841.841,0,0,0-.078-.039l-3.589-1.164,1.581-3.295,3.5.777ZM55.157,8.645H54.05a1.107,1.107,0,0,0-1.107,1.107v3.542l-4.116.915.481,2.162,4.743-1.054,9.212,2.048,2.286,4.57h-9.28l0-.06a1.107,1.107,0,0,0-.764-.993l-8.655-2.805.488-1.285a1.107,1.107,0,0,0-.8-1.474l-9.1-2.023V10.86a4.425,4.425,0,0,0,4.272-3.322H57.064a2.208,2.208,0,0,1-1.907,1.107ZM4.215,4.513a2.213,2.213,0,0,1,0,3.834Z" transform="translate(-2.999 -8)" fill="#fff"/>
      <path id="Trazado_108144" data-name="Trazado 108144" d="M37,52h2v2H37Z" fill="#fff"/>
      <path id="Trazado_108145" data-name="Trazado 108145" d="M5,52H7v2H5Z" fill="#fff"/>
      <path id="Trazado_108146" data-name="Trazado 108146" d="M17,30h2v2H17Z" fill="#fff"/>
      <path id="Trazado_108147" data-name="Trazado 108147" d="M17,40h2v2H17Z" fill="#fff"/>
      <path id="Trazado_108148" data-name="Trazado 108148" d="M17,50h2v2H17Z" fill="#fff"/>
    </g>
  </g>
</svg>
