<svg xmlns="http://www.w3.org/2000/svg" width="83" height="83" viewBox="0 0 83 83">
  <g id="Grupo_124534" data-name="Grupo 124534" transform="translate(-707 -1560.73)">
    <circle id="Elipse_5145" data-name="Elipse 5145" cx="41.5" cy="41.5" r="41.5" transform="translate(707 1560.73)" fill="#bf3976"/>
    <g id="mannequin" transform="translate(607.871 1569.73)">
      <g id="Page-1_59_" transform="translate(121.129 0)">
        <g id="_x30_60---Fashion">
          <path id="Shape_233_" d="M121.129,21.607V34.571a10.8,10.8,0,0,0,5.4,9.342v5.135a3.229,3.229,0,0,0,2.718,3.193,60.337,60.337,0,0,0,8.085.648v5.449h-4.321a3.241,3.241,0,0,0,0,6.482h15.125a3.241,3.241,0,1,0,0-6.482h-4.321V52.891a60.041,60.041,0,0,0,8.071-.648,3.233,3.233,0,0,0,2.732-3.2V45.374h2.161a3.241,3.241,0,0,0,3.241-3.241V33.491a3.241,3.241,0,0,0-3.241-3.241h-4.289c-.015-.36-.043-.708-.043-1.08,0-5.131,3.169-12.467,5.054-16.379a3.531,3.531,0,0,0,.065-2.96,3.578,3.578,0,0,0-2.248-2L147.864,5.6l-1.422-3.552A3.265,3.265,0,0,0,143.427,0h-5.7a3.259,3.259,0,0,0-3.012,2.04L133.284,5.6l-7.454,2.238a3.577,3.577,0,0,0-2.246,2,3.53,3.53,0,0,0,.062,2.955c.185.382.386.814.593,1.265a10.743,10.743,0,0,0-3.109,7.556Zm4.071-5.4c1.533,3.582,3.5,8.967,3.5,12.964,0,.153-.005.3-.008.445A8.616,8.616,0,0,1,125.2,16.205Zm-1.91,18.366V28.082a10.9,10.9,0,0,0,2.161,2.14v5.429a1.08,1.08,0,0,0,2.161,0V31.489a10.67,10.67,0,0,0,2.161.687v3.476a1.08,1.08,0,0,0,2.161,0V32.41h2.161v5.4a1.08,1.08,0,0,0,2.161,0v-5.4h2.161v3.241a1.08,1.08,0,0,0,2.161,0V32.41h2.161v5.4a1.08,1.08,0,1,0,2.161,0v-5.4h4.321v10.8H131.932A8.653,8.653,0,0,1,123.29,34.571Zm25.928,27.008a1.08,1.08,0,0,1-1.08,1.08H133.013a1.08,1.08,0,1,1,0-2.161h15.125A1.08,1.08,0,0,1,149.218,61.579Zm-7.562-3.241h-2.161v-5.41c.36,0,.7.009,1.08.009s.721-.005,1.08-.009Zm10.8-9.291a1.08,1.08,0,0,1-.924,1.063,68.969,68.969,0,0,1-10.96.665,69.424,69.424,0,0,1-10.973-.665,1.08,1.08,0,0,1-.911-1.063V44.876a10.788,10.788,0,0,0,3.241.5h20.526v3.673Zm5.4-15.557v8.643a1.08,1.08,0,0,1-1.08,1.08h-5.4V32.41h5.4a1.08,1.08,0,0,1,1.08,1.08Zm-32.3-22.8a1.418,1.418,0,0,1,.887-.788L134.4,7.52a1.08,1.08,0,0,0,.692-.633l1.62-4.046a1.08,1.08,0,0,1,1.007-.681h5.7a1.087,1.087,0,0,1,1.007.683l1.621,4.041a1.08,1.08,0,0,0,.692.633L154.694,9.9a1.42,1.42,0,0,1,.891.789,1.359,1.359,0,0,1-.027,1.155c-1.968,4.083-5.271,11.763-5.271,17.322,0,.372.03.718.044,1.08h-18.4a8.789,8.789,0,0,1-1.08-.076q.016-.487.016-1c0-4.746-2.362-10.951-4.34-15.317-.324-.734-.648-1.412-.933-2.009a1.357,1.357,0,0,1-.03-1.147Z" transform="translate(-121.129 0)" fill="#fff"/>
          <circle id="Oval_30_" cx="1.08" cy="1.08" r="1.08" transform="translate(32.41 36.732)" fill="#fff"/>
        </g>
      </g>
    </g>
  </g>
</svg>
