<svg xmlns="http://www.w3.org/2000/svg" width="117" height="118" viewBox="0 0 117 118">
  <g id="Grupo_124599" data-name="Grupo 124599" transform="translate(-321 -2482.73)">
    <rect id="Rectángulo_38242" data-name="Rectángulo 38242" width="117" height="118" rx="58.5" transform="translate(321 2482.73)" fill="none"/>
    <g id="design" transform="translate(342 2500.73)">
      <g id="Grupo_124569" data-name="Grupo 124569" transform="translate(1.199 1.265)">
        <g id="Grupo_124568" data-name="Grupo 124568">
          <g id="Grupo_124546" data-name="Grupo 124546" transform="translate(0 7.314)">
            <path id="Trazado_108061" data-name="Trazado 108061" d="M31,53.681h71.913v72.05H31Z" transform="translate(-31 -53.681)" fill="#e5ecf5"/>
          </g>
          <g id="Grupo_124547" data-name="Grupo 124547" transform="translate(0 7.314)">
            <path id="Trazado_108062" data-name="Trazado 108062" d="M34.6,122.13V53.681H31v72.05h71.913v-3.6Z" transform="translate(-31 -53.681)" fill="#cad8eb"/>
          </g>
          <g id="Grupo_124548" data-name="Grupo 124548" transform="translate(7.191)">
            <path id="Trazado_108063" data-name="Trazado 108063" d="M78.4,22.485a2.4,2.4,0,0,1-2.4-2.4V10.312a2.4,2.4,0,1,1,4.794,0v9.775A2.4,2.4,0,0,1,78.4,22.485Z" transform="translate(-76 -7.915)" fill="#d15573"/>
          </g>
          <g id="Grupo_124549" data-name="Grupo 124549" transform="translate(59.927)">
            <path id="Trazado_108064" data-name="Trazado 108064" d="M408.4,22.485a2.4,2.4,0,0,1-2.4-2.4V10.312a2.4,2.4,0,1,1,4.794,0v9.775A2.4,2.4,0,0,1,408.4,22.485Z" transform="translate(-406 -7.915)" fill="#d15573"/>
          </g>
          <g id="Grupo_124550" data-name="Grupo 124550" transform="translate(33.559)">
            <path id="Trazado_108065" data-name="Trazado 108065" d="M243.4,22.485a2.4,2.4,0,0,1-2.4-2.4V10.312a2.4,2.4,0,0,1,4.794,0v9.775A2.4,2.4,0,0,1,243.4,22.485Z" transform="translate(-241 -7.915)" fill="#d15573"/>
          </g>
          <g id="Grupo_124551" data-name="Grupo 124551" transform="translate(46.743)">
            <path id="Trazado_108066" data-name="Trazado 108066" d="M325.9,22.485a2.4,2.4,0,0,1-2.4-2.4V10.312a2.4,2.4,0,1,1,4.794,0v9.775A2.4,2.4,0,0,1,325.9,22.485Z" transform="translate(-323.5 -7.915)" fill="#d15573"/>
          </g>
          <g id="Grupo_124552" data-name="Grupo 124552" transform="translate(20.375)">
            <path id="Trazado_108067" data-name="Trazado 108067" d="M160.9,22.485a2.4,2.4,0,0,1-2.4-2.4V10.312a2.4,2.4,0,0,1,4.794,0v9.775A2.4,2.4,0,0,1,160.9,22.485Z" transform="translate(-158.5 -7.915)" fill="#d15573"/>
          </g>
          <g id="Grupo_124553" data-name="Grupo 124553" transform="translate(59.927 8.483)">
            <path id="Trazado_108068" data-name="Trazado 108068" d="M408.4,63.4A2.4,2.4,0,0,1,406,61v3.689a2.4,2.4,0,1,0,4.794,0V61A2.4,2.4,0,0,1,408.4,63.4Z" transform="translate(-406 -61)" fill="#c21d44"/>
          </g>
          <g id="Grupo_124554" data-name="Grupo 124554" transform="translate(46.743 8.483)">
            <path id="Trazado_108069" data-name="Trazado 108069" d="M325.9,63.4a2.4,2.4,0,0,1-2.4-2.4v3.689a2.4,2.4,0,1,0,4.794,0V61A2.4,2.4,0,0,1,325.9,63.4Z" transform="translate(-323.5 -61)" fill="#c21d44"/>
          </g>
          <g id="Grupo_124555" data-name="Grupo 124555" transform="translate(33.559 8.483)">
            <path id="Trazado_108070" data-name="Trazado 108070" d="M243.4,63.4A2.4,2.4,0,0,1,241,61v3.689a2.4,2.4,0,0,0,4.794,0V61A2.4,2.4,0,0,1,243.4,63.4Z" transform="translate(-241 -61)" fill="#c21d44"/>
          </g>
          <g id="Grupo_124556" data-name="Grupo 124556" transform="translate(20.375 8.483)">
            <path id="Trazado_108071" data-name="Trazado 108071" d="M160.9,63.4a2.4,2.4,0,0,1-2.4-2.4v3.689a2.4,2.4,0,0,0,4.794,0V61A2.4,2.4,0,0,1,160.9,63.4Z" transform="translate(-158.5 -61)" fill="#c21d44"/>
          </g>
          <g id="Grupo_124557" data-name="Grupo 124557" transform="translate(7.191 8.483)">
            <path id="Trazado_108072" data-name="Trazado 108072" d="M78.4,63.4A2.4,2.4,0,0,1,76,61v3.689a2.4,2.4,0,0,0,4.794,0V61A2.4,2.4,0,0,1,78.4,63.4Z" transform="translate(-76 -61)" fill="#c21d44"/>
          </g>
          <g id="Grupo_124558" data-name="Grupo 124558" transform="translate(13.225 58.875)">
            <path id="Trazado_108073" data-name="Trazado 108073" d="M113.758,376.329h19.177v4.8H113.758Z" transform="translate(-113.758 -376.329)" fill="#83c8f1"/>
          </g>
          <g id="Grupo_124559" data-name="Grupo 124559" transform="translate(13.225 58.875)">
            <path id="Trazado_108074" data-name="Trazado 108074" d="M113.758,376.329h3.554v4.8h-3.554Z" transform="translate(-113.758 -376.329)" fill="#44abe8"/>
          </g>
          <g id="Grupo_124560" data-name="Grupo 124560" transform="translate(9.628 22.928)">
            <path id="Trazado_108075" data-name="Trazado 108075" d="M112.822,153.759v-2.367H96.062v2.367a4.815,4.815,0,0,1-4.814,4.815V183.8a3.54,3.54,0,0,0,3.54,3.54H114.1a3.54,3.54,0,0,0,3.54-3.54V158.573a4.815,4.815,0,0,1-4.815-4.815Z" transform="translate(-91.248 -151.392)" fill="#c4e5f9"/>
          </g>
          <g id="Grupo_124562" data-name="Grupo 124562" transform="translate(9.628 28.561)">
            <g id="Grupo_124561" data-name="Grupo 124561">
              <path id="Trazado_108076" data-name="Trazado 108076" d="M117.632,213.418H95.808a1.025,1.025,0,0,1-1.025-1.025V186.641a4.8,4.8,0,0,1-3.536,1.548v25.226a3.54,3.54,0,0,0,3.54,3.54H114.1a3.54,3.54,0,0,0,3.539-3.536Z" transform="translate(-91.247 -186.641)" fill="#a4d7f5"/>
            </g>
          </g>
          <g id="Grupo_124563" data-name="Grupo 124563" transform="translate(18.738 22.929)">
            <path id="Trazado_108077" data-name="Trazado 108077" d="M148.256,151.393l4.084,5.974,4.085-5.974Z" transform="translate(-148.256 -151.393)" fill="#f6e23d"/>
          </g>
          <g id="Grupo_124564" data-name="Grupo 124564" transform="translate(13.184 32.454)">
            <path id="Trazado_108078" data-name="Trazado 108078" d="M113.5,211h2.4v2.4h-2.4Z" transform="translate(-113.5 -211)" fill="#fff"/>
          </g>
          <g id="Grupo_124565" data-name="Grupo 124565" transform="translate(17.978 32.454)">
            <path id="Trazado_108079" data-name="Trazado 108079" d="M143.5,211h2.4v2.4h-2.4Z" transform="translate(-143.5 -211)" fill="#fff"/>
          </g>
          <g id="Grupo_124566" data-name="Grupo 124566" transform="translate(3.596 18.072)">
            <path id="Trazado_108080" data-name="Trazado 108080" d="M53.5,121h2.4v2.4H53.5Z" transform="translate(-53.5 -121)" fill="#fff"/>
          </g>
          <g id="Grupo_124567" data-name="Grupo 124567" transform="translate(8.429 18.072)">
            <path id="Trazado_108081" data-name="Trazado 108081" d="M83.747,121h2.4v2.4h-2.4Z" transform="translate(-83.747 -121)" fill="#fff"/>
          </g>
        </g>
      </g>
      <g id="Grupo_124570" data-name="Grupo 124570" transform="translate(0 0)">
        <path id="Trazado_108082" data-name="Trazado 108082" d="M90.618,7.282V3.56a3.6,3.6,0,0,0-7.191,0V7.282H77.435V3.56a3.6,3.6,0,0,0-7.191,0V7.282H64.251V3.56a3.6,3.6,0,0,0-7.191,0V7.282H51.067V3.56a3.6,3.6,0,0,0-7.191,0V7.282H37.883V3.56a3.6,3.6,0,0,0-7.191,0V7.282H23.5V81.82H82.229v-2.4H25.9V9.682h4.794v3.665a3.6,3.6,0,0,0,7.191,0V9.682h5.993v3.665a3.6,3.6,0,0,0,7.191,0V9.682h5.993v3.665a3.6,3.6,0,0,0,7.191,0V9.682h5.993v3.665a3.6,3.6,0,0,0,7.191,0V9.682h5.993v3.665a3.6,3.6,0,0,0,7.191,0V9.682h4.794V79.42H89.42v2.4h8.39V7.282ZM35.485,13.347a1.2,1.2,0,0,1-2.4,0V3.56a1.2,1.2,0,0,1,2.4,0Zm13.184,0a1.2,1.2,0,0,1-2.4,0V3.56a1.2,1.2,0,0,1,2.4,0Zm13.184,0a1.2,1.2,0,0,1-2.4,0V3.56a1.2,1.2,0,0,1,2.4,0Zm13.184,0a1.2,1.2,0,0,1-2.4,0V3.56a1.2,1.2,0,0,1,2.4,0Zm13.184,0a1.2,1.2,0,0,1-2.4,0V3.56a1.2,1.2,0,0,1,2.4,0Z" transform="translate(-23.5 0)"/>
        <path id="Trazado_108083" data-name="Trazado 108083" d="M406,496.982h2.4v2.4H406Z" transform="translate(-344.874 -417.561)"/>
        <path id="Trazado_108084" data-name="Trazado 108084" d="M248.758,158.484h16.78v2.4h-16.78Z" transform="translate(-212.76 -133.157)"/>
        <path id="Trazado_108085" data-name="Trazado 108085" d="M368.758,158.484h7.191v2.4h-7.191Z" transform="translate(-313.584 -133.157)"/>
        <path id="Trazado_108086" data-name="Trazado 108086" d="M368.758,188.393h9.588v2.4h-9.588Z" transform="translate(-313.584 -158.287)"/>
        <path id="Trazado_108087" data-name="Trazado 108087" d="M368.758,263.548h7.191v2.4h-7.191Z" transform="translate(-313.584 -221.431)"/>
        <path id="Trazado_108088" data-name="Trazado 108088" d="M368.758,293.456h9.588v2.4h-9.588Z" transform="translate(-313.584 -246.56)"/>
        <path id="Trazado_108089" data-name="Trazado 108089" d="M368.758,391.086h7.191v2.4h-7.191Z" transform="translate(-313.584 -328.588)"/>
        <path id="Trazado_108090" data-name="Trazado 108090" d="M368.758,420.995h9.588v2.4h-9.588Z" transform="translate(-313.584 -353.717)"/>
        <path id="Trazado_108091" data-name="Trazado 108091" d="M98.131,162.6V165H126.9v-2.4H112.532v-12.01h-1.2a3.622,3.622,0,0,1-3.616-3.62V143.4H88.562v3.569a3.622,3.622,0,0,1-3.616,3.62h-1.2v26.456a4.751,4.751,0,0,0,3.6,4.6v4.95h21.574v-4.946a4.75,4.75,0,0,0,3.614-4.608V167.3h-2.4v9.751a2.345,2.345,0,0,1-2.341,2.344H88.485a2.345,2.345,0,0,1-2.341-2.344V152.872a6.029,6.029,0,0,0,4.815-5.9V145.8h2.465l4.716,6.907,4.718-6.907h2.463v1.169a6.029,6.029,0,0,0,4.814,5.9v9.73h-12Zm-8.39,21.6v-2.41h16.78v2.41Zm8.4-35.745L96.327,145.8h3.626Z" transform="translate(-74.119 -120.485)"/>
        <path id="Trazado_108092" data-name="Trazado 108092" d="M256.374,391.086h15.563v2.4H256.374Z" transform="translate(-219.159 -328.588)"/>
      </g>
    </g>
  </g>
</svg>
