<svg xmlns="http://www.w3.org/2000/svg" width="135" height="135" viewBox="0 0 135 135">
  <g id="Grupo_124667" data-name="Grupo 124667" transform="translate(-2857 5174)">
    <circle id="Elipse_5182" data-name="Elipse 5182" cx="67.5" cy="67.5" r="67.5" transform="translate(2857 -5174)" fill="#bf3976"/>
    <g id="XMLID_1105_" transform="translate(2834 -5153)">
      <g id="XMLID_645_" transform="translate(54 0)">
        <path id="XMLID_951_" d="M118.117,8.694h-7.56L105.119.785A1.811,1.811,0,0,0,103.627,0H77.546a1.811,1.811,0,0,0-1.492.785L70.616,8.694h-7.56A9.066,9.066,0,0,0,54,17.75V35.319a1.811,1.811,0,0,0,3.622,0V17.75a5.44,5.44,0,0,1,5.434-5.434h7.033l3.338,16.4a1.811,1.811,0,0,0,2.388,1.343L88.775,25.4V74.622H63.056a5.44,5.44,0,0,1-5.434-5.434V51.62a1.811,1.811,0,1,0-3.622,0V69.188a9.066,9.066,0,0,0,9.056,9.056h55.061a9.066,9.066,0,0,0,9.056-9.056V17.75a9.066,9.066,0,0,0-9.056-9.056Zm-10.441,2.2-3.062,15.046L93.306,21.875,103.7,5.121ZM90.586,19.387,80.8,3.622h19.57ZM73.5,10.9l3.971-5.777,10.4,16.754L76.559,25.943Zm44.62,63.724H92.4V25.4l12.96,4.663a1.811,1.811,0,0,0,2.388-1.343l3.338-16.4h7.033a5.44,5.44,0,0,1,5.434,5.434V38.216H103.265a1.811,1.811,0,0,0-1.811,1.811V48a1.811,1.811,0,0,0,1.811,1.811H123.55v19.38a5.44,5.44,0,0,1-5.434,5.434Zm5.434-28.436H105.076V41.839H123.55Z" transform="translate(-54 0)" fill="#fff"/>
        <path id="XMLID_1661_" d="M126.521,456.042l-4.347-3.622a1.811,1.811,0,1,0-2.319,2.783l.5.42H60.814l.5-.42A1.811,1.811,0,0,0,59,452.42l-4.347,3.622a1.811,1.811,0,0,0,0,2.783L59,462.447a1.811,1.811,0,0,0,2.319-2.783l-.5-.42h59.545l-.5.42a1.811,1.811,0,0,0,2.319,2.783l4.347-3.622a1.811,1.811,0,0,0,0-2.783Z" transform="translate(-54 -370.133)" fill="#fff"/>
        <path id="XMLID_1663_" d="M55.811,233.622a1.812,1.812,0,1,0-1.281-.531A1.824,1.824,0,0,0,55.811,233.622Z" transform="translate(-54 -188.342)" fill="#fff"/>
      </g>
    </g>
  </g>
</svg>
