<svg xmlns="http://www.w3.org/2000/svg" width="117" height="118" viewBox="0 0 117 118">
  <g id="Grupo_124600" data-name="Grupo 124600" transform="translate(-321 -2701.73)">
    <rect id="Rectángulo_38245" data-name="Rectángulo 38245" width="117" height="118" rx="58.5" transform="translate(321 2701.73)" fill="none"/>
    <g id="sweater" transform="translate(339 2719.73)">
      <g id="Grupo_124597" data-name="Grupo 124597" transform="translate(1.226 1.214)">
        <g id="Grupo_124596" data-name="Grupo 124596">
          <g id="Grupo_124571" data-name="Grupo 124571" transform="translate(61.445 70.757)">
            <path id="Trazado_108093" data-name="Trazado 108093" d="M397.684,457.655h13.345v-7.293H399.4Z" transform="translate(-397.684 -450.362)" fill="#faef93"/>
          </g>
          <g id="Grupo_124572" data-name="Grupo 124572" transform="translate(2.847 70.757)">
            <path id="Trazado_108094" data-name="Trazado 108094" d="M44.345,457.655H31v-7.293H42.632Z" transform="translate(-31 -450.362)" fill="#faef93"/>
          </g>
          <g id="Grupo_124573" data-name="Grupo 124573" transform="translate(2.847 70.757)">
            <path id="Trazado_108095" data-name="Trazado 108095" d="M34.639,454.016v-3.654H31v7.293H44.345l-.855-3.639Z" transform="translate(-31 -450.362)" fill="#f6e23d"/>
          </g>
          <g id="Grupo_124574" data-name="Grupo 124574" transform="translate(64.001 3.74)">
            <path id="Trazado_108096" data-name="Trazado 108096" d="M427.284,93.948l-6.912-55.262A8.983,8.983,0,0,0,413.678,31V98.119H423.6A3.71,3.71,0,0,0,427.284,93.948Z" transform="translate(-413.678 -31)" fill="#efc17a"/>
          </g>
          <g id="Grupo_124575" data-name="Grupo 124575" transform="translate(64.001 3.74)">
            <path id="Trazado_108097" data-name="Trazado 108097" d="M427.184,94.537H417.26V32.853A8.967,8.967,0,0,0,413.678,31V98.119H423.6a3.711,3.711,0,0,0,3.708-3.585c-.042,0-.084,0-.127,0Z" transform="translate(-413.678 -31)" fill="#e8ab4c"/>
          </g>
          <g id="Grupo_124576" data-name="Grupo 124576" transform="translate(0 3.74)">
            <path id="Trazado_108098" data-name="Trazado 108098" d="M13.216,93.948l6.912-55.262A8.983,8.983,0,0,1,26.822,31V98.119H16.9A3.71,3.71,0,0,1,13.216,93.948Z" transform="translate(-13.187 -31)" fill="#efc17a"/>
          </g>
          <g id="Grupo_124577" data-name="Grupo 124577" transform="translate(0 4.314)">
            <path id="Trazado_108099" data-name="Trazado 108099" d="M17.63,97.511a.872.872,0,0,1-.866-.98l7.311-58.452a8.97,8.97,0,0,1,1.151-3.484,8.984,8.984,0,0,0-5.1,7.111L13.216,96.968a3.71,3.71,0,0,0,3.682,4.171h9.924V97.511Z" transform="translate(-13.187 -34.594)" fill="#e8ab4c"/>
          </g>
          <g id="Grupo_124578" data-name="Grupo 124578" transform="translate(61.445 70.757)">
            <path id="Trazado_108100" data-name="Trazado 108100" d="M403.6,454.162a6.172,6.172,0,0,0,.149-1.345v-2.455H399.4l-1.713,7.293h13.345v-3.494Z" transform="translate(-397.684 -450.363)" fill="#f6e23d"/>
          </g>
          <g id="Grupo_124579" data-name="Grupo 124579" transform="translate(13.635 0)">
            <path id="Trazado_108101" data-name="Trazado 108101" d="M133.267,7.6H114.09l-15.579,3.74V80.808a6.168,6.168,0,0,0,6.168,6.168H142.7a6.168,6.168,0,0,0,6.168-6.168V11.336Z" transform="translate(-98.511 -7.596)" fill="#e8ab4c"/>
          </g>
          <g id="Grupo_124580" data-name="Grupo 124580" transform="translate(13.635 2.858)">
            <path id="Trazado_108102" data-name="Trazado 108102" d="M105.114,98.328a2.929,2.929,0,0,1-2.929-2.929V25.481l-3.674.882V95.835A6.168,6.168,0,0,0,104.679,102H142.7a6.168,6.168,0,0,0,5.641-3.674Z" transform="translate(-98.511 -25.481)" fill="#df941e"/>
          </g>
          <g id="Grupo_124581" data-name="Grupo 124581" transform="translate(24.419 0)">
            <path id="Trazado_108103" data-name="Trazado 108103" d="M189.964,7.6H170.787l-4.794,1.151a14.388,14.388,0,0,0,6.9,12.476h0a14.442,14.442,0,0,0,14.97,0h0a14.387,14.387,0,0,0,6.9-12.476Z" transform="translate(-165.992 -7.596)" fill="#faef93"/>
          </g>
          <g id="Grupo_124582" data-name="Grupo 124582" transform="translate(24.419 0)">
            <path id="Trazado_108104" data-name="Trazado 108104" d="M176.5,21.224h0a14.387,14.387,0,0,1-6.9-12.476L174.4,7.6h-3.611l-4.794,1.151a14.388,14.388,0,0,0,6.9,12.476h0a14.358,14.358,0,0,0,9.291,1.979A14,14,0,0,1,176.5,21.224Z" transform="translate(-165.992 -7.597)" fill="#f6e23d"/>
          </g>
          <g id="Grupo_124583" data-name="Grupo 124583" transform="translate(29.215)">
            <path id="Trazado_108105" data-name="Trazado 108105" d="M196,7.6V8.939a9.588,9.588,0,0,0,19.177,0V7.6Z" transform="translate(-196 -7.596)" fill="#efc17a"/>
          </g>
          <g id="Grupo_124584" data-name="Grupo 124584" transform="translate(29.215)">
            <path id="Trazado_108106" data-name="Trazado 108106" d="M199.489,8.939V7.6H196V8.939a9.582,9.582,0,0,0,11.333,9.427,9.589,9.589,0,0,1-7.844-9.427Z" transform="translate(-196 -7.596)" fill="#e8ab4c"/>
          </g>
          <g id="Grupo_124585" data-name="Grupo 124585" transform="translate(30.343 32.505)">
            <path id="Trazado_108107" data-name="Trazado 108107" d="M220.011,217l-4.259,4.259a5.962,5.962,0,0,1-8.432,0L203.061,217l4.259-4.259a5.962,5.962,0,0,1,8.432,0Z" transform="translate(-203.061 -210.999)" fill="#faef93"/>
          </g>
          <g id="Grupo_124586" data-name="Grupo 124586" transform="translate(47.108 32.505)">
            <path id="Trazado_108108" data-name="Trazado 108108" d="M324.917,217l-4.259,4.259a5.962,5.962,0,0,1-8.432,0L307.967,217l4.259-4.259a5.962,5.962,0,0,1,8.432,0Z" transform="translate(-307.967 -210.999)" fill="#faef93"/>
          </g>
          <g id="Grupo_124587" data-name="Grupo 124587" transform="translate(30.328 36.083)">
            <path id="Trazado_108109" data-name="Trazado 108109" d="M209.653,237.647l-4.259-4.259-2.428,2.428,4.259,4.259a5.962,5.962,0,0,0,8.432,0l2.428-2.428a5.962,5.962,0,0,1-8.432,0Z" transform="translate(-202.966 -233.388)" fill="#f6e23d"/>
          </g>
          <g id="Grupo_124588" data-name="Grupo 124588" transform="translate(47.164 36.083)">
            <path id="Trazado_108110" data-name="Trazado 108110" d="M315.009,237.647l-4.259-4.259-2.428,2.428,4.259,4.259a5.962,5.962,0,0,0,8.432,0l2.428-2.428A5.962,5.962,0,0,1,315.009,237.647Z" transform="translate(-308.322 -233.388)" fill="#f6e23d"/>
          </g>
          <g id="Grupo_124589" data-name="Grupo 124589" transform="translate(13.548 32.505)">
            <path id="Trazado_108111" data-name="Trazado 108111" d="M114.917,217l-4.259,4.259a5.962,5.962,0,0,1-8.432,0L97.967,217l4.259-4.259a5.962,5.962,0,0,1,8.432,0Z" transform="translate(-97.967 -210.999)" fill="#faef93"/>
          </g>
          <g id="Grupo_124590" data-name="Grupo 124590" transform="translate(13.548 36.083)">
            <path id="Trazado_108112" data-name="Trazado 108112" d="M104.653,237.647l-4.259-4.259-2.428,2.428,4.259,4.259a5.962,5.962,0,0,0,8.432,0l2.428-2.428A5.962,5.962,0,0,1,104.653,237.647Z" transform="translate(-97.966 -233.388)" fill="#f6e23d"/>
          </g>
          <g id="Grupo_124591" data-name="Grupo 124591" transform="translate(17.323 13.328)">
            <path id="Trazado_108113" data-name="Trazado 108113" d="M121.585,91h2.4v2.4h-2.4Z" transform="translate(-121.585 -91)" fill="#fff"/>
          </g>
          <g id="Grupo_124592" data-name="Grupo 124592" transform="translate(22.056 13.328)">
            <path id="Trazado_108114" data-name="Trazado 108114" d="M151.2,91h2.4v2.4h-2.4Z" transform="translate(-151.202 -91)" fill="#fff"/>
          </g>
          <g id="Grupo_124593" data-name="Grupo 124593" transform="translate(53.223 13.328)">
            <path id="Trazado_108115" data-name="Trazado 108115" d="M346.233,91h2.4v2.4h-2.4Z" transform="translate(-346.233 -91)" fill="#fff"/>
          </g>
          <g id="Grupo_124594" data-name="Grupo 124594" transform="translate(67.585 64.866)">
            <path id="Trazado_108116" data-name="Trazado 108116" d="M436.106,413.5h2.4v2.4h-2.4Z" transform="translate(-436.106 -413.5)" fill="#fff"/>
          </g>
          <g id="Grupo_124595" data-name="Grupo 124595" transform="translate(4.045 64.866)">
            <path id="Trazado_108117" data-name="Trazado 108117" d="M38.5,413.5h2.4v2.4H38.5Z" transform="translate(-38.5 -413.5)" fill="#fff"/>
          </g>
        </g>
      </g>
      <g id="Grupo_124598" data-name="Grupo 124598" transform="translate(0 0)">
        <path id="Trazado_108118" data-name="Trazado 108118" d="M315.919,496.835h2.4v2.4h-2.4Z" transform="translate(-266.314 -417.438)"/>
        <path id="Trazado_108119" data-name="Trazado 108119" d="M85.53,67.753,78.618,12.492a10.247,10.247,0,0,0-6.7-8.439V3.995L55.26,0H35.8L19.155,3.995v.062a10.241,10.241,0,0,0-6.686,8.421L10.731,26.37l2.379.3,1.739-13.9a7.837,7.837,0,0,1,4.306-6.105V70.875H10.427a2.523,2.523,0,0,1-2.493-2.824l4.876-38.986-2.379-.3L5.555,67.753a4.929,4.929,0,0,0,2.809,5.063v7.649H22.309a7.325,7.325,0,0,0,4.215,1.33h26.2V79.4h-26.2a4.976,4.976,0,0,1-4.97-4.97V42.7c2.093,2.166,3.982,4.3,7.191,4.221,3.695.16,5.988-3.121,8.392-5.422,2.415,2.31,4.69,5.578,8.392,5.422,3.695.16,5.988-3.121,8.392-5.422,2.415,2.31,4.69,5.578,8.392,5.422,3.213.078,5.117-2.074,7.208-4.238V74.427a4.976,4.976,0,0,1-4.97,4.97H59.914v2.4c2.736-.081,6.569.5,8.85-1.33H82.721V72.816a4.929,4.929,0,0,0,2.809-5.063ZM10.762,73.272h8.394a8.512,8.512,0,0,0,.966,4.8h-9.36ZM37.136,2.4H53.919C53.785,13.654,37.267,13.649,37.136,2.4ZM32.113,43.131a4.77,4.77,0,0,1-6.738,0l-3.413-3.413,3.413-3.412a4.77,4.77,0,0,1,6.738,0l3.4,3.412Zm16.784,0a4.77,4.77,0,0,1-6.738,0l-3.4-3.413,3.4-3.412a4.77,4.77,0,0,1,6.738,0l3.4,3.412Zm16.784,0a4.77,4.77,0,0,1-6.738,0l-3.4-3.413,3.4-3.412a4.77,4.77,0,0,1,6.738,0l3.413,3.412Zm1.7-8.52a7.17,7.17,0,0,0-10.129,0l-3.327,3.327L50.592,34.61a7.17,7.17,0,0,0-10.129,0l-3.327,3.327L33.808,34.61a7.17,7.17,0,0,0-10.129,0l-2.127,2.127V5.885L30,3.857c.627,11.2,14.152,18.115,23.64,11.995l-1.25-2.046C44.232,19.06,32.644,12.954,32.363,3.29l2.38-.571c.567,14,21.008,13.99,21.57,0l2.38.571a13.211,13.211,0,0,1-4.374,9.082l1.6,1.786a15.613,15.613,0,0,0,5.137-10.3l8.464,2.03V36.754Zm3.575,43.457a8.513,8.513,0,0,0,.966-4.8h8.407v4.8Zm11.591-8.043a2.48,2.48,0,0,1-1.883.85H71.917V6.651a7.846,7.846,0,0,1,4.321,6.125l6.913,55.275A2.48,2.48,0,0,1,82.541,70.025Z" transform="translate(-5.513 0)"/>
      </g>
    </g>
  </g>
</svg>
