<svg xmlns="http://www.w3.org/2000/svg" width="83" height="83" viewBox="0 0 83 83">
  <g id="Grupo_124535" data-name="Grupo 124535" transform="translate(-287 -1560.73)">
    <circle id="Elipse_5144" data-name="Elipse 5144" cx="41.5" cy="41.5" r="41.5" transform="translate(287 1560.73)" fill="#bf3976"/>
    <g id="sport-bra" transform="translate(255.082 1490.262)">
      <path id="Trazado_108052" data-name="Trazado 108052" d="M101.565,118.31l-2.594-4.326a14.054,14.054,0,0,1-2-7.224V89.544A1.075,1.075,0,0,0,95.9,88.469H90.52a1.075,1.075,0,0,0-1.075,1.075v4.19A15.858,15.858,0,0,1,73.6,109.574h-.572a15.858,15.858,0,0,1-15.841-15.84v-4.19a1.075,1.075,0,0,0-1.075-1.075H50.741a1.075,1.075,0,0,0-1.075,1.075v17.216a14.052,14.052,0,0,1-2,7.223l-2.595,4.327a1.074,1.074,0,0,0-.139.728L46.651,129.5h0l.883,5.375a1.075,1.075,0,0,0,1.061.9H98.041a1.075,1.075,0,0,0,1.061-.9l.883-5.375h0l1.719-10.459a1.077,1.077,0,0,0-.139-.728ZM49.51,115.089a16.2,16.2,0,0,0,2.306-8.329V90.619h3.225v3.115a18.011,18.011,0,0,0,17.991,17.99H73.6a18.011,18.011,0,0,0,17.991-17.99V90.619H94.82v16.141a16.206,16.206,0,0,0,2.306,8.33l2.392,3.989-1.507,9.169H48.625l-1.507-9.169Zm0,18.534-.53-3.225h48.68l-.53,3.225Z" fill="#fff"/>
      <circle id="Elipse_5159" data-name="Elipse 5159" cx="1.075" cy="1.075" r="1.075" transform="translate(72.243 114.271)" fill="#fff"/>
      <circle id="Elipse_5160" data-name="Elipse 5160" cx="1.075" cy="1.075" r="1.075" transform="translate(72.243 117.497)" fill="#fff"/>
    </g>
  </g>
</svg>
