<svg xmlns="http://www.w3.org/2000/svg" width="129.676" height="145.851" viewBox="0 0 129.676 145.851">
  <g id="size-guide" transform="translate(-28.391)">
    <g id="Grupo_124525" data-name="Grupo 124525" transform="translate(30.526 2.135)">
      <path id="Trazado_108034" data-name="Trazado 108034" d="M154.17,149.076H43.009a7.122,7.122,0,0,1-7.122-7.122V15.757A8.285,8.285,0,0,1,44.148,7.5H154.17a7.122,7.122,0,0,1,7.122,7.122V141.955A7.122,7.122,0,0,1,154.17,149.076Z" transform="translate(-35.887 -7.496)" fill="#f4fbff"/>
    </g>
    <g id="Grupo_124526" data-name="Grupo 124526" transform="translate(30.526 2.135)">
      <path id="Trazado_108035" data-name="Trazado 108035" d="M154.174,7.5h-3.69V135.42a2.847,2.847,0,0,1-2.847,2.847H35.887v3.69a7.118,7.118,0,0,0,7.118,7.118H154.174a7.118,7.118,0,0,0,7.118-7.118V14.614A7.118,7.118,0,0,0,154.174,7.5Z" transform="translate(-35.887 -7.496)" fill="#e4f6ff"/>
    </g>
    <g id="Grupo_124527" data-name="Grupo 124527" transform="translate(85.183 11.353)">
      <circle id="Elipse_5158" data-name="Elipse 5158" cx="4.186" cy="4.186" r="4.186" fill="#e4f6ff"/>
    </g>
    <g id="Grupo_124528" data-name="Grupo 124528" transform="translate(85.422 11.592)">
      <path id="Trazado_108036" data-name="Trazado 108036" d="M233.938,40.694a4.186,4.186,0,0,1-5.342,5.342,4.186,4.186,0,1,0,5.342-5.342Z" transform="translate(-228.596 -40.694)" fill="#d3effb"/>
    </g>
    <g id="Grupo_124529" data-name="Grupo 124529" transform="translate(62.575 25.733)">
      <path id="Trazado_108037" data-name="Trazado 108037" d="M200.236,159.535l-1.278-6.079a23.685,23.685,0,0,0-7.48-12.863,7.034,7.034,0,0,1-1.575-8.518l4.419-8.479a26.706,26.706,0,0,0,3.024-12.344v-6.623a2.336,2.336,0,0,0-1.318-2.1L182.746,96.1a2.336,2.336,0,0,1-1.318-2.1V91.659a1.326,1.326,0,0,0-1.326-1.326h-9.834a1.326,1.326,0,0,0-1.326,1.326v2.334a2.336,2.336,0,0,1-1.318,2.1l-13.283,6.431a2.336,2.336,0,0,0-1.318,2.1v6.623a26.706,26.706,0,0,0,3.024,12.344l4.419,8.479a7.008,7.008,0,0,1-1.545,8.491,23.683,23.683,0,0,0-7.51,12.89l-1.278,6.079a81.543,81.543,0,0,0-1.743,16.771,2.336,2.336,0,0,0,2.336,2.336h48.918a2.331,2.331,0,0,0,2.336-2.32A81.577,81.577,0,0,0,200.236,159.535Z" transform="translate(-148.391 -90.333)" fill="#365e7d"/>
    </g>
    <g id="Grupo_124530" data-name="Grupo 124530" transform="translate(86.009 25.733)">
      <path id="Trazado_108038" data-name="Trazado 108038" d="M259.066,159.535l-1.278-6.079a23.685,23.685,0,0,0-7.48-12.863,7.034,7.034,0,0,1-1.575-8.518l4.419-8.479a26.706,26.706,0,0,0,3.024-12.344v-6.623a2.336,2.336,0,0,0-1.318-2.1L241.576,96.1a2.336,2.336,0,0,1-1.318-2.1V91.659a1.326,1.326,0,0,0-1.326-1.326h-8.277a1.326,1.326,0,0,1,1.326,1.326v2.334a2.336,2.336,0,0,0,1.318,2.1l13.283,6.431a2.336,2.336,0,0,1,1.318,2.1v6.623a26.71,26.71,0,0,1-3.024,12.344l-4.419,8.479a7.034,7.034,0,0,0,1.575,8.518,23.684,23.684,0,0,1,7.48,12.863l1.278,6.079a81.537,81.537,0,0,1,1.743,16.787,2.331,2.331,0,0,1-2.336,2.32h8.277a2.331,2.331,0,0,0,2.336-2.32A81.536,81.536,0,0,0,259.066,159.535Z" transform="translate(-230.655 -90.333)" fill="#2b4d66"/>
    </g>
    <g id="Grupo_124531" data-name="Grupo 124531" transform="translate(127.188 2.135)">
      <path id="Trazado_108039" data-name="Trazado 108039" d="M396.836,7.5H375.21v141.58h21.626a7.118,7.118,0,0,0,7.118-7.118V14.614A7.118,7.118,0,0,0,396.836,7.5Z" transform="translate(-375.21 -7.496)" fill="#ffe07d"/>
    </g>
    <g id="Grupo_124532" data-name="Grupo 124532" transform="translate(127.188 2.135)">
      <path id="Trazado_108040" data-name="Trazado 108040" d="M396.836,7.5h-3.69V135.42a2.847,2.847,0,0,1-2.847,2.847H375.21v10.809h21.626a7.118,7.118,0,0,0,7.118-7.118V14.614A7.118,7.118,0,0,0,396.836,7.5Z" transform="translate(-375.21 -7.496)" fill="#ffd064"/>
    </g>
    <g id="Grupo_124533" data-name="Grupo 124533" transform="translate(28.391 0)">
      <path id="Trazado_108041" data-name="Trazado 108041" d="M155.931,98.424a2.135,2.135,0,0,0,2.135-2.135V9.254A9.264,9.264,0,0,0,148.813,0H37.645c-5.3,0-9.254,5.487-9.254,10.392V136.6a9.264,9.264,0,0,0,9.254,9.254h8.662a2.135,2.135,0,1,0,0-4.271H37.645a4.989,4.989,0,0,1-4.983-4.983V10.392c0-2.756,2.3-6.122,4.983-6.122h87.408V141.58H56.066a2.135,2.135,0,0,0,0,4.271h92.748a9.264,9.264,0,0,0,9.254-9.254V105.792a2.135,2.135,0,0,0-4.271,0V136.6a4.989,4.989,0,0,1-4.983,4.983h-19.49V131.048h12.065a2.135,2.135,0,0,0,0-4.271H129.323V112.466h3.9a2.135,2.135,0,1,0,0-4.271h-3.9V93.884h12.065a2.135,2.135,0,0,0,0-4.271H129.323V75.3h3.9a2.135,2.135,0,1,0,0-4.271h-3.9V56.721h12.065a2.135,2.135,0,0,0,0-4.271H129.323V38.139h3.9a2.135,2.135,0,1,0,0-4.271h-3.9V19.557h14.2a2.135,2.135,0,1,0,0-4.271h-14.2V4.271h19.49A4.989,4.989,0,0,1,153.8,9.254V96.288A2.135,2.135,0,0,0,155.931,98.424Z" transform="translate(-28.391 0)"/>
      <path id="Trazado_108042" data-name="Trazado 108042" d="M152.147,97.5a25.988,25.988,0,0,0-8.187,14.052l-1.278,6.079a83.847,83.847,0,0,0-1.789,17.211,4.476,4.476,0,0,0,4.471,4.471h22.323v2.81a2.135,2.135,0,1,0,4.271,0v-2.81h22.323a4.469,4.469,0,0,0,4.471-4.455,83.857,83.857,0,0,0-1.789-17.227l-1.278-6.079a25.994,25.994,0,0,0-8.154-14.022,4.891,4.891,0,0,1-1.1-5.932l4.419-8.479a28.96,28.96,0,0,0,3.266-13.331V63.168a4.5,4.5,0,0,0-2.523-4.025l-13.283-6.431a.2.2,0,0,1-.113-.18V50.2a3.465,3.465,0,0,0-3.461-3.461h-2.781V44.628a6.321,6.321,0,1,0-4.271,0v2.109h-2.781a3.465,3.465,0,0,0-3.461,3.461v2.334a.2.2,0,0,1-.113.18l-13.284,6.431a4.5,4.5,0,0,0-2.522,4.024v6.623A28.854,28.854,0,0,0,146.6,77.6a2.135,2.135,0,1,0,4.111-1.156,24.565,24.565,0,0,1-.917-6.651V63.168a.2.2,0,0,1,.113-.18l13.283-6.431a4.5,4.5,0,0,0,2.523-4.024V51.008h8.215v1.525a4.5,4.5,0,0,0,2.523,4.024l13.283,6.431a.2.2,0,0,1,.113.18v6.623a24.673,24.673,0,0,1-2.782,11.357l-4.419,8.479a9.155,9.155,0,0,0,2.054,11.1,21.692,21.692,0,0,1,6.805,11.7l1.278,6.079a79.556,79.556,0,0,1,1.7,16.348.2.2,0,0,1-.2.185H145.364a.2.2,0,0,1-.2-.2,79.551,79.551,0,0,1,1.7-16.332l1.278-6.079a21.69,21.69,0,0,1,6.833-11.728A9.118,9.118,0,0,0,157,89.627l-2.782-5.338a2.135,2.135,0,0,0-3.787,1.974l2.782,5.338a4.856,4.856,0,0,1-1.064,5.9Zm17.676-60.876a2.051,2.051,0,1,1-2.05,2.05A2.053,2.053,0,0,1,169.823,36.628Z" transform="translate(-108.845 -23.14)"/>
      <path id="Trazado_108043" data-name="Trazado 108043" d="M72.895,138.344a2.135,2.135,0,0,0-3.02,3.02l5.28,5.28a2.136,2.136,0,0,0,3.02,0l5.28-5.28a2.135,2.135,0,1,0-3.02-3.02L78.8,139.979v-86.3l1.635,1.635a2.136,2.136,0,0,0,3.02-3.02l-5.28-5.28a2.136,2.136,0,0,0-3.02,0L69.875,52.3a2.135,2.135,0,0,0,3.02,3.02l1.635-1.635v86.3Z" transform="translate(-57.61 -33.176)"/>
      <path id="Trazado_108044" data-name="Trazado 108044" d="M192.747,436.714a2.136,2.136,0,0,0,3.02,0l5.28-5.28a2.135,2.135,0,0,0,0-3.02l-5.28-5.28a2.135,2.135,0,0,0-3.02,3.02l1.635,1.635h-40.9l1.635-1.635a2.135,2.135,0,1,0-3.02-3.02l-5.28,5.28a2.135,2.135,0,0,0,0,3.02l5.28,5.28a2.136,2.136,0,0,0,3.02-3.02l-1.635-1.635h40.9l-1.635,1.635a2.135,2.135,0,0,0,0,3.02Z" transform="translate(-112.632 -302.151)"/>
    </g>
  </g>
</svg>
