<svg xmlns="http://www.w3.org/2000/svg" width="135" height="135" viewBox="0 0 135 135">
  <g id="Grupo_124666" data-name="Grupo 124666" transform="translate(-3273 5174)">
    <circle id="Elipse_5181" data-name="Elipse 5181" cx="67.5" cy="67.5" r="67.5" transform="translate(3273 -5174)" fill="#bf3976"/>
    <g id="dressmaker" transform="translate(3305 -5147)">
      <path id="Trazado_108176" data-name="Trazado 108176" d="M69.629,0H59.279a1.148,1.148,0,0,0-.131.008s0-.006,0-.008S10.932,0,10.911,0a1.127,1.127,0,0,0-.642.234A18.364,18.364,0,0,0,8.922,1.665L5.866,4.908C4.046,6.84,2.191,8.744.4,10.707a1.219,1.219,0,0,0-.389.687C.009,11.436,0,77.716,0,77.716a2.425,2.425,0,0,0,2.422,2.422h9.769a1.172,1.172,0,1,0,0-2.344H2.422a.078.078,0,0,1-.078-.078V12.751h7.847A1.955,1.955,0,0,0,12.145,10.8V2.344H58.107V12.566a1.172,1.172,0,0,0,2.344,0V2.344h8.005v.578H65.707a1.172,1.172,0,0,0,0,2.345h2.749v3.4H65.707a1.172,1.172,0,1,0,0,2.344h2.749v3.4H65.707a1.172,1.172,0,0,0,0,2.345h2.749v3.4H65.707a1.172,1.172,0,1,0,0,2.344h2.749v3.4H64.382a1.172,1.172,0,0,0,0,2.345h4.074v3.4H65.707a1.172,1.172,0,1,0,0,2.344h2.749v3.4H65.707a1.172,1.172,0,1,0,0,2.344h2.749v3.4H65.707a1.172,1.172,0,0,0,0,2.345h2.749v3.4H65.707a1.172,1.172,0,1,0,0,2.344h2.749v3.4H64.382a1.172,1.172,0,0,0,0,2.345h4.074v1.651H60.451V19.8a1.172,1.172,0,1,0-2.344,0V69.4a1.955,1.955,0,0,0,1.953,1.953h5.284v6.365a.078.078,0,0,1-.078.078H19.458a1.172,1.172,0,1,0,0,2.344H65.267a2.425,2.425,0,0,0,2.422-2.422V71.351h1.158A1.955,1.955,0,0,0,70.8,69.4V1.172A1.172,1.172,0,0,0,69.629,0ZM9.8,10.406H3.886L5.378,8.822,9.8,4.126Zm58.656,58.6H60.452V61h8.005Zm0,0" fill="#fff"/>
      <path id="Trazado_108177" data-name="Trazado 108177" d="M61.469,113.751H80.133a1.172,1.172,0,0,0,0-2.345H61.469a1.172,1.172,0,0,0,0,2.345Zm0,0" transform="translate(-50.859 -93.969)" fill="#fff"/>
      <path id="Trazado_108178" data-name="Trazado 108178" d="M61.469,145.106H72.408a1.172,1.172,0,0,0,0-2.344H61.469a1.172,1.172,0,0,0,0,2.344Zm0,0" transform="translate(-50.859 -120.416)" fill="#fff"/>
      <path id="Trazado_108179" data-name="Trazado 108179" d="M61.469,204.657H75.026a1.172,1.172,0,0,0,0-2.344H61.469a1.172,1.172,0,0,0,0,2.344Zm0,0" transform="translate(-50.859 -170.646)" fill="#fff"/>
      <path id="Trazado_108180" data-name="Trazado 108180" d="M202.286,204.657h3.721a1.172,1.172,0,0,0,0-2.344h-3.721a1.172,1.172,0,0,0,0,2.344Zm0,0" transform="translate(-169.636 -170.646)" fill="#fff"/>
      <path id="Trazado_108181" data-name="Trazado 108181" d="M258.583,204.657H262.3a1.172,1.172,0,1,0,0-2.344h-3.721a1.172,1.172,0,1,0,0,2.344Zm0,0" transform="translate(-217.12 -170.646)" fill="#fff"/>
      <path id="Trazado_108183" data-name="Trazado 108183" d="M202.286,244.942h3.721a1.172,1.172,0,0,0,0-2.345h-3.721a1.172,1.172,0,0,0,0,2.345Zm0,0" transform="translate(-169.636 -204.626)" fill="#fff"/>
      <path id="Trazado_108184" data-name="Trazado 108184" d="M258.583,244.942H262.3a1.172,1.172,0,0,0,0-2.345h-3.721a1.172,1.172,0,1,0,0,2.345Zm0,0" transform="translate(-217.12 -204.626)" fill="#fff"/>
      <path id="Trazado_108186" data-name="Trazado 108186" d="M202.286,285.231h3.721a1.172,1.172,0,0,0,0-2.344h-3.721a1.172,1.172,0,0,0,0,2.344Zm0,0" transform="translate(-169.636 -238.609)" fill="#fff"/>
      <path id="Trazado_108187" data-name="Trazado 108187" d="M258.583,285.231H262.3a1.172,1.172,0,1,0,0-2.344h-3.721a1.172,1.172,0,1,0,0,2.344Zm0,0" transform="translate(-217.12 -238.609)" fill="#fff"/>
      <path id="Trazado_108189" data-name="Trazado 108189" d="M202.286,325.516h3.721a1.172,1.172,0,0,0,0-2.344h-3.721a1.172,1.172,0,0,0,0,2.344Zm0,0" transform="translate(-169.636 -272.588)" fill="#fff"/>
      <path id="Trazado_108190" data-name="Trazado 108190" d="M258.583,325.516H262.3a1.172,1.172,0,1,0,0-2.344h-3.721a1.172,1.172,0,1,0,0,2.344Zm0,0" transform="translate(-217.12 -272.588)" fill="#fff"/>
      <path id="Trazado_108192" data-name="Trazado 108192" d="M202.286,365.8h3.721a1.172,1.172,0,0,0,0-2.344h-3.721a1.172,1.172,0,1,0,0,2.344Zm0,0" transform="translate(-169.636 -306.569)" fill="#fff"/>
      <path id="Trazado_108193" data-name="Trazado 108193" d="M258.583,365.8H262.3a1.172,1.172,0,1,0,0-2.344h-3.721a1.172,1.172,0,1,0,0,2.344Zm0,0" transform="translate(-217.12 -306.569)" fill="#fff"/>
      <path id="Trazado_108195" data-name="Trazado 108195" d="M61.469,244.942h7.443a1.172,1.172,0,1,0,0-2.345H61.469a1.172,1.172,0,0,0,0,2.345Zm0,0" transform="translate(-50.859 -204.626)" fill="#fff"/>
      <path id="Trazado_108196" data-name="Trazado 108196" d="M61.469,285.231h9.774a1.172,1.172,0,1,0,0-2.344H61.469a1.172,1.172,0,0,0,0,2.344Zm0,0" transform="translate(-50.859 -238.609)" fill="#fff"/>
      <path id="Trazado_108197" data-name="Trazado 108197" d="M61.469,325.516h7.443a1.172,1.172,0,1,0,0-2.344H61.469a1.172,1.172,0,0,0,0,2.344Zm0,0" transform="translate(-50.859 -272.588)" fill="#fff"/>
      <path id="Trazado_108198" data-name="Trazado 108198" d="M61.469,365.8H75.026a1.172,1.172,0,1,0,0-2.344H61.469a1.172,1.172,0,1,0,0,2.344Zm0,0" transform="translate(-50.859 -306.569)" fill="#fff"/>
      <path id="Trazado_108199" data-name="Trazado 108199" d="M394.858,401.512a3.143,3.143,0,1,0-3.143-3.143A3.146,3.146,0,0,0,394.858,401.512Zm0-3.941a.8.8,0,1,1-.8.8A.8.8,0,0,1,394.858,397.571Zm0,0" transform="translate(-330.404 -333.366)" fill="#fff"/>
      <path id="Trazado_108200" data-name="Trazado 108200" d="M271.309,50.1H258.582a1.172,1.172,0,0,0,0,2.345h12.727a1.172,1.172,0,0,0,0-2.345Zm0,0" transform="translate(-217.12 -42.26)" fill="#fff"/>
      <path id="Trazado_108202" data-name="Trazado 108202" d="M225.473,450.508a1.172,1.172,0,1,0,0,2.345h14.279a1.172,1.172,0,0,0,0-2.345Zm0,0" transform="translate(-189.193 -379.994)" fill="#fff"/>
    </g>
  </g>
</svg>
