<svg xmlns="http://www.w3.org/2000/svg" xmlns:xlink="http://www.w3.org/1999/xlink" width="471" height="340.049" viewBox="0 0 471 340.049">
  <defs>
    <linearGradient id="linear-gradient" x1="0.672" y1="0.739" x2="0.367" y2="0.239" gradientUnits="objectBoundingBox">
      <stop offset="0.03" stop-color="#fff"/>
      <stop offset="0.24" stop-color="#f4f4ff"/>
      <stop offset="0.7" stop-color="#fff"/>
      <stop offset="0.78" stop-color="#fff"/>
      <stop offset="0.79" stop-color="#fff"/>
      <stop offset="0.83" stop-color="#f6f6fa"/>
      <stop offset="0.9" stop-color="#dfdfeb"/>
      <stop offset="0.99" stop-color="#b9b9d4"/>
      <stop offset="1" stop-color="#b5b5d2"/>
    </linearGradient>
    <linearGradient id="linear-gradient-2" x1="47.288" y1="-7.024" x2="48.134" y2="-7.024" gradientUnits="objectBoundingBox">
      <stop offset="0.05" stop-color="#feb9b8"/>
      <stop offset="0.99" stop-color="#fea5a4"/>
    </linearGradient>
    <linearGradient id="linear-gradient-3" x1="416.055" y1="-28.502" x2="416.701" y2="-28.502" xlink:href="#linear-gradient-2"/>
    <linearGradient id="linear-gradient-4" x1="42.264" y1="-5.805" x2="43.174" y2="-5.805" xlink:href="#linear-gradient-2"/>
  </defs>
  <g id="Grupo_124635" data-name="Grupo 124635" transform="translate(-800 -3145.73)">
    <rect id="Rectángulo_4911" data-name="Rectángulo 4911" width="471" height="340.048" rx="21" transform="translate(800 3145.73)" fill="#d6ebfb"/>
    <g id="plotter-01" transform="translate(848.21 3078.307)">
      <g id="Layer_1" data-name="Layer 1" transform="translate(7.79 67.423)">
        <path id="Trazado_108301" data-name="Trazado 108301" d="M249.344,251.387l-2.624,1.505V207.885l2.624-1.505Z" transform="translate(83.246 -5.179)" fill="#989898"/>
        <path id="Trazado_108302" data-name="Trazado 108302" d="M269.988,250.284l-3.66,2.113L234.04,233.753l3.66-2.113Z" transform="translate(78.415 4.446)" fill="#989898"/>
        <path id="Trazado_108303" data-name="Trazado 108303" d="M261.08,245.14l-3.66,2.113,1.215,2.113,3.66-2.127Z" transform="translate(87.323 9.589)" fill="#838383"/>
        <path id="Trazado_108304" data-name="Trazado 108304" d="M236.82,232.261l-3.66,2.113,1.215-.621,3.66-2.113Z" transform="translate(78.079 4.446)" fill="#838383"/>
        <path id="Trazado_108305" data-name="Trazado 108305" d="M261.96,250.292l-3.66,2.113v-3.618l3.66-2.127Z" transform="translate(87.658 10.169)" fill="#717171"/>
        <path id="Trazado_108306" data-name="Trazado 108306" d="M248.438,253.468l-6.228-3.591V204.87l6.228,3.591Z" transform="translate(81.527 -5.754)" fill="#878787"/>
        <path id="Trazado_108307" data-name="Trazado 108307" d="M266.663,251.814,234.375,233.17l-1.215.621v3.618l34.719,20.135v-3.618Z" transform="translate(78.079 5.029)" fill="#878787"/>
        <path id="Trazado_108308" data-name="Trazado 108308" d="M281.853,235.727,150.27,311.7v-4.861L281.853,230.88Z" transform="translate(46.497 4.156)" fill="#717171"/>
        <path id="Trazado_108309" data-name="Trazado 108309" d="M282.672,231.356l-2.983-1.726L148.12,305.6l2.969,1.712Z" transform="translate(45.678 3.68)" fill="#989898"/>
        <path id="Trazado_108310" data-name="Trazado 108310" d="M152.17,307.473l-2.61,1.519V263.985l2.61-1.505Z" transform="translate(46.226 16.196)" fill="#989898"/>
        <path id="Trazado_108311" data-name="Trazado 108311" d="M172.818,306.384l-3.66,2.113L136.87,289.853l3.673-2.113Z" transform="translate(41.391 25.821)" fill="#989898"/>
        <path id="Trazado_108312" data-name="Trazado 108312" d="M163.91,301.24l-3.66,2.113,1.229,2.113,3.66-2.127Z" transform="translate(50.299 30.964)" fill="#838383"/>
        <path id="Trazado_108313" data-name="Trazado 108313" d="M139.65,288.361l-3.66,2.113,1.215-.621,3.673-2.113Z" transform="translate(41.056 25.821)" fill="#838383"/>
        <path id="Trazado_108314" data-name="Trazado 108314" d="M164.8,306.392l-3.66,2.113v-3.618l3.66-2.127Z" transform="translate(50.639 31.543)" fill="#717171"/>
        <path id="Trazado_108315" data-name="Trazado 108315" d="M151.278,309.568l-6.228-3.6V260.97l6.228,3.591Z" transform="translate(44.508 15.621)" fill="#878787"/>
        <path id="Trazado_108316" data-name="Trazado 108316" d="M169.493,307.914,137.205,289.27l-1.215.621v3.618l34.732,20.135v-3.618Z" transform="translate(41.056 26.404)" fill="#878787"/>
        <path id="Trazado_108317" data-name="Trazado 108317" d="M169.057,272.861,159.072,254.6l-3.535-4.254-18.906-10.91-1.961.124v25.411l32.937,19.017,1.45-3.991Z" transform="translate(40.553 7.418)" fill="#4f4f4f"/>
        <path id="Trazado_108318" data-name="Trazado 108318" d="M277.561,180.29,136.09,261.977,155,272.887l141.471-81.673Z" transform="translate(41.094 -15.119)" fill="#838383"/>
        <path id="Trazado_108319" data-name="Trazado 108319" d="M276.141,180.414,134.67,262.1l1.961-.124L278.1,180.29Z" transform="translate(40.553 -15.119)" fill="#797979"/>
        <path id="Trazado_108320" data-name="Trazado 108320" d="M294.787,192.454,153.315,274.127l-3.535-4.254L291.251,188.2Z" transform="translate(46.31 -12.106)" fill="#8d8d8d"/>
        <path id="Trazado_108321" data-name="Trazado 108321" d="M293.811,191.28,152.34,272.953l9.985,18.257L303.8,209.523Z" transform="translate(47.286 -10.932)" fill="#797979"/>
        <path id="Trazado_108322" data-name="Trazado 108322" d="M301.041,204.49,159.57,286.177v7.14L301.041,211.63Z" transform="translate(50.04 -5.899)" fill="#717171"/>
        <path id="Trazado_108323" data-name="Trazado 108323" d="M299.991,213.665,158.52,295.338l1.45-3.991L301.441,209.66Z" transform="translate(49.64 -3.929)" fill="#6f6f6f"/>
        <path id="Trazado_108324" data-name="Trazado 108324" d="M235.717,223.621l-1.381-.8V227.2l-1.45,4-.746-.442v1.312l3.356,1.933,2.431-1.381v-5.483Z" transform="translate(77.691 1.085)" fill="#5b5b5b"/>
        <path id="Trazado_108325" data-name="Trazado 108325" d="M176.767,257.661l-1.381-.8v4.378l-1.45,3.991-.746-.428v1.3l3.342,1.947,2.444-1.395v-5.483Z" transform="translate(55.23 14.055)" fill="#4f4f4f"/>
        <path id="Trazado_108326" data-name="Trazado 108326" d="M259.4,226.922l-81.411,47-2.21-3.508,81.411-47.01Z" transform="translate(56.217 1.306)" fill="#5b5b5b"/>
        <path id="Trazado_108327" data-name="Trazado 108327" d="M253.934,222.32l-78.745,45.463h0l-2.168-3.977,76.384-44.1Z" transform="translate(55.165 -0.1)" fill="#5e5e5e"/>
        <path id="Trazado_108328" data-name="Trazado 108328" d="M257.644,224.086,176.233,271.1l-1.381-.8v-2.762l-.262-.47L253.335,221.6Z" transform="translate(55.763 0.62)" fill="#686868"/>
        <path id="Trazado_108329" data-name="Trazado 108329" d="M226.94,219.749v.152l9.377,5.4v-2.762l-3.411-6.228Z" transform="translate(75.709 -1.395)" fill="#4f4f4f"/>
        <path id="Trazado_108330" data-name="Trazado 108330" d="M258.791,225.95l-81.411,47v5.483l81.411-47Z" transform="translate(56.826 2.278)" fill="#545454"/>
        <path id="Trazado_108331" data-name="Trazado 108331" d="M255.082,218.8l-5.027,2.9-76.384,44.1-2.362-4.309,81.411-47.01Z" transform="translate(54.513 -2.092)" fill="#797979"/>
        <path id="Trazado_108332" data-name="Trazado 108332" d="M158.964,226.2l-18.754,9.708v4.281l3.6-1.077,6.864,3.95,18.754-10.827Z" transform="translate(42.664 2.373)" fill="#545454"/>
        <path id="Trazado_108333" data-name="Trazado 108333" d="M158.964,225.38,140.21,236.221l10.468,6.035,18.754-10.827Z" transform="translate(42.664 2.061)" fill="#8d8d8d"/>
        <path id="Trazado_108334" data-name="Trazado 108334" d="M166.544,230.879,147.79,241.706v-1.119l18.754-10.827Z" transform="translate(45.552 3.729)" fill="#717171"/>
        <path id="Trazado_108335" data-name="Trazado 108335" d="M151.25,229l7.858,4.544v-7.8L151.25,221.2Z" transform="translate(46.87 0.468)" fill="#b0b0b0"/>
        <path id="Trazado_108336" data-name="Trazado 108336" d="M156.94,232.822l3.314-1.906V223.1l-3.314,1.92Z" transform="translate(49.038 1.192)" fill="#cecece"/>
        <path id="Trazado_108337" data-name="Trazado 108337" d="M151.25,221.73l3.314-1.92,7.858,4.544-3.314,1.92Z" transform="translate(46.87 -0.062)" fill="#dedede"/>
        <path id="Trazado_108338" data-name="Trazado 108338" d="M148.49,230.607l7.858,4.544v-7.817l-7.858-4.544Z" transform="translate(45.819 1.074)" fill="#b0b0b0"/>
        <path id="Trazado_108339" data-name="Trazado 108339" d="M154.18,234.426l3.314-1.92V224.69l-3.314,1.92Z" transform="translate(47.987 1.798)" fill="#cecece"/>
        <path id="Trazado_108340" data-name="Trazado 108340" d="M148.49,223.316l3.314-1.906,7.858,4.53-3.314,1.92Z" transform="translate(45.819 0.548)" fill="#dedede"/>
        <path id="Trazado_108341" data-name="Trazado 108341" d="M145.73,232.2l7.858,4.544v-7.817l-7.858-4.544Z" transform="translate(44.767 1.68)" fill="#b0b0b0"/>
        <path id="Trazado_108342" data-name="Trazado 108342" d="M151.42,236.012l3.314-1.92v-7.8L151.42,228.2Z" transform="translate(46.935 2.407)" fill="#cecece"/>
        <path id="Trazado_108343" data-name="Trazado 108343" d="M145.73,224.906,149.044,223l7.858,4.544-3.314,1.906Z" transform="translate(44.767 1.154)" fill="#dedede"/>
        <path id="Trazado_108344" data-name="Trazado 108344" d="M142.97,233.783l7.858,4.544V230.51l-7.858-4.53Z" transform="translate(43.716 2.289)" fill="#b0b0b0"/>
        <path id="Trazado_108345" data-name="Trazado 108345" d="M148.66,237.6l3.314-1.906V227.88l-3.314,1.906Z" transform="translate(45.884 3.013)" fill="#cecece"/>
        <path id="Trazado_108346" data-name="Trazado 108346" d="M142.97,226.51l3.314-1.92,7.858,4.544-3.314,1.906Z" transform="translate(43.716 1.76)" fill="#dedede"/>
        <path id="Trazado_108347" data-name="Trazado 108347" d="M140.21,235.387l7.872,4.53v-7.8l-7.872-4.544Z" transform="translate(42.664 2.895)" fill="#b0b0b0"/>
        <path id="Trazado_108348" data-name="Trazado 108348" d="M145.91,239.192l3.3-1.906V229.47l-3.3,1.92Z" transform="translate(44.836 3.619)" fill="#cecece"/>
        <path id="Trazado_108349" data-name="Trazado 108349" d="M140.21,228.1l3.314-1.92,7.858,4.544-3.3,1.92Z" transform="translate(42.664 2.365)" fill="#dedede"/>
        <path id="Trazado_108350" data-name="Trazado 108350" d="M292.109,203.619l-4.985-9.129L166.05,264.4l4.985,9.115Z" transform="translate(52.509 -9.709)" fill="#545454"/>
        <path id="Trazado_108351" data-name="Trazado 108351" d="M270.754,208.536l-6.367-11.656L230.47,216.463l6.38,11.656Z" transform="translate(77.054 -8.798)" fill="#545454"/>
        <path id="Trazado_108352" data-name="Trazado 108352" d="M257.318,203.093,254.1,197.21l-10.73,6.2,3.218,5.883Z" transform="translate(81.969 -8.673)" fill="#7d8181"/>
        <path id="Trazado_108353" data-name="Trazado 108353" d="M256.7,203.045l-2.928-5.345-10.192,5.883,2.928,5.345Z" transform="translate(82.049 -8.486)" fill="#8c9090"/>
        <path id="Trazado_108354" data-name="Trazado 108354" d="M249.819,207.3l-.773-1.422-1.505.856.787,1.422Z" transform="translate(83.558 -5.369)" fill="#b4b6b6"/>
        <path id="Trazado_108355" data-name="Trazado 108355" d="M251.989,206.056l-.773-1.436-1.505.87.787,1.422Z" transform="translate(84.385 -5.849)" fill="#b4b6b6"/>
        <path id="Trazado_108356" data-name="Trazado 108356" d="M254.159,204.792l-.773-1.422-1.505.87.787,1.422Z" transform="translate(85.212 -6.326)" fill="#b4b6b6"/>
        <path id="Trazado_108357" data-name="Trazado 108357" d="M250.679,208.872l-.773-1.422-1.505.87.787,1.422Z" transform="translate(83.886 -4.771)" fill="#b4b6b6"/>
        <path id="Trazado_108358" data-name="Trazado 108358" d="M252.849,207.622l-.773-1.422-1.505.856.787,1.436Z" transform="translate(84.713 -5.247)" fill="#b4b6b6"/>
        <path id="Trazado_108359" data-name="Trazado 108359" d="M255.019,206.376l-.773-1.436-1.505.87.787,1.422Z" transform="translate(85.539 -5.727)" fill="#b4b6b6"/>
        <path id="Trazado_108360" data-name="Trazado 108360" d="M253.021,244.983c1.381-6.6.732-13.272-3.425-16.5-2.762-2.113-5.786-2.569-7.955-6.09L176.83,259.8c2.182,3.522,5.248,3.991,7.968,6.1,4.143,3.218,4.751,9.888,3.411,16.489-1.229,6.146-2.072,21.005,4.24,25.093l64.714-37.412C250.88,266.044,251.709,251.129,253.021,244.983Z" transform="translate(56.617 0.921)" fill="url(#linear-gradient)"/>
        <path id="Trazado_108361" data-name="Trazado 108361" d="M192.979,296.932c-6.325-4.074-5.524-18.948-4.24-25.079,1.381-6.615.718-13.272-3.425-16.572-2.762-2.113-5.786-2.569-7.955-6.09l-.58.331c2.182,3.522,5.248,3.991,7.968,6.1,4.143,3.218,4.751,9.888,3.411,16.489-1.229,6.146-2.072,21.005,4.24,25.093l64.783-37.343h0Z" transform="translate(56.598 11.133)" fill="#9797ae"/>
        <g id="Grupo_124627" data-name="Grupo 124627" transform="translate(4.323 110.731)">
          <path id="Trazado_108596" data-name="Trazado 108596" d="M10.92,141.82l.193,94.862,2.251,1.312-.193-94.862Z" transform="translate(-10.92 -140.508)" fill="#878787"/>
          <path id="Trazado_108597" data-name="Trazado 108597" d="M12.55,143.132l.193,94.862,2.265-1.312-.193-94.862Z" transform="translate(-10.299 -140.508)" fill="#717171"/>
          <path id="Trazado_108598" data-name="Trazado 108598" d="M10.92,142.182l2.251,1.312,2.265-1.312-2.251-1.312Z" transform="translate(-10.92 -140.87)" fill="#b8b8b8"/>
        </g>
        <g id="Grupo_124628" data-name="Grupo 124628" transform="translate(6.767 204.295)">
          <path id="Trazado_108599" data-name="Trazado 108599" d="M57.877,238.24,12.69,212.18v-2.61l45.173,26.074Z" transform="translate(-12.69 -208.258)" fill="#878787"/>
          <path id="Trazado_108600" data-name="Trazado 108600" d="M57.863,236.006,12.69,209.932l2.251-1.312,45.187,26.074Z" transform="translate(-12.69 -208.62)" fill="#989898"/>
          <path id="Trazado_108601" data-name="Trazado 108601" d="M45.414,231.408l-.014-2.6,2.265-1.312.014,2.6Z" transform="translate(-0.227 -201.426)" fill="#b8b8b8"/>
        </g>
        <g id="Grupo_124629" data-name="Grupo 124629" transform="translate(7.057 143.793)">
          <path id="Trazado_108602" data-name="Trazado 108602" d="M58.253,193.261,12.9,167.091V165.42l45.353,26.17Z" transform="translate(-12.9 -164.578)" fill="#878787"/>
          <path id="Trazado_108603" data-name="Trazado 108603" d="M58.253,191.823,12.9,165.652l1.45-.842L59.7,190.98Z" transform="translate(-12.9 -164.81)" fill="#989898"/>
          <path id="Trazado_108604" data-name="Trazado 108604" d="M45.74,186.273V184.6l1.45-.842.014,1.671Z" transform="translate(-0.387 -157.59)" fill="#dcdcdc"/>
        </g>
        <g id="Grupo_124630" data-name="Grupo 124630" transform="translate(117.607 79.962)">
          <path id="Trazado_108605" data-name="Trazado 108605" d="M138.316,147.041,92.95,120.871V119.2L138.3,145.37Z" transform="translate(-92.95 -118.358)" fill="#989898"/>
          <path id="Trazado_108606" data-name="Trazado 108606" d="M138.3,145.6,92.95,119.432l1.45-.842,45.366,26.17Z" transform="translate(-92.95 -118.59)" fill="#bdbdbd"/>
          <path id="Trazado_108607" data-name="Trazado 108607" d="M125.8,140.053l-.014-1.671,1.464-.842v1.671Z" transform="translate(-80.437 -111.37)" fill="#dcdcdc"/>
        </g>
        <g id="Grupo_124631" data-name="Grupo 124631" transform="translate(51.747 153.612)">
          <path id="Trazado_108608" data-name="Trazado 108608" d="M45.26,172.87l.207,79.353,2.237,1.312-.193-79.353Z" transform="translate(-45.26 -171.558)" fill="#878787"/>
          <path id="Trazado_108609" data-name="Trazado 108609" d="M46.89,174.182l.193,79.353,2.265-1.312-.193-79.353Z" transform="translate(-44.639 -171.558)" fill="#717171"/>
          <path id="Trazado_108610" data-name="Trazado 108610" d="M45.26,173.232l2.251,1.312,2.265-1.312-2.251-1.312Z" transform="translate(-45.26 -171.92)" fill="#b8b8b8"/>
        </g>
        <g id="Grupo_124632" data-name="Grupo 124632" transform="translate(114.873 64.619)">
          <path id="Trazado_108611" data-name="Trazado 108611" d="M90.97,108.43l.193,77.143,2.251,1.312-.193-77.144Z" transform="translate(-90.97 -107.118)" fill="#878787"/>
          <path id="Trazado_108612" data-name="Trazado 108612" d="M92.6,109.742l.193,77.144,2.265-1.312-.193-77.143Z" transform="translate(-90.349 -107.118)" fill="#717171"/>
          <path id="Trazado_108613" data-name="Trazado 108613" d="M90.97,108.792l2.251,1.312,2.265-1.312-2.251-1.312Z" transform="translate(-90.97 -107.48)" fill="#b8b8b8"/>
        </g>
        <g id="Grupo_124633" data-name="Grupo 124633" transform="translate(117.317 140.478)">
          <path id="Trazado_108614" data-name="Trazado 108614" d="M137.927,192.02,92.74,165.96v-2.61l45.173,26.074Z" transform="translate(-92.74 -162.052)" fill="#878787"/>
          <path id="Trazado_108615" data-name="Trazado 108615" d="M137.913,189.782,92.74,163.708,95,162.41l45.173,26.06Z" transform="translate(-92.74 -162.41)" fill="#999"/>
          <path id="Trazado_108616" data-name="Trazado 108616" d="M125.464,185.188l-.014-2.6,2.265-1.312.014,2.6Z" transform="translate(-80.277 -155.22)" fill="#b8b8b8"/>
        </g>
        <g id="Grupo_124634" data-name="Grupo 124634" transform="translate(162.297 92.004)">
          <path id="Trazado_108617" data-name="Trazado 108617" d="M125.31,128.25l.207,77.143,2.251,1.312-.207-77.143Z" transform="translate(-125.31 -126.952)" fill="#878787"/>
          <path id="Trazado_108618" data-name="Trazado 108618" d="M126.94,129.562l.207,77.143,2.265-1.312L129.2,128.25Z" transform="translate(-124.689 -126.952)" fill="#717171"/>
          <path id="Trazado_108619" data-name="Trazado 108619" d="M125.31,128.608l2.251,1.312,2.265-1.312-2.251-1.3Z" transform="translate(-125.31 -127.31)" fill="#b8b8b8"/>
        </g>
        <path id="Trazado_108620" data-name="Trazado 108620" d="M63.4,192.39l1.091-2.707L12.55,142.77v3.687Z" transform="translate(-5.976 -29.415)" fill="#888993"/>
        <path id="Trazado_108621" data-name="Trazado 108621" d="M14.364,147.505v-3.687l-6.574-3.8v3.687Z" transform="translate(-7.79 -30.463)" fill="#888993"/>
        <path id="Trazado_108622" data-name="Trazado 108622" d="M50.461,195.433,167.806,127.68l-1.091,2.707L49.37,198.139Z" transform="translate(8.053 -35.165)" fill="#7b7c8a"/>
        <path id="Trazado_108623" data-name="Trazado 108623" d="M64.49,208.376l117.345-67.753L129.895,93.71,12.55,161.463Z" transform="translate(-5.976 -48.108)" fill="#999"/>
        <path id="Trazado_108624" data-name="Trazado 108624" d="M14.364,162.51,131.708,94.758l-6.56-3.8L7.79,158.713Z" transform="translate(-7.79 -49.155)" fill="#a5a5a5"/>
        <path id="Trazado_108625" data-name="Trazado 108625" d="M40.236,126.709l-2.762-1.588a.718.718,0,0,1,0-1.381l4.461-2.582a2.638,2.638,0,0,1,2.362,0l2.762,1.588h0l.552.608c.345.373.235.829-.29,1.132l-4.143,2.362a2.583,2.583,0,0,1-1.961.166l-1.05-.318Z" transform="translate(3.321 -37.756)" fill="#bcbcc2"/>
        <path id="Trazado_108626" data-name="Trazado 108626" d="M47.807,123.341v-1.2l-10.827.635v1.215L38.913,125l5.814-.18Z" transform="translate(3.332 -37.275)" fill="#bcbcc2"/>
        <path id="Trazado_108627" data-name="Trazado 108627" d="M40.226,125.829l-2.762-1.588c-.649-.373-.649-.981,0-1.381l4.461-2.582a2.638,2.638,0,0,1,2.362,0l2.762,1.6h0l.552.608c.345.373.235.829-.29,1.132l-4.143,2.362a2.762,2.762,0,0,1-1.961.166l-1.05-.331Z" transform="translate(3.331 -38.092)" fill="#c6c7cd"/>
        <path id="Trazado_108628" data-name="Trazado 108628" d="M41.995,125.935a2.293,2.293,0,0,0,1.1-.262l4.143-2.362a.718.718,0,0,0,.4-.47.442.442,0,0,0-.152-.4l-.539-.594-2.762-1.574a2.238,2.238,0,0,0-1.091-.262,2.334,2.334,0,0,0-1.1.262l-4.461,2.583a.663.663,0,0,0-.414.539.677.677,0,0,0,.4.539l2.762,1.574,1.022.331a2.528,2.528,0,0,0,.732.1Z" transform="translate(3.385 -38.087)" fill="#e0e6ec"/>
        <path id="Trazado_108629" data-name="Trazado 108629" d="M46.371,121.992a1.215,1.215,0,0,1-.994,1.726,2.1,2.1,0,0,1-2.237-1.1,1.215,1.215,0,0,1,1.008-1.712,2.044,2.044,0,0,1,2.223,1.091Z" transform="translate(5.638 -37.762)" fill="#7a81a8"/>
        <path id="Trazado_108630" data-name="Trazado 108630" d="M46.411,121.82a1.229,1.229,0,0,1-1.008,1.726,2.072,2.072,0,0,1-2.223-1.091,1.229,1.229,0,0,1,.994-1.726,2.1,2.1,0,0,1,2.237,1.091Z" transform="translate(5.653 -37.826)" fill="#a4a9c4"/>
        <path id="Trazado_108631" data-name="Trazado 108631" d="M72.635,196.236l85.388-49.3L111.842,105.2l-85.4,49.316Z" transform="translate(-0.684 -43.73)" fill="#fff"/>
        <path id="Trazado_108632" data-name="Trazado 108632" d="M75.171,137.5,88.249,73.971l19.928-4.751L119.9,136.254a15.108,15.108,0,0,1-8.424,16.241l-3.494,1.643a21.792,21.792,0,0,1-17.373.539l-7.775-3.093A12.429,12.429,0,0,1,75.171,137.5Z" transform="translate(17.785 -57.439)" fill="#fdffcb" opacity="0.44"/>
        <path id="Trazado_108633" data-name="Trazado 108633" d="M52.5,149.72l-8.176-48.9,16.9-11.449,33.144,50.062A13.313,13.313,0,0,1,91.8,156.971l-5.855,4.916a18.934,18.934,0,0,1-17.677,3.6l-2.555-.773a18.961,18.961,0,0,1-13.216-15Z" transform="translate(6.128 -49.761)" fill="#fdffcb" opacity="0.44"/>
        <path id="Trazado_108634" data-name="Trazado 108634" d="M72.2,173.84l-4.033-3.646,51.388-29.664,4.019,3.646Z" transform="translate(15.216 -30.269)" fill="#686868"/>
        <path id="Trazado_108635" data-name="Trazado 108635" d="M74.2,171.114l51.388-29.664-2.665,6.629L71.53,177.743Z" transform="translate(16.496 -29.918)" fill="#4e4f58"/>
        <path id="Trazado_108636" data-name="Trazado 108636" d="M73.929,171.541l-1.7-1.547L123.6,140.33l1.712,1.547Z" transform="translate(16.763 -30.345)" fill="#797979"/>
        <path id="Trazado_108637" data-name="Trazado 108637" d="M74.668,163.357l-1.7-1.547-1.574,3.922-1.1,2.721L72,169.986Z" transform="translate(16.023 -22.161)" fill="#5a5a61"/>
        <path id="Trazado_108638" data-name="Trazado 108638" d="M64.493,145.6a1.229,1.229,0,0,1-1.008,1.726,2.085,2.085,0,0,1-2.223-1.091,1.215,1.215,0,0,1,1.063-1.726,2.085,2.085,0,0,1,2.168,1.091Z" transform="translate(12.54 -28.763)" fill="#7a81a8"/>
        <path id="Trazado_108639" data-name="Trazado 108639" d="M64.521,145.444a1.215,1.215,0,0,1-.994,1.712,2.085,2.085,0,0,1-2.237-1.091,1.229,1.229,0,0,1,1.008-1.726,2.071,2.071,0,0,1,2.223,1.1Z" transform="translate(12.553 -28.83)" fill="#a4a9c4"/>
        <path id="Trazado_108640" data-name="Trazado 108640" d="M61.4,154.434l.166-.994L93.84,134.81l-.18.994Z" transform="translate(12.636 -32.448)" fill="#e0a654"/>
        <path id="Trazado_108641" data-name="Trazado 108641" d="M62.1,149.923l-2.541-2.279.18-.994,2.527,2.279Z" transform="translate(11.935 -27.937)" fill="#e08354"/>
        <path id="Trazado_108642" data-name="Trazado 108642" d="M62.217,154.069,59.69,151.79l32.274-18.63,2.527,2.279Z" transform="translate(11.985 -33.077)" fill="#ffba54"/>
        <path id="Trazado_108643" data-name="Trazado 108643" d="M66.081,128.941a1.229,1.229,0,0,1-.994,1.726,2.085,2.085,0,0,1-2.237-1.091,1.229,1.229,0,0,1,1.008-1.726A2.072,2.072,0,0,1,66.081,128.941Z" transform="translate(13.148 -35.113)" fill="#7a81a8"/>
        <path id="Trazado_108644" data-name="Trazado 108644" d="M66.124,128.781a1.229,1.229,0,0,1-1.008,1.726,2.071,2.071,0,0,1-2.223-1.1,1.2,1.2,0,0,1,.994-1.712,2.085,2.085,0,0,1,2.237,1.091Z" transform="translate(13.161 -35.174)" fill="#a4a9c4"/>
        <path id="Trazado_108645" data-name="Trazado 108645" d="M39.219,120.06h4.143v3.328h0a1.036,1.036,0,0,1-.621.884,3.287,3.287,0,0,1-2.983,0,1.008,1.008,0,0,1-.608-.856h0Z" transform="translate(4.159 -38.068)" fill="#bcbcc2"/>
        <path id="Trazado_108646" data-name="Trazado 108646" d="M42.806,119.49a3.245,3.245,0,0,0-2.983,0c-.829.483-.842,1.243,0,1.726a3.287,3.287,0,0,0,2.983,0,.9.9,0,0,0,0-1.726Z" transform="translate(4.176 -38.423)" fill="#e0e6ec"/>
        <path id="Trazado_108647" data-name="Trazado 108647" d="M42.568,121.1c-.166-.47-.428-.47-.594,0a2.969,2.969,0,0,0,0,1.7c.166.47.428.47.594,0A2.969,2.969,0,0,0,42.568,121.1Z" transform="translate(5.187 -37.807)" fill="#5a5a61"/>
        <path id="Trazado_108648" data-name="Trazado 108648" d="M71.6,154.912l-2.4-.207,1.975-23.022-26.212-8.576h-2.8V120.69h3.176l28.407,9.294Z" transform="translate(5.305 -37.828)" fill="#5a5a61"/>
        <path id="Trazado_108649" data-name="Trazado 108649" d="M64.657,145.1a1.229,1.229,0,0,1-1.008,1.685,2.1,2.1,0,0,1-2.237-1.091,1.215,1.215,0,0,1,1.008-1.726A2.072,2.072,0,0,1,64.657,145.1Z" transform="translate(12.597 -28.971)" fill="#7a81a8"/>
        <path id="Trazado_108650" data-name="Trazado 108650" d="M64.693,144.934a1.215,1.215,0,0,1-1.008,1.712,2.044,2.044,0,0,1-2.223-1.091,1.215,1.215,0,0,1,.994-1.726A2.1,2.1,0,0,1,64.693,144.934Z" transform="translate(12.616 -29.024)" fill="#cccccf"/>
        <path id="Trazado_108651" data-name="Trazado 108651" d="M66.341,128.031a1.229,1.229,0,0,1-1.008,1.726,2.071,2.071,0,0,1-2.223-1.091,1.229,1.229,0,0,1,.994-1.726,2.1,2.1,0,0,1,2.237,1.091Z" transform="translate(13.246 -35.46)" fill="#7a81a8"/>
        <path id="Trazado_108652" data-name="Trazado 108652" d="M66.371,127.871a1.215,1.215,0,0,1-.994,1.726,2.1,2.1,0,0,1-2.237-1.091,1.229,1.229,0,0,1,1.008-1.726A2.072,2.072,0,0,1,66.371,127.871Z" transform="translate(13.258 -35.521)" fill="#cccccf"/>
        <path id="Trazado_108653" data-name="Trazado 108653" d="M46.561,121.172a1.229,1.229,0,0,1-.994,1.726,2.1,2.1,0,0,1-2.237-1.1,1.215,1.215,0,0,1,1.008-1.712A2.044,2.044,0,0,1,46.561,121.172Z" transform="translate(5.71 -38.075)" fill="#7a81a8"/>
        <path id="Trazado_108654" data-name="Trazado 108654" d="M46.6,121a1.229,1.229,0,0,1-1.008,1.726,2.072,2.072,0,0,1-2.223-1.091,1.215,1.215,0,0,1,.994-1.726A2.1,2.1,0,0,1,46.6,121Z" transform="translate(5.723 -38.138)" fill="#cccccf"/>
        <path id="Trazado_108655" data-name="Trazado 108655" d="M73.195,105.772l-2.762-1.6c-.649-.373-.635-.981,0-1.381l4.474-2.582a2.61,2.61,0,0,1,2.348,0l2.762,1.588h0l.552.608c.345.373.235.829-.29,1.132L76.136,105.9a2.762,2.762,0,0,1-1.961.166l-1.05-.318Z" transform="translate(15.894 -45.738)" fill="#bcbcc2"/>
        <path id="Trazado_108656" data-name="Trazado 108656" d="M80.791,102.391v-1.2L69.95,101.8v3.453l1.6-.911,5.8-.18Z" transform="translate(15.894 -45.258)" fill="#bcbcc2"/>
        <path id="Trazado_108657" data-name="Trazado 108657" d="M73.195,104.889,70.433,103.3c-.649-.373-.635-.981,0-1.381l4.474-2.583a2.61,2.61,0,0,1,2.348,0l2.762,1.588h0l.552.608c.345.373.235.829-.29,1.132l-4.143,2.362a2.582,2.582,0,0,1-1.961.166l-1.05-.318Z" transform="translate(15.894 -46.07)" fill="#c6c7cd"/>
        <path id="Trazado_108658" data-name="Trazado 108658" d="M74.965,104.995a2.292,2.292,0,0,0,1.1-.262l4.143-2.362a.732.732,0,0,0,.4-.483.47.47,0,0,0-.138-.4l-.552-.58-2.762-1.588a2.237,2.237,0,0,0-1.091-.249,2.334,2.334,0,0,0-1.1.262L70.5,101.915a.691.691,0,0,0-.414.539.635.635,0,0,0,.4.525l2.762,1.588,1.022.318a2.541,2.541,0,0,0,.732.11Z" transform="translate(15.947 -46.066)" fill="#e0e6ec"/>
        <path id="Trazado_108659" data-name="Trazado 108659" d="M76.123,75.421c0,.953-.663,1.381-1.492.856a3.273,3.273,0,0,1-1.491-2.569c0-.953.663-1.381,1.491-.856A3.287,3.287,0,0,1,76.123,75.421Z" transform="translate(17.109 -56.141)" fill="#f1f1f2"/>
        <path id="Trazado_108660" data-name="Trazado 108660" d="M75.893,75.573c0,.953-.663,1.381-1.492.856a3.328,3.328,0,0,1-1.492-2.583c0-.939.677-1.381,1.492-.842A3.273,3.273,0,0,1,75.893,75.573Z" transform="translate(17.022 -56.086)" fill="#9b9ea1"/>
        <path id="Trazado_108661" data-name="Trazado 108661" d="M74.176,102.507l1.8-1.036c.608-.359.539-.981-.18-1.381h0a2.762,2.762,0,0,0-2.4-.1l-1.8,1.036c-.608.359-.539.981.18,1.381h0a2.762,2.762,0,0,0,2.4.1Z" transform="translate(16.363 -45.801)" fill="#a4a9c4"/>
        <path id="Trazado_108662" data-name="Trazado 108662" d="M74.176,102.287l1.8-1.036c.608-.359.539-.981-.18-1.381h0a2.762,2.762,0,0,0-2.4-.1l-1.8,1.036c-.608.359-.539.981.18,1.381h0a2.762,2.762,0,0,0,2.4.1Z" transform="translate(16.363 -45.885)" fill="#eff1fd"/>
        <path id="Trazado_108663" data-name="Trazado 108663" d="M72,111.313h.1a.967.967,0,0,0,1.243-.18v-.083l.8-35.685.621-.1-.911,35.064.18.083a.994.994,0,0,0,1.243-.29h0L75.991,75.2a.967.967,0,0,0-1.063-.9l-2.279.235Z" transform="translate(16.675 -55.504)" fill="#bcbcc2"/>
        <rect id="Rectángulo_38371" data-name="Rectángulo 38371" width="24.154" height="1.961" transform="matrix(0.868, -0.496, 0.496, 0.868, 89.689, 17.886)" fill="#bcbcc2"/>
        <path id="Trazado_108664" data-name="Trazado 108664" d="M89.383,67.353c0,.953-.663,1.381-1.491.856A3.328,3.328,0,0,1,86.4,65.627c0-.939.677-1.381,1.492-.842A3.273,3.273,0,0,1,89.383,67.353Z" transform="translate(22.162 -59.218)" fill="#f1f1f2"/>
        <path id="Trazado_108665" data-name="Trazado 108665" d="M89.163,67.5c0,.939-.677,1.381-1.492.842a3.245,3.245,0,0,1-1.492-2.569c0-.939.663-1.381,1.492-.842A3.287,3.287,0,0,1,89.163,67.5Z" transform="translate(22.078 -59.16)" fill="#c8ccd0"/>
        <path id="Trazado_108666" data-name="Trazado 108666" d="M90.668,66.182a12.925,12.925,0,0,0-1.505.58,11.171,11.171,0,0,0-1.381.815,6.784,6.784,0,0,0-.608.428,11.048,11.048,0,0,0-.87.732,9.526,9.526,0,0,0-1.063,1.2,7.414,7.414,0,0,0-.787,1.257c-.1.193-.221.456-.3.649a8.286,8.286,0,0,0-.608,2.486,10.428,10.428,0,0,0,0,1.878c.069.7.939,1.381,2.652,1.768a10.758,10.758,0,0,1,3.743-9.391c-2.058-.539-1.685-1.616.842-2.417l.442-.138Z" transform="translate(21.056 -58.654)" fill="#ddd"/>
        <path id="Trazado_108667" data-name="Trazado 108667" d="M98.913,65.949a9.449,9.449,0,0,0-1.16-.249,8.9,8.9,0,0,1-.994-.11,9.157,9.157,0,0,1,1.547.235c2.072.539,1.7,1.616-.829,2.431a18.036,18.036,0,0,1-8.286.5,10.758,10.758,0,0,0-3.743,9.391c4.143,1.05,11.49.608,16.572-.994,2.942-.939,4.405-2.058,4.309-3.038a8.681,8.681,0,0,0-.318-1.754,6.24,6.24,0,0,0-.29-.856l-.318-.718c-.124-.221-.29-.525-.428-.732a8.686,8.686,0,0,0-.925-1.215,8.4,8.4,0,0,0-1.063-.967,9.832,9.832,0,0,0-1.119-.76l-.649-.359-.953-.414a11.244,11.244,0,0,0-1.353-.387Z" transform="translate(21.774 -58.822)" fill="#ddd"/>
        <path id="Trazado_108668" data-name="Trazado 108668" d="M87.374,62.86a20.069,20.069,0,0,1-.124,2.334h0V68.84c0,.387.428.718,1.381.953V63.7C87.733,63.5,87.36,63.191,87.374,62.86Z" transform="translate(22.485 -59.862)" fill="#ccc"/>
        <path id="Trazado_108669" data-name="Trazado 108669" d="M98.579,67.978c-.221-1.022-.47-2.1-.47-2.1h0a3.374,3.374,0,0,0-.166-.718c-.152-.608-.18-.732-.276-1.132a2.261,2.261,0,0,0-.1-.387c-.028-.124-.124-.511-.193-.76s-.1-.4-.193-.732c.124.442-.511.967-1.851,1.381a15.454,15.454,0,0,1-7.154.428c-.083,2.472,0,5.911,0,6.09a18.036,18.036,0,0,0,8.286-.5C97.944,69.069,98.69,68.489,98.579,67.978Z" transform="translate(22.826 -60.132)" fill="#ccc"/>
        <path id="Trazado_108670" data-name="Trazado 108670" d="M90.226,61.118a6.4,6.4,0,0,0-1.036.428,5.178,5.178,0,0,0-.7.47,4.143,4.143,0,0,0-.635.691,5.083,5.083,0,0,0-.47.87c-.166.4.193.76,1.1.994.442-1.547,1.119-2.486,3.743-3.328-2.624.842-3.3,1.782-3.743,3.328a15.454,15.454,0,0,0,7.154-.428c1.478-.483,2.1-1.063,1.782-1.533l-.276-.387-.166-.193a3.688,3.688,0,0,0-.608-.539,3.977,3.977,0,0,0-.773-.414,7.619,7.619,0,0,0-.829-.235A9.584,9.584,0,0,0,90.226,61.118Z" transform="translate(22.52 -60.689)" fill="#ddd"/>
        <path id="Trazado_108671" data-name="Trazado 108671" d="M75.373,75.905c0,.939-.663,1.381-1.491.842a3.3,3.3,0,0,1-1.491-2.569c0-.953.677-1.381,1.491-.856A3.287,3.287,0,0,1,75.373,75.905Z" transform="translate(16.824 -55.962)" fill="#f1f1f2"/>
        <path id="Trazado_108672" data-name="Trazado 108672" d="M75.143,76.053c0,.953-.663,1.381-1.491.856A3.328,3.328,0,0,1,72.16,74.3c0-.953.677-1.381,1.492-.856a3.273,3.273,0,0,1,1.492,2.61Z" transform="translate(16.736 -55.916)" fill="#c8ccd0"/>
        <path id="Trazado_108673" data-name="Trazado 108673" d="M29.606,130.935l-2.762-1.6a.718.718,0,0,1,0-1.381L31.4,125.4a2.61,2.61,0,0,1,2.348,0l2.762,1.588h0l.566.608c.345.373.221.829-.3,1.132l-4.143,2.362a2.569,2.569,0,0,1-1.961.166l-1.05-.318Z" transform="translate(-0.729 -36.141)" fill="#bcbcc2"/>
        <path id="Trazado_108674" data-name="Trazado 108674" d="M37.191,127.561v-1.2l-10.841.608v3.466l1.6-.925,5.8-.18Z" transform="translate(-0.718 -35.668)" fill="#bcbcc2"/>
        <path id="Trazado_108675" data-name="Trazado 108675" d="M29.593,130.055l-2.762-1.588c-.635-.373-.635-.981,0-1.381l4.557-2.569a2.61,2.61,0,0,1,2.348,0l2.762,1.588h0l.566.608c.345.373.221.842-.3,1.132l-4.143,2.362a2.638,2.638,0,0,1-1.961.18l-1.05-.331Z" transform="translate(-0.716 -36.476)" fill="#c6c7cd"/>
        <path id="Trazado_108676" data-name="Trazado 108676" d="M31.341,130.163a2.237,2.237,0,0,0,1.091-.262l4.143-2.362a.76.76,0,0,0,.414-.483.539.539,0,0,0-.124-.387l-.552-.58L33.551,124.5a2.458,2.458,0,0,0-2.182,0l-4.474,2.582a.691.691,0,0,0-.414.539.663.663,0,0,0,.4.525l2.762,1.588,1.036.318a2.457,2.457,0,0,0,.732.11Z" transform="translate(-0.669 -36.473)" fill="#e0e6ec"/>
        <path id="Trazado_108677" data-name="Trazado 108677" d="M32.523,100.591c0,.953-.663,1.381-1.491.856a3.3,3.3,0,0,1-1.491-2.569c0-.953.677-1.381,1.491-.856A3.287,3.287,0,0,1,32.523,100.591Z" transform="translate(0.497 -46.551)" fill="#f1f1f2"/>
        <path id="Trazado_108678" data-name="Trazado 108678" d="M32.3,100.771c0,.953-.677,1.381-1.491.856a3.287,3.287,0,0,1-1.491-2.569c0-.953.663-1.381,1.491-.856a3.3,3.3,0,0,1,1.492,2.569Z" transform="translate(0.413 -46.482)" fill="#9b9ea1"/>
        <path id="Trazado_108679" data-name="Trazado 108679" d="M30.575,127.677l1.8-1.036c.621-.359.539-.981-.166-1.381h0a2.762,2.762,0,0,0-2.4-.1L27.992,126.2c-.608.359-.525.981.18,1.381h0a2.651,2.651,0,0,0,2.4.1Z" transform="translate(-0.248 -36.211)" fill="#a4a9c4"/>
        <path id="Trazado_108680" data-name="Trazado 108680" d="M30.575,127.459l1.8-1.036c.621-.359.539-.981-.166-1.381h0a2.762,2.762,0,0,0-2.4-.111l-1.809,1.036c-.608.359-.525.981.18,1.381h0a2.652,2.652,0,0,0,2.4.11Z" transform="translate(-0.248 -36.297)" fill="#eff1fd"/>
        <path id="Trazado_108681" data-name="Trazado 108681" d="M28.37,136.5h.1a.953.953,0,0,0,1.243-.18l.083-.083.829-35.63.539-.193-.911,35.05.166.1a.967.967,0,0,0,1.243-.3h0l.718-34.912a.953.953,0,0,0-1.063-.911l-2.279.235Z" transform="translate(0.051 -45.93)" fill="#bcbcc2"/>
        <rect id="Rectángulo_38372" data-name="Rectángulo 38372" width="24.154" height="1.961" transform="matrix(0.868, -0.496, 0.496, 0.868, 29.475, 52.651)" fill="#bcbcc2"/>
        <path id="Trazado_108682" data-name="Trazado 108682" d="M45.823,92.523c0,.953-.677,1.381-1.491.856A3.287,3.287,0,0,1,42.84,90.8c0-.939.663-1.381,1.491-.842a3.3,3.3,0,0,1,1.491,2.569Z" transform="translate(5.565 -49.627)" fill="#f1f1f2"/>
        <path id="Trazado_108683" data-name="Trazado 108683" d="M45.563,92.673c0,.939-.663,1.381-1.491.856a3.287,3.287,0,0,1-1.491-2.583c0-.939.663-1.381,1.491-.842a3.273,3.273,0,0,1,1.492,2.569Z" transform="translate(5.465 -49.57)" fill="#c8ccd0"/>
        <path id="Trazado_108684" data-name="Trazado 108684" d="M46.777,91.005a11.89,11.89,0,0,0-1.119,1.16,10.136,10.136,0,0,0-.967,1.381c-.124.193-.276.456-.387.649s-.345.718-.47,1.022a9.488,9.488,0,0,0-.47,1.436,8.991,8.991,0,0,0-.193,1.478,5.994,5.994,0,0,0,0,.7,6.186,6.186,0,0,0,.083.87,8.687,8.687,0,0,0,.4,1.643,9.406,9.406,0,0,0,.787,1.7c.359.621,1.381.829,3.149.511a10.717,10.717,0,0,1-.511-10.04c-2.085.373-2.21-.773-.249-2.555a3.8,3.8,0,0,1,.359-.3,4.792,4.792,0,0,0-.414.345Z" transform="translate(5.687 -49.27)" fill="#ddd"/>
        <path id="Trazado_108685" data-name="Trazado 108685" d="M53.959,87.959c-.511.1-.829.18-1.16.262l-.953.318a8.882,8.882,0,0,1,1.519-.428c2.1-.387,2.21.76.249,2.555a18.05,18.05,0,0,1-7.333,3.922,10.717,10.717,0,0,0,.525,10.1c4.143-.76,10.689-4.24,14.584-7.8,2.265-2.072,3.135-3.7,2.638-4.557q-.476-.716-1.022-1.381a4.71,4.71,0,0,0-.621-.663,6.9,6.9,0,0,0-.594-.511,6.269,6.269,0,0,0-.691-.5,7.127,7.127,0,0,0-1.381-.7,9.877,9.877,0,0,0-1.381-.456,11.048,11.048,0,0,0-1.381-.221H55.188A3.332,3.332,0,0,0,53.959,87.959Z" transform="translate(6.488 -50.339)" fill="#ddd"/>
        <path id="Trazado_108686" data-name="Trazado 108686" d="M43.19,88.49c.193.5.387,1.022.856,2.182h0c.18.456.373.925.566,1.381l.663,1.561c0,.138.124.276.18.428a1.749,1.749,0,0,0,1.6.3c-.069-.166-1.519-3.287-2.472-5.524C43.77,88.918,43.314,88.808,43.19,88.49Z" transform="translate(5.698 -50.096)" fill="#ccc"/>
        <path id="Trazado_108687" data-name="Trazado 108687" d="M55.317,89.489l-1.3-1.643h0l-.428-.649-.718-.911-.249-.318-.5-.608-.483-.58c.3.345,0,1.091-1.1,2.03A15.384,15.384,0,0,1,44.2,90.194c.953,2.279,2.4,5.4,2.472,5.524A18.05,18.05,0,0,0,54.019,91.8C55.207,90.746,55.635,89.9,55.317,89.489Z" transform="translate(6.083 -51.51)" fill="#ccc"/>
        <path id="Trazado_108688" data-name="Trazado 108688" d="M44.718,86.53a5.993,5.993,0,0,0-.76.829,3.8,3.8,0,0,0-.442.718,3.6,3.6,0,0,0-.29.884,5.606,5.606,0,0,0,0,.994c0,.428.483.608,1.381.442-.249-1.588,0-2.762,2-4.585-2.058,1.864-2.306,3-2.03,4.585a15.384,15.384,0,0,0,6.311-3.383c1.146-1.05,1.478-1.837.994-2.127l-.428-.235-.249-.11a3.66,3.66,0,0,0-1.657-.29,6.572,6.572,0,0,0-.856.124,9.667,9.667,0,0,0-3.977,2.154Z" transform="translate(5.703 -51.714)" fill="#ddd"/>
        <path id="Trazado_108689" data-name="Trazado 108689" d="M31.823,101.075c0,.939-.663,1.381-1.491.842a3.3,3.3,0,0,1-1.491-2.569c0-.953.677-1.381,1.491-.856A3.287,3.287,0,0,1,31.823,101.075Z" transform="translate(0.23 -46.372)" fill="#f1f1f2"/>
        <path id="Trazado_108690" data-name="Trazado 108690" d="M31.553,101.211c0,.953-.677,1.381-1.491.856A3.273,3.273,0,0,1,28.57,99.5c0-.953.663-1.381,1.491-.856A3.328,3.328,0,0,1,31.553,101.211Z" transform="translate(0.127 -46.315)" fill="#c8ccd0"/>
        <ellipse id="Elipse_5166" data-name="Elipse 5166" cx="23.781" cy="13.727" rx="23.781" ry="13.727" transform="matrix(1, -0.005, 0.005, 1, 104.939, 206.773)" fill="#c6c8d3"/>
        <ellipse id="Elipse_5167" data-name="Elipse 5167" cx="23.781" cy="13.727" rx="23.781" ry="13.727" transform="matrix(1, -0.005, 0.005, 1, 118.629, 199.932)" fill="#c6c8d3"/>
        <path id="Trazado_108691" data-name="Trazado 108691" d="M125.3,216.083s1.768.677,2.03,1.6a17.526,17.526,0,0,1,.635,3.383A4.985,4.985,0,0,1,123.1,223.5a13.272,13.272,0,0,1-5.607-2.486,4.957,4.957,0,0,1-.345-1.077,25.536,25.536,0,0,0-2.527-.635,70.824,70.824,0,0,1-9.6-2.458c-1.478-.76-2.072-.829-2.279-2.141s0-1.657,0-1.657a4.433,4.433,0,0,1,2.762-1.464C107.275,211.47,125.3,216.083,125.3,216.083Z" transform="translate(28.354 -3.198)" fill="#323142"/>
        <path id="Trazado_108692" data-name="Trazado 108692" d="M125.176,212.991a12.623,12.623,0,0,1,1.188,4.143c0,1.478.124,1.671-.138,2.306a5.524,5.524,0,0,1-6.215,1.381c-3.121-1.3-7.678-3.673-8.935-3.977s-7.264-.732-7.5-1.754a11.2,11.2,0,0,1-.138-2.762,8.285,8.285,0,0,1,.193-1.492l5.193-.856Z" transform="translate(28.642 -3.807)" fill="#ababab"/>
        <path id="Trazado_108693" data-name="Trazado 108693" d="M127.933,155.89c.981,1.864,1.961,3.508,1.823,8.548a42.246,42.246,0,0,1-1.768,11.821c-.815,2.044-2.762,16.986-2.141,22.966a84.13,84.13,0,0,1-.47,21.171c-1.215,8.286-1.892,15.73-1.961,17.5s-4.557,3.107-8.8.566a10.026,10.026,0,0,1-4.93-5.869s.539-61.911,1.464-65.653,5.524-9.087,5.524-9.087Z" transform="translate(31.035 -24.416)" fill="#424c67"/>
        <path id="Trazado_108694" data-name="Trazado 108694" d="M113.15,233.6h-.635c0-.193.8-20.177,0-29-.594-7.071.3-24.264.7-31.6.083-1.63.152-2.914.138-3.052h.262l.359-.124a27.624,27.624,0,0,1-.138,3.232c-.387,7.319-1.284,24.472-.691,31.5C113.951,213.4,113.15,233.416,113.15,233.6Z" transform="translate(32.036 -19.109)" fill="#4f5a7a"/>
        <path id="Trazado_108695" data-name="Trazado 108695" d="M115.873,221.7c.87.3,1.3.428,1.657,1.077a19.254,19.254,0,0,1,.856,3,4.336,4.336,0,0,1-3.232,3.149c-2.762.732-7.292-.649-7.388-1.257a4.143,4.143,0,0,0-.345-1.077s-2.762-.677-3.674-.083-5.275-.235-6.905-.815-4.295-1.961-4.972-3.591a5.524,5.524,0,0,1-.193-3.342c0-.207,1.063-1.561,1.8-1.16S115.873,221.7,115.873,221.7Z" transform="translate(24.107 -0.932)" fill="#323142"/>
        <path id="Trazado_108696" data-name="Trazado 108696" d="M116.093,220a46.147,46.147,0,0,1,.939,4.668c0,.87-1.616,2.265-3.48,2.444s-6.021-1.381-8.728-1.188a21.82,21.82,0,0,1-7.651-.746c-1.878-.594-5.289-2.762-5.193-4.143a5.344,5.344,0,0,1,1.381-3.535,14.983,14.983,0,0,1,4.737-1.036,42.733,42.733,0,0,0,6.905-1.1C105.956,214.969,116.093,220,116.093,220Z" transform="translate(24.287 -1.767)" fill="#ababab"/>
        <path id="Trazado_108697" data-name="Trazado 108697" d="M126.587,156.656c.387.18.994,4.778.994,10a19.666,19.666,0,0,1-4.613,12,43.253,43.253,0,0,0-3.563,9.985c-1.243,4.875-1.478,13.106-2.458,16.862s.594,4.143,0,12.015c-.7,9.087-2.5,18.878-3.121,26.6-.138,1.781-7.872,2.762-10.054,1.16a5.662,5.662,0,0,1-2.762-4.682c.069-1.381.663-26.239.566-31.984s-3.121-34.3-1.436-44.455S126.587,156.656,126.587,156.656Z" transform="translate(27.203 -24.243)" fill="#424c67"/>
        <path id="Trazado_108698" data-name="Trazado 108698" d="M124.023,173.745l-2.513-1.271v-.221a49.72,49.72,0,0,0,.262-11.7v-.18l.124-.11a6.242,6.242,0,0,0,1.823-2.417l.594.207a6.629,6.629,0,0,1-1.864,2.569,50.284,50.284,0,0,1-.249,11.49l2.1,1.063Z" transform="translate(35.539 -23.669)" fill="#4f5a7a"/>
        <path id="Trazado_108699" data-name="Trazado 108699" d="M103.851,242.559h-.635c.635-11.545.732-21.82.787-28.628,0-3.383,0-5.828.124-7.223.221-4.143-1.008-19.969-1.561-25.866-.318-3.425-.29-7.54-.262-11.5V162.93h.621v6.422c0,3.95,0,8.051.262,11.435.552,5.925,1.782,21.792,1.561,25.977,0,1.381-.1,3.812-.124,7.2C104.569,220.712,104.486,230.986,103.851,242.559Z" transform="translate(28.215 -21.734)" fill="#4f5a7a"/>
        <path id="Trazado_108700" data-name="Trazado 108700" d="M115.1,179.284a16.02,16.02,0,0,1-6.1-1.063.994.994,0,0,1-.483-.635c0-.4-.387-1.8-.76-3.4a52.161,52.161,0,0,1-1.505-7.4c.083-.414.525-.456,1.74-.552a38.53,38.53,0,0,0,14.059-3.881l.193-.083.152.138c.414.359.249,6.629-.373,8.576-.718,2.306-5.317,8.024-6.159,8.286a3.08,3.08,0,0,1-.76.014Zm-8.286-12.291c0,.76.953,4.668,1.505,7.057.387,1.685.691,3.011.76,3.439,0,0,0,.083.207.193,1.229.787,5.842,1.077,6.353.939a27.814,27.814,0,0,0,5.731-7.83,30.383,30.383,0,0,0,.5-7.678,38.668,38.668,0,0,1-13.81,3.743,9.82,9.82,0,0,0-1.188.138Z" transform="translate(29.725 -21.985)" fill="#4f5a7a"/>
        <path id="Trazado_108701" data-name="Trazado 108701" d="M100.549,161.371s4.682,5.9,21.931.511c5.9-2.251,9.543-7,9.4-7.982l.649,4.143s-1.1,4.433-12.056,8.562c-8.949,2.762-19.431,2.886-20.577-1.878C100.245,163.167,100.549,161.371,100.549,161.371Z" transform="translate(27.305 -25.174)" fill="#a76478"/>
        <path id="Trazado_108702" data-name="Trazado 108702" d="M118.39,157.306s.552,0,.76,1.008a22.843,22.843,0,0,1,.842,4.461,7.442,7.442,0,0,1-.166.856,5.868,5.868,0,0,0,1.492-.58c.207-.249.221-.566,0-1.961a22.29,22.29,0,0,0-.98-3.867c-.262-.608-.566-.552-.566-.552Z" transform="translate(34.35 -24.119)" fill="#424c67"/>
        <path id="Trazado_108703" data-name="Trazado 108703" d="M104.629,160.777a3.011,3.011,0,0,0-.732,1.381c0,.608.124,3.232.124,3.411s.4.8.331.925-1.561-.152-1.6-.456a5.372,5.372,0,0,0-.276-1.809,6.671,6.671,0,0,1,.083-2.955,2.762,2.762,0,0,1,.649-.884Z" transform="translate(28.238 -22.702)" fill="#424c67"/>
        <path id="Trazado_108704" data-name="Trazado 108704" d="M93.572,144.134c.773,1.381,1.381,2.279,1.381,2.279s7.5,24.2,8.8,29.471c.939,3.867,6.463,4.419,7.333,4.488a33.144,33.144,0,0,0,20.232-4.585c4.709-2.624,6.477-4.143,6.477-7.43-.594-3.991-5.013-12.139-5.524-15.108s-1.975-18.837-2.444-25.314-1.574-9.142-3.4-10.717a5.635,5.635,0,0,0-5.372-1.063,21.24,21.24,0,0,1-5.524.483c-2.6,0-2.016.442-4.143,1.381l-8.576,3.549s-7.181,5.925-9.667,7.513a12.333,12.333,0,0,0-3.922,3.563C88.089,134.081,91.542,140.613,93.572,144.134Z" transform="translate(23.152 -39.659)" fill="#4baeff"/>
        <path id="Trazado_108705" data-name="Trazado 108705" d="M88.4,111.706c.594,1.961,2.458,4.654,3.066,6.159a30.811,30.811,0,0,0,4.143,6.1l.124.124.138.152a2.942,2.942,0,0,0,.856.663,6.8,6.8,0,0,0,3-.373,21.669,21.669,0,0,1,2.072,3.038c.276-.1.635-.18,1.091-.29,1.243-.262,3.149-.552,5.731-1.05,3.535-.663,7.623-2.762,7.72-3.673s-1.381-.939-2.417-1.284a5.994,5.994,0,0,1-2.624-2.582,19.942,19.942,0,0,1-1.892-7.223S91.454,101.8,88.872,104.1,87.808,109.732,88.4,111.706Z" transform="translate(22.549 -44.284)" fill="url(#linear-gradient-2)"/>
        <path id="Trazado_108706" data-name="Trazado 108706" d="M94.156,117.34l-1.574.414a8.189,8.189,0,0,0-1.726-2.638,4.916,4.916,0,0,0-1.8-.829s-.539.345-.87-.11a8.811,8.811,0,0,1-1.588-4.046c-.083-1.726.428-7.457,5.193-10.33s8.176-2.914,11.407-1.05c3.853-.911,6.905,4.267,7.706,8.424s.7,7.167.221,8.548a10.883,10.883,0,0,0-.359,3.383,17.055,17.055,0,0,0-3.6.773c-1.05.483-1.561,1.381-2.389,1.712a3.342,3.342,0,0,1-3.176-1.851,10.662,10.662,0,0,0-4.143-4.143,4.737,4.737,0,0,0-3.121-.318C93.811,115.393,93.922,116.94,94.156,117.34Z" transform="translate(22.236 -46.672)" fill="#754942"/>
        <path id="Trazado_108707" data-name="Trazado 108707" d="M91.82,110.3s.773-1.2,2.016,1.05,1.478,3.549,1.188,4.544-1.381-.925-1.616-1.588-1.381-3.259-1.381-3.287S91.82,110.3,91.82,110.3Z" transform="translate(24.227 -41.909)" fill="url(#linear-gradient-3)"/>
        <path id="Trazado_108708" data-name="Trazado 108708" d="M95.765,118.435l-2.265.387a2.941,2.941,0,0,0,.856.663,6.8,6.8,0,0,0,3-.373,21.667,21.667,0,0,1,2.127,3.038c.276-.1.635-.18,1.091-.29l-.276-.345c-.4-.552-.746-1.146-1.1-1.726s-.773-1.616-1.271-1.8a.9.9,0,0,0-.276,0,15.192,15.192,0,0,0-1.878.442Z" transform="translate(24.867 -38.86)" fill="#d4b49f"/>
        <path id="Trazado_108709" data-name="Trazado 108709" d="M93.31,118.39l.124.124S93.379,118.4,93.31,118.39Z" transform="translate(24.794 -38.704)" fill="#d4b49f"/>
        <path id="Trazado_108710" data-name="Trazado 108710" d="M68.93,136.393a20.326,20.326,0,0,0,1.519,2.693h0a5.094,5.094,0,0,0,.718.939l.483.359h0l.331.249h0a5.758,5.758,0,0,1,1.505,1.7c.939,1.547,4,8.507,5.621,10.551s5.386,5.773,7.016,5.648,8.051-5.345,10.3-7.554a91.021,91.021,0,0,0,5.966-6.905h0l-.11-.152h0l-1.422-1.851h0a68.829,68.829,0,0,0-5.925-6.712,51.549,51.549,0,0,0-6.574,8.093c-.47.787-.884,1.381-1.229,1.92a6.34,6.34,0,0,1-1.712,1.92A26.929,26.929,0,0,1,82.4,144.1a19.651,19.651,0,0,1-3.48-5.275,7.112,7.112,0,0,1,.152-1.989,23.962,23.962,0,0,0,.483-3.756,7.319,7.319,0,0,0-1.588-3.024,6.3,6.3,0,0,0-2.279-.166v-.11l-.414-.552a6.9,6.9,0,0,0-.815-.207,2.513,2.513,0,0,0-1.146,0,1.864,1.864,0,0,0-.87.773,1.949,1.949,0,0,0-.138.249.58.58,0,0,0-.456-.124h-.152c-.387.11-.787,1.132-.87,1.381s-.276,1.271-.373,1.809v.29a1.146,1.146,0,0,0-.193.18,3.411,3.411,0,0,0-.525.7,2.61,2.61,0,0,0-.29.8.981.981,0,0,0-.249.221C68.433,135.8,68.861,136.117,68.93,136.393Z" transform="translate(15.436 -34.68)" fill="url(#linear-gradient-4)"/>
        <path id="Trazado_108711" data-name="Trazado 108711" d="M70,136.29a5.094,5.094,0,0,0,.718.939l.483.359-.166-.152A13.6,13.6,0,0,1,70,136.29Z" transform="translate(15.913 -31.884)" fill="#d4b49f"/>
        <path id="Trazado_108712" data-name="Trazado 108712" d="M72.8,129a1.036,1.036,0,0,0,.124.4c.11.166.276.276.387.456a2.031,2.031,0,0,1,.18.511,4.627,4.627,0,0,0,1.7,1.989l.387.3a2.651,2.651,0,0,0-.47-.69,5.911,5.911,0,0,1-.994-1.712,1.257,1.257,0,0,1-.083-.5l-.414-.552A6.9,6.9,0,0,0,72.8,129Z" transform="translate(16.98 -34.662)" fill="#d4b49f"/>
        <path id="Trazado_108713" data-name="Trazado 108713" d="M71.05,130.539c0,.3.235,1.215.746.842a.193.193,0,0,0,0-.124,4.143,4.143,0,0,1-.331-1.657h0a1.945,1.945,0,0,0-.138.249.58.58,0,0,0-.456-.124A1.236,1.236,0,0,1,71.05,130.539Z" transform="translate(16.244 -34.433)" fill="#d4b49f"/>
        <path id="Trazado_108714" data-name="Trazado 108714" d="M69.913,132.194a1.148,1.148,0,0,0-.193.18,1.038,1.038,0,0,0,.1.166.221.221,0,0,0,.318,0,4.955,4.955,0,0,1-.166-.649A2,2,0,0,0,69.913,132.194Z" transform="translate(15.806 -33.56)" fill="#d4b49f"/>
        <path id="Trazado_108715" data-name="Trazado 108715" d="M69,133.787a.8.8,0,0,0,.193.331s.1.083.152,0,0-.069,0-.1c0-.442.124-.87.152-1.312a2.61,2.61,0,0,0-.29.8A.981.981,0,0,0,69,133.787Z" transform="translate(15.532 -33.248)" fill="#d4b49f"/>
        <path id="Trazado_108716" data-name="Trazado 108716" d="M92.793,128.9c1.381-1.188,2.969-2.942,6.035-1.892,2.362.787,7.623,6.518,6.076,11.048s-17.953,19.762-17.953,19.762a22.014,22.014,0,0,1-6.146-4.613c-3.591-3.577.525-4.6.5-4.709s9.142-15.191,9.667-16.379A32.146,32.146,0,0,1,92.793,128.9Z" transform="translate(19.47 -35.543)" fill="#75c8ff"/>
        <path id="Trazado_108717" data-name="Trazado 108717" d="M78.417,136.882c-.746-.732-4.764.787-5.8,2.375s0,2.458,0,2.458S77.962,154.5,83.665,156.23c2.638.594,5.524-1.726,6.146-2.265s-4.143-9.86-4.53-10.054S78.417,136.882,78.417,136.882Z" transform="translate(16.735 -31.73)" fill="#75c8ff"/>
      </g>
    </g>
  </g>
</svg>
