<svg xmlns="http://www.w3.org/2000/svg" width="135" height="135" viewBox="0 0 135 135">
  <g id="Grupo_124650" data-name="Grupo 124650" transform="translate(8138 6213)">
    <circle id="Elipse_5179" data-name="Elipse 5179" cx="67.5" cy="67.5" r="67.5" transform="translate(-8138 -6213)" fill="#bf3976"/>
    <g id="fashion" transform="translate(-8138.028 -6215.528)">
      <path id="Trazado_107966" data-name="Trazado 107966" d="M202.937,179.473h-3.959a6.055,6.055,0,0,1-6.033-6.028,4.231,4.231,0,0,0-1.2-2.993,4.682,4.682,0,0,0-3.4-1.321h-.023A4.325,4.325,0,0,0,184,173.445v6.028H167.741a4.37,4.37,0,0,0-4.421,4.315,4.32,4.32,0,0,0,4.315,4.315h8.343v14.644a4.32,4.32,0,0,0,4.315,4.315h8.786a1.155,1.155,0,1,0,0-2.31h-4.842a4.3,4.3,0,0,0-.825-5.108,4.29,4.29,0,0,0,.63-5.737A4.314,4.314,0,0,0,182,185.792H167.635a2.009,2.009,0,0,1-2-2.125v-.014a2.068,2.068,0,0,1,2.107-1.871h17.416a1.152,1.152,0,0,0,1.155-1.155v-7.183a2.015,2.015,0,0,1,2-2,2.408,2.408,0,0,1,1.779.633,1.927,1.927,0,0,1,.54,1.372,8.35,8.35,0,0,0,8.343,8.338h3.959a1.155,1.155,0,0,0,0-2.31Zm-24.65,8.629H182a2,2,0,0,1,0,4.01h-3.712Zm0,6.319h2.259a2.007,2.007,0,1,1-.127,4.01h-2.132Zm0,6.319h2.132a2,2,0,1,1,0,4.01h-.127a2.012,2.012,0,0,1-2-2V200.74Z" transform="translate(-88.668 -92.949)" fill="#fff"/>
      <path id="Trazado_107967" data-name="Trazado 107967" d="M237.735,248.55h4.62a1.155,1.155,0,0,0,0-2.31h-4.62a1.155,1.155,0,1,0,0,2.31Z" transform="translate(-128.085 -134.438)" fill="#fff"/>
      <circle id="Elipse_5157" data-name="Elipse 5157" cx="1.155" cy="1.155" r="1.155" transform="translate(103.875 111.802)" fill="#fff"/>
      <path id="Trazado_107968" data-name="Trazado 107968" d="M225.617,208.628h.022a1.155,1.155,0,0,0,.021-2.309c-6.194-.114-7.422-3.894-7.477-4.076a1.155,1.155,0,0,0-2.222.63C216.024,203.1,217.616,208.48,225.617,208.628Z" transform="translate(-116.968 -110.315)" fill="#fff"/>
      <path id="Trazado_107969" data-name="Trazado 107969" d="M227.676,228.3a1.152,1.152,0,0,0-1.173-1.136c-6.487.1-8.516,2.683-8.726,2.976a1.166,1.166,0,0,0,.26,1.622,1.143,1.143,0,0,0,1.6-.257c.016-.019,1.6-1.949,6.9-2.032A1.154,1.154,0,0,0,227.676,228.3Z" transform="translate(-117.851 -124.172)" fill="#fff"/>
      <path id="Trazado_107970" data-name="Trazado 107970" d="M42.91,183.528a1.155,1.155,0,0,0,1.155,1.155h7.853a1.155,1.155,0,1,0,0-2.31h-6.7v-6.7a1.155,1.155,0,1,0-2.31,0Z" transform="translate(-23.881 -95.849)" fill="#fff"/>
      <path id="Trazado_107971" data-name="Trazado 107971" d="M191.09,60.635a1.155,1.155,0,0,0,1.155,1.155h6.7v6.7a1.155,1.155,0,1,0,2.31,0V60.635A1.155,1.155,0,0,0,200.1,59.48h-7.853a1.155,1.155,0,0,0-1.155,1.155Z" transform="translate(-103.61 -33.951)" fill="#fff"/>
      <path id="Trazado_107972" data-name="Trazado 107972" d="M42.91,126.712a1.155,1.155,0,1,0,2.31,0V124.4a1.155,1.155,0,1,0-2.31,0Z" transform="translate(-23.881 -68.261)" fill="#fff"/>
      <path id="Trazado_107973" data-name="Trazado 107973" d="M42.91,141.712a1.155,1.155,0,1,0,2.31,0V139.4a1.155,1.155,0,1,0-2.31,0Z" transform="translate(-23.881 -76.332)" fill="#fff"/>
      <path id="Trazado_107974" data-name="Trazado 107974" d="M44.065,97.867a1.155,1.155,0,0,0,1.155-1.155V94.4a1.155,1.155,0,1,0-2.31,0v2.31A1.155,1.155,0,0,0,44.065,97.867Z" transform="translate(-23.881 -52.12)" fill="#fff"/>
      <path id="Trazado_107975" data-name="Trazado 107975" d="M42.91,111.712a1.155,1.155,0,1,0,2.31,0V109.4a1.155,1.155,0,1,0-2.31,0Z" transform="translate(-23.881 -60.191)" fill="#fff"/>
      <path id="Trazado_107976" data-name="Trazado 107976" d="M42.91,156.712a1.155,1.155,0,0,0,2.31,0V154.4a1.155,1.155,0,0,0-2.31,0Z" transform="translate(-23.881 -84.403)" fill="#fff"/>
      <path id="Trazado_107977" data-name="Trazado 107977" d="M210.4,93.908a1.155,1.155,0,1,0-2.31,0v2.31a1.155,1.155,0,1,0,2.31,0Z" transform="translate(-112.759 -51.854)" fill="#fff"/>
      <path id="Trazado_107978" data-name="Trazado 107978" d="M210.4,138.908a1.155,1.155,0,0,0-2.31,0v2.31a1.155,1.155,0,1,0,2.31,0Z" transform="translate(-112.759 -76.066)" fill="#fff"/>
      <path id="Trazado_107979" data-name="Trazado 107979" d="M210.4,108.908a1.155,1.155,0,1,0-2.31,0v2.31a1.155,1.155,0,1,0,2.31,0Z" transform="translate(-112.759 -59.925)" fill="#fff"/>
      <path id="Trazado_107980" data-name="Trazado 107980" d="M209.249,152.753a1.155,1.155,0,0,0-1.155,1.155v2.31a1.155,1.155,0,1,0,2.31,0v-2.31A1.155,1.155,0,0,0,209.249,152.753Z" transform="translate(-112.759 -84.137)" fill="#fff"/>
      <path id="Trazado_107981" data-name="Trazado 107981" d="M210.4,123.908a1.155,1.155,0,1,0-2.31,0v2.31a1.155,1.155,0,1,0,2.31,0Z" transform="translate(-112.759 -67.995)" fill="#fff"/>
      <path id="Trazado_107982" data-name="Trazado 107982" d="M103.248,191.52a1.155,1.155,0,1,0,0,2.31h2.31a1.155,1.155,0,1,0,0-2.31Z" transform="translate(-55.725 -104.996)" fill="#fff"/>
      <path id="Trazado_107983" data-name="Trazado 107983" d="M73.248,191.52a1.155,1.155,0,1,0,0,2.31h2.31a1.155,1.155,0,1,0,0-2.31Z" transform="translate(-39.583 -104.996)" fill="#fff"/>
      <path id="Trazado_107984" data-name="Trazado 107984" d="M88.248,191.52a1.155,1.155,0,1,0,0,2.31h2.31a1.155,1.155,0,1,0,0-2.31Z" transform="translate(-47.654 -104.996)" fill="#fff"/>
      <path id="Trazado_107985" data-name="Trazado 107985" d="M148.248,191.52a1.155,1.155,0,0,0,0,2.31h2.31a1.155,1.155,0,1,0,0-2.31Z" transform="translate(-79.937 -104.996)" fill="#fff"/>
      <path id="Trazado_107986" data-name="Trazado 107986" d="M118.248,191.52a1.155,1.155,0,1,0,0,2.31h2.31a1.155,1.155,0,1,0,0-2.31Z" transform="translate(-63.796 -104.996)" fill="#fff"/>
      <path id="Trazado_107987" data-name="Trazado 107987" d="M133.248,191.52a1.155,1.155,0,0,0,0,2.31h2.31a1.155,1.155,0,1,0,0-2.31Z" transform="translate(-71.866 -104.996)" fill="#fff"/>
      <path id="Trazado_107988" data-name="Trazado 107988" d="M101.508,61.79a1.155,1.155,0,1,0,0-2.31H99.2a1.155,1.155,0,1,0,0,2.31Z" transform="translate(-53.546 -33.951)" fill="#fff"/>
      <path id="Trazado_107989" data-name="Trazado 107989" d="M176.508,61.79a1.155,1.155,0,0,0,0-2.31H174.2a1.155,1.155,0,0,0,0,2.31Z" transform="translate(-93.899 -33.951)" fill="#fff"/>
      <path id="Trazado_107990" data-name="Trazado 107990" d="M161.508,61.79a1.155,1.155,0,0,0,0-2.31H159.2a1.155,1.155,0,0,0,0,2.31Z" transform="translate(-85.829 -33.951)" fill="#fff"/>
      <path id="Trazado_107991" data-name="Trazado 107991" d="M116.508,61.79a1.155,1.155,0,1,0,0-2.31H114.2a1.155,1.155,0,1,0,0,2.31Z" transform="translate(-61.616 -33.951)" fill="#fff"/>
      <path id="Trazado_107992" data-name="Trazado 107992" d="M146.508,61.79a1.155,1.155,0,1,0,0-2.31H144.2a1.155,1.155,0,0,0,0,2.31Z" transform="translate(-77.758 -33.951)" fill="#fff"/>
      <path id="Trazado_107993" data-name="Trazado 107993" d="M131.508,61.79a1.155,1.155,0,0,0,0-2.31H129.2a1.155,1.155,0,0,0,0,2.31Z" transform="translate(-69.687 -33.951)" fill="#fff"/>
      <path id="Trazado_107994" data-name="Trazado 107994" d="M116.6,121.922V96.954h5.04a2.081,2.081,0,0,0,2.079-2.079V85.428a2.081,2.081,0,0,0-2.079-2.079h-5.851V77.494a2.088,2.088,0,0,0-2.083-2.074h-13.4a2.088,2.088,0,0,0-2.083,2.074A4.445,4.445,0,0,1,93.7,82.132a4.524,4.524,0,0,1-4.342-4.606v-.032a2.08,2.08,0,0,0-2.074-2.074H73.869a2.087,2.087,0,0,0-2.079,2.074v9.447a2.1,2.1,0,0,0,2.079,2.083h5.049v24.968a2.074,2.074,0,0,0,2.074,2.074h5.855v5.855A2.081,2.081,0,0,0,88.926,124h25.6A2.081,2.081,0,0,0,116.6,121.922Zm-2.31-.231H89.157v-5.624h17.436a2.085,2.085,0,0,0,2.083-2.074V103.511a1.155,1.155,0,1,0-2.31,0v10.251H81.223V88.793a2.076,2.076,0,0,0-2.079-2.079H74.1V77.73H87.057a6.84,6.84,0,0,0,6.731,6.712,6.743,6.743,0,0,0,6.744-6.712h12.949v6.752c0,.007,0,.015,0,.022s0,.015,0,.022v2.188h-5.04a2.075,2.075,0,0,0-2.074,2.079v5.479a1.155,1.155,0,1,0,2.31,0V89.024h5.031a2.1,2.1,0,0,0,2.083-2.083V85.659h5.62v8.985h-5.04a2.081,2.081,0,0,0-2.079,2.079Z" transform="translate(-39.42 -42.528)" fill="#fff"/>
      <path id="Trazado_107995" data-name="Trazado 107995" d="M147.79,123.73a1.155,1.155,0,1,0,1.16,1.155,1.154,1.154,0,0,0-1.16-1.155Z" transform="translate(-79.693 -68.521)" fill="#fff"/>
    </g>
  </g>
</svg>
