<svg xmlns="http://www.w3.org/2000/svg" width="100" height="100" viewBox="0 0 100 100">
  <g id="Grupo_124683" data-name="Grupo 124683" transform="translate(-7409 8695)">
    <g id="Grupo_124676" data-name="Grupo 124676" transform="translate(7408.886 -8695.313)">
      <circle id="Elipse_5151" data-name="Elipse 5151" cx="50" cy="50" r="50" transform="translate(0.114 0.313)" fill="#bf3976"/>
    </g>
    <g id="pattern_1_" data-name="pattern (1)" transform="translate(7404.365 -8676)">
      <path id="Trazado_108266" data-name="Trazado 108266" d="M184.27,12.736a.908.908,0,0,0,.908-.908v-9.1a.909.909,0,0,1,.908-.908h6.985a.909.909,0,0,0,0-1.817h-6.985a2.729,2.729,0,0,0-2.725,2.725v9.1a.909.909,0,0,0,.909.909Z" transform="translate(-137.747 0)" fill="#fff"/>
      <path id="Trazado_108267" data-name="Trazado 108267" d="M313.209,0H293.5a.908.908,0,1,0,0,1.817h16.34V2a.908.908,0,0,0,1.817,0V1.817h1.553a.909.909,0,0,1,.908.908V26.97a.914.914,0,0,1-.355.72L310.4,30.277a20.434,20.434,0,0,0-7.981,16.2v2.788a.908.908,0,0,0,1.817,0V46.478a18.733,18.733,0,0,1,7.271-14.76l3.365-2.587a2.742,2.742,0,0,0,1.064-2.161V2.725A2.728,2.728,0,0,0,313.209,0Z" transform="translate(-233.75)" fill="#fff"/>
      <path id="Trazado_108268" data-name="Trazado 108268" d="M69.576,110.536a.908.908,0,0,0-.908.908v5.563a.909.909,0,0,1-.908.908H51.886v-.805a.908.908,0,0,0-1.817,0v.805h-1.73a.909.909,0,0,1-.908-.908V97.485H62.255a1.855,1.855,0,0,0,1.853-1.853V80.241a13.085,13.085,0,0,1,2.2-7.271l3.2-4.816a1.588,1.588,0,0,0-1.322-2.467H53.755A1.855,1.855,0,0,0,51.9,67.54a5.776,5.776,0,0,1-5.769,5.769H41.047a5.776,5.776,0,0,1-5.769-5.769,1.855,1.855,0,0,0-1.853-1.853H28.488a1.855,1.855,0,0,0-1.853,1.853V95.632a1.855,1.855,0,0,0,1.853,1.853H45.613v19.523a2.729,2.729,0,0,0,2.725,2.725H67.758a2.729,2.729,0,0,0,2.725-2.725v-5.563A.908.908,0,0,0,69.576,110.536Zm-41.123-14.9V67.54a.036.036,0,0,1,.036-.036h4.937a.036.036,0,0,1,.036.036,7.6,7.6,0,0,0,7.586,7.586h5.086a7.6,7.6,0,0,0,7.586-7.586.036.036,0,0,1,.036-.036h8.634l-.187.346a.908.908,0,1,0,1.569.916l.736-1.262h3.253l-2.967,4.459a14.9,14.9,0,0,0-2.5,8.278V95.632a.036.036,0,0,1-.036.036H28.488A.036.036,0,0,1,28.452,95.632Z" transform="translate(0 -57.733)" fill="#fff"/>
      <path id="Trazado_108269" data-name="Trazado 108269" d="M435.934,52.659a.908.908,0,0,0,.908-.908v-3.7a.908.908,0,0,0-1.817,0v3.7A.909.909,0,0,0,435.934,52.659Z" transform="translate(-358.937 -41.438)" fill="#fff"/>
      <path id="Trazado_108270" data-name="Trazado 108270" d="M435.026,120.411a.908.908,0,1,0,1.817,0v-3.7a.908.908,0,0,0-1.817,0Z" transform="translate(-358.937 -101.783)" fill="#fff"/>
      <path id="Trazado_108271" data-name="Trazado 108271" d="M435.026,189.07a.908.908,0,0,0,1.817,0v-3.7a.908.908,0,1,0-1.817,0Z" transform="translate(-358.937 -162.128)" fill="#fff"/>
      <path id="Trazado_108272" data-name="Trazado 108272" d="M221.969,342.5a.908.908,0,0,0-1.817,0v3.8a.908.908,0,0,0,1.817,0Z" transform="translate(-170.083 -300.224)" fill="#fff"/>
      <path id="Trazado_108273" data-name="Trazado 108273" d="M221.06,412.216a.908.908,0,0,0-.908.908v3.8a.908.908,0,0,0,1.817,0v-3.8A.908.908,0,0,0,221.06,412.216Z" transform="translate(-170.083 -362.299)" fill="#fff"/>
      <path id="Trazado_108274" data-name="Trazado 108274" d="M59.062,275.257H55.185a.908.908,0,0,0,0,1.817h3.876a.908.908,0,0,0,0-1.817Z" transform="translate(-24.295 -241.925)" fill="#fff"/>
      <path id="Trazado_108275" data-name="Trazado 108275" d="M131.085,275.257h-3.876a.908.908,0,0,0,0,1.817h3.876a.908.908,0,0,0,0-1.817Z" transform="translate(-87.596 -241.925)" fill="#fff"/>
      <path id="Trazado_108276" data-name="Trazado 108276" d="M292.211,114.826a.908.908,0,0,0-1.2.451,19.478,19.478,0,0,0-1.286,3.85.909.909,0,1,0,1.774.393,17.666,17.666,0,0,1,1.166-3.49A.909.909,0,0,0,292.211,114.826Z" transform="translate(-231.21 -100.85)" fill="#fff"/>
      <path id="Trazado_108277" data-name="Trazado 108277" d="M286.978,184.8a.908.908,0,0,0-.908.908v3.876a.908.908,0,0,0,1.817,0v-3.876A.908.908,0,0,0,286.978,184.8Z" transform="translate(-228.019 -162.423)" fill="#fff"/>
      <path id="Trazado_108278" data-name="Trazado 108278" d="M203.109,275.257h-3.876a.908.908,0,0,0,0,1.817h3.876a.908.908,0,1,0,0-1.817Z" transform="translate(-150.899 -241.925)" fill="#fff"/>
      <path id="Trazado_108279" data-name="Trazado 108279" d="M273.161,256.824a.909.909,0,0,0-.908.908v1.324h-1a.908.908,0,0,0,0,1.817h1.3a1.516,1.516,0,0,0,1.514-1.514v-1.626A.908.908,0,0,0,273.161,256.824Z" transform="translate(-214.202 -225.724)" fill="#fff"/>
    </g>
  </g>
</svg>
